<svg width="158" height="53" viewBox="0 0 158 53" fill="none" xmlns="http://www.w3.org/2000/svg">
<path d="M46.7334 15.1365L49.9971 19.878L52.06 16.8418L48.7398 12.1459L46.7334 15.1365Z" fill="#009FE3"/>
<path d="M55.2772 12.0907V12.0856L51.9622 7.34418L51.957 7.3543L53.9583 10.2083L55.2772 12.0907Z" fill="#009FE3"/>
<path d="M43.5155 19.929L41.4424 23.0157L44.6599 27.7622L46.7895 24.6198L43.5155 19.929Z" fill="#009FE3"/>
<path d="M38.2353 27.7973L22.4658 51.292H28.7161L41.4528 32.4932L40.8011 31.5368L38.2353 27.7973Z" fill="#009FE3"/>
<path d="M57.4482 15.1973L60.7684 19.9387L60.7735 19.9337L57.4533 15.1923L57.4482 15.1973Z" fill="#009FE3"/>
<path d="M43.7617 35.8586L33.5293 51.2923H39.7847L46.9741 40.5494L43.7617 35.8586Z" fill="#009FE3"/>
<path d="M54.2816 19.9743L52.2188 23.0965L55.4876 27.8379H55.4824L57.6018 24.6652L57.2682 24.1946L54.2816 19.9743Z" fill="#009FE3"/>
<path d="M46.918 31.0915V31.0965V31.0915L48.3651 33.2269L50.1304 35.838L52.3267 32.5539L49.0527 27.8681L46.918 31.0915Z" fill="#009FE3"/>
<path d="M46.2456 0.59375C46.2096 0.603913 46.1787 0.619162 46.1426 0.629325C46.1735 0.619162 46.2044 0.603913 46.2456 0.59375Z" fill="#009FE3"/>
<path d="M41.3139 7.28337L44.5776 12.0147V12.0197L46.5789 9.09999L43.2537 4.39905L38.1426 11.9236L41.3139 7.28337Z" fill="#009FE3"/>
<path d="M41.3137 16.7814L39.4457 14.1045L38.0345 12.0804L36.0332 15.0255L39.2559 19.7821L41.3137 16.7814Z" fill="#009FE3"/>
<path d="M47.9393 1.61086L49.8482 4.33832V4.33325L47.9444 1.61086C47.7289 1.30218 47.3594 0.563385 46.5435 0.563385C46.4357 0.563385 46.3382 0.573509 46.251 0.59881C46.3433 0.578569 46.4357 0.568442 46.5383 0.568442C47.3543 0.563382 47.7237 1.30218 47.9393 1.61086Z" fill="#009FE3"/>
<path d="M32.7706 19.8275L11.3975 51.292H17.658L35.9984 24.5335L34.2947 22.0439L32.7706 19.8275Z" fill="#009FE3"/>
<path d="M30.4812 16.4929L27.2124 11.716L0.333008 51.292H6.58844L30.4812 16.4929Z" fill="#009FE3"/>
<path d="M30.2051 7.91074C30.1175 7.93106 30.0402 7.96155 29.9629 7.99712C30.0402 7.96663 30.1175 7.93614 30.2051 7.91074Z" fill="#009FE3"/>
<path d="M30.5015 7.87527C31.3174 7.87527 31.6869 8.61913 31.9024 8.91768L33.6215 11.4529L31.9075 8.91262C31.692 8.61407 31.3225 7.87527 30.5015 7.87527C30.3989 7.87527 30.3014 7.88539 30.209 7.90563C30.3014 7.89045 30.3937 7.87527 30.5015 7.87527Z" fill="#009FE3"/>
<path d="M46.9795 40.5492L54.3433 51.2921H60.5988L50.1303 35.8382L48.1905 38.7377L46.9795 40.5492Z" fill="#D7007F"/>
<path d="M41.4427 23.0156L39.2566 19.7821V19.7872L35.998 24.5337L38.2355 27.7975L39.7236 25.5761L41.4427 23.0156Z" fill="#D7007F"/>
<path d="M44.6594 27.762L41.4521 32.4933L43.7614 35.8584L46.9173 31.0917L44.6594 27.762Z" fill="#D7007F"/>
<path d="M36.0336 15.0256L33.6166 11.4632L33.6525 11.5138L33.75 11.6606L33.7603 11.6707L33.7757 11.696L30.4863 16.4931L32.7699 19.8278L33.5551 18.669L36.0336 15.0256Z" fill="#D7007F"/>
<path d="M29.1065 8.92289C29.1578 8.8571 29.2194 8.76096 29.2861 8.6547C29.3374 8.57879 29.3939 8.50288 29.4554 8.42698C29.4657 8.4118 29.476 8.40169 29.4862 8.38651C29.3169 8.58891 29.1937 8.80144 29.1065 8.92289L27.4336 11.3872L29.1065 8.92289Z" fill="#D7007F"/>
<path d="M29.7798 8.11295C29.785 8.11295 29.785 8.10786 29.7798 8.11295C29.6716 8.18409 29.5737 8.28064 29.4912 8.37719C29.4964 8.37211 29.5118 8.36194 29.517 8.35686C29.5994 8.27047 29.6819 8.18409 29.7798 8.11295Z" fill="#D7007F"/>
<path d="M29.9636 7.99673C29.9121 8.02214 29.8657 8.05771 29.8193 8.0882C29.8193 8.0882 29.8245 8.0882 29.8297 8.08312C29.876 8.05263 29.9173 8.02214 29.9636 7.99673Z" fill="#D7007F"/>
<path d="M41.4424 23.0154L44.6599 27.7619L41.4424 23.0154Z" fill="#D7007F"/>
<path d="M38.2354 27.7973L39.7286 25.5759L38.2354 27.7973L40.8012 31.5368L38.2354 27.7973Z" fill="#D7007F"/>
<path d="M46.9179 31.0969V31.0919L43.7568 35.8586L46.9179 31.0969Z" fill="#D7007F"/>
<path d="M50.1302 35.8383L48.1904 38.7428L50.1302 35.8383L48.3598 33.2272L50.1302 35.8383Z" fill="#D7007F"/>
<path d="M39.2559 19.7821L36.0332 15.0305L39.2559 19.7821Z" fill="#D7007F"/>
<path d="M32.7695 19.8273L33.5598 18.6685L32.7695 19.8273L34.2936 22.0437L32.7695 19.8273Z" fill="#D7007F"/>
<path d="M31.898 8.92278C31.6825 8.61916 31.313 7.88037 30.4971 7.88037C31.3181 7.88037 31.6876 8.61916 31.898 8.92278Z" fill="#D7007F"/>
<path d="M29.2852 8.65547C29.3315 8.58433 29.3934 8.50301 29.4552 8.42679C29.3985 8.50301 29.3367 8.58433 29.2852 8.65547Z" fill="#D7007F"/>
<path d="M31.8975 8.92285L33.6525 11.5187L33.6166 11.458L31.8975 8.92285Z" fill="#D7007F"/>
<path d="M30.1995 7.91074C30.1123 7.93098 30.0353 7.96134 29.9635 7.99676C29.9122 8.017 29.8711 8.05242 29.8301 8.08278C29.9378 8.01194 30.061 7.95122 30.1995 7.91074Z" fill="#D7007F"/>
<path d="M33.7606 11.6703L33.776 11.6956L30.4814 16.4877L33.776 11.6956L33.7606 11.6703Z" fill="#D7007F"/>
<path d="M29.5215 8.35702C29.5988 8.27063 29.6812 8.18932 29.7843 8.1131C29.6812 8.18424 29.5936 8.26555 29.5215 8.35702Z" fill="#D7007F"/>
<path d="M45.8208 0.796041C45.8208 0.796041 45.826 0.796036 45.826 0.790955C45.7126 0.872261 45.6198 0.96373 45.5322 1.06028C45.5374 1.0552 45.5477 1.05012 45.5528 1.03996C45.6353 0.953571 45.7229 0.872266 45.8208 0.796041Z" fill="#D7007F"/>
<path d="M54.2815 19.9743L57.4478 15.1975L55.2771 12.0905L52.0596 16.837L54.2815 19.9743Z" fill="#D7007F"/>
<path d="M48.7395 12.1464L51.9571 7.35433L49.848 4.33844L46.5791 9.1001L48.7395 12.1464Z" fill="#D7007F"/>
<path d="M46.1389 0.634186C46.0358 0.669757 45.9379 0.715495 45.8555 0.771393C45.8555 0.771393 45.8606 0.771388 45.8658 0.766306C45.9534 0.710408 46.041 0.664676 46.1389 0.634186Z" fill="#D7007F"/>
<path d="M57.6064 24.6653L76.46 51.2972H82.7154L60.7675 19.939L57.6064 24.6653Z" fill="#D7007F"/>
<path d="M45.1468 1.60593C45.1981 1.53509 45.2596 1.43894 45.3315 1.32762C45.3777 1.26184 45.4341 1.18594 45.4906 1.11003C45.5008 1.09485 45.5111 1.08473 45.5214 1.06955C45.3469 1.27196 45.2288 1.48449 45.1365 1.60593L43.248 4.39918L43.4328 4.12086L45.1468 1.60593Z" fill="#D7007F"/>
<path d="M53.9583 10.2078L51.957 7.34882L53.9583 10.2078Z" fill="#D7007F"/>
<path d="M54.2812 19.9741L57.4475 15.1972L54.2812 19.9741Z" fill="#D7007F"/>
<path d="M60.7681 19.939L57.607 24.6653L57.2734 24.1947L57.607 24.6653L60.7681 19.939Z" fill="#D7007F"/>
<path d="M45.5576 1.04C45.6349 0.953611 45.7174 0.872306 45.8204 0.796082C45.7225 0.872306 45.6349 0.953611 45.5576 1.04Z" fill="#D7007F"/>
<path d="M46.2408 0.59375C46.2049 0.60387 46.1741 0.619055 46.1382 0.629175C46.0407 0.664597 45.9483 0.710136 45.8662 0.760738C45.9791 0.694955 46.0971 0.629172 46.2408 0.59375Z" fill="#D7007F"/>
<path d="M45.332 1.33341C45.3784 1.26227 45.4351 1.19112 45.4918 1.1149C45.4351 1.18604 45.3784 1.26227 45.332 1.33341Z" fill="#D7007F"/>
<path d="M55.2768 12.0905L53.958 10.2081L55.2768 12.0905Z" fill="#281E69"/>
<path d="M48.7402 12.1459L52.0604 16.8368L48.7402 12.1459Z" fill="#281E69"/>
<path d="M52.0596 16.837L55.2719 12.0905L52.0596 16.837Z" fill="#281E69"/>
<path d="M51.9578 7.35425L48.7402 12.1463L51.9578 7.35425Z" fill="#281E69"/>
<path d="M52.0604 16.8371L55.2728 12.0906L53.9591 10.2082L51.9578 7.35425L48.7402 12.1463L52.0604 16.8371Z" fill="#281E69"/>
<path d="M54.2812 19.9743L57.2678 24.1946L54.2812 19.9743Z" fill="#281E69"/>
<path d="M57.4482 15.1972L60.7684 19.9387L57.4482 15.1972Z" fill="#281E69"/>
<path d="M54.2812 19.9741L57.2679 24.1943L57.6014 24.6649L60.7676 19.9387L57.4475 15.1972L54.2812 19.9741Z" fill="#281E69"/>
<path d="M38.0352 12.0808L38.1434 11.9182L38.0352 12.0808Z" fill="#D7007F"/>
<path d="M41.3135 16.781L43.5098 19.9285L46.7273 15.1364L44.5772 12.0193L43.2532 13.9524L41.3135 16.781Z" fill="#D7007F"/>
<path d="M65.4015 51.2918H71.657L55.4821 27.8376L52.3262 32.5537L65.4015 51.2918Z" fill="#D7007F"/>
<path d="M49.9973 19.8831L46.79 24.6195L49.0531 27.8681L49.8382 26.6841L52.2142 23.0964L49.9973 19.8831Z" fill="#D7007F"/>
<path d="M43.5156 19.929L46.7896 24.6198L43.5156 19.929Z" fill="#D7007F"/>
<path d="M52.3267 32.5537L49.0527 27.868L49.8379 26.6839L49.0527 27.868L52.3267 32.5537L55.4827 27.8376L52.3267 32.5537Z" fill="#D7007F"/>
<path d="M44.5779 12.0193L43.2539 13.9524L44.5779 12.0193Z" fill="#D7007F"/>
<path d="M38.0352 12.0805L41.3091 7.27835L38.1429 11.9186L38.0352 12.0805L39.4463 14.1046L38.0352 12.0805Z" fill="#D7007F"/>
<path d="M45.8242 0.790445C45.8343 0.78549 45.8443 0.775585 45.8544 0.77063C45.8493 0.775585 45.8343 0.78549 45.8242 0.790445Z" fill="#281E69"/>
<path d="M45.5273 1.07028C45.5273 1.07028 45.5329 1.06479 45.5385 1.0593C45.5329 1.06479 45.5273 1.07028 45.5273 1.07028Z" fill="#281E69"/>
<path d="M46.5785 9.09999L43.248 4.39905L46.5785 9.09999Z" fill="#281E69"/>
<path d="M46.5391 0.558258C46.4309 0.558258 46.3382 0.573502 46.2506 0.588747C46.2454 0.588747 46.2454 0.588747 46.2402 0.588747C46.333 0.573502 46.4309 0.558258 46.5391 0.558258Z" fill="#281E69"/>
<path d="M49.8484 4.33333L47.9395 1.60587L49.8484 4.33333Z" fill="#281E69"/>
<path d="M45.1426 1.60683C45.1993 1.54077 45.2559 1.43914 45.3332 1.33243C45.2611 1.43914 45.1993 1.54077 45.1426 1.60683Z" fill="#281E69"/>
<path d="M45.8694 0.765717C45.8694 0.765717 45.8644 0.765721 45.8594 0.770676C45.8493 0.775631 45.8393 0.785537 45.8292 0.790491C45.8292 0.790491 45.8242 0.790496 45.8242 0.795451C45.8343 0.785541 45.8544 0.775626 45.8694 0.765717Z" fill="#281E69"/>
<path d="M45.5569 1.03897C45.5518 1.04397 45.5366 1.05395 45.5366 1.05895C45.5316 1.05895 45.5316 1.06394 45.5265 1.06894C45.5113 1.08392 45.5062 1.09391 45.4961 1.11389C45.5164 1.08892 45.5366 1.06394 45.5569 1.03897Z" fill="#281E69"/>
<path d="M45.1468 1.60587L43.4379 4.1208L43.248 4.39911L45.1468 1.60587Z" fill="#281E69"/>
<path d="M46.5791 9.1001L49.848 4.33844L46.5791 9.1001Z" fill="#281E69"/>
<path d="M47.9388 1.61086C47.7284 1.30218 47.3538 0.563385 46.543 0.563385C46.4353 0.563385 46.3378 0.573509 46.2454 0.59881C46.1017 0.634232 45.9837 0.694953 45.8708 0.770856C45.8554 0.780977 45.8349 0.791096 45.8195 0.801216C45.722 0.872059 45.6347 0.958081 45.5629 1.0441C45.5424 1.06435 45.5167 1.09471 45.4962 1.12001C45.4346 1.19086 45.3833 1.26676 45.3371 1.3376C45.2652 1.44386 45.2037 1.54507 45.1524 1.61086L43.2588 4.40409L46.5841 9.10505L49.8529 4.34337L47.9388 1.61086Z" fill="#281E69"/>
<path d="M39.4463 14.1045L41.3142 16.7814L41.3193 16.7763L39.4463 14.1045Z" fill="#281E69"/>
<path d="M44.5772 12.0198L41.3135 7.27835V7.28341L44.5772 12.0198Z" fill="#281E69"/>
<path d="M41.3135 16.7812L43.2532 13.9525L41.3135 16.7812Z" fill="#281E69"/>
<path d="M43.254 13.9525L44.578 12.0195L41.3091 7.28311L38.0352 12.0802L39.4463 14.1043L41.3143 16.7812L43.254 13.9525Z" fill="#281E69"/>
<path d="M46.7275 15.1419L49.9964 19.8833L46.7275 15.1419Z" fill="#281E69"/>
<path d="M46.79 24.6197L49.9973 19.8834V19.8783L46.79 24.6197Z" fill="#281E69"/>
<path d="M46.728 15.1368L43.5156 19.9288L46.728 15.1418V15.1368Z" fill="#281E69"/>
<path d="M46.728 15.1419L43.5156 19.9289L46.7896 24.6197L49.9968 19.8783L46.728 15.1419Z" fill="#281E69"/>
<path d="M55.4827 27.8379L52.2139 23.0964L55.4827 27.8379Z" fill="#281E69"/>
<path d="M52.2138 23.0964L49.8379 26.6892L52.2138 23.0964Z" fill="#281E69"/>
<path d="M49.8379 26.6841L49.0527 27.8682L52.3267 32.554L55.4827 27.8379L52.2138 23.0964L49.8379 26.6841Z" fill="#281E69"/>
<path d="M29.4912 8.38067C29.4912 8.38067 29.4912 8.37646 29.4955 8.37646C29.4912 8.38067 29.4912 8.38067 29.4912 8.38067Z" fill="#281E69"/>
<path d="M29.7832 8.10762C29.7933 8.10267 29.8033 8.09275 29.8133 8.0878C29.8083 8.09275 29.7983 8.10267 29.7832 8.10762Z" fill="#281E69"/>
<path d="M27.2119 11.7159L27.4326 11.387L27.2119 11.7159Z" fill="#281E69"/>
<path d="M30.4861 16.4929L27.2122 11.716H27.207L30.4861 16.4929Z" fill="#281E69"/>
<path d="M30.503 7.87527C30.3999 7.87527 30.302 7.88544 30.2093 7.90576H30.2041C30.2917 7.89052 30.3896 7.87527 30.503 7.87527Z" fill="#281E69"/>
<path d="M29.5207 8.35614C29.5157 8.36114 29.5005 8.37113 29.4954 8.37612C29.4954 8.37612 29.4954 8.38112 29.4904 8.38112C29.4802 8.3961 29.4701 8.41109 29.46 8.42108C29.4752 8.4011 29.5005 8.37612 29.5207 8.35614Z" fill="#281E69"/>
<path d="M29.8284 8.08267C29.8284 8.08267 29.8234 8.08267 29.8184 8.08762C29.8083 8.09258 29.7983 8.10249 29.7882 8.10745L29.7832 8.1124C29.7933 8.10249 29.8134 8.09258 29.8284 8.08267Z" fill="#281E69"/>
<path d="M27.2119 11.7161L29.1106 8.91776L27.4326 11.3871L27.2119 11.7161Z" fill="#281E69"/>
<path d="M33.7503 11.6611L33.6523 11.5188L33.7606 11.6713L33.7503 11.6611Z" fill="#281E69"/>
<path d="M29.1064 8.92384C29.158 8.85777 29.2198 8.76122 29.2868 8.65451C29.2198 8.76122 29.158 8.85269 29.1064 8.92384Z" fill="#281E69"/>
<path d="M31.8975 8.92278C31.6872 8.61916 31.3177 7.88037 30.5018 7.88037C30.394 7.88037 30.2965 7.89049 30.2041 7.91579C30.0656 7.95121 29.9424 8.01193 29.8347 8.08278C29.8193 8.0929 29.7987 8.10302 29.7885 8.11314C29.6858 8.18398 29.6037 8.27 29.5267 8.35097C29.5062 8.37627 29.4806 8.39651 29.4652 8.42181C29.3985 8.49771 29.342 8.57868 29.2958 8.64952C29.224 8.75072 29.1624 8.84687 29.1162 8.91771L27.2227 11.716L30.4966 16.4929L33.786 11.7008L33.7706 11.6755L33.6628 11.5187L31.8975 8.92278Z" fill="#281E69"/>
<path d="M34.2891 22.0437L35.9979 24.5333L34.2891 22.0437Z" fill="#281E69"/>
<path d="M36.034 15.0256L33.5605 18.6689L36.034 15.0256Z" fill="#281E69"/>
<path d="M39.2566 19.7821L35.998 24.5337L39.2566 19.7821Z" fill="#281E69"/>
<path d="M33.5598 18.6688L32.7695 19.8276L34.2885 22.044L35.9973 24.5336L39.2559 19.7871L36.0332 15.0305L33.5598 18.6688Z" fill="#281E69"/>
<path d="M40.8008 31.5371L41.4525 32.4935L40.8008 31.5371Z" fill="#281E69"/>
<path d="M41.4427 23.0154L39.7236 25.5759L41.4427 23.0154Z" fill="#281E69"/>
<path d="M44.6594 27.762L41.4521 32.4933L44.6594 27.762Z" fill="#281E69"/>
<path d="M39.7235 25.5759L38.2354 27.7973L40.8012 31.5368L41.458 32.4932L44.6601 27.7619L41.4426 23.0154L39.7235 25.5759Z" fill="#281E69"/>
<path d="M43.7617 35.8586L46.9741 40.5494L43.7617 35.8586Z" fill="#281E69"/>
<path d="M46.918 31.0965L48.36 33.2269L46.918 31.0965Z" fill="#281E69"/>
<path d="M46.9795 40.5493L48.1905 38.7378L46.9795 40.5493Z" fill="#281E69"/>
<path d="M46.9792 40.549L48.1903 38.7374L50.1301 35.8379L48.3597 33.2269L46.9177 31.0965L43.7617 35.8582L46.9792 40.549Z" fill="#281E69"/>
<path d="M54.0665 3.52335H54.2204C54.3846 3.52335 54.518 3.56383 54.6258 3.64479C54.7336 3.72576 54.8721 3.9231 55.0312 4.23684L55.2775 4.70238H56.0011L55.6572 4.12551C55.5392 3.9231 55.4674 3.80166 55.4469 3.77636C55.3596 3.6701 55.298 3.59419 55.2518 3.55877C55.2057 3.51829 55.1338 3.48287 55.0517 3.44744C55.298 3.41202 55.4879 3.32094 55.6264 3.17925C55.7599 3.03251 55.8266 2.8554 55.8266 2.64793C55.8266 2.49612 55.7907 2.3595 55.7188 2.23805C55.647 2.1166 55.5597 2.02552 55.4469 1.9648C55.334 1.90408 55.1851 1.86865 54.9953 1.84841C54.9286 1.84335 54.6155 1.84335 54.0665 1.84335H53.4814V4.70744H54.0665V3.52335ZM54.0665 2.28866H54.3025C54.6412 2.28866 54.8516 2.30383 54.9337 2.3342C55.0158 2.3595 55.0825 2.40504 55.1287 2.46576C55.1749 2.52648 55.2005 2.59733 55.2005 2.67829C55.2005 2.76432 55.1749 2.83516 55.1287 2.90094C55.0825 2.96672 55.0158 3.01227 54.9388 3.03757C54.8567 3.06287 54.6463 3.07805 54.3025 3.07805H54.0665V2.28866Z" fill="#1D1D1B"/>
<path d="M53.3479 5.59318C53.779 5.82595 54.2357 5.94739 54.7078 5.94739C55.1799 5.94739 55.6366 5.82595 56.0677 5.59318C56.4988 5.35535 56.8323 5.02137 57.0786 4.59631C57.3147 4.17126 57.4378 3.7209 57.4378 3.25536C57.4378 2.78476 57.3147 2.33439 57.0683 1.89921C56.822 1.4691 56.4834 1.13512 56.0574 0.90235C55.6264 0.674639 55.1748 0.558258 54.7078 0.558258C54.2408 0.558258 53.7893 0.674639 53.3582 0.90235C52.9271 1.13512 52.5885 1.46403 52.3421 1.89921C52.0958 2.32933 51.9727 2.78476 51.9727 3.25536C51.9727 3.7209 52.0958 4.17126 52.3319 4.59631C52.5833 5.02137 52.922 5.35535 53.3479 5.59318ZM52.8194 2.16235C53.0195 1.81319 53.2915 1.55006 53.6353 1.36283C53.9791 1.18066 54.3383 1.08958 54.7181 1.08958C55.0927 1.08958 55.457 1.18066 55.8009 1.36283C56.1498 1.55006 56.4218 1.81319 56.6219 2.16235C56.8169 2.5115 56.9144 2.87078 56.9144 3.25029C56.9144 3.62981 56.8169 3.98909 56.6219 4.32812C56.4269 4.67222 56.1549 4.94041 55.8111 5.12764C55.4622 5.31993 55.0978 5.41607 54.713 5.41607C54.3332 5.41607 53.9689 5.31993 53.6251 5.12764C53.2761 4.93535 53.0041 4.66716 52.8142 4.32812C52.6192 3.98909 52.5217 3.62475 52.5217 3.25029C52.5217 2.87584 52.6193 2.5115 52.8194 2.16235Z" fill="#1D1D1B"/>
<path d="M93.918 29.8974V29.0676C92.3323 29.0676 91.3624 28.7994 91.3624 26.2541V16.4018H91.4138L96.3452 29.8468H97.5614L102.442 16.4018H102.493V28.9714L100.512 29.0676V29.8974C101.503 29.8974 103.263 29.8013 104.253 29.8013C105.243 29.8013 107.106 29.8974 108.097 29.8974V29.0676L106.09 28.9714V15.3291L108.097 15.2279V14.398L102.175 14.4992L98.2798 24.8878H98.2542L94.4106 14.4992L88.4117 14.398V15.2279L90.372 15.3291V26.2541C90.372 28.7994 89.356 29.0676 88.0166 29.0676V29.8974C89.2533 29.8974 89.9769 29.8013 90.9673 29.8013C91.9628 29.7962 92.6812 29.8974 93.918 29.8974Z" fill="#1D1D1B"/>
<path d="M114.552 30.2112C117.821 30.2112 120.602 28.3034 120.602 24.1237C120.602 19.9693 117.775 18.2791 114.552 18.2791C111.375 18.2791 108.527 20.2121 108.527 24.3666C108.532 28.5514 111.329 30.2112 114.552 30.2112ZM114.552 19.1141C116.312 19.1141 116.979 20.9256 116.979 24.2502C116.979 27.6001 116.312 29.3813 114.552 29.3813C112.838 29.3813 112.145 27.595 112.145 24.2502C112.145 20.9256 112.838 19.1141 114.552 19.1141Z" fill="#1D1D1B"/>
<path d="M130.425 27.8681H130.45L130.522 30.044L135.279 29.8011V28.9712L133.591 28.9206V18.4561L128.659 18.699V19.5289C129.752 19.5289 130.322 19.5289 130.322 20.8698V24.9028C130.322 27.3014 128.788 28.7182 127.571 28.7182C126.032 28.7182 125.981 27.5189 125.981 25.1761V18.4561L121.023 18.699V19.5289C122.286 19.5289 122.712 19.5289 122.712 20.8698V26.0515C122.712 28.8397 123.682 30.1604 126.283 30.1604C128.244 30.1654 129.634 29.1888 130.425 27.8681Z" fill="#1D1D1B"/>
<path d="M148.354 22.5854C148.354 19.5037 146.866 18.2589 144.788 18.2589C142.827 18.2589 141.488 19.2355 140.641 20.5765H140.621L140.57 18.4512L135.812 18.6941V19.529C137.075 19.529 137.496 19.529 137.496 20.8244V28.936L135.812 29.0625V29.8923C137.024 29.8923 137.696 29.7962 139.133 29.7962C140.57 29.7962 141.216 29.8923 142.402 29.8923V29.0625L140.765 28.936V23.5165C140.765 21.123 142.278 19.7061 143.495 19.7061C144.803 19.7061 145.106 20.6574 145.106 23.2989V28.941L143.469 29.0675V29.8974C144.685 29.8974 145.301 29.8013 146.738 29.8013C148.18 29.8013 148.847 29.8974 150.063 29.8974V29.0675L148.354 28.941V22.5854Z" fill="#1D1D1B"/>
<path d="M155.621 28.9919C154.605 28.9919 154.559 28.162 154.605 26.6439V19.6507H157.381V18.6994H154.605V14.1502C154.605 14.1502 153.219 14.6158 151.357 14.6158V18.7044H149.499V19.6558H151.357V26.6945C151.357 28.6022 151.68 30.2367 154.728 30.2367C157.314 30.2367 157.843 28.0304 157.853 27.995V27.99L157.058 27.6965C157.058 27.6965 156.535 28.9919 155.621 28.9919Z" fill="#1D1D1B"/>
<path d="M91.9887 38.7734C91.9887 37.5033 93.0048 36.5975 94.4929 36.5975C97.146 36.5975 98.5623 39.578 98.7573 40.6558H99.5732C99.5732 39.8765 99.527 39.2136 99.527 38.065C99.527 37.2857 99.5732 36.6987 99.5732 35.8891H98.7573C98.7573 35.8891 98.6341 36.4255 98.2134 36.4255C97.8182 36.4255 96.7508 35.7626 94.693 35.7626C92.4351 35.7626 89.387 36.9618 89.387 40.6052C89.387 46.7888 97.9414 44.2739 97.9414 48.7977C97.9414 50.0678 97.1254 51.1912 95.0882 51.1912C91.845 51.1912 90.2286 47.0368 90.0336 45.9336H89.1406C89.1406 46.9355 89.2125 47.644 89.2125 48.7724C89.2125 49.9464 89.1406 50.6548 89.1406 51.8288H89.9566C89.9566 51.8288 90.0592 51.2418 90.5775 51.2418C91.024 51.2418 92.3838 52.1223 95.0163 52.1223C98.044 52.1223 100.795 50.6801 100.795 47.0874C100.789 40.5344 91.9887 42.9329 91.9887 38.7734Z" fill="#1D1D1B"/>
<path d="M106.67 40.1899L101.713 40.4328V41.2627C102.955 41.2627 103.401 41.2626 103.401 42.6087V50.6747L101.713 50.8012V51.631C102.929 51.631 103.596 51.5298 105.033 51.5298C106.47 51.5298 107.168 51.631 108.358 51.631V50.8012L106.67 50.6747V40.1899Z" fill="#1D1D1B"/>
<path d="M103.047 36.2075C103.047 37.4068 104.017 38.0697 105.053 38.0697C106.069 38.0697 107.034 37.4068 107.034 36.2075C107.034 35.0083 106.069 34.3504 105.053 34.3504C104.012 34.3454 103.047 35.0083 103.047 36.2075Z" fill="#1D1D1B"/>
<path d="M121.419 44.3238C121.419 41.2421 119.93 39.9973 117.847 39.9973C115.887 39.9973 114.547 40.9739 113.706 42.3149H113.68L113.634 40.1896L108.877 40.4325V41.2674C110.139 41.2674 110.56 41.2674 110.56 42.5628V50.6744L108.877 50.8009V51.6308C110.088 51.6308 110.76 51.5346 112.197 51.5346C113.634 51.5346 114.281 51.6308 115.471 51.6308V50.8009L113.834 50.6744V45.2498C113.834 42.8563 115.348 41.4395 116.564 41.4395C117.873 41.4395 118.175 42.3908 118.175 45.0322V50.6744L116.538 50.8009V51.6308C117.755 51.6308 118.376 51.5346 119.812 51.5346C121.249 51.5346 121.916 51.6308 123.133 51.6308V50.8009L121.424 50.6744V44.3238H121.419Z" fill="#1D1D1B"/>
<path d="M134.566 50.6035C134.017 50.6035 133.77 50.0874 133.796 49.3334L133.919 44.7134C133.965 42.4161 133.601 39.9973 129.26 39.9973C126.581 39.9973 124.328 40.9739 124.328 42.7096C124.328 43.6862 125.026 44.2732 125.991 44.2732C127.007 44.2732 127.653 43.666 127.653 42.8057C127.653 41.9759 127.109 41.6824 127.109 41.6824C127.233 41.4395 127.777 40.8272 129.018 40.8272C130.63 40.8272 130.804 42.1226 130.732 44.0759V45.2751C127.361 45.2498 123.563 45.5433 123.563 48.7211C123.563 51.2867 125.621 52.071 127.361 52.071C129.167 52.071 130.209 51.2867 130.753 50.2594H130.804C131.225 51.479 132.241 51.9698 133.457 51.9698C136.008 51.9698 136.362 49.7433 136.362 49.7433L135.546 49.546C135.53 49.551 135.284 50.6035 134.566 50.6035ZM130.619 47.9874C130.568 49.7484 129.48 50.5833 128.515 50.5833C127.474 50.5833 126.904 49.8496 126.904 48.4023C126.904 46.864 127.597 46.0595 130.671 46.1101L130.619 47.9874Z" fill="#1D1D1B"/>
<path d="M141.709 36.2075C141.709 35.0082 140.739 34.3504 139.728 34.3504C138.686 34.3504 137.722 35.0082 137.722 36.2075C137.722 37.4068 138.692 38.0697 139.728 38.0697C140.739 38.0646 141.709 37.4068 141.709 36.2075Z" fill="#1D1D1B"/>
<path d="M141.334 40.1899L136.377 40.4328V41.2627C137.619 41.2627 138.065 41.2626 138.065 42.6087V50.6747L136.377 50.8012V51.631C137.593 51.631 138.265 51.5298 139.697 51.5298C141.139 51.5298 141.832 51.631 143.022 51.631V50.8012L141.334 50.6747V40.1899Z" fill="#1D1D1B"/>
</svg>
