<svg width="114" height="64" viewBox="0 0 114 64" fill="none" xmlns="http://www.w3.org/2000/svg">
<path d="M58.0034 23.087H59.5136C59.6762 23.087 59.8178 22.9526 59.8178 22.7871V18.1901H64.144V22.7871C64.144 22.9526 64.2803 23.087 64.4482 23.087H65.9584C66.1262 23.087 66.2626 22.9526 66.2626 22.7871V12.2073C66.2626 12.0418 66.1262 11.9177 65.9584 11.9177H64.4482C64.2803 11.9177 64.144 12.0367 64.144 12.2073V16.3544H59.8178V12.2073C59.8178 12.0418 59.6814 11.9177 59.5136 11.9177H58.0034C57.8356 11.9177 57.6992 12.0367 57.6992 12.2073V22.7871C57.6992 22.9474 57.8356 23.087 58.0034 23.087ZM70.7146 23.206C71.4436 23.206 72.162 22.9681 72.8647 22.5441V22.7871C72.8647 22.9526 73.001 23.087 73.1688 23.087H74.4641C74.6319 23.087 74.7682 22.9526 74.7682 22.7871V17.3783C74.7682 15.4547 73.5778 14.5084 71.4121 14.5084C70.3633 14.5084 69.4771 14.6273 68.8688 14.7514C68.6695 14.798 68.5804 14.9014 68.5804 15.0669V16.0287C68.5804 16.2407 68.701 16.282 68.8531 16.282H68.9317C69.4351 16.22 70.442 16.1631 71.4173 16.1631C72.314 16.1631 72.7598 16.4061 72.7598 17.3834V18.0453H71.8001C69.1467 18.0453 68.077 18.9296 68.077 20.6463V20.7084C68.077 22.7251 69.4509 23.206 70.7146 23.206ZM70.1063 20.636C70.1063 19.7931 70.4105 19.3588 71.8001 19.3588H72.7598V21.21C72.3193 21.453 71.7529 21.6288 71.2076 21.6288C70.4472 21.6288 70.1063 21.4323 70.1063 20.698V20.636ZM77.7258 18.8313L79.8129 20.093C80.3006 20.393 80.4841 20.5739 80.4841 20.8583C80.4841 21.2669 80.3477 21.5823 79.4038 21.5823C78.9476 21.5823 77.5737 21.5099 76.8448 21.4168H76.7819C76.6298 21.4168 76.5249 21.5358 76.5249 21.6547V22.5596C76.5249 22.7406 76.6298 22.8595 76.8133 22.9061C77.6629 23.1336 78.9476 23.206 79.5402 23.206C81.5381 23.206 82.5292 22.1718 82.5292 20.8635C82.5292 20.0982 82.3457 19.3433 81.0662 18.578L79.0682 17.3731C78.6854 17.1456 78.4599 16.9956 78.4599 16.7578C78.4599 16.2924 78.7798 16.1269 79.514 16.1269C80.3845 16.1269 81.601 16.2458 82.0258 16.3079H82.0887C82.2408 16.3079 82.3299 16.2045 82.3299 16.0235V15.1548C82.3299 14.9738 82.2408 14.8548 82.0573 14.8083C81.2812 14.6428 80.5785 14.5084 79.3409 14.5084C77.4059 14.5084 76.4463 15.2582 76.4463 16.7629C76.4463 17.6317 76.9759 18.3814 77.7258 18.8313ZM88.5178 18.578L86.5199 17.3731C86.137 17.1456 85.9116 16.9956 85.9116 16.7578C85.9116 16.2924 86.2314 16.1269 86.9656 16.1269C87.8361 16.1269 89.0527 16.2458 89.4774 16.3079H89.5403C89.6924 16.3079 89.7868 16.2045 89.7868 16.0235V15.1548C89.7868 14.9738 89.6924 14.8548 89.5089 14.8083C88.7328 14.6428 88.0301 14.5084 86.7978 14.5084C84.8628 14.5084 83.9031 15.2582 83.9031 16.7629C83.9031 17.6368 84.4328 18.3866 85.1826 18.8365L87.2697 20.0982C87.7574 20.3981 87.9357 20.5791 87.9357 20.8635C87.9357 21.272 87.7994 21.5875 86.8555 21.5875C86.394 21.5875 85.0253 21.5151 84.2964 21.422H84.2335C84.0814 21.422 83.9765 21.5409 83.9765 21.6599V22.5648C83.9765 22.7458 84.0814 22.8647 84.265 22.9112C85.1145 23.1388 86.3992 23.2111 86.9918 23.2111C88.9897 23.2111 89.9809 22.177 89.9809 20.8687C89.9809 20.093 89.7973 19.3433 88.5178 18.578ZM95.0412 23.206C97.4325 23.206 98.6805 21.6133 98.6805 19.4622V18.247C98.6805 16.0959 97.4325 14.5032 95.0412 14.5032C92.65 14.5032 91.402 16.0959 91.402 18.247V19.4622C91.3967 21.6133 92.6448 23.206 95.0412 23.206ZM93.4104 18.247C93.4104 17.0163 93.9715 16.2148 95.0412 16.2148C96.1058 16.2148 96.6721 17.0111 96.6721 18.247V19.4622C96.6721 20.698 96.1058 21.4944 95.0412 21.4944C93.9715 21.4944 93.4104 20.698 93.4104 19.4622V18.247ZM65.5651 29.98V29.8455C65.5651 27.1876 63.52 26.3706 61.1759 26.3706C60.0642 26.3706 58.984 26.4482 58.1869 26.5671C57.8828 26.6137 57.6992 26.7171 57.6992 27.017V37.359C57.6992 37.5244 57.8356 37.6589 58.0034 37.6589H59.5294C59.6972 37.6589 59.8178 37.5244 59.8178 37.359V33.4342C60.1691 33.4497 60.7774 33.4962 61.1759 33.4962C63.52 33.4962 65.5651 32.6378 65.5651 29.98ZM63.4623 29.98C63.4623 31.1848 62.8225 31.7846 61.1759 31.7846C60.919 31.7846 60.0642 31.7536 59.8178 31.7381V28.1598C60.0957 28.1288 60.8508 28.0977 61.1759 28.0977C62.6967 28.0977 63.4623 28.5786 63.4623 29.8403V29.98ZM67.3638 37.6589H68.7796C68.9474 37.6589 69.0681 37.5089 69.0681 37.3434V26.5206C69.0681 26.3551 68.9474 26.2207 68.7796 26.2207H67.3638C67.196 26.2207 67.0596 26.3551 67.0596 26.5206V37.3434C67.0544 37.5089 67.196 37.6589 67.3638 37.6589ZM75.4866 37.1159V37.359C75.4866 37.5244 75.623 37.6589 75.7908 37.6589H77.086C77.2538 37.6589 77.3902 37.5244 77.3902 37.359V31.9501C77.3902 30.0265 76.1998 29.0802 74.0341 29.0802C72.98 29.0802 72.099 29.1991 71.4908 29.3232C71.2915 29.3698 71.2023 29.4732 71.2023 29.6387V30.6005C71.2023 30.8073 71.3229 30.8539 71.475 30.8539H71.5537C72.0571 30.7918 73.0639 30.7349 74.0393 30.7349C74.936 30.7349 75.3817 30.978 75.3817 31.9553V32.612H74.4221C71.7687 32.612 70.7042 33.5014 70.7042 35.213V35.275C70.7042 37.3021 72.0781 37.783 73.3419 37.783C74.0655 37.7778 74.7839 37.5399 75.4866 37.1159ZM72.7283 35.2699V35.2078C72.7283 34.365 73.0325 33.9306 74.4221 33.9306H75.3817V35.7818C74.9412 36.0197 74.3749 36.2006 73.8243 36.2006C73.0639 36.2006 72.7283 36.0042 72.7283 35.2699ZM80.0436 35.3888C80.0436 37.4003 80.7463 37.7778 82.4663 37.7778C82.8019 37.7778 83.1323 37.7313 83.5046 37.6744C83.7039 37.6434 83.793 37.5554 83.793 37.4003V36.454C83.793 36.3041 83.6724 36.2265 83.4731 36.2265H82.6656C82.115 36.2265 82.0677 36.1334 82.0677 35.3888V30.6677H83.0012C83.169 30.6677 83.3053 30.5333 83.3053 30.3678V29.4835C83.3053 29.3181 83.169 29.1836 83.0012 29.1836H82.0677V27.6375C82.0677 27.4875 81.9629 27.41 81.8265 27.41H81.7636L80.3477 27.653C80.1799 27.684 80.0436 27.7875 80.0436 27.9529V29.1836H78.612C78.4442 29.1836 78.3079 29.3181 78.3079 29.4835V30.1609C78.3079 30.3264 78.4442 30.435 78.612 30.4609L80.0436 30.6677V35.3888ZM89.1104 36.2317H88.3028C87.7522 36.2317 87.705 36.1386 87.705 35.394V30.6729H89.0789C89.2467 30.6729 89.383 30.5384 89.383 30.373V29.4887C89.383 29.3232 89.2467 29.1888 89.0789 29.1888H87.705V27.6427C87.705 27.4927 87.6001 27.4152 87.4585 27.4152H87.4008L85.985 27.6582C85.8172 27.6892 85.6808 27.7926 85.6808 27.9581V29.1888H84.6897C84.5219 29.1888 84.3856 29.3232 84.3856 29.4887V30.1661C84.3856 30.3316 84.5219 30.4402 84.6897 30.466L85.6808 30.6729V35.394C85.6808 37.4055 86.3835 37.783 88.1035 37.783C88.4391 37.783 88.7747 37.7364 89.1418 37.6796C89.3411 37.6485 89.4355 37.5606 89.4355 37.4055V36.4592C89.4302 36.3092 89.3096 36.2317 89.1104 36.2317ZM98.1194 37.3434V32.4414C98.1194 30.5333 97.6789 29.075 95.4817 29.075C94.4749 29.075 93.8928 29.2405 93.0118 29.799V29.4835C93.0118 29.3181 92.8755 29.1836 92.7077 29.1836H91.381C91.2132 29.1836 91.0768 29.3181 91.0768 29.4835V37.3434C91.0768 37.5089 91.2132 37.6589 91.381 37.6589H92.7811C92.9489 37.6589 93.0853 37.5089 93.0853 37.3434V31.3037C93.725 30.9728 94.2914 30.7608 94.8053 30.7608C95.9799 30.7608 96.1005 31.1383 96.1005 32.4414V37.3434C96.1005 37.5089 96.2369 37.6589 96.4047 37.6589H97.81C97.9778 37.6589 98.1194 37.5089 98.1194 37.3434ZM106.714 34.1116C106.929 34.1116 107.018 33.9771 107.018 33.7341V32.8964C107.018 30.6574 105.739 29.0802 103.39 29.0802C101.056 29.0802 99.7293 30.5539 99.7293 32.8964V34.0082C99.7293 36.966 101.895 37.7778 103.416 37.7778C104.79 37.7778 105.382 37.7054 106.373 37.5244C106.651 37.4779 106.693 37.3745 106.693 37.1366V36.1438C106.693 35.9938 106.573 35.9163 106.415 35.9163H106.368C105.728 35.9783 104.68 36.0662 103.563 36.0662C102.1 36.0662 101.732 35.0268 101.732 34.1581V34.1116H106.714ZM101.759 32.6378C101.759 31.4485 102.446 30.7866 103.39 30.7866C104.333 30.7866 104.989 31.464 104.989 32.6378V32.6999H101.759V32.6378ZM112.75 29.075C112.136 29.075 111.318 29.225 110.569 29.799V29.4835C110.569 29.3181 110.432 29.1836 110.264 29.1836H108.938C108.77 29.1836 108.633 29.3181 108.633 29.4835V37.3434C108.633 37.5089 108.77 37.6589 108.938 37.6589H110.343C110.511 37.6589 110.647 37.5089 110.647 37.3434V31.3037C111.287 30.9728 111.927 30.7608 112.75 30.7608C112.918 30.7608 113.054 30.6263 113.054 30.4609V29.375C113.054 29.2147 112.918 29.075 112.75 29.075ZM59.5451 41.0665H58.0243C57.8565 41.0665 57.7149 41.1855 57.7149 41.3509V51.9308C57.7149 52.0963 57.8513 52.2307 58.0243 52.2307H59.5451C59.7129 52.2307 59.8545 52.0963 59.8545 51.9308V41.3509C59.8492 41.1855 59.7129 41.0665 59.5451 41.0665ZM66.9128 43.652C65.9007 43.652 65.3134 43.8175 64.4219 44.376V44.0605C64.4219 43.8951 64.2856 43.7606 64.1125 43.7606H62.7753C62.6075 43.7606 62.4659 43.8951 62.4659 44.0605V51.9204C62.4659 52.0859 62.6023 52.2359 62.7753 52.2359H64.1912C64.359 52.2359 64.5006 52.0859 64.5006 51.9204V45.8807C65.1456 45.5498 65.7172 45.3378 66.2416 45.3378C67.4267 45.3378 67.5526 45.7153 67.5526 47.0183V51.9204C67.5526 52.0859 67.6889 52.2359 67.8619 52.2359H69.2778C69.4456 52.2359 69.5872 52.0859 69.5872 51.9204V47.0183C69.5767 45.1103 69.1362 43.652 66.9128 43.652ZM76.3991 47.7216L74.3802 46.5219C73.9921 46.2944 73.7614 46.1444 73.7614 45.9066C73.7614 45.4412 74.0865 45.2706 74.8259 45.2706C75.7016 45.2706 76.934 45.3895 77.364 45.4515H77.4269C77.579 45.4515 77.6734 45.3481 77.6734 45.1671V44.2932C77.6734 44.1123 77.579 43.9933 77.3954 43.9468C76.6088 43.7813 75.9009 43.6469 74.6581 43.6469C72.7021 43.6469 71.732 44.3967 71.732 45.9014C71.732 46.7701 72.2721 47.5251 73.0272 47.975L75.1353 49.2367C75.6282 49.5366 75.8117 49.7124 75.8117 50.002C75.8117 50.4105 75.6754 50.7259 74.721 50.7259C74.2596 50.7259 72.8752 50.6484 72.1358 50.5605H72.0728C71.9207 50.5605 71.8106 50.6794 71.8106 50.7983V51.7033C71.8106 51.8842 71.9207 52.0032 72.1043 52.0445C72.9695 52.2721 74.2595 52.3445 74.8626 52.3445C76.8815 52.3445 77.8779 51.3051 77.8779 50.002C77.8779 49.2419 77.6891 48.4921 76.3991 47.7216ZM84.4013 50.8035H83.5833C83.0326 50.8035 82.9854 50.7156 82.9854 49.9606V45.2395H84.3698C84.5376 45.2395 84.6792 45.1051 84.6792 44.9396V44.0554C84.6792 43.8899 84.5376 43.7555 84.3698 43.7555H82.9854V42.2093C82.9854 42.0594 82.8806 41.9818 82.739 41.9818H82.676L81.2445 42.2248C81.0767 42.2559 80.9351 42.3593 80.9351 42.5248V43.7555H79.4877C79.3199 43.7555 79.1836 43.8899 79.1836 44.0554V44.7328C79.1836 44.8982 79.3199 45.0017 79.4877 45.0327L80.9351 45.2447V49.9658C80.9351 51.9825 81.643 52.3548 83.384 52.3548C83.7248 52.3548 84.0604 52.3083 84.4328 52.2514C84.632 52.2204 84.7264 52.1324 84.7264 51.9773V51.031C84.7264 50.8811 84.6006 50.8035 84.4013 50.8035ZM88.3447 43.7555H86.9289C86.7611 43.7555 86.6247 43.8899 86.6247 44.0554V51.9153C86.6247 52.0807 86.7611 52.2307 86.9289 52.2307H88.3447C88.5125 52.2307 88.6541 52.0807 88.6541 51.9153V44.0554C88.6541 43.8899 88.5125 43.7555 88.3447 43.7555ZM88.3867 40.7046H86.8922C86.7244 40.7046 86.5723 40.839 86.5723 41.0045V42.3283C86.5723 42.4937 86.7244 42.6282 86.8922 42.6282H88.3867C88.5545 42.6282 88.6961 42.4937 88.6961 42.3283V41.0045C88.6961 40.839 88.5597 40.7046 88.3867 40.7046ZM95.6862 50.8035H94.8734C94.3176 50.8035 94.2756 50.7156 94.2756 49.9606V45.2395H95.66C95.8278 45.2395 95.9694 45.1051 95.9694 44.9396V44.0554C95.9694 43.8899 95.8331 43.7555 95.66 43.7555H94.2756V42.2093C94.2756 42.0594 94.1655 41.9818 94.0292 41.9818H93.9662L92.5346 42.2248C92.3616 42.2559 92.2253 42.3593 92.2253 42.5248V43.7555H90.7779C90.6101 43.7555 90.4685 43.8899 90.4685 44.0554V44.7328C90.4685 44.8982 90.6049 45.0017 90.7779 45.0327L92.2253 45.2447V49.9658C92.2253 51.9825 92.9332 52.3548 94.6742 52.3548C95.015 52.3548 95.3506 52.3083 95.7229 52.2514C95.9222 52.2204 96.0114 52.1324 96.0114 51.9773V51.031C96.0061 50.8811 95.8855 50.8035 95.6862 50.8035ZM104.659 43.7555H103.243C103.075 43.7555 102.933 43.9054 102.933 44.0709V50.0847C102.503 50.3123 101.764 50.6846 101.198 50.6846C100.72 50.6846 100.458 50.5915 100.243 50.4157C99.9496 50.1571 99.8866 49.7228 99.8866 48.973V44.0709C99.8866 43.9054 99.7503 43.7555 99.5825 43.7555H98.1666C97.9988 43.7555 97.8572 43.9054 97.8572 44.0709V48.973C97.8572 50.2192 98.0617 51.15 98.6281 51.7084C99.0738 52.1428 99.7555 52.3393 100.521 52.3393C101.507 52.3393 102.136 52.0962 102.939 51.5895V51.9308C102.939 52.0963 103.075 52.2307 103.248 52.2307H104.664C104.832 52.2307 104.968 52.0963 104.968 51.9308V44.0709C104.968 43.9054 104.832 43.7555 104.659 43.7555ZM111.958 50.8035H111.14C110.589 50.8035 110.542 50.7156 110.542 49.9606V45.2395H111.927C112.094 45.2395 112.231 45.1051 112.231 44.9396V44.0554C112.231 43.8899 112.094 43.7555 111.927 43.7555H110.542V42.2093C110.542 42.0594 110.432 41.9818 110.296 41.9818H110.233L108.801 42.2248C108.633 42.2559 108.492 42.3593 108.492 42.5248V43.7555H107.045C106.877 43.7555 106.735 43.8899 106.735 44.0554V44.7328C106.735 44.8982 106.872 45.0017 107.045 45.0327L108.492 45.2447V49.9658C108.492 51.9825 109.2 52.3548 110.941 52.3548C111.282 52.3548 111.617 52.3083 111.99 52.2514C112.189 52.2204 112.283 52.1324 112.283 51.9773V51.031C112.278 50.8811 112.157 50.8035 111.958 50.8035Z" fill="#5A5F62"/>
<path d="M45.8215 7.02585H0V52.2099H45.8215V7.02585Z" fill="#B00835"/>
<path d="M52.3659 0.57251H13.0889V39.3031H52.3659V0.57251Z" fill="#F7A600"/>
<path d="M45.8211 7.02585H13.0938V39.2979H45.8211V7.02585Z" fill="#DE6106"/>
<path d="M26.4027 12.0418H24.8925C24.7247 12.0418 24.5883 12.1608 24.5883 12.3262V16.4734H20.2621V12.3262C20.2621 12.1608 20.1258 12.0418 19.958 12.0418H18.4477C18.2799 12.0418 18.1436 12.1608 18.1436 12.3262V22.9061C18.1436 23.0715 18.2799 23.206 18.4477 23.206H19.958C20.1258 23.206 20.2621 23.0715 20.2621 22.9061V18.3091H24.5883V22.9061C24.5883 23.0715 24.7247 23.206 24.8925 23.206H26.4027C26.5706 23.206 26.7069 23.0715 26.7069 22.9061V12.3262C26.7069 12.1608 26.5706 12.0418 26.4027 12.0418ZM32.4962 11.9229C31.3845 11.9229 30.3042 11.9953 29.5072 12.1194C29.203 12.166 29.0247 12.2694 29.0247 12.5745V22.9112C29.0247 23.0767 29.161 23.2112 29.3289 23.2112H30.8496C31.0174 23.2112 31.1433 23.0767 31.1433 22.9112V18.9916C31.4894 19.002 32.1029 19.0485 32.5014 19.0485C34.8507 19.0485 36.8906 18.1901 36.8906 15.5323V15.3978C36.8854 12.7348 34.8455 11.9229 32.4962 11.9229ZM34.7825 15.5271C34.7825 16.7319 34.1428 17.3318 32.4962 17.3318C32.2392 17.3318 31.3845 17.3007 31.138 17.2852V13.7069C31.4107 13.6759 32.1763 13.6448 32.4962 13.6448C34.0169 13.6448 34.7825 14.1257 34.7825 15.3875V15.5271ZM40.4617 12.0418H38.9515C38.7837 12.0418 38.6473 12.1608 38.6473 12.3262V22.9061C38.6473 23.0715 38.7837 23.206 38.9515 23.206H40.4617C40.6295 23.206 40.7659 23.0715 40.7659 22.9061V12.3262C40.7659 12.1608 40.6295 12.0418 40.4617 12.0418Z" fill="white"/>
<path d="M3.16349 60.4393V59.6065C3.16349 58.273 2.42632 57.6905 1.26931 57.6905C0.795768 57.6905 0.312451 57.7242 0.131821 57.7531C0.0488286 57.7675 0 57.8205 0 57.9071V62.1435C0 62.2349 0.0488286 62.2831 0.131821 62.2975C0.312451 62.3264 0.795768 62.3601 1.26931 62.3601C2.42632 62.3601 3.16349 61.7631 3.16349 60.4393ZM2.59232 60.4393C2.59232 61.5513 2.01624 61.8787 1.26443 61.8787C0.971512 61.8787 0.771362 61.8787 0.571204 61.8642V58.1864C0.776244 58.1719 0.971512 58.1671 1.26443 58.1671C2.01624 58.1671 2.59232 58.4896 2.59232 59.6065V60.4393ZM4.57923 58.2586V57.7675C4.57923 57.7001 4.52067 57.6424 4.45232 57.6424H4.13499C4.06664 57.6424 4.00806 57.7001 4.00806 57.7675V58.2586C4.00806 58.326 4.06664 58.3789 4.13499 58.3789H4.45232C4.52067 58.3789 4.57923 58.326 4.57923 58.2586ZM4.5646 62.1916V59.048C4.5646 58.9807 4.51089 58.9229 4.43766 58.9229H4.13988C4.07153 58.9229 4.01783 58.9807 4.01783 59.048V62.1916C4.01783 62.259 4.07153 62.3168 4.13988 62.3168H4.43766C4.51089 62.3168 4.5646 62.259 4.5646 62.1916ZM8.2895 59.2214V59.0625C8.2895 58.9903 8.22113 58.9277 8.1479 58.9277H6.78097C5.70695 58.9277 5.39453 59.4717 5.39453 60.0205V60.0686C5.39453 60.3864 5.48727 60.6078 5.68254 60.7859C5.5068 60.8822 5.42871 61.0603 5.42871 61.2288V61.2336C5.42871 61.4262 5.51656 61.6284 5.71672 61.715L5.76067 61.7343C5.55563 61.8883 5.3701 62.1723 5.3701 62.5189V62.5719C5.3701 63.1736 5.81924 63.554 6.81026 63.554C7.83546 63.554 8.2358 63.1881 8.2358 62.596V62.5478C8.2358 61.9653 7.64996 61.7968 7.03484 61.6428L6.10238 61.4069C5.95592 61.3684 5.90712 61.3154 5.90712 61.2095C5.90712 61.1181 5.95595 61.0507 6.06335 60.9977C6.24398 61.0747 6.45878 61.1229 6.79075 61.1229C7.75248 61.1229 8.17719 60.7474 8.17719 60.0686V60.0205C8.17719 59.6883 8.0747 59.5006 7.96242 59.385L8.18696 59.3417C8.24555 59.3273 8.2895 59.2984 8.2895 59.2214ZM7.62068 60.0638C7.62068 60.4345 7.44979 60.6944 6.77609 60.6944C6.05845 60.6944 5.93153 60.3382 5.93153 60.0638V60.0157C5.93153 59.6691 6.07309 59.3561 6.77609 59.3561C7.44979 59.3561 7.62068 59.645 7.62068 60.0157V60.0638ZM7.66948 62.596C7.66948 62.9378 7.50839 63.1351 6.79563 63.1351C6.1024 63.1351 5.89246 62.9185 5.89246 62.5719V62.5189C5.89246 62.1964 6.0194 62.0424 6.20003 61.8883L6.90791 62.0664C7.46933 62.206 7.66948 62.3071 7.66948 62.5478V62.596ZM9.55389 58.2586V57.7675C9.55389 57.7001 9.49533 57.6424 9.42699 57.6424H9.10965C9.04131 57.6424 8.98272 57.7001 8.98272 57.7675V58.2586C8.98272 58.326 9.03642 58.3789 9.10965 58.3789H9.42699C9.49533 58.3789 9.55389 58.326 9.55389 58.2586ZM9.53926 62.1916V59.048C9.53926 58.9807 9.48067 58.9229 9.41233 58.9229H9.11454C9.04619 58.9229 8.99249 58.9807 8.99249 59.048V62.1916C8.99249 62.259 9.05107 62.3168 9.11454 62.3168H9.41233C9.48067 62.3168 9.53926 62.259 9.53926 62.1916ZM12.2975 62.2253V62.0087C12.2975 61.9461 12.2536 61.922 12.1657 61.922H11.8142C11.5652 61.922 11.4774 61.8739 11.4774 61.5321V59.3802H12.1511C12.2194 59.3802 12.278 59.3273 12.278 59.2599V59.048C12.278 58.9807 12.2194 58.9229 12.1511 58.9229H11.4774V58.2489C11.4774 58.1863 11.4334 58.143 11.3846 58.143H11.3651L11.038 58.1912C10.9697 58.2056 10.9257 58.2537 10.9257 58.3163V58.9181H10.3204C10.252 58.9181 10.1983 58.9614 10.1983 59.0288V59.1973C10.1983 59.2647 10.2471 59.3032 10.3204 59.308L10.9257 59.3754V61.5273C10.9257 62.206 11.1991 62.3553 11.7752 62.3553C11.8923 62.3553 12.0583 62.3408 12.1804 62.3264C12.2634 62.3167 12.2975 62.2782 12.2975 62.2253ZM15.3341 62.1916V60.0397C15.3341 59.3128 14.9826 58.8796 14.1136 58.8796C13.6889 58.8796 13.4009 58.9181 13.147 58.9614C13.0591 58.9758 13.0152 59.0095 13.0152 59.0769V59.2936C13.0152 59.3754 13.0737 59.3899 13.1275 59.3899H13.1567C13.4057 59.3658 13.7084 59.3417 14.1136 59.3417C14.6018 59.3417 14.7824 59.5198 14.7824 60.0397V60.2852H14.3186C13.2056 60.2852 12.8101 60.6174 12.8101 61.2817V61.354C12.8101 62.1242 13.2983 62.3553 13.8304 62.3553C14.1819 62.3553 14.4944 62.2253 14.7922 62.052V62.1868C14.7922 62.2542 14.8508 62.3119 14.9191 62.3119H15.2071C15.2755 62.3168 15.3341 62.259 15.3341 62.1916ZM14.7824 61.6669C14.4846 61.8257 14.2259 61.9124 13.9379 61.9124C13.5766 61.9124 13.3618 61.7968 13.3618 61.3491V61.2769C13.3618 60.8389 13.5619 60.6704 14.3186 60.6704H14.7824V61.6669ZM16.7743 62.1916V57.7964C16.7743 57.729 16.7254 57.6809 16.6619 57.6809H16.3349C16.2665 57.6809 16.2226 57.7338 16.2226 57.7964V62.1916C16.2226 62.259 16.2714 62.3168 16.3349 62.3168H16.6619C16.7352 62.3168 16.7743 62.2542 16.7743 62.1916ZM21.9735 62.2445V61.9316C21.9735 61.8883 21.9491 61.8594 21.9051 61.8594H20.6993C20.0354 61.8594 19.9279 61.6861 19.9279 61.2192V60.1842H21.8465C21.9149 60.1842 21.9735 60.1312 21.9735 60.0638V59.8279C21.9735 59.7605 21.9198 59.7076 21.8465 59.7076H19.9279V58.8507C19.9279 58.3837 20.0354 58.2104 20.6993 58.2104H21.9051C21.9491 58.2104 21.9735 58.1815 21.9735 58.1382V57.8301C21.9735 57.7916 21.949 57.7483 21.91 57.7435C21.6464 57.7194 21.0605 57.705 20.6895 57.705C19.8157 57.705 19.3568 58.0323 19.3568 58.8507V61.224C19.3568 62.0424 19.8108 62.3697 20.6895 62.3697C21.0605 62.3697 21.6708 62.3649 21.91 62.3408C21.949 62.3216 21.9735 62.2782 21.9735 62.2445ZM25.3908 62.1916V60.1649C25.3908 59.3465 25.054 58.8844 24.3021 58.8844C23.9311 58.8844 23.6529 58.9758 23.3062 59.1684V59.048C23.3062 58.9807 23.2574 58.9229 23.1891 58.9229H22.8766C22.8083 58.9229 22.7595 58.9807 22.7595 59.048V62.1916C22.7595 62.259 22.818 62.3168 22.8766 62.3168H23.1842C23.2525 62.3168 23.3111 62.2542 23.3111 62.1916V59.5872C23.5991 59.4476 23.8921 59.3465 24.1557 59.3465C24.6292 59.3465 24.844 59.5391 24.844 60.1601V62.1868C24.844 62.2542 24.9026 62.3119 24.971 62.3119H25.2687C25.3371 62.3168 25.3908 62.259 25.3908 62.1916ZM29.1011 59.2214V59.0625C29.1011 58.9903 29.0327 58.9277 28.9595 58.9277H27.5877C26.5136 58.9277 26.2012 59.4717 26.2012 60.0205V60.0686C26.2012 60.3864 26.2939 60.6078 26.4892 60.7859C26.3135 60.8822 26.2305 61.0603 26.2305 61.2288V61.2336C26.2305 61.4262 26.3184 61.6284 26.5185 61.715L26.5625 61.7343C26.3574 61.8883 26.1719 62.1723 26.1719 62.5189V62.5719C26.1719 63.1736 26.6211 63.554 27.6121 63.554C28.6373 63.554 29.0376 63.1881 29.0376 62.596V62.5478C29.0376 61.9653 28.4518 61.7968 27.8366 61.6428L26.9042 61.4069C26.7626 61.3684 26.7089 61.3154 26.7089 61.2095C26.7089 61.1181 26.7577 61.0507 26.8651 60.9977C27.0458 61.0747 27.2606 61.1229 27.5925 61.1229C28.5592 61.1229 28.979 60.7474 28.979 60.0686V60.0205C28.979 59.6883 28.8814 59.5006 28.7642 59.385L28.9888 59.3417C29.0571 59.3273 29.1011 59.2984 29.1011 59.2214ZM28.4322 60.0638C28.4322 60.4345 28.2614 60.6944 27.5877 60.6944C26.87 60.6944 26.7431 60.3382 26.7431 60.0638V60.0157C26.7431 59.6691 26.8847 59.3561 27.5877 59.3561C28.2614 59.3561 28.4322 59.645 28.4322 60.0157V60.0638ZM28.481 62.596C28.481 62.9378 28.32 63.1351 27.6072 63.1351C26.914 63.1351 26.704 62.9185 26.704 62.5719V62.5189C26.704 62.1964 26.831 62.0424 27.0116 61.8883L27.7195 62.0664C28.2809 62.206 28.481 62.3071 28.481 62.5478V62.596ZM30.3947 58.2586V57.7675C30.3947 57.7001 30.3362 57.6424 30.2678 57.6424H29.9505C29.8822 57.6424 29.8236 57.7001 29.8236 57.7675V58.2586C29.8236 58.326 29.8822 58.3789 29.9505 58.3789H30.2678C30.3362 58.3789 30.3947 58.326 30.3947 58.2586ZM30.3801 62.1916V59.048C30.3801 58.9807 30.3264 58.9229 30.2532 58.9229H29.9505C29.8822 58.9229 29.8285 58.9807 29.8285 59.048V62.1916C29.8285 62.259 29.8822 62.3168 29.9505 62.3168H30.2532C30.3264 62.3168 30.3801 62.259 30.3801 62.1916ZM33.9439 62.1916V60.1649C33.9439 59.3465 33.6071 58.8844 32.8552 58.8844C32.4842 58.8844 32.2059 58.9758 31.8593 59.1684V59.048C31.8593 58.9807 31.8105 58.9229 31.7422 58.9229H31.4297C31.3614 58.9229 31.3125 58.9807 31.3125 59.048V62.1916C31.3125 62.259 31.3711 62.3168 31.4297 62.3168H31.7373C31.8056 62.3168 31.8642 62.2542 31.8642 62.1916V59.5872C32.1522 59.4476 32.4451 59.3465 32.7088 59.3465C33.1872 59.3465 33.3971 59.5391 33.3971 60.1601V62.1868C33.3971 62.2542 33.4508 62.3119 33.5241 62.3119H33.8219C33.8902 62.3168 33.9439 62.259 33.9439 62.1916ZM37.4931 60.6559V60.3238C37.4931 59.4476 37.0293 58.8796 36.1164 58.8796C35.223 58.8796 34.7299 59.438 34.7299 60.3238V60.8774C34.7299 62.0279 35.428 62.3601 36.1505 62.3601C36.5704 62.3601 36.9121 62.3216 37.2685 62.2542C37.3661 62.2349 37.3954 62.1916 37.3954 62.1146V61.9028C37.3954 61.8402 37.3466 61.8161 37.2929 61.8161H37.2636C36.9756 61.8594 36.5118 61.8835 36.1505 61.8835C35.5745 61.8835 35.2815 61.6139 35.2815 60.8774V60.7907H37.3759C37.4491 60.7907 37.4931 60.7378 37.4931 60.6559ZM36.9365 60.3815H35.2767V60.3238C35.2767 59.6594 35.5793 59.3561 36.1164 59.3561C36.668 59.3561 36.9365 59.6306 36.9365 60.3238V60.3815ZM40.9446 60.6559V60.3238C40.9446 59.4476 40.4808 58.8796 39.5679 58.8796C38.6745 58.8796 38.1814 59.438 38.1814 60.3238V60.8774C38.1814 62.0279 38.8795 62.3601 39.602 62.3601C40.0219 62.3601 40.3636 62.3216 40.72 62.2542C40.8176 62.2349 40.8469 62.1916 40.8469 62.1146V61.9028C40.8469 61.8402 40.7981 61.8161 40.7444 61.8161H40.7151C40.4271 61.8594 39.9633 61.8835 39.602 61.8835C39.026 61.8835 38.7331 61.6139 38.7331 60.8774V60.7907H40.8274C40.9006 60.7907 40.9446 60.7378 40.9446 60.6559ZM40.388 60.3815H38.7282V60.3238C38.7282 59.6594 39.0309 59.3561 39.5679 59.3561C40.1195 59.3561 40.388 59.6306 40.388 60.3238V60.3815ZM43.2586 59.2454V58.9951C43.2586 58.9229 43.2146 58.8844 43.1268 58.8844C42.8436 58.8844 42.5556 58.9662 42.2431 59.178V59.048C42.2431 58.9807 42.1943 58.9229 42.126 58.9229H41.833C41.7647 58.9229 41.7159 58.9807 41.7159 59.048V62.1916C41.7159 62.259 41.7696 62.3168 41.833 62.3168H42.1406C42.209 62.3168 42.2627 62.2542 42.2627 62.1916V59.6065C42.5751 59.4235 42.8387 59.3465 43.1268 59.3465C43.2146 59.3465 43.2586 59.3128 43.2586 59.2454ZM44.523 58.2586V57.7675C44.523 57.7001 44.4644 57.6424 44.396 57.6424H44.0787C44.0104 57.6424 43.9567 57.7001 43.9567 57.7675V58.2586C43.9567 58.326 44.0153 58.3789 44.0787 58.3789H44.396C44.4644 58.3789 44.523 58.326 44.523 58.2586ZM44.5084 62.1916V59.048C44.5084 58.9807 44.4546 58.9229 44.3814 58.9229H44.0836C44.0153 58.9229 43.9616 58.9807 43.9616 59.048V62.1916C43.9616 62.259 44.0153 62.3168 44.0836 62.3168H44.3814C44.4546 62.3168 44.5084 62.259 44.5084 62.1916ZM48.0721 62.1916V60.1649C48.0721 59.3465 47.7353 58.8844 46.9835 58.8844C46.6173 58.8844 46.3342 58.9758 45.9876 59.1684V59.048C45.9876 58.9807 45.9387 58.9229 45.8704 58.9229H45.5579C45.4896 58.9229 45.4359 58.9807 45.4359 59.048V62.1916C45.4359 62.259 45.4945 62.3168 45.5579 62.3168H45.8655C45.9339 62.3168 45.9924 62.2542 45.9924 62.1916V59.5872C46.2805 59.4476 46.5734 59.3465 46.837 59.3465C47.3105 59.3465 47.5254 59.5391 47.5254 60.1601V62.1868C47.5254 62.2542 47.584 62.3119 47.6523 62.3119H47.9501C48.0184 62.3168 48.0721 62.259 48.0721 62.1916ZM51.7824 59.2214V59.0625C51.7824 58.9903 51.714 58.9277 51.6408 58.9277H50.269C49.195 58.9277 48.8825 59.4717 48.8825 60.0205V60.0686C48.8825 60.3864 48.9753 60.6078 49.1706 60.7859C48.9948 60.8822 48.9118 61.0603 48.9118 61.2288V61.2336C48.9118 61.4262 48.9997 61.6284 49.1999 61.715L49.2438 61.7343C49.0388 61.8883 48.8484 62.1723 48.8484 62.5189V62.5719C48.8484 63.1736 49.2975 63.554 50.2885 63.554C51.3137 63.554 51.7141 63.1881 51.7141 62.596V62.5478C51.7141 61.9653 51.1233 61.7968 50.5131 61.6428L49.5807 61.4069C49.4391 61.3684 49.3854 61.3154 49.3854 61.2095C49.3854 61.1181 49.4342 61.0507 49.5416 60.9977C49.7222 61.0747 49.937 61.1229 50.269 61.1229C51.2307 61.1229 51.6555 60.7474 51.6555 60.0686V60.0205C51.6555 59.6883 51.5529 59.5006 51.4407 59.385L51.6652 59.3417C51.7384 59.3273 51.7824 59.2984 51.7824 59.2214ZM51.1136 60.0638C51.1136 60.4345 50.9427 60.6944 50.269 60.6944C49.5514 60.6944 49.4244 60.3382 49.4244 60.0638V60.0157C49.4244 59.6691 49.566 59.3561 50.269 59.3561C50.9427 59.3561 51.1136 59.645 51.1136 60.0157V60.0638ZM51.1624 62.596C51.1624 62.9378 51.0013 63.1351 50.2836 63.1351C49.5904 63.1351 49.3805 62.9185 49.3805 62.5719V62.5189C49.3805 62.1964 49.5074 62.0424 49.688 61.8883L50.3959 62.0664C50.9573 62.206 51.1575 62.3071 51.1575 62.5478V62.596H51.1624ZM54.98 60.6752C54.98 60.7859 54.8873 60.8774 54.775 60.8774H54.2478C54.1355 60.8774 54.0427 60.7859 54.0427 60.6752V59.852C54.0427 59.7413 54.1355 59.645 54.2478 59.645H54.775C54.8873 59.645 54.98 59.7365 54.98 59.852V60.6752ZM60.6235 60.6511V57.8494C60.6235 57.782 60.5698 57.7338 60.5063 57.7338H60.1695C60.1011 57.7338 60.0523 57.7916 60.0523 57.8494V60.6511C60.0523 61.4551 59.8034 61.8787 59.032 61.8787C58.2607 61.8787 58.0117 61.4454 58.0117 60.6511V57.8494C58.0117 57.782 57.958 57.7338 57.8945 57.7338H57.5577C57.4893 57.7338 57.4405 57.7916 57.4405 57.8494V60.6511C57.4405 61.8305 58.0263 62.3601 59.032 62.3601C60.0426 62.3601 60.6235 61.8305 60.6235 60.6511ZM64.1336 62.1916V60.1601C64.1336 59.3417 63.7967 58.8796 63.0498 58.8796C62.6837 58.8796 62.4005 58.971 62.0588 59.1636V59.048C62.0588 58.9807 62.01 58.9229 61.9416 58.9229H61.6292C61.5609 58.9229 61.512 58.9807 61.512 59.048V62.1916C61.512 62.259 61.5657 62.3168 61.6292 62.3168H61.9319C62.0002 62.3168 62.0588 62.2542 62.0588 62.1916V59.5872C62.3468 59.4476 62.6397 59.3465 62.8985 59.3465C63.372 59.3465 63.582 59.5391 63.582 60.1601V62.1916C63.582 62.259 63.6357 62.3168 63.704 62.3168H64.0018C64.0799 62.3168 64.1336 62.259 64.1336 62.1916ZM65.5786 58.2586V57.7675C65.5786 57.7001 65.5249 57.6472 65.4566 57.6472H65.1393C65.0709 57.6472 65.0124 57.7001 65.0124 57.7675V58.2586C65.0124 58.326 65.0709 58.3789 65.1393 58.3789H65.4566C65.5249 58.3789 65.5786 58.326 65.5786 58.2586ZM65.5689 62.1916V59.048C65.5689 58.9807 65.5152 58.9229 65.442 58.9229H65.1441C65.0758 58.9229 65.0172 58.9807 65.0172 59.048V62.1916C65.0172 62.259 65.0758 62.3168 65.1441 62.3168H65.442C65.5152 62.3168 65.5689 62.259 65.5689 62.1916ZM69.0838 59.0288C69.0838 58.9662 69.0448 58.9229 68.9862 58.9229H68.6445C68.5957 58.9229 68.5517 58.9614 68.5273 59.0432L67.8097 61.7294C67.7706 61.8787 67.7364 61.9076 67.6779 61.9076C67.6144 61.9076 67.5851 61.8787 67.5461 61.7294L66.8284 59.0432C66.804 58.9614 66.7601 58.9229 66.7113 58.9229H66.3695C66.306 58.9229 66.2719 58.9662 66.2719 59.0288C66.2719 59.0432 66.2719 59.0529 66.2767 59.0721L67.1165 62.0087C67.1994 62.2879 67.4093 62.3601 67.6779 62.3601C67.9464 62.3601 68.1563 62.2879 68.2393 62.0087L69.079 59.0721C69.0838 59.0529 69.0838 59.0432 69.0838 59.0288ZM72.3254 60.6559V60.3238C72.3254 59.4476 71.8665 58.8796 70.9585 58.8796C70.07 58.8796 69.5769 59.4428 69.5769 60.3238V60.8774C69.5769 62.0279 70.275 62.3601 70.9927 62.3601C71.4077 62.3601 71.7542 62.3216 72.1058 62.2542C72.2034 62.2349 72.2327 62.1916 72.2327 62.1146V61.9028C72.2327 61.8402 72.1839 61.8161 72.135 61.8161H72.1058C71.8177 61.8594 71.3588 61.8835 70.9976 61.8835C70.4215 61.8835 70.1335 61.6139 70.1335 60.8774V60.7907H72.218C72.2815 60.7907 72.3254 60.7378 72.3254 60.6559ZM71.7738 60.3815H70.1237V60.3238C70.1237 59.6594 70.4215 59.3561 70.9585 59.3561C71.5053 59.3561 71.7738 59.6257 71.7738 60.3238V60.3815ZM74.5955 59.2454V58.9951C74.5955 58.9181 74.5516 58.8844 74.4637 58.8844C74.1854 58.8844 73.8974 58.9662 73.585 59.178V59.048C73.585 58.9807 73.5362 58.9229 73.4678 58.9229H73.1749C73.1065 58.9229 73.0577 58.9807 73.0577 59.048V62.1916C73.0577 62.259 73.1163 62.3168 73.1749 62.3168H73.4776C73.5459 62.3168 73.6045 62.2542 73.6045 62.1916V59.6065C73.9169 59.4235 74.1757 59.3465 74.4637 59.3465C74.5516 59.3465 74.5955 59.3128 74.5955 59.2454ZM77.4221 61.4647C77.4221 61.0988 77.2561 60.834 76.7387 60.5356L76.1236 60.1697C75.8355 60.0012 75.694 59.8857 75.694 59.7028C75.694 59.3898 75.9234 59.3465 76.2749 59.3465C76.6215 59.3465 77.0218 59.3754 77.2366 59.3947H77.2561C77.3196 59.3947 77.3636 59.3658 77.3636 59.2887V59.0866C77.3636 59.0192 77.3245 58.9758 77.2464 58.9614C76.9535 58.9133 76.6264 58.8796 76.2749 58.8796C75.6354 58.8796 75.1472 59.0577 75.1472 59.6979C75.1472 60.0879 75.401 60.3527 75.7818 60.5789L76.4116 60.9496C76.768 61.1566 76.8803 61.2769 76.8803 61.4599C76.8803 61.792 76.6655 61.8979 76.2651 61.8979C76.0406 61.8979 75.5866 61.869 75.2888 61.8305H75.2644C75.2009 61.8305 75.1521 61.869 75.1521 61.922V62.1386C75.1521 62.206 75.2009 62.2445 75.2839 62.259C75.5865 62.3312 76.0357 62.3505 76.2651 62.3505C76.9584 62.3601 77.4221 62.0953 77.4221 61.4647ZM78.7207 58.2586V57.7675C78.7207 57.7001 78.6621 57.6472 78.5987 57.6472H78.2814C78.213 57.6472 78.1544 57.7001 78.1544 57.7675V58.2586C78.1544 58.326 78.213 58.3789 78.2814 58.3789H78.5987C78.6621 58.3789 78.7207 58.326 78.7207 58.2586ZM78.7061 62.1916V59.048C78.7061 58.9807 78.6475 58.9229 78.584 58.9229H78.2863C78.2179 58.9229 78.1642 58.9807 78.1642 59.048V62.1916C78.1642 62.259 78.2179 62.3168 78.2863 62.3168H78.584C78.6524 62.3168 78.7061 62.259 78.7061 62.1916ZM81.4546 62.2253V62.0087C81.4546 61.9461 81.4107 61.922 81.3228 61.922H80.9762C80.7272 61.922 80.6393 61.8739 80.6393 61.5321V59.3802H81.313C81.3814 59.3802 81.4351 59.3224 81.4351 59.2599V59.048C81.4351 58.9807 81.3765 58.9229 81.313 58.9229H80.6393V58.2489C80.6393 58.1863 80.5954 58.143 80.5466 58.143H80.527L80.2048 58.1912C80.1365 58.2056 80.0926 58.2537 80.0926 58.3163V58.9181H79.4872C79.4188 58.9181 79.37 58.9614 79.37 59.0288V59.1973C79.37 59.2647 79.4188 59.3032 79.4872 59.308L80.0926 59.3754V61.5273C80.0926 62.206 80.3659 62.3553 80.9371 62.3553C81.0543 62.3553 81.2154 62.3408 81.3423 62.3264C81.4204 62.3167 81.4546 62.2782 81.4546 62.2253ZM84.4716 62.1916V60.0397C84.4716 59.3128 84.125 58.8796 83.2609 58.8796C82.8362 58.8796 82.5481 58.9181 82.2943 58.9614C82.2064 58.9758 82.1625 59.0095 82.1625 59.0769V59.2936C82.1625 59.3754 82.2162 59.3899 82.2748 59.3899H82.3041C82.553 59.3658 82.8508 59.3417 83.256 59.3417C83.7393 59.3417 83.92 59.5198 83.92 60.0397V60.2852H83.4611C82.3529 60.2852 81.9623 60.6174 81.9623 61.2817V61.354C81.9623 62.1242 82.4456 62.3553 82.9778 62.3553C83.3244 62.3553 83.6368 62.2253 83.9346 62.052V62.1868C83.9346 62.2542 83.9883 62.3119 84.0615 62.3119H84.3496C84.4179 62.3168 84.4716 62.259 84.4716 62.1916ZM83.9249 61.6669C83.6271 61.8257 83.3732 61.9124 83.0851 61.9124C82.7239 61.9124 82.514 61.7968 82.514 61.3491V61.2769C82.514 60.8389 82.7141 60.6704 83.466 60.6704H83.9249V61.6669ZM84.0811 58.2441V57.7435C84.0811 57.6809 84.0176 57.6231 83.9541 57.6231H83.71C83.6466 57.6231 83.588 57.6857 83.588 57.7435V58.2441C83.588 58.3115 83.6515 58.3596 83.71 58.3596H83.9541C84.0176 58.3645 84.0811 58.3115 84.0811 58.2441ZM82.9924 58.2441V57.7435C82.9924 57.6809 82.9289 57.6231 82.8703 57.6231H82.6263C82.5628 57.6231 82.5042 57.6857 82.5042 57.7435V58.2441C82.5042 58.3115 82.5677 58.3596 82.6263 58.3596H82.8703C82.9289 58.3645 82.9924 58.3115 82.9924 58.2441ZM87.1079 62.2253V62.0087C87.1079 61.9461 87.0639 61.922 86.976 61.922H86.6245C86.3755 61.922 86.2877 61.8739 86.2877 61.5321V59.3802H86.9565C87.0249 59.3802 87.0834 59.3224 87.0834 59.2599V59.048C87.0834 58.9807 87.0298 58.9229 86.9565 58.9229H86.2877V58.2489C86.2877 58.1863 86.2438 58.143 86.1949 58.143H86.1754L85.8532 58.1912C85.7849 58.2056 85.7409 58.2537 85.7409 58.3163V58.9181H85.1356C85.0672 58.9181 85.0184 58.9614 85.0184 59.0288V59.1973C85.0184 59.2647 85.0672 59.3032 85.1356 59.308L85.7409 59.3754V61.5273C85.7409 62.206 86.0143 62.3553 86.5855 62.3553C86.7027 62.3553 86.8637 62.3408 86.9907 62.3264C87.0785 62.3167 87.1079 62.2782 87.1079 62.2253ZM92.2729 59.1106V59.0336C92.2729 58.0371 91.5406 57.6953 90.5301 57.6953C90.1688 57.6953 89.7636 57.7146 89.4951 57.7435C89.4023 57.7579 89.3438 57.8109 89.3438 57.8975V62.1964C89.3438 62.2638 89.3926 62.3216 89.4561 62.3216H89.7929C89.8613 62.3216 89.9052 62.259 89.9052 62.1964V60.4634C90.0663 60.4778 90.3299 60.4922 90.5252 60.4922C91.5406 60.4922 92.2729 60.1408 92.2729 59.1106ZM91.7066 59.1106C91.7066 59.7557 91.3795 60.0253 90.5301 60.0253C90.3689 60.0253 90.0516 60.006 89.9101 60.0012V58.1912C90.0565 58.1767 90.3397 58.1671 90.5301 58.1671C91.3356 58.1671 91.7066 58.4078 91.7066 59.0288V59.1106ZM95.6219 60.8533V60.3863C95.6219 59.4813 95.1483 58.8844 94.2354 58.8844C93.3225 58.8844 92.8538 59.4813 92.8538 60.3863V60.8533C92.8538 61.7631 93.3225 62.3601 94.2354 62.3601C95.1483 62.3601 95.6219 61.7631 95.6219 60.8533ZM95.0751 60.8533C95.0751 61.4887 94.8115 61.8835 94.2354 61.8835C93.6496 61.8835 93.4006 61.4839 93.4006 60.8533V60.3863C93.4006 59.7509 93.6545 59.3561 94.2354 59.3561C94.8213 59.3561 95.0751 59.7557 95.0751 60.3863V60.8533ZM98.1312 62.2253V62.0087C98.1312 61.9461 98.0873 61.922 97.9994 61.922H97.6479C97.3989 61.922 97.311 61.8739 97.311 61.5321V59.3802H97.9798C98.0482 59.3802 98.1068 59.3224 98.1068 59.2599V59.048C98.1068 58.9807 98.0482 58.9229 97.9798 58.9229H97.311V58.2489C97.311 58.1863 97.2671 58.143 97.2183 58.143H97.1988L96.8765 58.1912C96.8082 58.2056 96.7643 58.2537 96.7643 58.3163V58.9181H96.1589C96.0906 58.9181 96.0417 58.9614 96.0417 59.0288V59.1973C96.0417 59.2647 96.0906 59.3032 96.1589 59.308L96.7643 59.3754V61.5273C96.7643 62.206 97.0376 62.3553 97.6088 62.3553C97.726 62.3553 97.8871 62.3408 98.014 62.3264C98.097 62.3167 98.1312 62.2782 98.1312 62.2253ZM100.977 61.4647C100.977 61.0988 100.806 60.834 100.294 60.5356L99.6788 60.1697C99.3907 60.0012 99.2492 59.8857 99.2492 59.7028C99.2492 59.3898 99.4786 59.3465 99.8301 59.3465C100.177 59.3465 100.577 59.3754 100.792 59.3947H100.811C100.875 59.3947 100.919 59.3658 100.919 59.2887V59.0866C100.919 59.0192 100.88 58.9758 100.802 58.9614C100.509 58.9133 100.182 58.8796 99.8301 58.8796C99.1906 58.8796 98.7024 59.0577 98.7024 59.6979C98.7024 60.0879 98.9562 60.3527 99.337 60.5789L99.9619 60.9496C100.318 61.1566 100.431 61.2769 100.431 61.4599C100.431 61.792 100.221 61.8979 99.8154 61.8979C99.5909 61.8979 99.1369 61.869 98.8391 61.8305H98.8147C98.7512 61.8305 98.7024 61.869 98.7024 61.922V62.1386C98.7024 62.206 98.7512 62.2445 98.8342 62.259C99.1369 62.3312 99.586 62.3505 99.8154 62.3505C100.509 62.3601 100.977 62.0953 100.977 61.4647ZM104.238 62.1146V57.7964C104.238 57.729 104.19 57.6809 104.126 57.6809H103.809C103.74 57.6809 103.692 57.7338 103.692 57.7964V58.9421C103.448 58.8988 103.155 58.8796 102.964 58.8796C102.056 58.8796 101.607 59.4235 101.607 60.3912V60.8341C101.607 61.7583 102.037 62.3553 102.964 62.3553C103.345 62.3553 103.726 62.3264 104.107 62.2494C104.219 62.2349 104.238 62.1916 104.238 62.1146ZM103.692 61.845C103.482 61.8642 103.174 61.8835 102.964 61.8835C102.349 61.8835 102.154 61.508 102.154 60.8341V60.3912C102.154 59.7316 102.354 59.3561 102.964 59.3561C103.164 59.3561 103.487 59.361 103.692 59.3995V61.845ZM107.446 62.1916V60.0397C107.446 59.3128 107.099 58.8796 106.235 58.8796C105.81 58.8796 105.522 58.9181 105.269 58.9614C105.181 58.9758 105.137 59.0095 105.137 59.0769V59.2936C105.137 59.3754 105.19 59.3899 105.249 59.3899H105.278C105.527 59.3658 105.825 59.3417 106.23 59.3417C106.714 59.3417 106.899 59.5198 106.899 60.0397V60.2852H106.435C105.327 60.2852 104.937 60.6174 104.937 61.2817V61.354C104.937 62.1242 105.42 62.3553 105.952 62.3553C106.304 62.3553 106.611 62.2253 106.909 62.052V62.1868C106.909 62.2542 106.967 62.3119 107.036 62.3119H107.324C107.392 62.3168 107.446 62.259 107.446 62.1916ZM106.899 61.6669C106.601 61.8257 106.343 61.9124 106.059 61.9124C105.698 61.9124 105.488 61.7968 105.488 61.3491V61.2769C105.488 60.8389 105.688 60.6704 106.44 60.6704H106.904V61.6669H106.899ZM112.425 62.1916V60.006C112.425 59.1492 111.976 58.8699 111.415 58.8699C111.093 58.8699 110.727 58.9614 110.38 59.1203C110.224 58.9422 110.024 58.8699 109.76 58.8699C109.418 58.8699 109.101 59.0047 108.852 59.1588V59.0432C108.852 58.9758 108.803 58.9181 108.735 58.9181H108.422C108.354 58.9181 108.305 58.9758 108.305 59.0432V62.1868C108.305 62.2542 108.349 62.3119 108.412 62.3119H108.74C108.808 62.3119 108.852 62.2494 108.852 62.1868V59.5824C109.115 59.4524 109.389 59.3417 109.613 59.3417C109.936 59.3417 110.092 59.4524 110.092 59.9916V62.1868C110.092 62.2542 110.136 62.3119 110.199 62.3119H110.526C110.595 62.3119 110.639 62.2494 110.639 62.1868V59.9916C110.639 59.8087 110.624 59.645 110.585 59.5102C110.829 59.4187 111.088 59.3417 111.312 59.3417C111.635 59.3417 111.879 59.4861 111.879 60.0012V62.1868C111.879 62.2542 111.932 62.3119 112.001 62.3119H112.298C112.367 62.3168 112.425 62.259 112.425 62.1916Z" fill="#595F61"/>
</svg>
