<svg width="20" height="20" viewBox="0 0 20 20" fill="none" xmlns="http://www.w3.org/2000/svg">
<path d="M19.9997 9.16669H18.333V14.1667H19.9997V9.16669Z" fill="#1E6A99"/>
<path d="M11.0338 13.1083C10.7055 13.2583 10.358 13.3333 9.99967 13.3333C9.64134 13.3333 9.29384 13.2583 8.96634 13.1092L3.33301 10.5483V15C3.33301 17.1883 6.68634 18.3333 9.99967 18.3333C13.313 18.3333 16.6663 17.1883 16.6663 15V10.5492L11.0338 13.1083Z" fill="#1E6A99"/>
<path d="M19.5117 5.90834L10.345 1.74167C10.1258 1.64251 9.875 1.64251 9.65583 1.74167L0.489167 5.90834C0.190833 6.04334 0 6.33917 0 6.66667C0 6.99417 0.190833 7.29001 0.488333 7.42501L9.655 11.5917C9.765 11.6417 9.8825 11.6667 10 11.6667C10.1175 11.6667 10.235 11.6417 10.345 11.5917L19.5117 7.42501C19.8092 7.29001 20 6.99417 20 6.66667C20 6.33917 19.8092 6.04334 19.5117 5.90834Z" fill="#1E6A99"/>
</svg>
