<svg width="20" height="20" viewBox="0 0 20 20" fill="none" xmlns="http://www.w3.org/2000/svg">
<g clip-path="url(#clip0)">
<path d="M20.1173 10.0608C20.1177 8.13847 19.5672 6.25626 18.5311 4.63706C17.4949 3.01785 16.0165 1.72946 14.2708 0.92445C12.5252 0.119437 10.5854 -0.168485 8.68113 0.0947747C6.77689 0.358034 4.98797 1.16145 3.52619 2.40989C2.0644 3.65833 0.990982 5.29951 0.433019 7.13911C-0.124945 8.9787 -0.144079 10.9397 0.377883 12.7898C0.899844 14.6399 1.94104 16.3017 3.37818 17.5784C4.81533 18.8552 6.58823 19.6933 8.48697 19.9937V12.9678H5.93333V10.0608H8.48697V7.84415C8.43198 7.32669 8.49149 6.80348 8.66126 6.31159C8.83104 5.81969 9.10694 5.37116 9.46939 4.99779C9.83185 4.62441 10.272 4.33533 10.7586 4.15104C11.2453 3.96674 11.7665 3.89174 12.2854 3.93135C13.0398 3.94126 13.7924 4.00681 14.5372 4.12749V6.60568H13.2698C13.0539 6.57745 12.8345 6.59813 12.6276 6.66618C12.4208 6.73423 12.232 6.84792 12.075 6.99883C11.9181 7.14974 11.797 7.33402 11.7209 7.53801C11.6448 7.74201 11.6156 7.96051 11.6353 8.17734V10.0633H14.4253L13.979 12.9703H11.6303V20C13.9969 19.6256 16.1521 18.4187 17.708 16.5966C19.2639 14.7745 20.1182 12.4568 20.1173 10.0608Z" fill="#1E6A99"/>
</g>
<defs>
<clipPath id="clip0">
<rect width="20" height="20" fill="white"/>
</clipPath>
</defs>
</svg>
