<svg width="303" height="80" viewBox="0 0 303 80" fill="none" xmlns="http://www.w3.org/2000/svg">
<path d="M54.1305 63.319L0 31.6008V45.4629L54.1305 77.1811V63.319Z" fill="#0098DB"/>
<path d="M54.1305 41.5861L18.6182 20.7931V34.6551L54.1305 55.3307V41.5861Z" fill="#EE1563"/>
<path d="M54.1307 19.7358L37.2365 9.86792L37.1216 23.73L54.1307 33.5978V19.7358Z" fill="#FFB600"/>
<path d="M37.2361 9.86789L54.1303 0V13.862L49.0736 16.7989L37.2361 9.86789Z" fill="#E69E07"/>
<path d="M18.6182 20.7931L37.2363 9.86792L37.1214 23.73L30.3407 27.6066L18.6182 20.7931Z" fill="#99154C"/>
<path d="M0 31.6008L18.6181 20.7931V34.6551L11.8375 38.5318L0 31.6008Z" fill="#1E6A99"/>
<path d="M54.1305 63.319L108.376 31.6008V45.4629L54.1305 77.1811V63.319Z" fill="#1E6A99"/>
<path d="M54.1305 41.5861L89.7578 20.7931V34.6551L54.1305 55.3307V41.5861Z" fill="#99154C"/>
<path d="M54.1305 19.7358L71.1397 9.86792L71.2546 23.73L54.1305 33.5978V19.7358Z" fill="#E69E07"/>
<path d="M71.1396 9.86789L54.1305 0V13.862L59.3022 16.7989L71.1396 9.86789Z" fill="#CC8C06"/>
<path d="M89.7579 20.7931L71.1398 9.86792L71.2547 23.73L77.9204 27.6066L89.7579 20.7931Z" fill="#78052E"/>
<path d="M108.376 31.6008L89.7577 20.7931V34.6551L96.5384 38.5318L108.376 31.6008Z" fill="#004465"/>
<path d="M119.18 53.0948H120.559V57.089H124.926V53.0948H126.305V62.1404H124.926V58.1463H120.559V62.1404H119.18V53.0948Z" fill="#1E6A99"/>
<path d="M127.799 60.2611C127.799 58.7343 129.063 58.3819 130.327 58.2645C131.477 58.147 132.051 58.147 132.051 57.6772C132.051 56.8551 131.592 56.5027 130.787 56.5027C129.868 56.5027 129.408 56.9725 129.293 57.4423L128.029 57.2074C128.489 55.9155 129.523 55.4457 130.787 55.4457C131.821 55.4457 133.316 55.798 133.316 57.7947V62.2578H132.051V61.3182C131.821 61.788 131.132 62.3752 130.098 62.3752C128.833 62.2577 127.799 61.5531 127.799 60.2611ZM132.051 59.6739V58.8517C131.821 59.0866 130.902 59.2041 130.442 59.2041C129.638 59.3215 129.063 59.5564 129.063 60.2611C129.063 60.9658 129.638 61.2007 130.327 61.2007C131.477 61.2007 132.051 60.496 132.051 59.6739Z" fill="#1E6A99"/>
<path d="M138.832 57.2074C138.717 56.7376 138.258 56.2678 137.453 56.2678C136.763 56.2678 136.189 56.6202 136.189 57.2074C136.189 57.6772 136.534 57.9121 137.223 58.147L138.258 58.3819C139.522 58.6168 140.096 59.3215 140.096 60.2611C140.096 61.4356 138.947 62.3752 137.338 62.3752C135.844 62.3752 134.81 61.6705 134.695 60.496L135.959 60.2611C136.074 60.9658 136.649 61.3182 137.338 61.3182C138.143 61.3182 138.717 60.8484 138.717 60.3786C138.717 59.9088 138.372 59.6739 137.798 59.5564L136.649 59.3215C135.384 59.0866 134.81 58.3819 134.81 57.4423C134.81 56.2678 135.844 55.4457 137.338 55.4457C138.832 55.4457 139.637 56.1504 139.866 57.2074H138.832Z" fill="#1E6A99"/>
<path d="M145.383 57.2074C145.268 56.7376 144.808 56.2678 144.004 56.2678C143.314 56.2678 142.739 56.6202 142.739 57.2074C142.739 57.6772 143.084 57.9121 143.774 58.147L144.808 58.3819C146.072 58.6168 146.647 59.3215 146.647 60.2611C146.647 61.4356 145.498 62.3752 143.889 62.3752C142.395 62.3752 141.36 61.6705 141.245 60.496L142.51 60.2611C142.624 60.9658 143.199 61.3182 143.889 61.3182C144.693 61.3182 145.268 60.8484 145.268 60.3786C145.268 59.9088 144.923 59.6739 144.348 59.5564L143.199 59.3215C141.935 59.0866 141.36 58.3819 141.36 57.4423C141.36 56.2678 142.395 55.4457 143.889 55.4457C145.383 55.4457 146.187 56.1504 146.417 57.2074H145.383Z" fill="#1E6A99"/>
<path d="M147.911 58.8519C147.911 56.7378 149.176 55.3284 151.014 55.3284C152.853 55.3284 154.117 56.7378 154.117 58.8519C154.117 60.966 152.853 62.3754 151.014 62.3754C149.061 62.2579 147.911 60.8485 147.911 58.8519ZM152.738 58.7344C152.738 57.4425 152.164 56.268 150.899 56.268C149.635 56.268 149.061 57.325 149.061 58.7344C149.061 60.0264 149.635 61.0834 150.899 61.0834C152.164 61.2009 152.738 60.1438 152.738 58.7344Z" fill="#1E6A99"/>
<path d="M158.829 53.0948H162.047C164.116 53.0948 165.15 54.3871 165.15 56.0317C165.15 57.6764 164.116 58.9686 162.047 58.9686H160.208V62.1404H158.829V53.0948ZM161.932 57.7938C163.197 57.7938 163.771 57.089 163.771 56.0317C163.771 54.9744 163.197 54.2696 161.932 54.2696H160.208V57.7938H161.932Z" fill="#1E6A99"/>
<path d="M167.794 62.1404H166.53V53.0948H167.794V62.1404Z" fill="#1E6A99"/>
<path d="M169.288 60.2611C169.288 58.7343 170.552 58.3819 171.816 58.2645C172.965 58.147 173.54 58.147 173.54 57.6772C173.54 56.8551 173.08 56.5027 172.276 56.5027C171.356 56.5027 170.897 56.9725 170.782 57.4423L169.517 57.2074C169.977 55.9155 171.011 55.4457 172.276 55.4457C173.31 55.4457 174.804 55.798 174.804 57.7947V62.2578H173.54V61.3182C173.31 61.788 172.62 62.3752 171.586 62.3752C170.207 62.2577 169.288 61.5531 169.288 60.2611ZM173.54 59.6739V58.8517C173.31 59.0866 172.391 59.2041 171.931 59.2041C171.126 59.3215 170.552 59.5564 170.552 60.2611C170.552 60.9658 171.126 61.2007 171.816 61.2007C172.85 61.2007 173.54 60.496 173.54 59.6739Z" fill="#1E6A99"/>
<path d="M179.631 56.3827H178.252V60.1418C178.252 60.9641 178.597 61.0816 179.056 61.0816C179.286 61.0816 179.401 61.0816 179.516 61.0816L179.746 62.1389C179.631 62.1389 179.286 62.2563 178.942 62.2563C177.907 62.2563 176.988 61.669 176.988 60.4942V56.3827H176.068V55.3254H176.988V53.6808H178.252V55.3254H179.631V56.3827Z" fill="#1E6A99"/>
<path d="M184.228 56.3827H182.849V60.1418C182.849 60.9641 183.194 61.0816 183.653 61.0816C183.883 61.0816 183.998 61.0816 184.113 61.0816L184.343 62.1389C184.228 62.1389 183.883 62.2563 183.538 62.2563C182.504 62.2563 181.585 61.669 181.585 60.4942V56.3827H180.665V55.3254H181.585V53.6808H182.849V55.3254H184.228V56.3827Z" fill="#1E6A99"/>
<path d="M186.872 62.1371H185.607V55.3251H186.872V56.3821H186.987C187.331 55.6774 187.906 55.2076 188.94 55.2076C190.319 55.2076 191.239 56.1472 191.239 57.7915V62.1371H189.975V58.0264C189.975 57.0868 189.4 56.4996 188.595 56.4996C187.676 56.4996 187.101 57.0868 187.101 58.2613V62.1371H186.872Z" fill="#1E6A99"/>
<path d="M192.618 58.8519C192.618 56.7378 193.882 55.3284 195.721 55.3284C197.215 55.3284 198.709 56.268 198.709 58.7344V59.2042H193.997C193.997 60.4962 194.801 61.2009 195.836 61.2009C196.525 61.2009 197.1 60.8485 197.33 60.2613L198.594 60.4962C198.249 61.5532 197.33 62.3754 195.836 62.3754C193.767 62.2579 192.618 60.966 192.618 58.8519ZM197.33 58.1472C197.33 57.0901 196.64 56.3854 195.606 56.3854C194.571 56.3854 193.882 57.2076 193.767 58.1472H197.33Z" fill="#1E6A99"/>
<path d="M200.088 55.3251H201.352V56.3821H201.467C201.697 55.6774 202.386 55.2076 203.191 55.2076C203.306 55.2076 203.651 55.2076 203.766 55.2076V56.4996C203.651 56.4996 203.306 56.3821 203.076 56.3821C202.157 56.3821 201.467 56.9694 201.467 57.909V62.0197H200.203V55.3251H200.088Z" fill="#1E6A99"/>
<path d="M209.397 62.1404H208.018V53.0948H209.397V62.1404Z" fill="#1E6A99"/>
<path d="M212.615 62.1371H211.351V55.3251H212.615V56.3821H212.73C213.075 55.6774 213.649 55.2076 214.684 55.2076C216.063 55.2076 216.982 56.1472 216.982 57.7915V62.1371H215.718V58.0264C215.718 57.0868 215.143 56.4996 214.339 56.4996C213.42 56.4996 212.845 57.0868 212.845 58.2613V62.1371H212.615Z" fill="#1E6A99"/>
<path d="M222.384 57.2074C222.269 56.7376 221.809 56.2678 221.005 56.2678C220.315 56.2678 219.74 56.6202 219.74 57.2074C219.74 57.6772 220.085 57.9121 220.775 58.147L221.809 58.3819C223.073 58.6168 223.648 59.3215 223.648 60.2611C223.648 61.4356 222.499 62.3752 220.89 62.3752C219.396 62.3752 218.361 61.6705 218.246 60.496L219.511 60.2611C219.625 60.9658 220.2 61.3182 220.89 61.3182C221.694 61.3182 222.269 60.8484 222.269 60.3786C222.269 59.9088 221.924 59.6739 221.349 59.5564L220.2 59.3215C218.936 59.0866 218.361 58.3819 218.361 57.4423C218.361 56.2678 219.396 55.4457 220.89 55.4457C222.384 55.4457 223.188 56.1504 223.418 57.2074H222.384Z" fill="#1E6A99"/>
<path d="M228.245 56.3827H226.866V60.1418C226.866 60.9641 227.211 61.0816 227.67 61.0816C227.9 61.0816 228.015 61.0816 228.13 61.0816L228.36 62.1389C228.245 62.1389 227.9 62.2563 227.555 62.2563C226.521 62.2563 225.602 61.669 225.602 60.4942V56.3827H224.682V55.3254H225.602V53.6808H226.866V55.3254H228.245V56.3827Z" fill="#1E6A99"/>
<path d="M229.509 53.5683C229.509 53.0984 229.854 52.746 230.314 52.746C230.773 52.746 231.118 53.0984 231.118 53.5683C231.118 54.0382 230.773 54.3906 230.314 54.3906C229.854 54.2731 229.509 53.9207 229.509 53.5683ZM229.624 55.3304H230.888V62.144H229.624V55.3304Z" fill="#1E6A99"/>
<path d="M235.83 56.3827H234.451V60.1418C234.451 60.9641 234.796 61.0816 235.256 61.0816C235.485 61.0816 235.6 61.0816 235.715 61.0816L235.945 62.1389C235.83 62.1389 235.485 62.2563 235.141 62.2563C234.106 62.2563 233.187 61.669 233.187 60.4942V56.3827H232.153V55.3254H233.072V53.6808H234.336V55.3254H235.715V56.3827H235.83Z" fill="#1E6A99"/>
<path d="M241.462 55.3284H242.726V62.1405H241.462V60.966H241.347C241.002 61.6707 240.312 62.2579 239.393 62.2579C238.129 62.2579 237.209 61.4358 237.209 59.674V55.3284H238.473V59.4391C238.473 60.3787 239.048 60.966 239.853 60.966C240.542 60.966 241.462 60.3787 241.462 59.2042V55.3284Z" fill="#1E6A99"/>
<path d="M247.553 56.3827H246.174V60.1418C246.174 60.9641 246.518 61.0816 246.978 61.0816C247.208 61.0816 247.323 61.0816 247.438 61.0816L247.668 62.1389C247.553 62.1389 247.208 62.2563 246.863 62.2563C245.829 62.2563 244.909 61.669 244.909 60.4942V56.3827H243.99V55.3254H244.909V53.6808H246.174V55.3254H247.553V56.3827Z" fill="#1E6A99"/>
<path d="M248.702 58.8519C248.702 56.7378 249.966 55.3284 251.805 55.3284C253.299 55.3284 254.793 56.268 254.793 58.7344V59.2042H250.081C250.081 60.4962 250.886 61.2009 251.92 61.2009C252.61 61.2009 253.184 60.8485 253.414 60.2613L254.678 60.4962C254.333 61.5532 253.414 62.3754 251.92 62.3754C249.851 62.2579 248.702 60.966 248.702 58.8519ZM253.414 58.1472C253.414 57.0901 252.725 56.3854 251.69 56.3854C250.656 56.3854 249.966 57.2076 249.851 58.1472H253.414Z" fill="#1E6A99"/>
<path d="M122.283 71.4245H120.903V77.1808H119.524V71.4245H118.49V70.3672H119.524V69.5449C119.524 68.2527 120.444 67.6653 121.478 67.6653C122.053 67.6653 122.398 67.7828 122.512 67.9002L122.168 68.9575C122.053 68.9575 121.823 68.84 121.593 68.84C120.903 68.84 120.674 69.1925 120.674 69.7798V70.3672H122.053V71.4245H122.283Z" fill="#1E6A99"/>
<path d="M122.972 73.7733C122.972 71.6593 124.236 70.2499 126.075 70.2499C127.914 70.2499 129.178 71.6593 129.178 73.7733C129.178 75.8874 127.914 77.2968 126.075 77.2968C124.236 77.2968 122.972 75.8874 122.972 73.7733ZM127.914 73.7733C127.914 72.4814 127.339 71.3069 126.075 71.3069C124.811 71.3069 124.236 72.3639 124.236 73.7733C124.236 75.0653 124.811 76.1223 126.075 76.1223C127.339 76.1223 127.914 75.0653 127.914 73.7733Z" fill="#1E6A99"/>
<path d="M130.672 70.3673H131.937V71.4244H132.051C132.281 70.7197 132.971 70.2499 133.775 70.2499C133.89 70.2499 134.235 70.2499 134.35 70.2499V71.5418C134.235 71.5418 133.89 71.4244 133.66 71.4244C132.741 71.4244 132.051 72.0116 132.051 72.9512V77.0619H130.787V70.3673H130.672Z" fill="#1E6A99"/>
<path d="M138.717 77.1807V68.1351H141.705C144.348 68.1351 145.843 69.7798 145.843 72.5992C145.843 75.4186 144.234 77.1807 141.59 77.1807H138.717ZM141.475 76.006C143.544 76.006 144.463 74.8312 144.463 72.5992C144.463 70.4846 143.429 69.3099 141.475 69.3099H139.981V76.006H141.475Z" fill="#1E6A99"/>
<path d="M147.222 68.4876C147.222 68.0177 147.566 67.6653 148.026 67.6653C148.486 67.6653 148.831 68.0177 148.831 68.4876C148.831 68.9575 148.486 69.3099 148.026 69.3099C147.566 69.3099 147.222 68.9575 147.222 68.4876ZM147.337 70.3672H148.601V77.1808H147.337V70.3672Z" fill="#1E6A99"/>
<path d="M150.44 78.2381L151.589 77.7682C151.819 78.1206 152.279 78.708 153.313 78.708C154.347 78.708 155.037 78.2381 155.037 77.1808V75.8886H154.922C154.692 76.3585 154.232 77.0633 152.968 77.0633C151.359 77.0633 150.21 75.8886 150.21 73.7741C150.21 71.6595 151.359 70.3673 152.968 70.3673C154.232 70.3673 154.692 71.1896 154.922 71.5421H155.037V70.4848H156.301V77.4158C156.301 79.1779 155.037 80.0002 153.313 80.0002C151.589 79.7652 150.785 79.0604 150.44 78.2381ZM154.922 73.6566C154.922 72.2469 154.347 71.3071 153.198 71.3071C152.049 71.3071 151.474 72.3644 151.474 73.6566C151.474 74.9488 152.049 75.8886 153.198 75.8886C154.347 75.8886 154.922 75.0663 154.922 73.6566Z" fill="#1E6A99"/>
<path d="M157.795 68.4876C157.795 68.0177 158.14 67.6653 158.599 67.6653C159.059 67.6653 159.404 68.0177 159.404 68.4876C159.404 68.9575 159.059 69.3099 158.599 69.3099C158.14 69.3099 157.795 68.9575 157.795 68.4876ZM157.91 70.3672H159.174V77.1808H157.91V70.3672Z" fill="#1E6A99"/>
<path d="M164.116 71.4245H162.737V75.1837C162.737 76.006 163.082 76.1235 163.541 76.1235C163.771 76.1235 163.886 76.1235 164.001 76.1235L164.231 77.1808C164.116 77.1808 163.771 77.2983 163.426 77.2983C162.392 77.2983 161.473 76.7109 161.473 75.5361V71.542H160.553V70.4847H161.473V68.8401H162.737V70.4847H164.116V71.4245Z" fill="#1E6A99"/>
<path d="M165.265 75.1827C165.265 73.6559 166.53 73.3035 167.794 73.1861C168.943 73.0686 169.518 73.0686 169.518 72.5988C169.518 71.7767 169.058 71.4243 168.253 71.4243C167.334 71.4243 166.874 71.8941 166.759 72.3639L165.495 72.129C165.955 70.8371 166.989 70.3673 168.253 70.3673C169.288 70.3673 170.782 70.7197 170.782 72.7163V77.1793H169.518V76.2397C169.288 76.7095 168.598 77.2968 167.564 77.2968C166.185 77.2968 165.265 76.5921 165.265 75.1827ZM169.518 74.7129V73.8908C169.288 74.1257 168.368 74.2431 167.909 74.2431C167.104 74.3606 166.53 74.5954 166.53 75.3001C166.53 76.0048 167.104 76.2397 167.794 76.2397C168.828 76.2397 169.518 75.535 169.518 74.7129Z" fill="#1E6A99"/>
<path d="M173.77 77.1807H172.506V68.1351H173.77V77.1807Z" fill="#1E6A99"/>
<path d="M178.826 68.0177H180.206V72.0119H184.573V68.0177H185.952V77.0633H184.573V73.0691H180.206V77.0633H178.826V68.0177Z" fill="#1E6A99"/>
<path d="M187.561 73.7733C187.561 71.6593 188.825 70.2499 190.664 70.2499C192.158 70.2499 193.652 71.1895 193.652 73.6559V74.1257H188.94C188.94 75.4176 189.745 76.1223 190.779 76.1223C191.469 76.1223 192.043 75.77 192.273 75.1827L193.537 75.4176C193.192 76.4746 192.273 77.2968 190.779 77.2968C188.71 77.2968 187.561 75.8874 187.561 73.7733ZM192.273 73.1861C192.273 72.1291 191.583 71.4244 190.549 71.4244C189.515 71.4244 188.825 72.2465 188.71 73.1861H192.273Z" fill="#1E6A99"/>
<path d="M194.687 75.1827C194.687 73.6559 195.951 73.3035 197.215 73.1861C198.364 73.0686 198.939 73.0686 198.939 72.5988C198.939 71.7767 198.479 71.4243 197.675 71.4243C196.755 71.4243 196.295 71.8941 196.181 72.3639L194.916 72.129C195.376 70.8371 196.41 70.3673 197.675 70.3673C198.709 70.3673 200.203 70.7197 200.203 72.7163V77.1793H198.939V76.2397C198.709 76.7095 198.019 77.2968 196.985 77.2968C195.721 77.2968 194.687 76.5921 194.687 75.1827ZM198.939 74.7129V73.8908C198.709 74.1257 197.79 74.2431 197.33 74.2431C196.525 74.3606 195.951 74.5954 195.951 75.3001C195.951 76.0048 196.525 76.2397 197.215 76.2397C198.249 76.2397 198.939 75.535 198.939 74.7129Z" fill="#1E6A99"/>
<path d="M203.192 77.1807H201.927V68.1351H203.192V77.1807Z" fill="#1E6A99"/>
<path d="M208.133 71.4245H206.753V75.1837C206.753 76.006 207.098 76.1235 207.558 76.1235C207.788 76.1235 207.903 76.1235 208.018 76.1235L208.247 77.1808C208.133 77.1808 207.788 77.2983 207.443 77.2983C206.409 77.2983 205.489 76.7109 205.489 75.5361V71.542H204.57V70.4847H205.489V68.8401H206.753V70.4847H208.133V71.4245Z" fill="#1E6A99"/>
<path d="M211.006 77.1807H209.742V68.1351H211.006V71.5419H211.121C211.466 70.8371 212.04 70.3672 213.075 70.3672C214.454 70.3672 215.373 71.1895 215.373 72.9516V77.2982H214.109V73.1866C214.109 72.2468 213.534 71.6594 212.73 71.6594C211.811 71.6594 211.121 72.2468 211.121 73.4215V77.1807H211.006Z" fill="#1E6A99"/>
<path d="M219.97 75.1827C219.97 73.6559 221.234 73.3035 222.499 73.1861C223.648 73.0686 224.223 73.0686 224.223 72.5988C224.223 71.7767 223.763 71.4243 222.958 71.4243C222.039 71.4243 221.579 71.8941 221.464 72.3639L220.2 72.129C220.66 70.8371 221.694 70.3673 222.958 70.3673C223.993 70.3673 225.487 70.7197 225.487 72.7163V77.1793H224.223V76.2397C223.993 76.7095 223.303 77.2968 222.269 77.2968C220.89 77.2968 219.97 76.5921 219.97 75.1827ZM224.223 74.7129V73.8908C223.993 74.1257 223.073 74.2431 222.614 74.2431C221.809 74.3606 221.234 74.5954 221.234 75.3001C221.234 76.0048 221.809 76.2397 222.499 76.2397C223.533 76.2397 224.223 75.535 224.223 74.7129Z" fill="#1E6A99"/>
<path d="M230.314 71.4245H228.935V75.1837C228.935 76.006 229.279 76.1235 229.739 76.1235C229.969 76.1235 230.084 76.1235 230.199 76.1235L230.429 77.1808C230.314 77.1808 229.969 77.2983 229.624 77.2983C228.59 77.2983 227.67 76.7109 227.67 75.5361V71.542H226.751V70.4847H227.67V68.8401H228.935V70.4847H230.314V71.4245Z" fill="#1E6A99"/>
<path d="M236.75 68.0177L239.623 75.0662H239.738L242.611 68.0177H244.22V77.0633H242.956V70.4847H242.841L240.198 77.0633H239.048L236.405 70.4847H236.29V77.0633H235.026V68.0177H236.75Z" fill="#1E6A99"/>
<path d="M245.599 73.7733C245.599 71.6593 246.863 70.2499 248.702 70.2499C250.541 70.2499 251.805 71.6593 251.805 73.7733C251.805 75.8874 250.541 77.2968 248.702 77.2968C246.863 77.2968 245.599 75.8874 245.599 73.7733ZM250.541 73.7733C250.541 72.4814 249.966 71.3069 248.702 71.3069C247.438 71.3069 246.863 72.3639 246.863 73.7733C246.863 75.0653 247.438 76.1223 248.702 76.1223C249.966 76.1223 250.541 75.0653 250.541 73.7733Z" fill="#1E6A99"/>
<path d="M257.436 70.3673H258.701V77.1793H257.436V76.0048C257.092 76.7095 256.402 77.2968 255.483 77.2968C254.218 77.2968 253.299 76.4746 253.299 74.7129V70.3673H254.563V74.478C254.563 75.4176 255.138 76.0048 255.942 76.0048C256.632 76.0048 257.551 75.4176 257.551 74.2431V70.3673H257.436Z" fill="#1E6A99"/>
<path d="M261.804 77.1793H260.539V70.3673H261.804V71.4244H261.918C262.263 70.7197 262.838 70.2499 263.872 70.2499C265.251 70.2499 266.171 71.1895 266.171 72.8337V77.1793H264.907V73.0686C264.907 72.1291 264.332 71.5418 263.527 71.5418C262.608 71.5418 262.033 72.1291 262.033 73.3035V77.1793H261.804Z" fill="#1E6A99"/>
<path d="M270.883 71.4245H269.504V75.1837C269.504 76.006 269.848 76.1235 270.308 76.1235C270.538 76.1235 270.653 76.1235 270.768 76.1235L270.998 77.1808C270.883 77.1808 270.538 77.2983 270.193 77.2983C269.159 77.2983 268.239 76.7109 268.239 75.5361V71.542H267.32V70.4847H268.239V68.8401H269.504V70.4847H270.883V71.4245Z" fill="#1E6A99"/>
<path d="M278.698 69.0749C277.549 69.0749 276.859 69.6623 276.859 70.3671C276.859 71.1894 277.778 71.5419 278.468 71.7768L279.387 72.0118C280.537 72.2467 281.916 72.9515 281.916 74.5962C281.916 76.1234 280.767 77.2981 278.583 77.2981C276.629 77.2981 275.365 76.2408 275.25 74.5962H276.629C276.744 75.536 277.549 76.0059 278.583 76.0059C279.732 76.0059 280.537 75.4185 280.537 74.4787C280.537 73.6564 279.847 73.304 278.813 73.069L277.778 72.8341C276.399 72.4816 275.48 71.6593 275.48 70.4846C275.48 68.9574 276.859 67.9001 278.583 67.9001C280.422 67.9001 281.686 68.9574 281.686 70.3671H280.422C280.422 69.6623 279.732 69.0749 278.698 69.0749Z" fill="#1E6A99"/>
<path d="M283.295 68.4876C283.295 68.0177 283.64 67.6653 284.1 67.6653C284.559 67.6653 284.904 68.0177 284.904 68.4876C284.904 68.9575 284.559 69.3099 284.1 69.3099C283.64 69.3099 283.295 68.9575 283.295 68.4876ZM283.41 70.3672H284.674V77.1808H283.41V70.3672Z" fill="#1E6A99"/>
<path d="M287.777 77.1793H286.513V70.3673H287.777V71.4244H287.892C288.237 70.7197 288.811 70.2499 289.846 70.2499C291.225 70.2499 292.144 71.1895 292.144 72.8337V77.1793H290.765V73.0686C290.765 72.1291 290.191 71.5418 289.386 71.5418C288.467 71.5418 287.892 72.1291 287.892 73.3035V77.1793H287.777Z" fill="#1E6A99"/>
<path d="M293.523 75.1827C293.523 73.6559 294.788 73.3035 296.052 73.1861C297.201 73.0686 297.776 73.0686 297.776 72.5988C297.776 71.7767 297.316 71.4243 296.512 71.4243C295.592 71.4243 295.132 71.8941 295.018 72.3639L293.753 72.129C294.213 70.8371 295.247 70.3673 296.512 70.3673C297.546 70.3673 299.04 70.7197 299.04 72.7163V77.1793H297.776V76.2397C297.546 76.7095 296.856 77.2968 295.822 77.2968C294.443 77.2968 293.523 76.5921 293.523 75.1827ZM297.661 74.7129V73.8908C297.431 74.1257 296.512 74.2431 296.052 74.2431C295.247 74.3606 294.673 74.5954 294.673 75.3001C294.673 76.0048 295.247 76.2397 295.937 76.2397C297.086 76.2397 297.661 75.535 297.661 74.7129Z" fill="#1E6A99"/>
<path d="M300.534 68.4876C300.534 68.0177 300.879 67.6653 301.338 67.6653C301.798 67.6653 302.143 68.0177 302.143 68.4876C302.143 68.9575 301.798 69.3099 301.338 69.3099C300.879 69.3099 300.534 68.9575 300.534 68.4876ZM300.764 70.3672H302.028V77.1808H300.764V70.3672Z" fill="#1E6A99"/>
<path d="M119.18 16.2074H125.271V28.3073H137.568V16.2074H143.659V45.5761H137.568V33.4762H125.271V45.5761H119.18V16.2074Z" fill="#1E6A99"/>
<path d="M149.52 16.2074H160.783C167.334 16.2074 171.011 20.319 171.011 26.1928C171.011 32.0665 167.219 36.0606 160.553 36.0606H155.496V45.5761H149.405V16.2074H149.52ZM159.748 31.0092C163.196 31.0092 164.92 29.0122 164.92 26.0753C164.92 23.1384 163.196 21.2588 159.748 21.2588H155.611V31.0092H159.748Z" fill="#1E6A99"/>
<path d="M182.045 45.5761H175.954V16.2074H182.045V45.5761Z" fill="#1E6A99"/>
<path d="M206.409 16.2077L214.339 35.9435H214.684L222.614 16.2077H230.084V45.5764H224.108V26.428H223.878L216.408 45.3414H212.385L204.915 26.3105H204.685V45.4589H198.824V16.0902H206.409V16.2077Z" fill="#1E6A99"/>
<path d="M246.633 21.0277C243.645 21.0277 242.036 22.4374 242.036 24.317C242.036 26.4315 244.105 27.3713 246.518 27.9587L249.047 28.5461C253.989 29.7208 257.666 32.3053 257.666 37.1218C257.666 42.5256 253.529 45.9324 246.518 45.9324C239.508 45.9324 235.141 42.6431 234.911 36.2994H240.772C241.002 39.2363 243.186 40.7635 246.403 40.7635C249.506 40.7635 251.46 39.3538 251.46 37.1218C251.46 35.1247 249.736 34.1849 246.633 33.48L243.53 32.6577C238.703 31.483 235.715 29.016 235.715 24.6694C235.715 19.3831 240.312 15.7413 246.633 15.7413C253.069 15.7413 257.207 19.3831 257.322 24.5519H251.46C251.23 22.3199 249.507 21.0277 246.633 21.0277Z" fill="#1E6A99"/>
<path d="M193.537 27.7238H187.446V33.9486H193.537V27.7238Z" fill="#1E6A99"/>
</svg>
