<svg width="20" height="20" viewBox="0 0 20 20" fill="none" xmlns="http://www.w3.org/2000/svg">
<path d="M20 3.83335C19.25 4.16669 18.5 4.41669 17.6667 4.50002C18.5 4.00002 19.1667 3.16669 19.5 2.25002C18.6667 2.75002 17.8333 3.08335 16.9167 3.25002C16.1667 2.41669 15.0833 1.91669 13.9167 1.91669C11.6667 1.91669 9.83333 3.75002 9.83333 6.00002C9.83333 6.33335 9.83333 6.66669 9.91667 6.91669C6.41667 6.75002 3.41667 5.08335 1.41667 2.58335C1 3.25002 0.833333 3.91669 0.833333 4.66669C0.833333 6.08335 1.58333 7.33335 2.66667 8.08335C2 8.08335 1.33333 7.91669 0.833333 7.58335C0.833333 7.58335 0.833333 7.58335 0.833333 7.66669C0.833333 9.66669 2.25 11.3334 4.08333 11.6667C3.75 11.75 3.41667 11.8334 3 11.8334C2.75 11.8334 2.5 11.8334 2.25 11.75C2.75 13.4167 4.25 14.5834 6.08333 14.5834C4.66667 15.6667 2.91667 16.3334 1 16.3334C0.666667 16.3334 0.333333 16.3334 0 16.25C1.83333 17.4167 4 18.0834 6.25 18.0834C13.8333 18.0834 17.9167 11.8334 17.9167 6.41669C17.9167 6.25002 17.9167 6.08335 17.9167 5.91669C18.75 5.33335 19.4167 4.58335 20 3.83335Z" fill="#1E6A99"/>
</svg>
