<svg width="64" height="64" viewBox="0 0 64 64" fill="none" xmlns="http://www.w3.org/2000/svg">
<path d="M42 28C38.6863 28 36 25.3137 36 22C36 18.6863 38.6863 16 42 16C45.3137 16 48 18.6863 48 22C48 25.3137 45.3137 28 42 28Z" stroke="#EE1563" stroke-width="2" stroke-miterlimit="10" stroke-linecap="square"/>
<path d="M42 9C40.3431 9 39 7.65685 39 6C39 4.34315 40.3431 3 42 3C43.6569 3 45 4.34315 45 6C45 7.65685 43.6569 9 42 9Z" stroke="#EE1563" stroke-width="2" stroke-miterlimit="10" stroke-linecap="square"/>
<path d="M58 25C56.3431 25 55 23.6569 55 22C55 20.3431 56.3431 19 58 19C59.6569 19 61 20.3431 61 22C61 23.6569 59.6569 25 58 25Z" stroke="#EE1563" stroke-width="2" stroke-miterlimit="10" stroke-linecap="square"/>
<path d="M58 45C56.3431 45 55 43.6569 55 42C55 40.3431 56.3431 39 58 39C59.6569 39 61 40.3431 61 42C61 43.6569 59.6569 45 58 45Z" stroke="#1E6A99" stroke-width="2" stroke-miterlimit="10" stroke-linecap="square"/>
<path d="M6 25C4.34315 25 3 23.6569 3 22C3 20.3431 4.34315 19 6 19C7.65685 19 9 20.3431 9 22C9 23.6569 7.65685 25 6 25Z" stroke="#0098DB" stroke-width="2" stroke-miterlimit="10" stroke-linecap="square"/>
<path d="M6 45C4.34315 45 3 43.6569 3 42C3 40.3431 4.34315 39 6 39C7.65685 39 9 40.3431 9 42C9 43.6569 7.65685 45 6 45Z" stroke="#FFB600" stroke-width="2" stroke-miterlimit="10" stroke-linecap="square"/>
<path d="M22 9C20.3431 9 19 7.65685 19 6C19 4.34315 20.3431 3 22 3C23.6569 3 25 4.34315 25 6C25 7.65685 23.6569 9 22 9Z" stroke="#0098DB" stroke-width="2" stroke-miterlimit="10" stroke-linecap="square"/>
<path d="M42 61C40.3431 61 39 59.6569 39 58C39 56.3431 40.3431 55 42 55C43.6569 55 45 56.3431 45 58C45 59.6569 43.6569 61 42 61Z" stroke="#1E6A99" stroke-width="2" stroke-miterlimit="10" stroke-linecap="square"/>
<path d="M22 61C20.3431 61 19 59.6569 19 58C19 56.3431 20.3431 55 22 55C23.6569 55 25 56.3431 25 58C25 59.6569 23.6569 61 22 61Z" stroke="#FFB600" stroke-width="2" stroke-miterlimit="10" stroke-linecap="square"/>
<path d="M22 28C18.6863 28 16 25.3137 16 22C16 18.6863 18.6863 16 22 16C25.3137 16 28 18.6863 28 22C28 25.3137 25.3137 28 22 28Z" stroke="#0098DB" stroke-width="2" stroke-miterlimit="10" stroke-linecap="square"/>
<path d="M42 48C38.6863 48 36 45.3137 36 42C36 38.6863 38.6863 36 42 36C45.3137 36 48 38.6863 48 42C48 45.3137 45.3137 48 42 48Z" stroke="#1E6A99" stroke-width="2" stroke-miterlimit="10" stroke-linecap="square"/>
<path d="M22 48C18.6863 48 16 45.3137 16 42C16 38.6863 18.6863 36 22 36C25.3137 36 28 38.6863 28 42C28 45.3137 25.3137 48 22 48Z" stroke="#FFB600" stroke-width="2" stroke-miterlimit="10" stroke-linecap="square"/>
</svg>
