<svg width="20" height="18" viewBox="0 0 20 18" fill="none" xmlns="http://www.w3.org/2000/svg">
<path d="M20 2.83335C19.25 3.16669 18.5 3.41669 17.6667 3.50002C18.5 3.00002 19.1667 2.16669 19.5 1.25002C18.6667 1.75002 17.8333 2.08335 16.9167 2.25002C16.1667 1.41669 15.0833 0.916687 13.9167 0.916687C11.6667 0.916687 9.83333 2.75002 9.83333 5.00002C9.83333 5.33335 9.83333 5.66669 9.91667 5.91669C6.41667 5.75002 3.41667 4.08335 1.41667 1.58335C1 2.25002 0.833333 2.91669 0.833333 3.66669C0.833333 5.08335 1.58333 6.33335 2.66667 7.08335C2 7.08335 1.33333 6.91669 0.833333 6.58335C0.833333 6.58335 0.833333 6.58335 0.833333 6.66669C0.833333 8.66669 2.25 10.3334 4.08333 10.6667C3.75 10.75 3.41667 10.8334 3 10.8334C2.75 10.8334 2.5 10.8334 2.25 10.75C2.75 12.4167 4.25 13.5834 6.08333 13.5834C4.66667 14.6667 2.91667 15.3334 1 15.3334C0.666667 15.3334 0.333333 15.3334 0 15.25C1.83333 16.4167 4 17.0834 6.25 17.0834C13.8333 17.0834 17.9167 10.8334 17.9167 5.41669C17.9167 5.25002 17.9167 5.08335 17.9167 4.91669C18.75 4.33335 19.4167 3.58335 20 2.83335Z" fill="#1E6A99"/>
</svg>
