<svg width="71" height="42" viewBox="0 0 71 42" fill="none" xmlns="http://www.w3.org/2000/svg">
<path d="M1.97726 39.9229V39.3676C1.97726 38.4783 1.51651 38.0899 0.79335 38.0899C0.497373 38.0899 0.195289 38.1123 0.0823911 38.1316C0.030519 38.1412 0 38.1765 0 38.2343V41.0594C0 41.1204 0.030519 41.1525 0.0823911 41.1621C0.195289 41.1814 0.497373 41.2038 0.79335 41.2038C1.51651 41.2038 1.97726 40.8058 1.97726 39.9229ZM1.62026 39.9229C1.62026 40.6645 1.2602 40.8828 0.790295 40.8828C0.607217 40.8828 0.482119 40.8828 0.357016 40.8732V38.4205C0.48517 38.4109 0.607217 38.4077 0.790295 38.4077C1.2602 38.4077 1.62026 38.6228 1.62026 39.3676V39.9229ZM2.86212 38.4687V38.1412C2.86212 38.0963 2.82552 38.0578 2.7828 38.0578H2.58446C2.54174 38.0578 2.50513 38.0963 2.50513 38.1412V38.4687C2.50513 38.5136 2.54174 38.5489 2.58446 38.5489H2.7828C2.82552 38.5489 2.86212 38.5136 2.86212 38.4687ZM2.85298 41.0915V38.9952C2.85298 38.9502 2.81941 38.9117 2.77364 38.9117H2.58752C2.5448 38.9117 2.51123 38.9502 2.51123 38.9952V41.0915C2.51123 41.1364 2.5448 41.1749 2.58752 41.1749H2.77364C2.81941 41.1749 2.85298 41.1364 2.85298 41.0915ZM5.18112 39.1107V39.0048C5.18112 38.9566 5.13839 38.9149 5.09262 38.9149H4.23826C3.56698 38.9149 3.3717 39.2777 3.3717 39.6436V39.6757C3.3717 39.8876 3.42967 40.0353 3.55172 40.1541C3.44187 40.2183 3.39306 40.3371 3.39306 40.4494V40.4526C3.39306 40.581 3.44798 40.7159 3.57308 40.7737L3.60055 40.7865C3.4724 40.8892 3.35643 41.0786 3.35643 41.3098V41.3451C3.35643 41.7464 3.63716 42 4.25657 42C4.89734 42 5.14756 41.756 5.14756 41.3611V41.329C5.14756 40.9406 4.7814 40.8282 4.39694 40.7255L3.81413 40.5682C3.72259 40.5425 3.69209 40.5072 3.69209 40.4366C3.69209 40.3756 3.7226 40.3306 3.78973 40.2953C3.90263 40.3467 4.03688 40.3788 4.24437 40.3788C4.84548 40.3788 5.11093 40.1284 5.11093 39.6757V39.6436C5.11093 39.4221 5.04687 39.2969 4.97669 39.2199L5.11704 39.191C5.15365 39.1814 5.18112 39.1621 5.18112 39.1107ZM4.7631 39.6725C4.7631 39.9197 4.65629 40.0931 4.23521 40.0931C3.78667 40.0931 3.70734 39.8555 3.70734 39.6725V39.6404C3.70734 39.4093 3.79582 39.2006 4.23521 39.2006C4.65629 39.2006 4.7631 39.3932 4.7631 39.6404V39.6725ZM4.7936 41.3611C4.7936 41.5891 4.69291 41.7207 4.24743 41.7207C3.81414 41.7207 3.68292 41.5762 3.68292 41.3451V41.3098C3.68292 41.0947 3.76226 40.992 3.87516 40.8892L4.3176 41.008C4.6685 41.1011 4.7936 41.1685 4.7936 41.329V41.3611ZM5.9714 38.4687V38.1412C5.9714 38.0963 5.9348 38.0578 5.89208 38.0578H5.69374C5.65102 38.0578 5.6144 38.0963 5.6144 38.1412V38.4687C5.6144 38.5136 5.64797 38.5489 5.69374 38.5489H5.89208C5.9348 38.5489 5.9714 38.5136 5.9714 38.4687ZM5.96226 41.0915V38.9952C5.96226 38.9502 5.92564 38.9117 5.88292 38.9117H5.69679C5.65408 38.9117 5.62051 38.9502 5.62051 38.9952V41.0915C5.62051 41.1364 5.65713 41.1749 5.69679 41.1749H5.88292C5.92564 41.1749 5.96226 41.1364 5.96226 41.0915ZM7.68623 41.1139V40.9695C7.68623 40.9278 7.65878 40.9117 7.60386 40.9117H7.38415C7.22854 40.9117 7.17361 40.8796 7.17361 40.6517V39.2167H7.59469C7.63741 39.2167 7.67403 39.1814 7.67403 39.1364V38.9952C7.67403 38.9502 7.63741 38.9117 7.59469 38.9117H7.17361V38.4623C7.17361 38.4205 7.14615 38.3916 7.11564 38.3916H7.10344L6.89901 38.4237C6.85629 38.4334 6.82881 38.4655 6.82881 38.5072V38.9085H6.45046C6.40774 38.9085 6.37417 38.9374 6.37417 38.9823V39.0947C6.37417 39.1396 6.40469 39.1653 6.45046 39.1685L6.82881 39.2135V40.6485C6.82881 41.1011 6.9997 41.2006 7.35976 41.2006C7.43299 41.2006 7.53672 41.191 7.613 41.1814C7.66487 41.1749 7.68623 41.1493 7.68623 41.1139ZM9.58415 41.0915V39.6565C9.58415 39.1717 9.36446 38.8828 8.82132 38.8828C8.55586 38.8828 8.37584 38.9085 8.21717 38.9374C8.16225 38.947 8.13478 38.9695 8.13478 39.0144V39.1589C8.13478 39.2135 8.17139 39.2231 8.20495 39.2231H8.22326C8.37888 39.207 8.56806 39.191 8.82132 39.191C9.12645 39.191 9.23935 39.3098 9.23935 39.6565V39.8202H8.94947C8.25378 39.8202 8.00663 40.0417 8.00663 40.4847V40.5329C8.00663 41.0465 8.31175 41.2006 8.64434 41.2006C8.86404 41.2006 9.05933 41.114 9.24546 40.9984V41.0883C9.24546 41.1332 9.28208 41.1717 9.3248 41.1717H9.50481C9.54753 41.1749 9.58415 41.1364 9.58415 41.0915ZM9.23935 40.7416C9.05322 40.8475 8.89151 40.9053 8.71148 40.9053C8.48568 40.9053 8.35143 40.8282 8.35143 40.5297V40.4815C8.35143 40.1894 8.47652 40.077 8.94947 40.077H9.23935V40.7416ZM10.4843 41.0915V38.1605C10.4843 38.1156 10.4538 38.0834 10.4141 38.0834H10.2097C10.1669 38.0834 10.1395 38.1188 10.1395 38.1605V41.0915C10.1395 41.1364 10.17 41.1749 10.2097 41.1749H10.4141C10.4599 41.1749 10.4843 41.1332 10.4843 41.0915ZM13.7339 41.1268V40.9181C13.7339 40.8892 13.7187 40.87 13.6912 40.87H12.9375C12.5225 40.87 12.4554 40.7544 12.4554 40.443V39.7528H13.6546C13.6973 39.7528 13.7339 39.7175 13.7339 39.6725V39.5152C13.7339 39.4703 13.7003 39.435 13.6546 39.435H12.4554V38.8635C12.4554 38.5521 12.5225 38.4366 12.9375 38.4366H13.6912C13.7187 38.4366 13.7339 38.4173 13.7339 38.3884V38.183C13.7339 38.1573 13.7187 38.1284 13.6942 38.1252C13.5295 38.1091 13.1633 38.0995 12.9314 38.0995C12.3852 38.0995 12.0984 38.3178 12.0984 38.8635V40.4462C12.0984 40.992 12.3822 41.2103 12.9314 41.2103C13.1633 41.2103 13.5447 41.207 13.6942 41.191C13.7187 41.1781 13.7339 41.1493 13.7339 41.1268ZM15.8698 41.0915V39.7399C15.8698 39.1942 15.6593 38.886 15.1894 38.886C14.9575 38.886 14.7836 38.947 14.5669 39.0754V38.9952C14.5669 38.9502 14.5364 38.9117 14.4937 38.9117H14.2984C14.2557 38.9117 14.2252 38.9502 14.2252 38.9952V41.0915C14.2252 41.1364 14.2618 41.1749 14.2984 41.1749H14.4906C14.5334 41.1749 14.57 41.1332 14.57 41.0915V39.3547C14.75 39.2616 14.9331 39.1942 15.0979 39.1942C15.3938 39.1942 15.5281 39.3226 15.5281 39.7367V41.0883C15.5281 41.1332 15.5647 41.1717 15.6074 41.1717H15.7935C15.8363 41.1749 15.8698 41.1364 15.8698 41.0915ZM18.1888 39.1107V39.0048C18.1888 38.9566 18.1461 38.9149 18.1003 38.9149H17.2429C16.5716 38.9149 16.3763 39.2777 16.3763 39.6436V39.6757C16.3763 39.8876 16.4343 40.0353 16.5564 40.1541C16.4465 40.2183 16.3947 40.3371 16.3947 40.4494V40.4526C16.3947 40.581 16.4496 40.7159 16.5747 40.7737L16.6021 40.7865C16.474 40.8892 16.358 41.0786 16.358 41.3098V41.3451C16.358 41.7464 16.6388 42 17.2582 42C17.899 42 18.1492 41.756 18.1492 41.3611V41.329C18.1492 40.9406 17.783 40.8282 17.3985 40.7255L16.8157 40.5682C16.7272 40.5425 16.6937 40.5072 16.6937 40.4366C16.6937 40.3756 16.7242 40.3306 16.7913 40.2953C16.9042 40.3467 17.0385 40.3788 17.246 40.3788C17.8501 40.3788 18.1125 40.1284 18.1125 39.6757V39.6436C18.1125 39.4221 18.0515 39.2969 17.9783 39.2199L18.1186 39.191C18.1613 39.1814 18.1888 39.1621 18.1888 39.1107ZM17.7708 39.6725C17.7708 39.9197 17.664 40.0931 17.2429 40.0931C16.7944 40.0931 16.715 39.8555 16.715 39.6725V39.6404C16.715 39.4093 16.8035 39.2006 17.2429 39.2006C17.664 39.2006 17.7708 39.3932 17.7708 39.6404V39.6725ZM17.8013 41.3611C17.8013 41.5891 17.7006 41.7207 17.2551 41.7207C16.8218 41.7207 16.6906 41.5762 16.6906 41.3451V41.3098C16.6906 41.0947 16.77 40.992 16.8829 40.8892L17.3253 41.008C17.6762 41.1011 17.8013 41.1685 17.8013 41.329V41.3611ZM18.9974 38.4687V38.1412C18.9974 38.0963 18.9608 38.0578 18.9181 38.0578H18.7197C18.677 38.0578 18.6404 38.0963 18.6404 38.1412V38.4687C18.6404 38.5136 18.677 38.5489 18.7197 38.5489H18.9181C18.9608 38.5489 18.9974 38.5136 18.9974 38.4687ZM18.9883 41.0915V38.9952C18.9883 38.9502 18.9547 38.9117 18.9089 38.9117H18.7197C18.677 38.9117 18.6435 38.9502 18.6435 38.9952V41.0915C18.6435 41.1364 18.677 41.1749 18.7197 41.1749H18.9089C18.9547 41.1749 18.9883 41.1364 18.9883 41.0915ZM21.2157 41.0915V39.7399C21.2157 39.1942 21.0052 38.886 20.5353 38.886C20.3034 38.886 20.1294 38.947 19.9128 39.0754V38.9952C19.9128 38.9502 19.8823 38.9117 19.8396 38.9117H19.6443C19.6016 38.9117 19.5711 38.9502 19.5711 38.9952V41.0915C19.5711 41.1364 19.6077 41.1749 19.6443 41.1749H19.8365C19.8792 41.1749 19.9159 41.1332 19.9159 41.0915V39.3547C20.0959 39.2616 20.2789 39.1942 20.4437 39.1942C20.7427 39.1942 20.874 39.3226 20.874 39.7367V41.0883C20.874 41.1332 20.9075 41.1717 20.9533 41.1717H21.1394C21.1821 41.1749 21.2157 41.1364 21.2157 41.0915ZM23.434 40.0674V39.8459C23.434 39.2616 23.1441 38.8828 22.5735 38.8828C22.0152 38.8828 21.707 39.2552 21.707 39.8459V40.2151C21.707 40.9823 22.1433 41.2038 22.5949 41.2038C22.8573 41.2038 23.0709 41.1781 23.2936 41.1332C23.3547 41.1204 23.373 41.0915 23.373 41.0401V40.8989C23.373 40.8571 23.3425 40.8411 23.3089 40.8411H23.2906C23.1106 40.87 22.8207 40.886 22.5949 40.886C22.2348 40.886 22.0518 40.7062 22.0518 40.2151V40.1573H23.3608C23.4066 40.1573 23.434 40.122 23.434 40.0674ZM23.0862 39.8844H22.0487V39.8459C22.0487 39.4029 22.2379 39.2006 22.5735 39.2006C22.9183 39.2006 23.0862 39.3836 23.0862 39.8459V39.8844ZM25.5913 40.0674V39.8459C25.5913 39.2616 25.3014 38.8828 24.7308 38.8828C24.1724 38.8828 23.8642 39.2552 23.8642 39.8459V40.2151C23.8642 40.9823 24.3006 41.2038 24.7522 41.2038C25.0146 41.2038 25.2282 41.1781 25.4509 41.1332C25.5119 41.1204 25.5303 41.0915 25.5303 41.0401V40.8989C25.5303 40.8571 25.4997 40.8411 25.4662 40.8411H25.4479C25.2678 40.87 24.978 40.886 24.7522 40.886C24.3921 40.886 24.209 40.7062 24.209 40.2151V40.1573H25.518C25.5638 40.1573 25.5913 40.122 25.5913 40.0674ZM25.2434 39.8844H24.206V39.8459C24.206 39.4029 24.3952 39.2006 24.7308 39.2006C25.0756 39.2006 25.2434 39.3836 25.2434 39.8459V39.8844ZM27.0376 39.1268V38.9599C27.0376 38.9117 27.0101 38.886 26.9552 38.886C26.7782 38.886 26.5982 38.9406 26.4029 39.0818V38.9952C26.4029 38.9502 26.3724 38.9117 26.3297 38.9117H26.1466C26.1039 38.9117 26.0734 38.9502 26.0734 38.9952V41.0915C26.0734 41.1364 26.1069 41.1749 26.1466 41.1749H26.3388C26.3816 41.1749 26.4151 41.1332 26.4151 41.0915V39.3676C26.6104 39.2456 26.7752 39.1942 26.9552 39.1942C27.0101 39.1942 27.0376 39.1717 27.0376 39.1268ZM27.8279 38.4687V38.1412C27.8279 38.0963 27.7913 38.0578 27.7485 38.0578H27.5502C27.5075 38.0578 27.4739 38.0963 27.4739 38.1412V38.4687C27.4739 38.5136 27.5105 38.5489 27.5502 38.5489H27.7485C27.7913 38.5489 27.8279 38.5136 27.8279 38.4687ZM27.8187 41.0915V38.9952C27.8187 38.9502 27.7852 38.9117 27.7394 38.9117H27.5533C27.5105 38.9117 27.477 38.9502 27.477 38.9952V41.0915C27.477 41.1364 27.5105 41.1749 27.5533 41.1749H27.7394C27.7852 41.1749 27.8187 41.1364 27.8187 41.0915ZM30.0462 41.0915V39.7399C30.0462 39.1942 29.8356 38.886 29.3657 38.886C29.1369 38.886 28.9599 38.947 28.7433 39.0754V38.9952C28.7433 38.9502 28.7128 38.9117 28.67 38.9117H28.4747C28.432 38.9117 28.3985 38.9502 28.3985 38.9952V41.0915C28.3985 41.1364 28.4351 41.1749 28.4747 41.1749H28.667C28.7097 41.1749 28.7463 41.1332 28.7463 41.0915V39.3547C28.9263 39.2616 29.1094 39.1942 29.2742 39.1942C29.5702 39.1942 29.7044 39.3226 29.7044 39.7367V41.0883C29.7044 41.1332 29.7411 41.1717 29.7838 41.1717H29.9699C30.0126 41.1749 30.0462 41.1364 30.0462 41.0915ZM32.3652 39.1107V39.0048C32.3652 38.9566 32.3224 38.9149 32.2767 38.9149H31.4193C30.748 38.9149 30.5527 39.2777 30.5527 39.6436V39.6757C30.5527 39.8876 30.6107 40.0353 30.7327 40.1541C30.6229 40.2183 30.571 40.3371 30.571 40.4494V40.4526C30.571 40.581 30.6259 40.7159 30.751 40.7737L30.7785 40.7865C30.6503 40.8892 30.5313 41.0786 30.5313 41.3098V41.3451C30.5313 41.7464 30.812 42 31.4315 42C32.0722 42 32.3225 41.756 32.3225 41.3611V41.329C32.3225 40.9406 31.9532 40.8282 31.5718 40.7255L30.989 40.5682C30.9005 40.5425 30.867 40.5072 30.867 40.4366C30.867 40.3756 30.8975 40.3306 30.9646 40.2953C31.0775 40.3467 31.2118 40.3788 31.4193 40.3788C32.0204 40.3788 32.2858 40.1284 32.2858 39.6757V39.6436C32.2858 39.4221 32.2218 39.2969 32.1516 39.2199L32.2919 39.191C32.3377 39.1814 32.3652 39.1621 32.3652 39.1107ZM31.9471 39.6725C31.9471 39.9197 31.8403 40.0931 31.4193 40.0931C30.9707 40.0931 30.8914 39.8555 30.8914 39.6725V39.6404C30.8914 39.4093 30.9799 39.2006 31.4193 39.2006C31.8403 39.2006 31.9471 39.3932 31.9471 39.6404V39.6725ZM31.9777 41.3611C31.9777 41.5891 31.8769 41.7207 31.4284 41.7207C30.9951 41.7207 30.8639 41.5762 30.8639 41.3451V41.3098C30.8639 41.0947 30.9433 40.992 31.0562 40.8892L31.4986 41.008C31.8495 41.1011 31.9746 41.1685 31.9746 41.329V41.3611H31.9777ZM34.3638 40.0802C34.3638 40.1541 34.3058 40.2151 34.2356 40.2151H33.9061C33.8359 40.2151 33.7779 40.1541 33.7779 40.0802V39.5313C33.7779 39.4574 33.8359 39.3932 33.9061 39.3932H34.2356C34.3058 39.3932 34.3638 39.4542 34.3638 39.5313V40.0802ZM37.8911 40.0642V38.1958C37.8911 38.1509 37.8575 38.1188 37.8178 38.1188H37.6073C37.5646 38.1188 37.5341 38.1573 37.5341 38.1958V40.0642C37.5341 40.6003 37.3785 40.8828 36.8964 40.8828C36.4142 40.8828 36.2586 40.5939 36.2586 40.0642V38.1958C36.2586 38.1509 36.2251 38.1188 36.1854 38.1188H35.9749C35.9321 38.1188 35.9016 38.1573 35.9016 38.1958V40.0642C35.9016 40.8507 36.2678 41.2038 36.8964 41.2038C37.528 41.2038 37.8911 40.8507 37.8911 40.0642ZM40.085 41.0915V39.7367C40.085 39.191 39.8744 38.8828 39.4076 38.8828C39.1787 38.8828 39.0018 38.9438 38.7882 39.0722V38.9952C38.7882 38.9502 38.7576 38.9117 38.7149 38.9117H38.5196C38.4769 38.9117 38.4464 38.9502 38.4464 38.9952V41.0915C38.4464 41.1364 38.48 41.1749 38.5196 41.1749H38.7088C38.7515 41.1749 38.7882 41.1332 38.7882 41.0915V39.3547C38.9682 39.2616 39.1513 39.1942 39.313 39.1942C39.609 39.1942 39.7402 39.3226 39.7402 39.7367V41.0915C39.7402 41.1364 39.7737 41.1749 39.8164 41.1749H40.0026C40.0514 41.1749 40.085 41.1364 40.085 41.0915ZM40.9881 38.4687V38.1412C40.9881 38.0963 40.9546 38.061 40.9119 38.061H40.7135C40.6708 38.061 40.6342 38.0963 40.6342 38.1412V38.4687C40.6342 38.5136 40.6708 38.5489 40.7135 38.5489H40.9119C40.9546 38.5489 40.9881 38.5136 40.9881 38.4687ZM40.982 41.0915V38.9952C40.982 38.9502 40.9485 38.9117 40.9027 38.9117H40.7166C40.6739 38.9117 40.6372 38.9502 40.6372 38.9952V41.0915C40.6372 41.1364 40.6739 41.1749 40.7166 41.1749H40.9027C40.9485 41.1749 40.982 41.1364 40.982 41.0915ZM43.179 38.9823C43.179 38.9406 43.1546 38.9117 43.118 38.9117H42.9044C42.8739 38.9117 42.8464 38.9374 42.8311 38.992L42.3826 40.7833C42.3582 40.8828 42.3368 40.9021 42.3002 40.9021C42.2605 40.9021 42.2422 40.8828 42.2178 40.7833L41.7693 38.992C41.754 38.9374 41.7266 38.9117 41.696 38.9117H41.4824C41.4428 38.9117 41.4214 38.9406 41.4214 38.9823C41.4214 38.992 41.4214 38.9984 41.4245 39.0112L41.9493 40.9695C42.0012 41.1557 42.1324 41.2038 42.3002 41.2038C42.468 41.2038 42.5992 41.1557 42.6511 40.9695L43.1759 39.0112C43.179 38.9984 43.179 38.992 43.179 38.9823ZM45.205 40.0674V39.8459C45.205 39.2616 44.9182 38.8828 44.3507 38.8828C43.7953 38.8828 43.4872 39.2584 43.4872 39.8459V40.2151C43.4872 40.9823 43.9235 41.2038 44.372 41.2038C44.6314 41.2038 44.848 41.1781 45.0677 41.1332C45.1288 41.1204 45.1471 41.0915 45.1471 41.0401V40.8989C45.1471 40.8571 45.1165 40.8411 45.086 40.8411H45.0677C44.8877 40.87 44.6009 40.886 44.3751 40.886C44.015 40.886 43.835 40.7062 43.835 40.2151V40.1573H45.1379C45.1776 40.1573 45.205 40.122 45.205 40.0674ZM44.8602 39.8844H43.8289V39.8459C43.8289 39.4029 44.015 39.2006 44.3507 39.2006C44.6924 39.2006 44.8602 39.3804 44.8602 39.8459V39.8844ZM46.6239 39.1268V38.9599C46.6239 38.9085 46.5964 38.886 46.5415 38.886C46.3676 38.886 46.1876 38.9406 45.9923 39.0818V38.9952C45.9923 38.9502 45.9618 38.9117 45.9191 38.9117H45.736C45.6932 38.9117 45.6627 38.9502 45.6627 38.9952V41.0915C45.6627 41.1364 45.6993 41.1749 45.736 41.1749H45.9251C45.9679 41.1749 46.0045 41.1332 46.0045 41.0915V39.3676C46.1998 39.2456 46.3615 39.1942 46.5415 39.1942C46.5964 39.1942 46.6239 39.1717 46.6239 39.1268ZM48.3906 40.6067C48.3906 40.3627 48.2868 40.1862 47.9634 39.9871L47.579 39.7432C47.3989 39.6308 47.3104 39.5538 47.3104 39.4318C47.3104 39.2231 47.4539 39.1942 47.6735 39.1942C47.8902 39.1942 48.1404 39.2135 48.2746 39.2263H48.2868C48.3265 39.2263 48.354 39.207 48.354 39.1557V39.0208C48.354 38.9759 48.3296 38.947 48.2808 38.9374C48.0977 38.9053 47.8932 38.8828 47.6735 38.8828C47.2738 38.8828 46.9687 39.0016 46.9687 39.4286C46.9687 39.6886 47.1274 39.8652 47.3654 40.016L47.759 40.2632C47.9817 40.4013 48.0519 40.4815 48.0519 40.6035C48.0519 40.825 47.9176 40.8956 47.6674 40.8956C47.5271 40.8956 47.2433 40.8764 47.0572 40.8507H47.0419C47.0023 40.8507 46.9717 40.8764 46.9717 40.9117V41.0562C46.9717 41.1011 47.0023 41.1268 47.0541 41.1364C47.2433 41.1846 47.524 41.1974 47.6674 41.1974C48.1007 41.2038 48.3906 41.0273 48.3906 40.6067ZM49.2022 38.4687V38.1412C49.2022 38.0963 49.1656 38.061 49.126 38.061H48.9276C48.8849 38.061 48.8483 38.0963 48.8483 38.1412V38.4687C48.8483 38.5136 48.8849 38.5489 48.9276 38.5489H49.126C49.1656 38.5489 49.2022 38.5136 49.2022 38.4687ZM49.1931 41.0915V38.9952C49.1931 38.9502 49.1565 38.9117 49.1168 38.9117H48.9307C48.888 38.9117 48.8544 38.9502 48.8544 38.9952V41.0915C48.8544 41.1364 48.888 41.1749 48.9307 41.1749H49.1168C49.1595 41.1749 49.1931 41.1364 49.1931 41.0915ZM50.911 41.1139V40.9695C50.911 40.9278 50.8835 40.9117 50.8286 40.9117H50.612C50.4563 40.9117 50.4014 40.8796 50.4014 40.6517V39.2167H50.8225C50.8652 39.2167 50.8988 39.1781 50.8988 39.1364V38.9952C50.8988 38.9502 50.8622 38.9117 50.8225 38.9117H50.4014V38.4623C50.4014 38.4205 50.374 38.3916 50.3434 38.3916H50.3312L50.1298 38.4237C50.0871 38.4334 50.0597 38.4655 50.0597 38.5072V38.9085H49.6813C49.6386 38.9085 49.6081 38.9374 49.6081 38.9823V39.0947C49.6081 39.1396 49.6386 39.1653 49.6813 39.1685L50.0597 39.2135V40.6485C50.0597 41.1011 50.2305 41.2006 50.5875 41.2006C50.6608 41.2006 50.7615 41.191 50.8408 41.1814C50.8896 41.1749 50.911 41.1493 50.911 41.1139ZM52.7967 41.0915V39.6565C52.7967 39.1717 52.58 38.8828 52.04 38.8828C51.7745 38.8828 51.5945 38.9085 51.4358 38.9374C51.3809 38.947 51.3534 38.9695 51.3534 39.0144V39.1589C51.3534 39.2135 51.387 39.2231 51.4236 39.2231H51.4419C51.5975 39.207 51.7836 39.191 52.0369 39.191C52.339 39.191 52.4519 39.3098 52.4519 39.6565V39.8202H52.1651C51.4724 39.8202 51.2283 40.0417 51.2283 40.4847V40.5329C51.2283 41.0465 51.5304 41.2006 51.863 41.2006C52.0796 41.2006 52.2749 41.114 52.461 40.9984V41.0883C52.461 41.1332 52.4946 41.1717 52.5404 41.1717H52.7204C52.7631 41.1749 52.7967 41.1364 52.7967 41.0915ZM52.4549 40.7416C52.2688 40.8475 52.1101 40.9053 51.9301 40.9053C51.7043 40.9053 51.5731 40.8282 51.5731 40.5297V40.4815C51.5731 40.1894 51.6982 40.077 52.1681 40.077H52.4549V40.7416ZM52.5526 38.4591V38.1252C52.5526 38.0834 52.5129 38.0449 52.4732 38.0449H52.3207C52.281 38.0449 52.2444 38.0867 52.2444 38.1252V38.4591C52.2444 38.504 52.2841 38.5361 52.3207 38.5361H52.4732C52.5129 38.5393 52.5526 38.504 52.5526 38.4591ZM51.8721 38.4591V38.1252C51.8721 38.0834 51.8325 38.0449 51.7958 38.0449H51.6433C51.6036 38.0449 51.567 38.0867 51.567 38.1252V38.4591C51.567 38.504 51.6067 38.5361 51.6433 38.5361H51.7958C51.8325 38.5393 51.8721 38.504 51.8721 38.4591ZM54.4444 41.1139V40.9695C54.4444 40.9278 54.4169 40.9117 54.362 40.9117H54.1423C53.9867 40.9117 53.9318 40.8796 53.9318 40.6517V39.2167H54.3498C54.3925 39.2167 54.4291 39.1781 54.4291 39.1364V38.9952C54.4291 38.9502 54.3956 38.9117 54.3498 38.9117H53.9318V38.4623C53.9318 38.4205 53.9043 38.3916 53.8738 38.3916H53.8616L53.6602 38.4237C53.6175 38.4334 53.59 38.4655 53.59 38.5072V38.9085H53.2117C53.1689 38.9085 53.1384 38.9374 53.1384 38.9823V39.0947C53.1384 39.1396 53.1689 39.1653 53.2117 39.1685L53.59 39.2135V40.6485C53.59 41.1011 53.7609 41.2006 54.1179 41.2006C54.1911 41.2006 54.2918 41.191 54.3711 41.1814C54.4261 41.1749 54.4444 41.1493 54.4444 41.1139ZM57.6727 39.0369V38.9855C57.6727 38.321 57.215 38.0931 56.5833 38.0931C56.3575 38.0931 56.1043 38.1059 55.9365 38.1252C55.8785 38.1348 55.8419 38.1701 55.8419 38.2279V41.0947C55.8419 41.1396 55.8724 41.1782 55.9121 41.1782H56.1226C56.1653 41.1782 56.1928 41.1364 56.1928 41.0947V39.939C56.2935 39.9486 56.4582 39.9582 56.5803 39.9582C57.215 39.9582 57.6727 39.7239 57.6727 39.0369ZM57.3187 39.0369C57.3187 39.4671 57.1143 39.6468 56.5833 39.6468C56.4826 39.6468 56.2843 39.634 56.1958 39.6308V38.4237C56.2874 38.4141 56.4643 38.4077 56.5833 38.4077C57.0868 38.4077 57.3187 38.5682 57.3187 38.9823V39.0369ZM59.7659 40.199V39.8876C59.7659 39.2841 59.4699 38.886 58.8993 38.886C58.3287 38.886 58.0358 39.2841 58.0358 39.8876V40.199C58.0358 40.8058 58.3287 41.2038 58.8993 41.2038C59.4699 41.2038 59.7659 40.8058 59.7659 40.199ZM59.4241 40.199C59.4241 40.6228 59.2593 40.886 58.8993 40.886C58.5331 40.886 58.3775 40.6196 58.3775 40.199V39.8876C58.3775 39.4639 58.5362 39.2006 58.8993 39.2006C59.2654 39.2006 59.4241 39.4671 59.4241 39.8876V40.199ZM61.3342 41.1139V40.9695C61.3342 40.9278 61.3068 40.9117 61.2518 40.9117H61.0321C60.8765 40.9117 60.8216 40.8796 60.8216 40.6517V39.2167H61.2396C61.2823 39.2167 61.319 39.1781 61.319 39.1364V38.9952C61.319 38.9502 61.2823 38.9117 61.2396 38.9117H60.8216V38.4623C60.8216 38.4205 60.7941 38.3916 60.7636 38.3916H60.7514L60.55 38.4237C60.5073 38.4334 60.4799 38.4655 60.4799 38.5072V38.9085H60.1015C60.0588 38.9085 60.0283 38.9374 60.0283 38.9823V39.0947C60.0283 39.1396 60.0588 39.1653 60.1015 39.1685L60.4799 39.2135V40.6485C60.4799 41.1011 60.6507 41.2006 61.0077 41.2006C61.081 41.2006 61.1817 41.191 61.261 41.1814C61.3129 41.1749 61.3342 41.1493 61.3342 41.1139ZM63.1131 40.6067C63.1131 40.3627 63.0063 40.1862 62.6859 39.9871L62.3015 39.7432C62.1215 39.6308 62.033 39.5538 62.033 39.4318C62.033 39.2231 62.1764 39.1942 62.3961 39.1942C62.6127 39.1942 62.8629 39.2135 62.9972 39.2263H63.0094C63.049 39.2263 63.0765 39.207 63.0765 39.1557V39.0208C63.0765 38.9759 63.0521 38.947 63.0033 38.9374C62.8202 38.9053 62.6158 38.8828 62.3961 38.8828C61.9964 38.8828 61.6912 39.0016 61.6912 39.4286C61.6912 39.6886 61.8499 39.8652 62.0879 40.016L62.4785 40.2632C62.7012 40.4013 62.7714 40.4815 62.7714 40.6035C62.7714 40.825 62.6402 40.8956 62.3869 40.8956C62.2466 40.8956 61.9628 40.8764 61.7767 40.8507H61.7614C61.7217 40.8507 61.6912 40.8764 61.6912 40.9117V41.0562C61.6912 41.1011 61.7217 41.1268 61.7736 41.1364C61.9628 41.1846 62.2435 41.1974 62.3869 41.1974C62.8202 41.2038 63.1131 41.0273 63.1131 40.6067ZM65.1514 41.0401V38.1605C65.1514 38.1156 65.1209 38.0834 65.0812 38.0834H64.8829C64.8402 38.0834 64.8097 38.1188 64.8097 38.1605V38.9245C64.6571 38.8956 64.474 38.8828 64.355 38.8828C63.7875 38.8828 63.5067 39.2456 63.5067 39.8908V40.1862C63.5067 40.8026 63.7753 41.2006 64.355 41.2006C64.593 41.2006 64.831 41.1814 65.069 41.13C65.1392 41.1204 65.1514 41.0915 65.1514 41.0401ZM64.8097 40.8603C64.6784 40.8732 64.4862 40.886 64.355 40.886C63.9705 40.886 63.8485 40.6356 63.8485 40.1862V39.8908C63.8485 39.451 63.9736 39.2006 64.355 39.2006C64.4801 39.2006 64.6815 39.2038 64.8097 39.2295V40.8603ZM67.1561 41.0915V39.6565C67.1561 39.1717 66.9395 38.8828 66.3994 38.8828C66.1339 38.8828 65.9539 38.9085 65.7952 38.9374C65.7403 38.947 65.7128 38.9695 65.7128 39.0144V39.1589C65.7128 39.2135 65.7464 39.2231 65.783 39.2231H65.8013C65.9569 39.207 66.1431 39.191 66.3963 39.191C66.6984 39.191 66.8144 39.3098 66.8144 39.6565V39.8202H66.5245C65.8318 39.8202 65.5877 40.0417 65.5877 40.4847V40.5329C65.5877 41.0465 65.8898 41.2006 66.2224 41.2006C66.4421 41.2006 66.6343 41.114 66.8205 40.9984V41.0883C66.8205 41.1332 66.8571 41.1717 66.8998 41.1717H67.0798C67.1225 41.1749 67.1561 41.1364 67.1561 41.0915ZM66.8144 40.7416C66.6282 40.8475 66.4665 40.9053 66.2895 40.9053C66.0637 40.9053 65.9325 40.8282 65.9325 40.5297V40.4815C65.9325 40.1894 66.0576 40.077 66.5275 40.077H66.8174V40.7416H66.8144ZM70.2684 41.0915V39.634C70.2684 39.0626 69.9877 38.8764 69.6368 38.8764C69.4354 38.8764 69.2066 38.9374 68.9899 39.0433C68.8923 38.9245 68.7672 38.8764 68.6024 38.8764C68.3888 38.8764 68.1905 38.9663 68.0349 39.069V38.992C68.0349 38.947 68.0044 38.9085 67.9617 38.9085H67.7664C67.7236 38.9085 67.6931 38.947 67.6931 38.992V41.0883C67.6931 41.1332 67.7206 41.1717 67.7603 41.1717H67.9647C68.0074 41.1717 68.0349 41.13 68.0349 41.0883V39.3515C68.1997 39.2648 68.3705 39.191 68.5109 39.191C68.7123 39.191 68.8099 39.2648 68.8099 39.6244V41.0883C68.8099 41.1332 68.8374 41.1717 68.877 41.1717H69.0815C69.1242 41.1717 69.1516 41.13 69.1516 41.0883V39.6244C69.1516 39.5024 69.1425 39.3932 69.1181 39.3034C69.2707 39.2424 69.4324 39.191 69.5727 39.191C69.7741 39.191 69.9267 39.2873 69.9267 39.6308V41.0883C69.9267 41.1332 69.9603 41.1717 70.003 41.1717H70.1891C70.2318 41.1749 70.2684 41.1364 70.2684 41.0915Z" fill="#595F61"/>
<g opacity="0.4">
<path d="M36.3086 15.0136H37.2539C37.3557 15.0136 37.4443 14.9239 37.4443 14.8136V11.7481H40.1525V14.8136C40.1525 14.9239 40.2378 15.0136 40.3428 15.0136H41.2882C41.3933 15.0136 41.4786 14.9239 41.4786 14.8136V7.75853C41.4786 7.64819 41.3933 7.56543 41.2882 7.56543H40.3428C40.2378 7.56543 40.1525 7.64474 40.1525 7.75853V10.524H37.4443V7.75853C37.4443 7.64819 37.359 7.56543 37.2539 7.56543H36.3086C36.2035 7.56543 36.1182 7.64474 36.1182 7.75853V14.8136C36.1182 14.9205 36.2035 15.0136 36.3086 15.0136ZM44.2655 15.0929C44.7218 15.0929 45.1715 14.9343 45.6114 14.6515V14.8136C45.6114 14.9239 45.6967 15.0136 45.8018 15.0136H46.6126C46.7176 15.0136 46.803 14.9239 46.803 14.8136V11.2067C46.803 9.92401 46.0578 9.29299 44.7021 9.29299C44.0456 9.29299 43.4908 9.3723 43.1101 9.45505C42.9853 9.48609 42.9295 9.55505 42.9295 9.66539V10.3068C42.9295 10.4481 43.005 10.4757 43.1002 10.4757H43.1495C43.4646 10.4343 44.0948 10.3964 44.7054 10.3964C45.2667 10.3964 45.5457 10.5585 45.5457 11.2102V11.6516H44.945C43.284 11.6516 42.6144 12.2412 42.6144 13.386V13.4274C42.6144 14.7722 43.4744 15.0929 44.2655 15.0929ZM43.8848 13.3791C43.8848 12.8171 44.0751 12.5274 44.945 12.5274H45.5457V13.7619C45.27 13.9239 44.9155 14.0412 44.5741 14.0412C44.0981 14.0412 43.8848 13.9101 43.8848 13.4205V13.3791ZM48.6543 12.1757L49.9608 13.0171C50.2661 13.2171 50.381 13.3377 50.381 13.5274C50.381 13.7998 50.2956 14.0101 49.7048 14.0101C49.4192 14.0101 48.5592 13.9619 48.1029 13.8998H48.0635C47.9683 13.8998 47.9026 13.9791 47.9026 14.0584V14.6618C47.9026 14.7825 47.9683 14.8618 48.0832 14.8929C48.615 15.0446 49.4192 15.0929 49.7901 15.0929C51.0408 15.0929 51.6612 14.4032 51.6612 13.5308C51.6612 13.0205 51.5463 12.5171 50.7454 12.0067L49.4947 11.2033C49.2551 11.0516 49.1139 10.9516 49.1139 10.793C49.1139 10.4826 49.3141 10.3723 49.7737 10.3723C50.3186 10.3723 51.0802 10.4516 51.3461 10.493H51.3855C51.4807 10.493 51.5365 10.424 51.5365 10.3033V9.72401C51.5365 9.60333 51.4807 9.52401 51.3658 9.49298C50.8799 9.38264 50.4401 9.29299 49.6654 9.29299C48.4541 9.29299 47.8534 9.79297 47.8534 10.7964C47.8534 11.3757 48.1849 11.8757 48.6543 12.1757ZM55.4099 12.0067L54.1592 11.2033C53.9196 11.0516 53.7785 10.9516 53.7785 10.793C53.7785 10.4826 53.9787 10.3723 54.4383 10.3723C54.9832 10.3723 55.7447 10.4516 56.0106 10.493H56.05C56.1452 10.493 56.2043 10.424 56.2043 10.3033V9.72401C56.2043 9.60333 56.1452 9.52401 56.0303 9.49298C55.5445 9.38264 55.1046 9.29299 54.3332 9.29299C53.1219 9.29299 52.5212 9.79297 52.5212 10.7964C52.5212 11.3792 52.8528 11.8791 53.3222 12.1791L54.6287 13.0205C54.9339 13.2205 55.0455 13.3412 55.0455 13.5308C55.0455 13.8032 54.9602 14.0136 54.3693 14.0136C54.0805 14.0136 53.2237 13.9653 52.7674 13.9032H52.728C52.6328 13.9032 52.5672 13.9826 52.5672 14.0619V14.6653C52.5672 14.786 52.6328 14.8653 52.7477 14.8963C53.2795 15.0481 54.0837 15.0963 54.4547 15.0963C55.7053 15.0963 56.3258 14.4067 56.3258 13.5343C56.3258 13.0171 56.2109 12.5171 55.4099 12.0067ZM59.4934 15.0929C60.9903 15.0929 61.7716 14.0308 61.7716 12.5964V11.786C61.7716 10.3516 60.9903 9.28954 59.4934 9.28954C57.9966 9.28954 57.2153 10.3516 57.2153 11.786V12.5964C57.212 14.0308 57.9933 15.0929 59.4934 15.0929ZM58.4726 11.786C58.4726 10.9654 58.8238 10.4309 59.4934 10.4309C60.1598 10.4309 60.5143 10.9619 60.5143 11.786V12.5964C60.5143 13.4205 60.1598 13.9515 59.4934 13.9515C58.8238 13.9515 58.4726 13.4205 58.4726 12.5964V11.786ZM41.042 19.61V19.5204C41.042 17.748 39.7618 17.2066 38.2945 17.2066C37.5986 17.2066 36.9224 17.2584 36.4234 17.3377C36.2331 17.3687 36.1182 17.4377 36.1182 17.6377V24.5341C36.1182 24.6444 36.2035 24.7341 36.3086 24.7341H37.2638C37.3688 24.7341 37.4443 24.6444 37.4443 24.5341V21.9169C37.6643 21.9272 38.045 21.9583 38.2945 21.9583C39.7618 21.9548 41.042 21.3824 41.042 19.61ZM39.7257 19.61C39.7257 20.4135 39.3252 20.8135 38.2945 20.8135C38.1337 20.8135 37.5986 20.7928 37.4443 20.7824V18.3963C37.6183 18.3756 38.091 18.3549 38.2945 18.3549C39.2465 18.3549 39.7257 18.6756 39.7257 19.5169V19.61ZM42.168 24.7306H43.0543C43.1593 24.7306 43.2348 24.6306 43.2348 24.5203V17.3032C43.2348 17.1928 43.1593 17.1032 43.0543 17.1032H42.168C42.0629 17.1032 41.9776 17.1928 41.9776 17.3032V24.5203C41.9743 24.6306 42.0629 24.7306 42.168 24.7306ZM47.2527 24.3686V24.5306C47.2527 24.641 47.338 24.7306 47.4431 24.7306H48.2539C48.3589 24.7306 48.4443 24.641 48.4443 24.5306V20.9238C48.4443 19.6411 47.6991 19.0101 46.3434 19.0101C45.6836 19.0101 45.1321 19.0894 44.7514 19.1721C44.6266 19.2032 44.5708 19.2721 44.5708 19.3825V20.0238C44.5708 20.1618 44.6463 20.1928 44.7415 20.1928H44.7907C45.1059 20.1514 45.7361 20.1135 46.3467 20.1135C46.908 20.1135 47.187 20.2755 47.187 20.9273V21.3652H46.5863C44.9253 21.3652 44.259 21.9583 44.259 23.0996V23.141C44.259 24.4927 45.119 24.8134 45.9101 24.8134C46.3631 24.81 46.8128 24.6513 47.2527 24.3686ZM45.526 23.1376V23.0962C45.526 22.5341 45.7164 22.2445 46.5863 22.2445H47.187V23.4789C46.9113 23.6376 46.5568 23.7582 46.2121 23.7582C45.7361 23.7582 45.526 23.6272 45.526 23.1376ZM50.1053 23.2169C50.1053 24.5582 50.5451 24.8099 51.6218 24.8099C51.8319 24.8099 52.0387 24.7789 52.2718 24.741C52.3965 24.7203 52.4523 24.6617 52.4523 24.5582V23.9272C52.4523 23.8272 52.3768 23.7755 52.2521 23.7755H51.7465C51.4019 23.7755 51.3723 23.7134 51.3723 23.2169V20.0687H51.9566C52.0617 20.0687 52.147 19.979 52.147 19.8687V19.279C52.147 19.1687 52.0617 19.079 51.9566 19.079H51.3723V18.048C51.3723 17.948 51.3067 17.8963 51.2213 17.8963H51.1819L50.2956 18.0583C50.1906 18.079 50.1053 18.148 50.1053 18.2583V19.079H49.2091C49.1041 19.079 49.0187 19.1687 49.0187 19.279V19.7307C49.0187 19.8411 49.1041 19.9135 49.2091 19.9307L50.1053 20.0687V23.2169ZM55.7808 23.7789H55.2753C54.9306 23.7789 54.9011 23.7169 54.9011 23.2203V20.0721H55.7611C55.8662 20.0721 55.9515 19.9824 55.9515 19.8721V19.2825C55.9515 19.1721 55.8662 19.0825 55.7611 19.0825H54.9011V18.0514C54.9011 17.9515 54.8355 17.8997 54.7468 17.8997H54.7107L53.8244 18.0618C53.7194 18.0825 53.634 18.1514 53.634 18.2618V19.0825H53.0136C52.9086 19.0825 52.8232 19.1721 52.8232 19.2825V19.7342C52.8232 19.8445 52.9086 19.9169 53.0136 19.9342L53.634 20.0721V23.2203C53.634 24.5617 54.0739 24.8134 55.1506 24.8134C55.3607 24.8134 55.5708 24.7824 55.8005 24.7444C55.9253 24.7237 55.9844 24.6651 55.9844 24.5617V23.9307C55.9811 23.8307 55.9056 23.7789 55.7808 23.7789ZM61.4203 24.5203V21.2514C61.4203 19.979 61.1446 19.0066 59.7692 19.0066C59.1389 19.0066 58.7746 19.1169 58.2231 19.4893V19.279C58.2231 19.1687 58.1377 19.079 58.0327 19.079H57.2022C57.0972 19.079 57.0118 19.1687 57.0118 19.279V24.5203C57.0118 24.6306 57.0972 24.7306 57.2022 24.7306H58.0786C58.1837 24.7306 58.269 24.6306 58.269 24.5203V20.4928C58.6695 20.2721 59.024 20.1307 59.3457 20.1307C60.081 20.1307 60.1565 20.3824 60.1565 21.2514V24.5203C60.1565 24.6306 60.2419 24.7306 60.3469 24.7306H61.2266C61.3317 24.7306 61.4203 24.6306 61.4203 24.5203ZM66.8005 22.3652C66.935 22.3652 66.9909 22.2755 66.9909 22.1134V21.5548C66.9909 20.0618 66.1899 19.0101 64.7193 19.0101C63.2586 19.0101 62.4281 19.9928 62.4281 21.5548V22.2962C62.4281 24.2686 63.7838 24.8099 64.7357 24.8099C65.5958 24.8099 65.9667 24.7617 66.5871 24.641C66.7611 24.61 66.7873 24.541 66.7873 24.3824V23.7203C66.7873 23.6203 66.7118 23.5686 66.6134 23.5686H66.5838C66.1833 23.61 65.5268 23.6686 64.8276 23.6686C63.9118 23.6686 63.682 22.9755 63.682 22.3962V22.3652H66.8005ZM63.6984 21.3824C63.6984 20.5893 64.1284 20.148 64.7193 20.148C65.3102 20.148 65.7205 20.5997 65.7205 21.3824V21.4238H63.6984V21.3824ZM70.5787 19.0066C70.1947 19.0066 69.6826 19.1066 69.2132 19.4893V19.279C69.2132 19.1687 69.1278 19.079 69.0228 19.079H68.1923C68.0872 19.079 68.0019 19.1687 68.0019 19.279V24.5203C68.0019 24.6306 68.0872 24.7306 68.1923 24.7306H69.072C69.1771 24.7306 69.2624 24.6306 69.2624 24.5203V20.4928C69.6629 20.2721 70.0634 20.1307 70.5787 20.1307C70.6838 20.1307 70.7691 20.0411 70.7691 19.9307V19.2066C70.7691 19.0997 70.6838 19.0066 70.5787 19.0066ZM37.2736 27.003H36.3217C36.2166 27.003 36.128 27.0823 36.128 27.1927V34.2477C36.128 34.3581 36.2134 34.4477 36.3217 34.4477H37.2736C37.3787 34.4477 37.4673 34.3581 37.4673 34.2477V27.1927C37.464 27.0823 37.3787 27.003 37.2736 27.003ZM41.8857 28.7271C41.2521 28.7271 40.8845 28.8375 40.3264 29.2099V28.9995C40.3264 28.8892 40.2411 28.7995 40.1328 28.7995H39.2957C39.1907 28.7995 39.102 28.8892 39.102 28.9995V34.2408C39.102 34.3511 39.1874 34.4511 39.2957 34.4511H40.182C40.287 34.4511 40.3757 34.3511 40.3757 34.2408V30.2133C40.7794 29.9926 41.1372 29.8512 41.4655 29.8512C42.2074 29.8512 42.2861 30.103 42.2861 30.9719V34.2408C42.2861 34.3511 42.3715 34.4511 42.4798 34.4511H43.3661C43.4712 34.4511 43.5598 34.3511 43.5598 34.2408V30.9719C43.5532 29.6995 43.2775 28.7271 41.8857 28.7271ZM47.8239 31.4409L46.5601 30.6409C46.3172 30.4891 46.1727 30.3891 46.1727 30.2305C46.1727 29.9202 46.3762 29.8064 46.8391 29.8064C47.3873 29.8064 48.1587 29.8857 48.4279 29.9271H48.4672C48.5624 29.9271 48.6215 29.8581 48.6215 29.7374V29.1547C48.6215 29.034 48.5624 28.9547 48.4475 28.9237C47.9552 28.8133 47.512 28.7237 46.734 28.7237C45.5096 28.7237 44.9024 29.2236 44.9024 30.2271C44.9024 30.8064 45.2405 31.3098 45.7132 31.6098L47.0328 32.4512C47.3413 32.6512 47.4562 32.7684 47.4562 32.9615C47.4562 33.2339 47.3709 33.4443 46.7734 33.4443C46.4846 33.4443 45.618 33.3925 45.1551 33.3339H45.1157C45.0205 33.3339 44.9516 33.4132 44.9516 33.4925V34.096C44.9516 34.2167 45.0205 34.296 45.1354 34.3236C45.677 34.4753 46.4846 34.5236 46.8621 34.5236C48.1259 34.5236 48.7495 33.8305 48.7495 32.9615C48.7495 32.4546 48.6314 31.9546 47.8239 31.4409ZM52.8331 33.496H52.321C51.9763 33.496 51.9468 33.4374 51.9468 32.9339V29.7857H52.8134C52.9184 29.7857 53.0071 29.6961 53.0071 29.5857V28.9961C53.0071 28.8857 52.9184 28.7961 52.8134 28.7961H51.9468V27.7651C51.9468 27.6651 51.8811 27.6133 51.7925 27.6133H51.7531L50.857 27.7754C50.7519 27.7961 50.6633 27.8651 50.6633 27.9754V28.7961H49.7573C49.6523 28.7961 49.5669 28.8857 49.5669 28.9961V29.4478C49.5669 29.5581 49.6523 29.6271 49.7573 29.6478L50.6633 29.7892V32.9374C50.6633 34.2822 51.1064 34.5305 52.1963 34.5305C52.4096 34.5305 52.6197 34.4994 52.8528 34.4615C52.9775 34.4408 53.0366 34.3822 53.0366 34.2787V33.6477C53.0366 33.5477 52.9578 33.496 52.8331 33.496ZM55.3016 28.7961H54.4153C54.3102 28.7961 54.2249 28.8857 54.2249 28.9961V34.2374C54.2249 34.3477 54.3102 34.4477 54.4153 34.4477H55.3016C55.4066 34.4477 55.4953 34.3477 55.4953 34.2374V28.9961C55.4953 28.8857 55.4066 28.7961 55.3016 28.7961ZM55.3278 26.7616H54.3923C54.2873 26.7616 54.1921 26.8513 54.1921 26.9616V27.8444C54.1921 27.9547 54.2873 28.0444 54.3923 28.0444H55.3278C55.4329 28.0444 55.5215 27.9547 55.5215 27.8444V26.9616C55.5215 26.8513 55.4362 26.7616 55.3278 26.7616ZM59.8972 33.496H59.3884C59.0404 33.496 59.0142 33.4374 59.0142 32.9339V29.7857H59.8808C59.9858 29.7857 60.0745 29.6961 60.0745 29.5857V28.9961C60.0745 28.8857 59.9891 28.7961 59.8808 28.7961H59.0142V27.7651C59.0142 27.6651 58.9453 27.6133 58.8599 27.6133H58.8205L57.9244 27.7754C57.816 27.7961 57.7307 27.8651 57.7307 27.9754V28.7961H56.8247C56.7197 28.7961 56.631 28.8857 56.631 28.9961V29.4478C56.631 29.5581 56.7164 29.6271 56.8247 29.6478L57.7307 29.7892V32.9374C57.7307 34.2822 58.1738 34.5305 59.2637 34.5305C59.477 34.5305 59.6871 34.4994 59.9202 34.4615C60.0449 34.4408 60.1007 34.3822 60.1007 34.2787V33.6477C60.0974 33.5477 60.0219 33.496 59.8972 33.496ZM65.5137 28.7961H64.6274C64.5224 28.7961 64.4337 28.8961 64.4337 29.0064V33.0167C64.1646 33.1684 63.7017 33.4167 63.3472 33.4167C63.0485 33.4167 62.8843 33.3546 62.7498 33.2374C62.5659 33.065 62.5265 32.7753 62.5265 32.2753V29.0064C62.5265 28.8961 62.4412 28.7961 62.3362 28.7961H61.4499C61.3448 28.7961 61.2562 28.8961 61.2562 29.0064V32.2753C61.2562 33.1063 61.3842 33.727 61.7387 34.0994C62.0177 34.3891 62.4445 34.5201 62.9237 34.5201C63.5409 34.5201 63.9348 34.358 64.437 34.0201V34.2477C64.437 34.3581 64.5224 34.4477 64.6307 34.4477H65.517C65.622 34.4477 65.7074 34.3581 65.7074 34.2477V29.0064C65.7074 28.8961 65.622 28.7961 65.5137 28.7961ZM70.083 33.496H69.571C69.2263 33.496 69.1968 33.4374 69.1968 32.9339V29.7857H70.0634C70.1684 29.7857 70.2537 29.6961 70.2537 29.5857V28.9961C70.2537 28.8857 70.1684 28.7961 70.0634 28.7961H69.1968V27.7651C69.1968 27.6651 69.1278 27.6133 69.0425 27.6133H69.0031L68.1069 27.7754C68.0019 27.7961 67.9133 27.8651 67.9133 27.9754V28.7961H67.0073C66.9022 28.7961 66.8136 28.8857 66.8136 28.9961V29.4478C66.8136 29.5581 66.8989 29.6271 67.0073 29.6478L67.9133 29.7892V32.9374C67.9133 34.2822 68.3564 34.5305 69.4462 34.5305C69.6596 34.5305 69.8697 34.4994 70.1028 34.4615C70.2275 34.4408 70.2866 34.3822 70.2866 34.2787V33.6477C70.2833 33.5477 70.2078 33.496 70.083 33.496Z" fill="#1D1D1D"/>
<path d="M28.6832 4.30322H0V34.4337H28.6832V4.30322Z" fill="#3E3E3E"/>
<path d="M32.7799 0H8.19336V25.8271H32.7799V0Z" fill="#ACACAC"/>
<path d="M28.6834 4.30322H8.19678V25.8235H28.6834V4.30322Z" fill="#6E6E6E"/>
<path d="M16.5275 7.64815H15.5821C15.4771 7.64815 15.3917 7.72747 15.3917 7.83781V10.6033H12.6836V7.83781C12.6836 7.72747 12.5982 7.64815 12.4932 7.64815H11.5478C11.4428 7.64815 11.3574 7.72747 11.3574 7.83781V14.8928C11.3574 15.0032 11.4428 15.0928 11.5478 15.0928H12.4932C12.5982 15.0928 12.6836 15.0032 12.6836 14.8928V11.8274H15.3917V14.8928C15.3917 15.0032 15.4771 15.0928 15.5821 15.0928H16.5275C16.6325 15.0928 16.7179 15.0032 16.7179 14.8928V7.83781C16.7179 7.72747 16.6325 7.64815 16.5275 7.64815ZM20.3419 7.56885C19.6459 7.56885 18.9697 7.61711 18.4708 7.69987C18.2804 7.7309 18.1688 7.79987 18.1688 8.00332V14.8963C18.1688 15.0066 18.2541 15.0963 18.3592 15.0963H19.3111C19.4162 15.0963 19.4949 15.0066 19.4949 14.8963V12.2825C19.7116 12.2894 20.0957 12.3205 20.3451 12.3205C21.8157 12.3205 23.0927 11.7481 23.0927 9.97569V9.88605C23.0894 8.11022 21.8124 7.56885 20.3419 7.56885ZM21.7731 9.97225C21.7731 10.7757 21.3726 11.1757 20.3419 11.1757C20.181 11.1757 19.6459 11.155 19.4917 11.1446V8.75847C19.6624 8.73779 20.1416 8.7171 20.3419 8.7171C21.2938 8.7171 21.7731 9.03778 21.7731 9.87914V9.97225ZM25.3281 7.64815H24.3827C24.2777 7.64815 24.1923 7.72747 24.1923 7.83781V14.8928C24.1923 15.0032 24.2777 15.0928 24.3827 15.0928H25.3281C25.4331 15.0928 25.5185 15.0032 25.5185 14.8928V7.83781C25.5185 7.72747 25.4331 7.64815 25.3281 7.64815Z" fill="white"/>
</g>
</svg>
