<svg width="69" height="32" viewBox="0 0 69 32" fill="none" xmlns="http://www.w3.org/2000/svg">
<g opacity="0.4">
<path d="M35.401 13.9136H36.3227C36.422 13.9136 36.5084 13.8305 36.5084 13.7282V10.8874H39.1488V13.7282C39.1488 13.8305 39.232 13.9136 39.3344 13.9136H40.2562C40.3586 13.9136 40.4418 13.8305 40.4418 13.7282V7.19018C40.4418 7.08792 40.3586 7.01123 40.2562 7.01123H39.3344C39.232 7.01123 39.1488 7.08473 39.1488 7.19018V9.75299H36.5084V7.19018C36.5084 7.08792 36.4252 7.01123 36.3227 7.01123H35.401C35.2986 7.01123 35.2154 7.08473 35.2154 7.19018V13.7282C35.2154 13.8273 35.2986 13.9136 35.401 13.9136ZM43.1591 13.9871C43.6039 13.9871 44.0424 13.8401 44.4713 13.578V13.7282C44.4713 13.8305 44.5545 13.9136 44.6569 13.9136H45.4474C45.5498 13.9136 45.6331 13.8305 45.6331 13.7282V10.3857C45.6331 9.19697 44.9065 8.61219 43.5847 8.61219C42.9446 8.61219 42.4037 8.68569 42.0325 8.76238C41.9109 8.79114 41.8565 8.85505 41.8565 8.95731V9.55168C41.8565 9.6827 41.9301 9.70826 42.0229 9.70826H42.0709C42.3781 9.66991 42.9926 9.63476 43.5879 9.63476C44.1352 9.63476 44.4073 9.78495 44.4073 10.3889V10.7979H43.8216C42.2021 10.7979 41.5492 11.3444 41.5492 12.4053V12.4436C41.5492 13.6899 42.3877 13.9871 43.1591 13.9871ZM42.7878 12.3989C42.7878 11.878 42.9734 11.6096 43.8216 11.6096H44.4073V12.7536C44.1384 12.9038 43.7928 13.0124 43.4599 13.0124C42.9958 13.0124 42.7878 12.891 42.7878 12.4372V12.3989ZM47.4382 11.2836L48.712 12.0634C49.0096 12.2487 49.1216 12.3605 49.1216 12.5363C49.1216 12.7887 49.0384 12.9837 48.4623 12.9837C48.1839 12.9837 47.3453 12.9389 46.9005 12.8814H46.8621C46.7692 12.8814 46.7052 12.9549 46.7052 13.0284V13.5876C46.7052 13.6995 46.7692 13.773 46.8813 13.8017C47.3998 13.9423 48.1839 13.9871 48.5455 13.9871C49.7649 13.9871 50.3698 13.348 50.3698 12.5395C50.3698 12.0666 50.2578 11.6 49.4769 11.1271L48.2575 10.3825C48.0239 10.2419 47.8862 10.1492 47.8862 10.0022C47.8862 9.71464 48.0815 9.61239 48.5295 9.61239C49.0608 9.61239 49.8033 9.68588 50.0626 9.72423H50.101C50.1938 9.72423 50.2482 9.66032 50.2482 9.54848V9.01163C50.2482 8.89979 50.1938 8.82629 50.0818 8.79753C49.6081 8.69527 49.1792 8.61219 48.4239 8.61219C47.2429 8.61219 46.6572 9.07554 46.6572 10.0054C46.6572 10.5423 46.9805 11.0056 47.4382 11.2836ZM54.0248 11.1271L52.8054 10.3825C52.5718 10.2419 52.4342 10.1492 52.4342 10.0022C52.4342 9.71464 52.6294 9.61239 53.0775 9.61239C53.6088 9.61239 54.3513 9.68588 54.6105 9.72423H54.6489C54.7417 9.72423 54.7994 9.66032 54.7994 9.54848V9.01163C54.7994 8.89979 54.7417 8.82629 54.6297 8.79753C54.1561 8.69527 53.7272 8.61219 52.9751 8.61219C51.7941 8.61219 51.2084 9.07554 51.2084 10.0054C51.2084 10.5455 51.5316 11.0088 51.9893 11.2868L53.2631 12.0666C53.5608 12.2519 53.6696 12.3637 53.6696 12.5395C53.6696 12.7919 53.5864 12.9869 53.0103 12.9869C52.7286 12.9869 51.8933 12.9421 51.4484 12.8846H51.41C51.3172 12.8846 51.2532 12.9581 51.2532 13.0316V13.5908C51.2532 13.7027 51.3172 13.7762 51.4292 13.8049C51.9477 13.9455 52.7318 13.9903 53.0935 13.9903C54.3129 13.9903 54.9178 13.3512 54.9178 12.5427C54.9178 12.0634 54.8058 11.6 54.0248 11.1271ZM58.0063 13.9871C59.4657 13.9871 60.2274 13.0028 60.2274 11.6735V10.9226C60.2274 9.59321 59.4657 8.60899 58.0063 8.60899C56.5468 8.60899 55.7851 9.59321 55.7851 10.9226V11.6735C55.7819 13.0028 56.5436 13.9871 58.0063 13.9871ZM57.0109 10.9226C57.0109 10.162 57.3534 9.66671 58.0063 9.66671C58.656 9.66671 59.0016 10.1588 59.0016 10.9226V11.6735C59.0016 12.4372 58.656 12.9293 58.0063 12.9293C57.3534 12.9293 57.0109 12.4372 57.0109 11.6735V10.9226ZM40.0161 18.1732V18.0901C40.0161 16.4476 38.7679 15.9459 37.3373 15.9459C36.6588 15.9459 35.9995 15.9939 35.513 16.0674C35.3274 16.0961 35.2154 16.16 35.2154 16.3454V22.7364C35.2154 22.8387 35.2986 22.9218 35.401 22.9218H36.3323C36.4348 22.9218 36.5084 22.8387 36.5084 22.7364V20.311C36.7228 20.3206 37.0941 20.3494 37.3373 20.3494C38.7679 20.3462 40.0161 19.8157 40.0161 18.1732ZM38.7327 18.1732C38.7327 18.9178 38.3423 19.2884 37.3373 19.2884C37.1805 19.2884 36.6588 19.2693 36.5084 19.2597V17.0484C36.678 17.0292 37.1389 17.01 37.3373 17.01C38.2655 17.01 38.7327 17.3072 38.7327 18.0869V18.1732ZM41.1139 22.9186H41.9781C42.0805 22.9186 42.1541 22.8259 42.1541 22.7236V16.0354C42.1541 15.9331 42.0805 15.8501 41.9781 15.8501H41.1139C41.0115 15.8501 40.9283 15.9331 40.9283 16.0354V22.7236C40.9251 22.8259 41.0115 22.9186 41.1139 22.9186ZM46.0715 22.583V22.7332C46.0715 22.8355 46.1548 22.9186 46.2572 22.9186H47.0477C47.1501 22.9186 47.2333 22.8355 47.2333 22.7332V19.3907C47.2333 18.202 46.5068 17.6172 45.185 17.6172C44.5417 17.6172 44.004 17.6907 43.6327 17.7674C43.5111 17.7961 43.4567 17.86 43.4567 17.9623V18.5567C43.4567 18.6845 43.5303 18.7133 43.6231 18.7133H43.6711C43.9784 18.6749 44.5929 18.6398 45.1882 18.6398C45.7355 18.6398 46.0075 18.7899 46.0075 19.3939V19.7997H45.4218C43.8024 19.7997 43.1527 20.3494 43.1527 21.4071V21.4454C43.1527 22.6981 43.9912 22.9953 44.7625 22.9953C45.2042 22.9921 45.6427 22.8451 46.0715 22.583ZM44.3881 21.4422V21.4039C44.3881 20.883 44.5737 20.6146 45.4218 20.6146H46.0075V21.7586C45.7387 21.9056 45.393 22.0174 45.057 22.0174C44.5929 22.0174 44.3881 21.896 44.3881 21.4422ZM48.8528 21.5157C48.8528 22.7588 49.2817 22.9921 50.3314 22.9921C50.5363 22.9921 50.7379 22.9633 50.9651 22.9282C51.0868 22.909 51.1412 22.8546 51.1412 22.7588V22.174C51.1412 22.0813 51.0676 22.0334 50.9459 22.0334H50.4531C50.117 22.0334 50.0882 21.9759 50.0882 21.5157V18.5982H50.6579C50.7603 18.5982 50.8435 18.5151 50.8435 18.4129V17.8664C50.8435 17.7642 50.7603 17.6811 50.6579 17.6811H50.0882V16.7256C50.0882 16.633 50.0242 16.585 49.941 16.585H49.9026L49.0384 16.7352C48.936 16.7544 48.8528 16.8183 48.8528 16.9206V17.6811H47.979C47.8766 17.6811 47.7934 17.7642 47.7934 17.8664V18.2851C47.7934 18.3873 47.8766 18.4544 47.979 18.4704L48.8528 18.5982V21.5157ZM54.3865 22.0366H53.8936C53.5576 22.0366 53.5287 21.9791 53.5287 21.5189V18.6014H54.3673C54.4697 18.6014 54.5529 18.5183 54.5529 18.4161V17.8696C54.5529 17.7674 54.4697 17.6843 54.3673 17.6843H53.5287V16.7288C53.5287 16.6362 53.4647 16.5882 53.3783 16.5882H53.3431L52.479 16.7384C52.3766 16.7576 52.2934 16.8215 52.2934 16.9238V17.6843H51.6884C51.586 17.6843 51.5028 17.7674 51.5028 17.8696V18.2883C51.5028 18.3905 51.586 18.4576 51.6884 18.4736L52.2934 18.6014V21.5189C52.2934 22.762 52.7222 22.9953 53.772 22.9953C53.9768 22.9953 54.1817 22.9665 54.4057 22.9314C54.5273 22.9122 54.5849 22.8578 54.5849 22.762V22.1772C54.5817 22.0845 54.5081 22.0366 54.3865 22.0366ZM59.885 22.7236V19.6943C59.885 18.5151 59.6161 17.614 58.2751 17.614C57.6606 17.614 57.3054 17.7162 56.7677 18.0614V17.8664C56.7677 17.7642 56.6845 17.6811 56.5821 17.6811H55.7723C55.6699 17.6811 55.5867 17.7642 55.5867 17.8664V22.7236C55.5867 22.8259 55.6699 22.9186 55.7723 22.9186H56.6269C56.7293 22.9186 56.8125 22.8259 56.8125 22.7236V18.9913C57.203 18.7867 57.5486 18.6557 57.8623 18.6557C58.5792 18.6557 58.6528 18.889 58.6528 19.6943V22.7236C58.6528 22.8259 58.736 22.9186 58.8384 22.9186H59.6962C59.7986 22.9186 59.885 22.8259 59.885 22.7236ZM65.1306 20.7264C65.2619 20.7264 65.3163 20.6434 65.3163 20.4932V19.9755C65.3163 18.5918 64.5353 17.6172 63.1015 17.6172C61.6773 17.6172 60.8676 18.5279 60.8676 19.9755V20.6625C60.8676 22.4904 62.1894 22.9921 63.1175 22.9921C63.9561 22.9921 64.3177 22.9473 64.9226 22.8355C65.0922 22.8067 65.1178 22.7428 65.1178 22.5958V21.9823C65.1178 21.8896 65.0442 21.8417 64.9482 21.8417H64.9194C64.529 21.88 63.8888 21.9343 63.2071 21.9343C62.3142 21.9343 62.0901 21.292 62.0901 20.7552V20.7264H65.1306ZM62.1062 19.8157C62.1062 19.0807 62.5254 18.6717 63.1015 18.6717C63.6776 18.6717 64.0777 19.0903 64.0777 19.8157V19.8541H62.1062V19.8157ZM68.8144 17.614C68.44 17.614 67.9407 17.7067 67.483 18.0614V17.8664C67.483 17.7642 67.3998 17.6811 67.2974 17.6811H66.4877C66.3853 17.6811 66.302 17.7642 66.302 17.8664V22.7236C66.302 22.8259 66.3853 22.9186 66.4877 22.9186H67.3454C67.4478 22.9186 67.531 22.8259 67.531 22.7236V18.9913C67.9215 18.7867 68.312 18.6557 68.8144 18.6557C68.9169 18.6557 69.0001 18.5726 69.0001 18.4704V17.7993C69.0001 17.7003 68.9169 17.614 68.8144 17.614ZM36.3419 25.0244H35.4138C35.3114 25.0244 35.225 25.0979 35.225 25.2002V31.7382C35.225 31.8405 35.3082 31.9236 35.4138 31.9236H36.3419C36.4444 31.9236 36.5308 31.8405 36.5308 31.7382V25.2002C36.5276 25.0979 36.4444 25.0244 36.3419 25.0244ZM40.8387 26.6222C40.221 26.6222 39.8625 26.7244 39.3184 27.0696V26.8746C39.3184 26.7724 39.2352 26.6893 39.1296 26.6893H38.3135C38.2111 26.6893 38.1246 26.7724 38.1246 26.8746V31.7318C38.1246 31.8341 38.2079 31.9268 38.3135 31.9268H39.1776C39.28 31.9268 39.3664 31.8341 39.3664 31.7318V27.9995C39.7601 27.7949 40.109 27.6639 40.429 27.6639C41.1523 27.6639 41.2291 27.8972 41.2291 28.7025V31.7318C41.2291 31.8341 41.3124 31.9268 41.418 31.9268H42.2821C42.3845 31.9268 42.4709 31.8341 42.4709 31.7318V28.7025C42.4645 27.5233 42.1957 26.6222 40.8387 26.6222ZM46.6284 29.1371L45.3962 28.3957C45.1594 28.2551 45.0186 28.1624 45.0186 28.0154C45.0186 27.7278 45.217 27.6224 45.6683 27.6224C46.2028 27.6224 46.9549 27.6959 47.2173 27.7342H47.2557C47.3485 27.7342 47.4062 27.6703 47.4062 27.5585V27.0184C47.4062 26.9066 47.3485 26.8331 47.2365 26.8043C46.7565 26.7021 46.3244 26.619 45.5659 26.619C44.3721 26.619 43.78 27.0823 43.78 28.0122C43.78 28.5491 44.1096 29.0156 44.5705 29.2936L45.8571 30.0733C46.158 30.2587 46.27 30.3674 46.27 30.5463C46.27 30.7987 46.1868 30.9937 45.6043 30.9937C45.3226 30.9937 44.4777 30.9457 44.0264 30.8914H43.988C43.8952 30.8914 43.828 30.9649 43.828 31.0384V31.5976C43.828 31.7095 43.8952 31.783 44.0072 31.8085C44.5353 31.9491 45.3226 31.9939 45.6907 31.9939C46.9229 31.9939 47.531 31.3516 47.531 30.5463C47.531 30.0766 47.4158 29.6132 46.6284 29.1371ZM51.5124 31.0416H51.0131C50.6771 31.0416 50.6483 30.9873 50.6483 30.5207V27.6032H51.4932C51.5956 27.6032 51.6821 27.5201 51.6821 27.4179V26.8714C51.6821 26.7692 51.5956 26.6861 51.4932 26.6861H50.6483V25.7306C50.6483 25.638 50.5843 25.59 50.4979 25.59H50.4594L49.5857 25.7402C49.4833 25.7594 49.3969 25.8233 49.3969 25.9256V26.6861H48.5135C48.4111 26.6861 48.3279 26.7692 48.3279 26.8714V27.2901C48.3279 27.3923 48.4111 27.4562 48.5135 27.4754L49.3969 27.6064V30.5239C49.3969 31.7702 49.8289 32.0003 50.8915 32.0003C51.0996 32.0003 51.3044 31.9715 51.5316 31.9363C51.6532 31.9172 51.7109 31.8628 51.7109 31.767V31.1822C51.7109 31.0895 51.634 31.0416 51.5124 31.0416ZM53.9192 26.6861H53.0551C52.9527 26.6861 52.8694 26.7692 52.8694 26.8714V31.7286C52.8694 31.8309 52.9527 31.9236 53.0551 31.9236H53.9192C54.0216 31.9236 54.1081 31.8309 54.1081 31.7286V26.8714C54.1081 26.7692 54.0216 26.6861 53.9192 26.6861ZM53.9448 24.8007H53.0327C52.9303 24.8007 52.8374 24.8838 52.8374 24.9861V25.8041C52.8374 25.9064 52.9303 25.9895 53.0327 25.9895H53.9448C54.0472 25.9895 54.1337 25.9064 54.1337 25.8041V24.9861C54.1337 24.8838 54.0504 24.8007 53.9448 24.8007ZM58.3999 31.0416H57.9039C57.5646 31.0416 57.539 30.9873 57.539 30.5207V27.6032H58.3839C58.4864 27.6032 58.5728 27.5201 58.5728 27.4179V26.8714C58.5728 26.7692 58.4896 26.6861 58.3839 26.6861H57.539V25.7306C57.539 25.638 57.4718 25.59 57.3886 25.59H57.3502L56.4764 25.7402C56.3708 25.7594 56.2876 25.8233 56.2876 25.9256V26.6861H55.4043C55.3018 26.6861 55.2154 26.7692 55.2154 26.8714V27.2901C55.2154 27.3923 55.2986 27.4562 55.4043 27.4754L56.2876 27.6064V30.5239C56.2876 31.7702 56.7197 32.0003 57.7822 32.0003C57.9903 32.0003 58.1951 31.9715 58.4223 31.9363C58.544 31.9172 58.5984 31.8628 58.5984 31.767V31.1822C58.5952 31.0895 58.5216 31.0416 58.3999 31.0416ZM63.876 26.6861H63.0119C62.9095 26.6861 62.8231 26.7788 62.8231 26.881V30.5974C62.5606 30.738 62.1094 30.9681 61.7637 30.9681C61.4725 30.9681 61.3124 30.9106 61.1812 30.8019C61.002 30.6422 60.9636 30.3737 60.9636 29.9104V26.881C60.9636 26.7788 60.8804 26.6861 60.7779 26.6861H59.9138C59.8114 26.6861 59.725 26.7788 59.725 26.881V29.9104C59.725 30.6805 59.8498 31.2557 60.1954 31.6008C60.4675 31.8692 60.8836 31.9907 61.3508 31.9907C61.9525 31.9907 62.3366 31.8405 62.8263 31.5273V31.7382C62.8263 31.8405 62.9095 31.9236 63.0151 31.9236H63.8792C63.9817 31.9236 64.0649 31.8405 64.0649 31.7382V26.881C64.0649 26.7788 63.9817 26.6861 63.876 26.6861ZM68.3312 31.0416H67.8319C67.4958 31.0416 67.467 30.9873 67.467 30.5207V27.6032H68.312C68.4144 27.6032 68.4976 27.5201 68.4976 27.4179V26.8714C68.4976 26.7692 68.4144 26.6861 68.312 26.6861H67.467V25.7306C67.467 25.638 67.3998 25.59 67.3166 25.59H67.2782L66.4045 25.7402C66.302 25.7594 66.2156 25.8233 66.2156 25.9256V26.6861H65.3323C65.2299 26.6861 65.1434 26.7692 65.1434 26.8714V27.2901C65.1434 27.3923 65.2267 27.4562 65.3323 27.4754L66.2156 27.6064V30.5239C66.2156 31.7702 66.6477 32.0003 67.7103 32.0003C67.9183 32.0003 68.1231 31.9715 68.3504 31.9363C68.472 31.9172 68.5296 31.8628 68.5296 31.767V31.1822C68.5264 31.0895 68.4528 31.0416 68.3312 31.0416Z" fill="#1D1D1D"/>
<path d="M27.9662 3.98779H0V31.9103H27.9662V3.98779Z" fill="#3E3E3E"/>
<path d="M31.9605 0H7.98856V23.9345H31.9605V0Z" fill="#ACACAC"/>
<path d="M27.9662 3.98779H7.99173V23.9311H27.9662V3.98779Z" fill="#6E6E6E"/>
<path d="M16.1145 7.08765H15.1927C15.0903 7.08765 15.0071 7.16115 15.0071 7.26341V9.82622H12.3667V7.26341C12.3667 7.16115 12.2835 7.08765 12.181 7.08765H11.2593C11.1569 7.08765 11.0737 7.16115 11.0737 7.26341V13.8015C11.0737 13.9037 11.1569 13.9868 11.2593 13.9868H12.181C12.2835 13.9868 12.3667 13.9037 12.3667 13.8015V10.9606H15.0071V13.8015C15.0071 13.9037 15.0903 13.9868 15.1927 13.9868H16.1145C16.2169 13.9868 16.3001 13.9037 16.3001 13.8015V7.26341C16.3001 7.16115 16.2169 7.08765 16.1145 7.08765ZM19.8335 7.01416C19.155 7.01416 18.4957 7.05889 18.0092 7.13558C17.8236 7.16434 17.7148 7.22825 17.7148 7.41679V13.8047C17.7148 13.9069 17.798 13.99 17.9004 13.99H18.8285C18.931 13.99 19.0078 13.9069 19.0078 13.8047V11.3824C19.219 11.3888 19.5935 11.4176 19.8367 11.4176C21.2705 11.4176 22.5155 10.8871 22.5155 9.24463V9.16156C22.5123 7.51586 21.2673 7.01416 19.8335 7.01416ZM21.2289 9.24144C21.2289 9.986 20.8385 10.3567 19.8335 10.3567C19.6767 10.3567 19.155 10.3375 19.0046 10.3279V8.11661C19.171 8.09744 19.6383 8.07827 19.8335 8.07827C20.7617 8.07827 21.2289 8.37545 21.2289 9.15516V9.24144ZM24.6951 7.08765H23.7733C23.6709 7.08765 23.5877 7.16115 23.5877 7.26341V13.8015C23.5877 13.9037 23.6709 13.9868 23.7733 13.9868H24.6951C24.7975 13.9868 24.8807 13.9037 24.8807 13.8015V7.26341C24.8807 7.16115 24.7975 7.08765 24.6951 7.08765Z" fill="white"/>
</g>
</svg>
