<svg width="74" height="42" viewBox="0 0 74 42" fill="none" xmlns="http://www.w3.org/2000/svg">
<path d="M2.05627 39.4623V38.9133C2.05627 38.0343 1.57711 37.6504 0.825054 37.6504C0.517249 37.6504 0.203093 37.6726 0.0856836 37.6916C0.0317386 37.7012 0 37.7361 0 37.7932V40.5856C0 40.6459 0.0317386 40.6777 0.0856836 40.6872C0.203093 40.7062 0.517249 40.7284 0.825054 40.7284C1.57711 40.7284 2.05627 40.3349 2.05627 39.4623ZM1.68501 39.4623C1.68501 40.1953 1.31056 40.4111 0.821877 40.4111C0.631483 40.4111 0.501386 40.4111 0.371283 40.4016V37.9772C0.504559 37.9677 0.631483 37.9645 0.821877 37.9645C1.31056 37.9645 1.68501 38.1771 1.68501 38.9133V39.4623ZM2.9765 38.0248V37.7012C2.9765 37.6567 2.93844 37.6187 2.89401 37.6187H2.68774C2.64332 37.6187 2.60524 37.6567 2.60524 37.7012V38.0248C2.60524 38.0693 2.64332 38.1042 2.68774 38.1042H2.89401C2.93844 38.1042 2.9765 38.0693 2.9765 38.0248ZM2.96699 40.6174V38.5452C2.96699 38.5008 2.93208 38.4627 2.88448 38.4627H2.69092C2.64649 38.4627 2.61159 38.5008 2.61159 38.5452V40.6174C2.61159 40.6618 2.64649 40.6999 2.69092 40.6999H2.88448C2.93208 40.6999 2.96699 40.6618 2.96699 40.6174ZM5.38817 38.6595V38.5548C5.38817 38.5072 5.34373 38.4659 5.29614 38.4659H4.40763C3.70952 38.4659 3.50644 38.8245 3.50644 39.1862V39.218C3.50644 39.4274 3.56672 39.5734 3.69365 39.6908C3.57942 39.7542 3.52866 39.8716 3.52866 39.9827V39.9859C3.52866 40.1128 3.58577 40.2461 3.71587 40.3032L3.74444 40.3159C3.61116 40.4175 3.49056 40.6047 3.49056 40.8331V40.868C3.49056 41.2647 3.7825 41.5154 4.42667 41.5154C5.09305 41.5154 5.35327 41.2742 5.35327 40.8839V40.8522C5.35327 40.4682 4.97248 40.3572 4.57265 40.2556L3.96655 40.1001C3.87135 40.0747 3.83963 40.0398 3.83963 39.97C3.83963 39.9097 3.87136 39.8653 3.94118 39.8304C4.05859 39.8812 4.1982 39.9129 4.41399 39.9129C5.03911 39.9129 5.31517 39.6654 5.31517 39.218V39.1862C5.31517 38.9673 5.24855 38.8435 5.17557 38.7674L5.32153 38.7388C5.35961 38.7293 5.38817 38.7102 5.38817 38.6595ZM4.95344 39.2148C4.95344 39.4591 4.84236 39.6305 4.40446 39.6305C3.93799 39.6305 3.85549 39.3957 3.85549 39.2148V39.1831C3.85549 38.9546 3.94751 38.7483 4.40446 38.7483C4.84236 38.7483 4.95344 38.9387 4.95344 39.1831V39.2148ZM4.98516 40.8839C4.98516 41.1092 4.88045 41.2393 4.41716 41.2393C3.96656 41.2393 3.8301 41.0965 3.8301 40.868V40.8331C3.8301 40.6205 3.91261 40.519 4.03002 40.4175L4.49014 40.5349C4.85506 40.6269 4.98516 40.6935 4.98516 40.8522V40.8839ZM6.21003 38.0248V37.7012C6.21003 37.6567 6.17197 37.6187 6.12754 37.6187H5.92127C5.87685 37.6187 5.83877 37.6567 5.83877 37.7012V38.0248C5.83877 38.0693 5.87367 38.1042 5.92127 38.1042H6.12754C6.17197 38.1042 6.21003 38.0693 6.21003 38.0248ZM6.20052 40.6174V38.5452C6.20052 38.5008 6.16244 38.4627 6.11801 38.4627H5.92445C5.88002 38.4627 5.84512 38.5008 5.84512 38.5452V40.6174C5.84512 40.6618 5.8832 40.6999 5.92445 40.6999H6.11801C6.16244 40.6999 6.20052 40.6618 6.20052 40.6174ZM7.99339 40.6396V40.4968C7.99339 40.4555 7.96484 40.4397 7.90772 40.4397H7.67924C7.51741 40.4397 7.46029 40.4079 7.46029 40.1826V38.7642H7.89819C7.94262 38.7642 7.9807 38.7293 7.9807 38.6849V38.5452C7.9807 38.5008 7.94262 38.4627 7.89819 38.4627H7.46029V38.0185C7.46029 37.9772 7.43173 37.9487 7.39999 37.9487H7.38731L7.17471 37.9804C7.13028 37.9899 7.10171 38.0217 7.10171 38.0629V38.4596H6.70823C6.66381 38.4596 6.6289 38.4881 6.6289 38.5325V38.6436C6.6289 38.688 6.66063 38.7134 6.70823 38.7166L7.10171 38.761V40.1795C7.10171 40.6269 7.27943 40.7253 7.65387 40.7253C7.73003 40.7253 7.8379 40.7157 7.91723 40.7062C7.97118 40.6999 7.99339 40.6745 7.99339 40.6396ZM9.96715 40.6174V39.1989C9.96715 38.7198 9.73868 38.4342 9.17384 38.4342C8.89777 38.4342 8.71056 38.4596 8.54555 38.4881C8.48843 38.4976 8.45986 38.5198 8.45986 38.5643V38.7071C8.45986 38.761 8.49794 38.7705 8.53284 38.7705H8.55188C8.71372 38.7547 8.91046 38.7388 9.17384 38.7388C9.49117 38.7388 9.60857 38.8562 9.60857 39.1989V39.3608H9.30711C8.58362 39.3608 8.32659 39.5797 8.32659 40.0176V40.0652C8.32659 40.5729 8.64391 40.7253 8.98979 40.7253C9.21826 40.7253 9.42136 40.6396 9.61493 40.5253V40.6142C9.61493 40.6586 9.65301 40.6967 9.69744 40.6967H9.88465C9.92907 40.6999 9.96715 40.6618 9.96715 40.6174ZM9.60857 40.2715C9.41501 40.3762 9.24683 40.4333 9.05961 40.4333C8.82479 40.4333 8.68517 40.3572 8.68517 40.062V40.0144C8.68517 39.7257 8.81526 39.6146 9.30711 39.6146H9.60857V40.2715ZM10.9033 40.6174V37.7202C10.9033 37.6758 10.8715 37.644 10.8303 37.644H10.6177C10.5732 37.644 10.5447 37.6789 10.5447 37.7202V40.6174C10.5447 40.6618 10.5764 40.6999 10.6177 40.6999H10.8303C10.8779 40.6999 10.9033 40.6586 10.9033 40.6174ZM14.2827 40.6523V40.446C14.2827 40.4175 14.2669 40.3984 14.2383 40.3984H13.4545C13.023 40.3984 12.9532 40.2842 12.9532 39.9764V39.2941H14.2002C14.2447 39.2941 14.2827 39.2592 14.2827 39.2148V39.0593C14.2827 39.0149 14.2478 38.98 14.2002 38.98H12.9532V38.4151C12.9532 38.1073 13.023 37.9931 13.4545 37.9931H14.2383C14.2669 37.9931 14.2827 37.9741 14.2827 37.9455V37.7424C14.2827 37.717 14.2669 37.6885 14.2415 37.6853C14.0701 37.6694 13.6894 37.6599 13.4482 37.6599C12.8802 37.6599 12.5819 37.8757 12.5819 38.4151V39.9795C12.5819 40.519 12.877 40.7348 13.4482 40.7348C13.6894 40.7348 14.086 40.7316 14.2415 40.7157C14.2669 40.703 14.2827 40.6745 14.2827 40.6523ZM16.504 40.6174V39.2814C16.504 38.742 16.2851 38.4373 15.7964 38.4373C15.5552 38.4373 15.3744 38.4976 15.1491 38.6246V38.5452C15.1491 38.5008 15.1173 38.4627 15.0729 38.4627H14.8698C14.8254 38.4627 14.7937 38.5008 14.7937 38.5452V40.6174C14.7937 40.6618 14.8317 40.6999 14.8698 40.6999H15.0697C15.1142 40.6999 15.1522 40.6586 15.1522 40.6174V38.9006C15.3394 38.8086 15.5298 38.742 15.7012 38.742C16.009 38.742 16.1486 38.8689 16.1486 39.2783V40.6142C16.1486 40.6586 16.1867 40.6967 16.2311 40.6967H16.4247C16.4691 40.6999 16.504 40.6618 16.504 40.6174ZM18.9157 38.6595V38.5548C18.9157 38.5072 18.8713 38.4659 18.8237 38.4659H17.932C17.2339 38.4659 17.0308 38.8245 17.0308 39.1862V39.218C17.0308 39.4274 17.0911 39.5734 17.218 39.6908C17.1038 39.7542 17.0498 39.8716 17.0498 39.9827V39.9859C17.0498 40.1128 17.1069 40.2461 17.237 40.3032L17.2656 40.3159C17.1323 40.4175 17.0117 40.6047 17.0117 40.8331V40.868C17.0117 41.2647 17.3037 41.5154 17.9479 41.5154C18.6142 41.5154 18.8744 41.2742 18.8744 40.8839V40.8522C18.8744 40.4682 18.4936 40.3572 18.0938 40.2556L17.4877 40.1001C17.3957 40.0747 17.3608 40.0398 17.3608 39.97C17.3608 39.9097 17.3925 39.8653 17.4623 39.8304C17.5798 39.8812 17.7194 39.9129 17.9352 39.9129C18.5634 39.9129 18.8364 39.6654 18.8364 39.218V39.1862C18.8364 38.9673 18.7729 38.8435 18.6967 38.7674L18.8427 38.7388C18.8871 38.7293 18.9157 38.7102 18.9157 38.6595ZM18.481 39.2148C18.481 39.4591 18.3699 39.6305 17.932 39.6305C17.4655 39.6305 17.383 39.3957 17.383 39.2148V39.1831C17.383 38.9546 17.475 38.7483 17.932 38.7483C18.3699 38.7483 18.481 38.9387 18.481 39.1831V39.2148ZM18.5127 40.8839C18.5127 41.1092 18.408 41.2393 17.9447 41.2393C17.4941 41.2393 17.3576 41.0965 17.3576 40.868V40.8331C17.3576 40.6205 17.4401 40.519 17.5575 40.4175L18.0177 40.5349C18.3826 40.6269 18.5127 40.6935 18.5127 40.8522V40.8839ZM19.7566 38.0248V37.7012C19.7566 37.6567 19.7185 37.6187 19.6741 37.6187H19.4678C19.4234 37.6187 19.3853 37.6567 19.3853 37.7012V38.0248C19.3853 38.0693 19.4234 38.1042 19.4678 38.1042H19.6741C19.7185 38.1042 19.7566 38.0693 19.7566 38.0248ZM19.7471 40.6174V38.5452C19.7471 38.5008 19.7122 38.4627 19.6646 38.4627H19.4678C19.4234 38.4627 19.3885 38.5008 19.3885 38.5452V40.6174C19.3885 40.6618 19.4234 40.6999 19.4678 40.6999H19.6646C19.7122 40.6999 19.7471 40.6618 19.7471 40.6174ZM22.0635 40.6174V39.2814C22.0635 38.742 21.8446 38.4373 21.3559 38.4373C21.1147 38.4373 20.9339 38.4976 20.7086 38.6246V38.5452C20.7086 38.5008 20.6768 38.4627 20.6324 38.4627H20.4293C20.3849 38.4627 20.3532 38.5008 20.3532 38.5452V40.6174C20.3532 40.6618 20.3912 40.6999 20.4293 40.6999H20.6292C20.6737 40.6999 20.7117 40.6586 20.7117 40.6174V38.9006C20.899 38.8086 21.0893 38.742 21.2607 38.742C21.5717 38.742 21.7081 38.8689 21.7081 39.2783V40.6142C21.7081 40.6586 21.743 40.6967 21.7906 40.6967H21.9842C22.0286 40.6999 22.0635 40.6618 22.0635 40.6174ZM24.3705 39.6051V39.3862C24.3705 38.8086 24.069 38.4342 23.4756 38.4342C22.8949 38.4342 22.5744 38.8023 22.5744 39.3862V39.7511C22.5744 40.5095 23.0282 40.7284 23.4978 40.7284C23.7707 40.7284 23.9929 40.703 24.2245 40.6586C24.288 40.6459 24.307 40.6174 24.307 40.5666V40.427C24.307 40.3857 24.2753 40.3698 24.2404 40.3698H24.2213C24.0341 40.3984 23.7327 40.4143 23.4978 40.4143C23.1234 40.4143 22.933 40.2366 22.933 39.7511V39.694H24.2943C24.3419 39.694 24.3705 39.659 24.3705 39.6051ZM24.0087 39.4242H22.9298V39.3862C22.9298 38.9482 23.1266 38.7483 23.4756 38.7483C23.8342 38.7483 24.0087 38.9292 24.0087 39.3862V39.4242ZM26.614 39.6051V39.3862C26.614 38.8086 26.3125 38.4342 25.7191 38.4342C25.1384 38.4342 24.8179 38.8023 24.8179 39.3862V39.7511C24.8179 40.5095 25.2717 40.7284 25.7413 40.7284C26.0142 40.7284 26.2363 40.703 26.468 40.6586C26.5315 40.6459 26.5505 40.6174 26.5505 40.5666V40.427C26.5505 40.3857 26.5188 40.3698 26.4839 40.3698H26.4648C26.2776 40.3984 25.9761 40.4143 25.7413 40.4143C25.3669 40.4143 25.1765 40.2366 25.1765 39.7511V39.694H26.5378C26.5854 39.694 26.614 39.659 26.614 39.6051ZM26.2522 39.4242H25.1733V39.3862C25.1733 38.9482 25.3701 38.7483 25.7191 38.7483C26.0777 38.7483 26.2522 38.9292 26.2522 39.3862V39.4242ZM28.1181 38.6753V38.5103C28.1181 38.4627 28.0895 38.4373 28.0324 38.4373C27.8483 38.4373 27.6611 38.4913 27.458 38.6309V38.5452C27.458 38.5008 27.4263 38.4627 27.3819 38.4627H27.1915C27.1471 38.4627 27.1153 38.5008 27.1153 38.5452V40.6174C27.1153 40.6618 27.1502 40.6999 27.1915 40.6999H27.3914C27.4358 40.6999 27.4707 40.6586 27.4707 40.6174V38.9133C27.6738 38.7927 27.8452 38.742 28.0324 38.742C28.0895 38.742 28.1181 38.7198 28.1181 38.6753ZM28.9399 38.0248V37.7012C28.9399 37.6567 28.9019 37.6187 28.8574 37.6187H28.6512C28.6068 37.6187 28.5718 37.6567 28.5718 37.7012V38.0248C28.5718 38.0693 28.6099 38.1042 28.6512 38.1042H28.8574C28.9019 38.1042 28.9399 38.0693 28.9399 38.0248ZM28.9304 40.6174V38.5452C28.9304 38.5008 28.8955 38.4627 28.8479 38.4627H28.6544C28.6099 38.4627 28.575 38.5008 28.575 38.5452V40.6174C28.575 40.6618 28.6099 40.6999 28.6544 40.6999H28.8479C28.8955 40.6999 28.9304 40.6618 28.9304 40.6174ZM31.2469 40.6174V39.2814C31.2469 38.742 31.0279 38.4373 30.5393 38.4373C30.3013 38.4373 30.1172 38.4976 29.8919 38.6246V38.5452C29.8919 38.5008 29.8602 38.4627 29.8158 38.4627H29.6127C29.5682 38.4627 29.5333 38.5008 29.5333 38.5452V40.6174C29.5333 40.6618 29.5714 40.6999 29.6127 40.6999H29.8126C29.857 40.6999 29.8951 40.6586 29.8951 40.6174V38.9006C30.0823 38.8086 30.2727 38.742 30.444 38.742C30.7519 38.742 30.8915 38.8689 30.8915 39.2783V40.6142C30.8915 40.6586 30.9296 40.6967 30.974 40.6967H31.1676C31.212 40.6999 31.2469 40.6618 31.2469 40.6174ZM33.6585 38.6595V38.5548C33.6585 38.5072 33.6141 38.4659 33.5665 38.4659H32.6748C31.9767 38.4659 31.7736 38.8245 31.7736 39.1862V39.218C31.7736 39.4274 31.8339 39.5734 31.9609 39.6908C31.8466 39.7542 31.7927 39.8716 31.7927 39.9827V39.9859C31.7927 40.1128 31.8498 40.2461 31.9799 40.3032L32.0085 40.3159C31.8752 40.4175 31.7514 40.6047 31.7514 40.8331V40.868C31.7514 41.2647 32.0434 41.5154 32.6875 41.5154C33.3539 41.5154 33.6141 41.2742 33.6141 40.8839V40.8522C33.6141 40.4682 33.2302 40.3572 32.8335 40.2556L32.2274 40.1001C32.1354 40.0747 32.1005 40.0398 32.1005 39.97C32.1005 39.9097 32.1322 39.8653 32.202 39.8304C32.3194 39.8812 32.4591 39.9129 32.6748 39.9129C33.3 39.9129 33.5761 39.6654 33.5761 39.218V39.1862C33.5761 38.9673 33.5094 38.8435 33.4364 38.7674L33.5824 38.7388C33.63 38.7293 33.6585 38.7102 33.6585 38.6595ZM33.2238 39.2148C33.2238 39.4591 33.1128 39.6305 32.6748 39.6305C32.2084 39.6305 32.1259 39.3957 32.1259 39.2148V39.1831C32.1259 38.9546 32.2179 38.7483 32.6748 38.7483C33.1128 38.7483 33.2238 38.9387 33.2238 39.1831V39.2148ZM33.2556 40.8839C33.2556 41.1092 33.1508 41.2393 32.6844 41.2393C32.2338 41.2393 32.0973 41.0965 32.0973 40.868V40.8331C32.0973 40.6205 32.1798 40.519 32.2972 40.4175L32.7574 40.5349C33.1223 40.6269 33.2524 40.6935 33.2524 40.8522V40.8839H33.2556ZM35.737 39.6178C35.737 39.6908 35.6767 39.7511 35.6037 39.7511H35.261C35.1881 39.7511 35.1278 39.6908 35.1278 39.6178V39.0752C35.1278 39.0022 35.1881 38.9387 35.261 38.9387H35.6037C35.6767 38.9387 35.737 38.999 35.737 39.0752V39.6178ZM39.4053 39.6019V37.7551C39.4053 37.7107 39.3704 37.6789 39.3291 37.6789H39.1102C39.0657 37.6789 39.034 37.717 39.034 37.7551V39.6019C39.034 40.1319 38.8722 40.4111 38.3708 40.4111C37.8694 40.4111 37.7076 40.1255 37.7076 39.6019V37.7551C37.7076 37.7107 37.6727 37.6789 37.6314 37.6789H37.4125C37.3681 37.6789 37.3363 37.717 37.3363 37.7551V39.6019C37.3363 40.3794 37.7171 40.7284 38.3708 40.7284C39.0277 40.7284 39.4053 40.3794 39.4053 39.6019ZM41.6869 40.6174V39.2783C41.6869 38.7388 41.4679 38.4342 40.9824 38.4342C40.7444 38.4342 40.5603 38.4945 40.3382 38.6214V38.5452C40.3382 38.5008 40.3065 38.4627 40.2621 38.4627H40.059C40.0146 38.4627 39.9828 38.5008 39.9828 38.5452V40.6174C39.9828 40.6618 40.0177 40.6999 40.059 40.6999H40.2557C40.3001 40.6999 40.3382 40.6586 40.3382 40.6174V38.9006C40.5254 38.8086 40.7158 38.742 40.884 38.742C41.1918 38.742 41.3283 38.8689 41.3283 39.2783V40.6174C41.3283 40.6618 41.3632 40.6999 41.4076 40.6999H41.6012C41.6519 40.6999 41.6869 40.6618 41.6869 40.6174ZM42.6261 38.0248V37.7012C42.6261 37.6567 42.5912 37.6218 42.5468 37.6218H42.3405C42.2961 37.6218 42.258 37.6567 42.258 37.7012V38.0248C42.258 38.0693 42.2961 38.1042 42.3405 38.1042H42.5468C42.5912 38.1042 42.6261 38.0693 42.6261 38.0248ZM42.6198 40.6174V38.5452C42.6198 38.5008 42.5849 38.4627 42.5373 38.4627H42.3437C42.2993 38.4627 42.2612 38.5008 42.2612 38.5452V40.6174C42.2612 40.6618 42.2993 40.6999 42.3437 40.6999H42.5373C42.5849 40.6999 42.6198 40.6618 42.6198 40.6174ZM44.9045 38.5325C44.9045 38.4913 44.8791 38.4627 44.841 38.4627H44.6189C44.5872 38.4627 44.5586 38.4881 44.5428 38.5421L44.0763 40.3127C44.0509 40.4111 44.0287 40.4301 43.9906 40.4301C43.9494 40.4301 43.9303 40.4111 43.9049 40.3127L43.4385 38.5421C43.4226 38.4881 43.394 38.4627 43.3623 38.4627H43.1402C43.0989 38.4627 43.0767 38.4913 43.0767 38.5325C43.0767 38.5421 43.0767 38.5484 43.0799 38.5611L43.6257 40.4968C43.6796 40.6808 43.8161 40.7284 43.9906 40.7284C44.1651 40.7284 44.3016 40.6808 44.3555 40.4968L44.9013 38.5611C44.9045 38.5484 44.9045 38.5421 44.9045 38.5325ZM47.0115 39.6051V39.3862C47.0115 38.8086 46.7133 38.4342 46.123 38.4342C45.5455 38.4342 45.225 38.8054 45.225 39.3862V39.7511C45.225 40.5095 45.6788 40.7284 46.1452 40.7284C46.415 40.7284 46.6403 40.703 46.8687 40.6586C46.9322 40.6459 46.9512 40.6174 46.9512 40.5666V40.427C46.9512 40.3857 46.9195 40.3698 46.8878 40.3698H46.8687C46.6815 40.3984 46.3832 40.4143 46.1484 40.4143C45.774 40.4143 45.5868 40.2366 45.5868 39.7511V39.694H46.9417C46.983 39.694 47.0115 39.659 47.0115 39.6051ZM46.653 39.4242H45.5804V39.3862C45.5804 38.9482 45.774 38.7483 46.123 38.7483C46.4784 38.7483 46.653 38.926 46.653 39.3862V39.4242ZM48.4871 38.6753V38.5103C48.4871 38.4596 48.4585 38.4373 48.4014 38.4373C48.2205 38.4373 48.0333 38.4913 47.8302 38.6309V38.5452C47.8302 38.5008 47.7985 38.4627 47.7541 38.4627H47.5637C47.5192 38.4627 47.4875 38.5008 47.4875 38.5452V40.6174C47.4875 40.6618 47.5256 40.6999 47.5637 40.6999H47.7604C47.8048 40.6999 47.8429 40.6586 47.8429 40.6174V38.9133C48.046 38.7927 48.2142 38.742 48.4014 38.742C48.4585 38.742 48.4871 38.7198 48.4871 38.6753ZM50.3244 40.1382C50.3244 39.897 50.2165 39.7225 49.8801 39.5258L49.4803 39.2846C49.2931 39.1735 49.2011 39.0974 49.2011 38.9768C49.2011 38.7705 49.3502 38.742 49.5787 38.742C49.804 38.742 50.0642 38.761 50.2038 38.7737H50.2165C50.2577 38.7737 50.2863 38.7547 50.2863 38.7039V38.5706C50.2863 38.5262 50.2609 38.4976 50.2102 38.4881C50.0198 38.4564 49.8072 38.4342 49.5787 38.4342C49.163 38.4342 48.8457 38.5516 48.8457 38.9736C48.8457 39.2307 49.0107 39.4052 49.2582 39.5543L49.6675 39.7987C49.8992 39.9351 49.9722 40.0144 49.9722 40.135C49.9722 40.354 49.8325 40.4238 49.5723 40.4238C49.4264 40.4238 49.1313 40.4048 48.9377 40.3794H48.9218C48.8806 40.3794 48.8488 40.4048 48.8488 40.4397V40.5825C48.8488 40.6269 48.8806 40.6523 48.9345 40.6618C49.1313 40.7094 49.4232 40.7221 49.5723 40.7221C50.0229 40.7284 50.3244 40.5539 50.3244 40.1382ZM51.1685 38.0248V37.7012C51.1685 37.6567 51.1304 37.6218 51.0891 37.6218H50.8829C50.8385 37.6218 50.8004 37.6567 50.8004 37.7012V38.0248C50.8004 38.0693 50.8385 38.1042 50.8829 38.1042H51.0891C51.1304 38.1042 51.1685 38.0693 51.1685 38.0248ZM51.159 40.6174V38.5452C51.159 38.5008 51.1209 38.4627 51.0796 38.4627H50.8861C50.8416 38.4627 50.8067 38.5008 50.8067 38.5452V40.6174C50.8067 40.6618 50.8416 40.6999 50.8861 40.6999H51.0796C51.1241 40.6999 51.159 40.6618 51.159 40.6174ZM52.9455 40.6396V40.4968C52.9455 40.4555 52.9169 40.4397 52.8598 40.4397H52.6345C52.4727 40.4397 52.4156 40.4079 52.4156 40.1826V38.7642H52.8535C52.8979 38.7642 52.9328 38.7261 52.9328 38.6849V38.5452C52.9328 38.5008 52.8947 38.4627 52.8535 38.4627H52.4156V38.0185C52.4156 37.9772 52.387 37.9487 52.3553 37.9487H52.3426L52.1331 37.9804C52.0887 37.9899 52.0602 38.0217 52.0602 38.0629V38.4596H51.6667C51.6222 38.4596 51.5905 38.4881 51.5905 38.5325V38.6436C51.5905 38.688 51.6222 38.7134 51.6667 38.7166L52.0602 38.761V40.1795C52.0602 40.6269 52.2379 40.7253 52.6091 40.7253C52.6853 40.7253 52.79 40.7157 52.8725 40.7062C52.9233 40.6999 52.9455 40.6745 52.9455 40.6396ZM54.9066 40.6174V39.1989C54.9066 38.7198 54.6813 38.4342 54.1196 38.4342C53.8435 38.4342 53.6563 38.4596 53.4913 38.4881C53.4342 38.4976 53.4056 38.5198 53.4056 38.5643V38.7071C53.4056 38.761 53.4405 38.7705 53.4786 38.7705H53.4976C53.6595 38.7547 53.853 38.7388 54.1164 38.7388C54.4306 38.7388 54.548 38.8562 54.548 39.1989V39.3608H54.2497C53.5294 39.3608 53.2755 39.5797 53.2755 40.0176V40.0652C53.2755 40.5729 53.5897 40.7253 53.9355 40.7253C54.1608 40.7253 54.3639 40.6396 54.5575 40.5253V40.6142C54.5575 40.6586 54.5924 40.6967 54.64 40.6967H54.8272C54.8716 40.6999 54.9066 40.6618 54.9066 40.6174ZM54.5512 40.2715C54.3576 40.3762 54.1926 40.4333 54.0053 40.4333C53.7705 40.4333 53.6341 40.3572 53.6341 40.062V40.0144C53.6341 39.7257 53.7642 39.6146 54.2529 39.6146H54.5512V40.2715ZM54.6527 38.0153V37.6853C54.6527 37.644 54.6114 37.606 54.5702 37.606H54.4115C54.3703 37.606 54.3322 37.6472 54.3322 37.6853V38.0153C54.3322 38.0597 54.3734 38.0915 54.4115 38.0915H54.5702C54.6114 38.0946 54.6527 38.0597 54.6527 38.0153ZM53.9451 38.0153V37.6853C53.9451 37.644 53.9038 37.606 53.8657 37.606H53.7071C53.6658 37.606 53.6277 37.6472 53.6277 37.6853V38.0153C53.6277 38.0597 53.669 38.0915 53.7071 38.0915H53.8657C53.9038 38.0946 53.9451 38.0597 53.9451 38.0153ZM56.6201 40.6396V40.4968C56.6201 40.4555 56.5915 40.4397 56.5344 40.4397H56.3059C56.1441 40.4397 56.087 40.4079 56.087 40.1826V38.7642H56.5217C56.5662 38.7642 56.6042 38.7261 56.6042 38.6849V38.5452C56.6042 38.5008 56.5693 38.4627 56.5217 38.4627H56.087V38.0185C56.087 37.9772 56.0584 37.9487 56.0267 37.9487H56.014L55.8046 37.9804C55.7602 37.9899 55.7316 38.0217 55.7316 38.0629V38.4596H55.3381C55.2937 38.4596 55.262 38.4881 55.262 38.5325V38.6436C55.262 38.688 55.2937 38.7134 55.3381 38.7166L55.7316 38.761V40.1795C55.7316 40.6269 55.9093 40.7253 56.2806 40.7253C56.3567 40.7253 56.4614 40.7157 56.5439 40.7062C56.6011 40.6999 56.6201 40.6745 56.6201 40.6396ZM59.9774 38.5865V38.5357C59.9774 37.8789 59.5014 37.6536 58.8445 37.6536C58.6097 37.6536 58.3463 37.6662 58.1718 37.6853C58.1115 37.6948 58.0734 37.7297 58.0734 37.7868V40.6205C58.0734 40.665 58.1052 40.703 58.1464 40.703H58.3654C58.4098 40.703 58.4384 40.6618 58.4384 40.6205V39.4782C58.5431 39.4877 58.7144 39.4972 58.8414 39.4972C59.5014 39.4972 59.9774 39.2656 59.9774 38.5865ZM59.6093 38.5865C59.6093 39.0117 59.3967 39.1894 58.8445 39.1894C58.7398 39.1894 58.5336 39.1767 58.4415 39.1735V37.9804C58.5367 37.9709 58.7208 37.9645 58.8445 37.9645C59.3681 37.9645 59.6093 38.1232 59.6093 38.5325V38.5865ZM62.1542 39.7352V39.4274C62.1542 38.8308 61.8464 38.4373 61.253 38.4373C60.6596 38.4373 60.355 38.8308 60.355 39.4274V39.7352C60.355 40.3349 60.6596 40.7284 61.253 40.7284C61.8464 40.7284 62.1542 40.3349 62.1542 39.7352ZM61.7988 39.7352C61.7988 40.1541 61.6275 40.4143 61.253 40.4143C60.8722 40.4143 60.7104 40.1509 60.7104 39.7352V39.4274C60.7104 39.0085 60.8754 38.7483 61.253 38.7483C61.6338 38.7483 61.7988 39.0117 61.7988 39.4274V39.7352ZM63.7853 40.6396V40.4968C63.7853 40.4555 63.7567 40.4397 63.6996 40.4397H63.4711C63.3093 40.4397 63.2522 40.4079 63.2522 40.1826V38.7642H63.6869C63.7313 38.7642 63.7694 38.7261 63.7694 38.6849V38.5452C63.7694 38.5008 63.7313 38.4627 63.6869 38.4627H63.2522V38.0185C63.2522 37.9772 63.2236 37.9487 63.1919 37.9487H63.1792L62.9697 37.9804C62.9253 37.9899 62.8968 38.0217 62.8968 38.0629V38.4596H62.5033C62.4589 38.4596 62.4271 38.4881 62.4271 38.5325V38.6436C62.4271 38.688 62.4589 38.7134 62.5033 38.7166L62.8968 38.761V40.1795C62.8968 40.6269 63.0745 40.7253 63.4457 40.7253C63.5219 40.7253 63.6266 40.7157 63.7091 40.7062C63.7631 40.6999 63.7853 40.6745 63.7853 40.6396ZM65.6353 40.1382C65.6353 39.897 65.5242 39.7225 65.191 39.5258L64.7912 39.2846C64.604 39.1735 64.5119 39.0974 64.5119 38.9768C64.5119 38.7705 64.6611 38.742 64.8896 38.742C65.1149 38.742 65.3751 38.761 65.5147 38.7737H65.5274C65.5686 38.7737 65.5972 38.7547 65.5972 38.7039V38.5706C65.5972 38.5262 65.5718 38.4976 65.521 38.4881C65.3306 38.4564 65.118 38.4342 64.8896 38.4342C64.4739 38.4342 64.1565 38.5516 64.1565 38.9736C64.1565 39.2307 64.3216 39.4052 64.5691 39.5543L64.9752 39.7987C65.2069 39.9351 65.2799 40.0144 65.2799 40.135C65.2799 40.354 65.1434 40.4238 64.88 40.4238C64.7341 40.4238 64.439 40.4048 64.2454 40.3794H64.2295C64.1883 40.3794 64.1565 40.4048 64.1565 40.4397V40.5825C64.1565 40.6269 64.1883 40.6523 64.2422 40.6618C64.439 40.7094 64.7309 40.7221 64.88 40.7221C65.3306 40.7284 65.6353 40.5539 65.6353 40.1382ZM67.755 40.5666V37.7202C67.755 37.6758 67.7233 37.644 67.682 37.644H67.4757C67.4313 37.644 67.3996 37.6789 67.3996 37.7202V38.4754C67.2409 38.4469 67.0505 38.4342 66.9268 38.4342C66.3366 38.4342 66.0446 38.7927 66.0446 39.4306V39.7225C66.0446 40.3318 66.3239 40.7253 66.9268 40.7253C67.1743 40.7253 67.4218 40.7062 67.6693 40.6554C67.7423 40.6459 67.755 40.6174 67.755 40.5666ZM67.3996 40.3889C67.2631 40.4016 67.0632 40.4143 66.9268 40.4143C66.527 40.4143 66.4 40.1668 66.4 39.7225V39.4306C66.4 38.9958 66.5301 38.7483 66.9268 38.7483C67.0569 38.7483 67.2663 38.7515 67.3996 38.7769V40.3889ZM69.8398 40.6174V39.1989C69.8398 38.7198 69.6145 38.4342 69.0529 38.4342C68.7768 38.4342 68.5895 38.4596 68.4245 38.4881C68.3674 38.4976 68.3389 38.5198 68.3389 38.5643V38.7071C68.3389 38.761 68.3738 38.7705 68.4119 38.7705H68.4309C68.5927 38.7547 68.7863 38.7388 69.0497 38.7388C69.3638 38.7388 69.4844 38.8562 69.4844 39.1989V39.3608H69.1829C68.4626 39.3608 68.2088 39.5797 68.2088 40.0176V40.0652C68.2088 40.5729 68.5229 40.7253 68.8688 40.7253C69.0973 40.7253 69.2972 40.6396 69.4908 40.5253V40.6142C69.4908 40.6586 69.5288 40.6967 69.5732 40.6967H69.7605C69.8049 40.6999 69.8398 40.6618 69.8398 40.6174ZM69.4844 40.2715C69.2908 40.3762 69.1227 40.4333 68.9386 40.4333C68.7038 40.4333 68.5673 40.3572 68.5673 40.062V40.0144C68.5673 39.7257 68.6974 39.6146 69.1861 39.6146H69.4876V40.2715H69.4844ZM73.0765 40.6174V39.1767C73.0765 38.6119 72.7846 38.4278 72.4197 38.4278C72.2102 38.4278 71.9722 38.4881 71.7469 38.5928C71.6454 38.4754 71.5153 38.4278 71.3439 38.4278C71.1218 38.4278 70.9155 38.5167 70.7537 38.6182V38.5421C70.7537 38.4976 70.722 38.4596 70.6776 38.4596H70.4745C70.43 38.4596 70.3983 38.4976 70.3983 38.5421V40.6142C70.3983 40.6586 70.4269 40.6967 70.4681 40.6967H70.6807C70.7252 40.6967 70.7537 40.6554 70.7537 40.6142V38.8975C70.9251 38.8118 71.1028 38.7388 71.2487 38.7388C71.4582 38.7388 71.5597 38.8118 71.5597 39.1672V40.6142C71.5597 40.6586 71.5883 40.6967 71.6295 40.6967H71.8421C71.8866 40.6967 71.9151 40.6554 71.9151 40.6142V39.1672C71.9151 39.0466 71.9056 38.9387 71.8802 38.8499C72.0389 38.7896 72.207 38.7388 72.353 38.7388C72.5624 38.7388 72.7211 38.834 72.7211 39.1735V40.6142C72.7211 40.6586 72.756 40.6967 72.8004 40.6967H72.994C73.0384 40.6999 73.0765 40.6618 73.0765 40.6174Z" fill="white"/>
<path d="M37.7596 14.8402H38.7428C38.8486 14.8402 38.9408 14.7516 38.9408 14.6426V11.6125H41.7572V14.6426C41.7572 14.7516 41.8459 14.8402 41.9552 14.8402H42.9383C43.0476 14.8402 43.1363 14.7516 43.1363 14.6426V7.6689C43.1363 7.55983 43.0476 7.47803 42.9383 7.47803H41.9552C41.8459 7.47803 41.7572 7.55642 41.7572 7.6689V10.4025H38.9408V7.6689C38.9408 7.55983 38.852 7.47803 38.7428 7.47803H37.7596C37.6504 7.47803 37.5616 7.55642 37.5616 7.6689V14.6426C37.5616 14.7482 37.6504 14.8402 37.7596 14.8402ZM46.0346 14.9186C46.5091 14.9186 46.9768 14.7618 47.4342 14.4824V14.6426C47.4342 14.7516 47.523 14.8402 47.6322 14.8402H48.4754C48.5847 14.8402 48.6734 14.7516 48.6734 14.6426V11.0773C48.6734 9.8094 47.8985 9.18566 46.4886 9.18566C45.8059 9.18566 45.229 9.26405 44.833 9.34585C44.7032 9.37653 44.6452 9.44469 44.6452 9.55376V10.1877C44.6452 10.3275 44.7237 10.3547 44.8227 10.3547H44.8739C45.2016 10.3138 45.8571 10.2763 46.492 10.2763C47.0758 10.2763 47.366 10.4366 47.366 11.0807V11.517H46.7413C45.0139 11.517 44.3175 12.0999 44.3175 13.2315V13.2724C44.3175 14.6017 45.2119 14.9186 46.0346 14.9186ZM45.6386 13.2246C45.6386 12.6691 45.8366 12.3828 46.7413 12.3828H47.366V13.603C47.0792 13.7632 46.7105 13.8791 46.3555 13.8791C45.8605 13.8791 45.6386 13.7496 45.6386 13.2656V13.2246ZM50.5988 12.0351L51.9575 12.8668C52.275 13.0645 52.3944 13.1838 52.3944 13.3712C52.3944 13.6405 52.3057 13.8484 51.6912 13.8484C51.3942 13.8484 50.4998 13.8007 50.0253 13.7393H49.9843C49.8853 13.7393 49.8171 13.8177 49.8171 13.8961V14.4926C49.8171 14.6119 49.8853 14.6903 50.0048 14.721C50.5578 14.8709 51.3942 14.9186 51.78 14.9186C53.0806 14.9186 53.7258 14.237 53.7258 13.3746C53.7258 12.8702 53.6063 12.3725 52.7734 11.8681L51.4727 11.0739C51.2235 10.924 51.0767 10.8251 51.0767 10.6683C51.0767 10.3616 51.285 10.2525 51.7629 10.2525C52.3296 10.2525 53.1216 10.3309 53.3981 10.3718H53.4391C53.5381 10.3718 53.5961 10.3036 53.5961 10.1843V9.61171C53.5961 9.49242 53.5381 9.41402 53.4186 9.38334C52.9133 9.27427 52.4559 9.18566 51.6502 9.18566C50.3906 9.18566 49.7659 9.67987 49.7659 10.6717C49.7659 11.2443 50.1106 11.7386 50.5988 12.0351ZM57.6243 11.8681L56.3237 11.0739C56.0745 10.924 55.9277 10.8251 55.9277 10.6683C55.9277 10.3616 56.1359 10.2525 56.6139 10.2525C57.1805 10.2525 57.9725 10.3309 58.249 10.3718H58.29C58.389 10.3718 58.4505 10.3036 58.4505 10.1843V9.61171C58.4505 9.49242 58.389 9.41402 58.2695 9.38334C57.7643 9.27427 57.3068 9.18566 56.5046 9.18566C55.2449 9.18566 54.6202 9.67987 54.6202 10.6717C54.6202 11.2478 54.965 11.742 55.4532 12.0385L56.8118 12.8702C57.1293 13.0679 57.2454 13.1872 57.2454 13.3746C57.2454 13.6439 57.1566 13.8518 56.5422 13.8518C56.2417 13.8518 55.3508 13.8041 54.8762 13.7427H54.8353C54.7363 13.7427 54.668 13.8211 54.668 13.8995V14.496C54.668 14.6153 54.7363 14.6937 54.8558 14.7244C55.4088 14.8743 56.2452 14.922 56.6309 14.922C57.9316 14.922 58.5768 14.2404 58.5768 13.378C58.5768 12.8668 58.4573 12.3725 57.6243 11.8681ZM61.871 14.9186C63.4277 14.9186 64.2402 13.8688 64.2402 12.4509V11.6499C64.2402 10.232 63.4277 9.18225 61.871 9.18225C60.3144 9.18225 59.5019 10.232 59.5019 11.6499V12.4509C59.4985 13.8688 60.311 14.9186 61.871 14.9186ZM60.8094 11.6499C60.8094 10.8387 61.1746 10.3104 61.871 10.3104C62.564 10.3104 62.9327 10.8353 62.9327 11.6499V12.4509C62.9327 13.2655 62.564 13.7904 61.871 13.7904C61.1746 13.7904 60.8094 13.2655 60.8094 12.4509V11.6499ZM42.6823 19.3837V19.2951C42.6823 17.5431 41.3509 17.008 39.825 17.008C39.1013 17.008 38.398 17.0591 37.8791 17.1375C37.6811 17.1682 37.5616 17.2364 37.5616 17.4341V24.2509C37.5616 24.36 37.6504 24.4486 37.7596 24.4486H38.7531C38.8623 24.4486 38.9408 24.36 38.9408 24.2509V21.6639C39.1695 21.6742 39.5655 21.7048 39.825 21.7048C41.3509 21.7014 42.6823 21.1356 42.6823 19.3837ZM41.3134 19.3837C41.3134 20.1779 40.8969 20.5732 39.825 20.5732C39.6577 20.5732 39.1012 20.5528 38.9408 20.5426V18.1839C39.1217 18.1635 39.6133 18.143 39.825 18.143C40.815 18.143 41.3134 18.46 41.3134 19.2917V19.3837ZM43.8532 24.4452H44.7749C44.8842 24.4452 44.9627 24.3464 44.9627 24.2373V17.1034C44.9627 16.9944 44.8842 16.9058 44.7749 16.9058H43.8532C43.744 16.9058 43.6552 16.9944 43.6552 17.1034V24.2373C43.6518 24.3464 43.744 24.4452 43.8532 24.4452ZM49.1411 24.0873V24.2475C49.1411 24.3566 49.2299 24.4452 49.3391 24.4452H50.1823C50.2916 24.4452 50.3803 24.3566 50.3803 24.2475V20.6823C50.3803 19.4144 49.6054 18.7906 48.1955 18.7906C47.5094 18.7906 46.9358 18.869 46.5398 18.9508C46.4101 18.9815 46.3521 19.0497 46.3521 19.1587V19.7927C46.3521 19.929 46.4306 19.9597 46.5296 19.9597H46.5808C46.9085 19.9188 47.564 19.8813 48.1989 19.8813C48.7827 19.8813 49.0728 20.0415 49.0728 20.6857V21.1186H48.4481C46.7208 21.1186 46.0278 21.7048 46.0278 22.833V22.8739C46.0278 24.21 46.9222 24.527 47.7449 24.527C48.216 24.5236 48.6837 24.3668 49.1411 24.0873ZM47.3455 22.8705V22.8296C47.3455 22.274 47.5435 21.9877 48.4481 21.9877H49.0728V23.208C48.7861 23.3648 48.4174 23.484 48.059 23.484C47.564 23.484 47.3455 23.3545 47.3455 22.8705ZM52.1077 22.9489C52.1077 24.2748 52.5651 24.5236 53.6848 24.5236C53.9033 24.5236 54.1184 24.4929 54.3608 24.4554C54.4905 24.435 54.5485 24.377 54.5485 24.2748V23.6511C54.5485 23.5522 54.47 23.5011 54.3403 23.5011H53.8146C53.4561 23.5011 53.4254 23.4397 53.4254 22.9489V19.837H54.0331C54.1423 19.837 54.231 19.7484 54.231 19.6393V19.0565C54.231 18.9474 54.1423 18.8588 54.0331 18.8588H53.4254V17.8397C53.4254 17.7408 53.3571 17.6897 53.2684 17.6897H53.2274L52.3057 17.8499C52.1964 17.8703 52.1077 17.9385 52.1077 18.0476V18.8588H51.1757C51.0665 18.8588 50.9777 18.9474 50.9777 19.0565V19.503C50.9777 19.6121 51.0665 19.6836 51.1757 19.7007L52.1077 19.837V22.9489ZM58.0101 23.5045H57.4844C57.1259 23.5045 57.0952 23.4431 57.0952 22.9523V19.8404H57.9896C58.0988 19.8404 58.1876 19.7518 58.1876 19.6427V19.0599C58.1876 18.9508 58.0988 18.8622 57.9896 18.8622H57.0952V17.8431C57.0952 17.7442 57.0269 17.6931 56.9348 17.6931H56.8972L55.9755 17.8533C55.8662 17.8738 55.7775 17.9419 55.7775 18.051V18.8622H55.1323C55.023 18.8622 54.9343 18.9508 54.9343 19.0599V19.5064C54.9343 19.6155 55.023 19.687 55.1323 19.7041L55.7775 19.8404V22.9523C55.7775 24.2782 56.2349 24.527 57.3546 24.527C57.5731 24.527 57.7916 24.4963 58.0306 24.4589C58.1603 24.4384 58.2217 24.3805 58.2217 24.2782V23.6545C58.2183 23.5556 58.1398 23.5045 58.0101 23.5045ZM63.8749 24.2373V21.0061C63.8749 19.7484 63.5882 18.7872 62.1578 18.7872C61.5024 18.7872 61.1234 18.8963 60.5499 19.2644V19.0565C60.5499 18.9474 60.4612 18.8588 60.3519 18.8588H59.4882C59.379 18.8588 59.2902 18.9474 59.2902 19.0565V24.2373C59.2902 24.3464 59.379 24.4452 59.4882 24.4452H60.3997C60.509 24.4452 60.5977 24.3464 60.5977 24.2373V20.2562C61.0142 20.0381 61.3829 19.8984 61.7174 19.8984C62.4821 19.8984 62.5606 20.1472 62.5606 21.0061V24.2373C62.5606 24.3464 62.6494 24.4452 62.7586 24.4452H63.6735C63.7828 24.4452 63.8749 24.3464 63.8749 24.2373ZM69.4701 22.107C69.61 22.107 69.6681 22.0184 69.6681 21.8582V21.3061C69.6681 19.8302 68.8351 18.7906 67.3058 18.7906C65.7866 18.7906 64.923 19.762 64.923 21.3061V22.0389C64.923 23.9885 66.3328 24.5236 67.3228 24.5236C68.2172 24.5236 68.603 24.4759 69.2482 24.3566C69.4291 24.3259 69.4564 24.2578 69.4564 24.101V23.4465C69.4564 23.3477 69.3779 23.2966 69.2755 23.2966H69.2448C68.8283 23.3375 68.1455 23.3954 67.4184 23.3954C66.466 23.3954 66.227 22.7103 66.227 22.1377V22.107H69.4701ZM66.2441 21.1356C66.2441 20.3517 66.6913 19.9154 67.3058 19.9154C67.9202 19.9154 68.347 20.3619 68.347 21.1356V21.1765H66.2441V21.1356ZM73.3993 18.7872C72.9999 18.7872 72.4674 18.8861 71.9792 19.2644V19.0565C71.9792 18.9474 71.8904 18.8588 71.7812 18.8588H70.9175C70.8083 18.8588 70.7195 18.9474 70.7195 19.0565V24.2373C70.7195 24.3464 70.8083 24.4452 70.9175 24.4452H71.8324C71.9416 24.4452 72.0304 24.3464 72.0304 24.2373V20.2562C72.4469 20.0381 72.8634 19.8984 73.3993 19.8984C73.5086 19.8984 73.5973 19.8097 73.5973 19.7007V18.9849C73.5973 18.8792 73.5086 18.7872 73.3993 18.7872ZM38.7633 26.6914H37.7733C37.6641 26.6914 37.5719 26.7698 37.5719 26.8788V33.8525C37.5719 33.9616 37.6606 34.0502 37.7733 34.0502H38.7633C38.8725 34.0502 38.9647 33.9616 38.9647 33.8525V26.8788C38.9613 26.7698 38.8725 26.6914 38.7633 26.6914ZM43.5596 28.3956C42.9008 28.3956 42.5184 28.5047 41.9381 28.8728V28.6649C41.9381 28.5558 41.8493 28.4672 41.7367 28.4672H40.8662C40.7569 28.4672 40.6648 28.5558 40.6648 28.6649V33.8457C40.6648 33.9547 40.7535 34.0536 40.8662 34.0536H41.7879C41.8971 34.0536 41.9893 33.9547 41.9893 33.8457V29.8646C42.4092 29.6465 42.7813 29.5067 43.1227 29.5067C43.8942 29.5067 43.9761 29.7556 43.9761 30.6145V33.8457C43.9761 33.9547 44.0649 34.0536 44.1775 34.0536H45.0992C45.2085 34.0536 45.3006 33.9547 45.3006 33.8457V30.6145C45.2938 29.3568 45.0071 28.3956 43.5596 28.3956ZM49.7351 31.078L48.4208 30.2873C48.1682 30.1373 48.018 30.0385 48.018 29.8817C48.018 29.5749 48.2296 29.4624 48.711 29.4624C49.2811 29.4624 50.0833 29.5408 50.3633 29.5817H50.4042C50.5032 29.5817 50.5647 29.5136 50.5647 29.3943V28.8182C50.5647 28.6989 50.5032 28.6206 50.3837 28.5899C49.8717 28.4808 49.4108 28.3922 48.6018 28.3922C47.3284 28.3922 46.6969 28.8864 46.6969 29.8783C46.6969 30.4509 47.0485 30.9485 47.5401 31.245L48.9124 32.0767C49.2333 32.2744 49.3528 32.3903 49.3528 32.5812C49.3528 32.8504 49.264 33.0583 48.6427 33.0583C48.3423 33.0583 47.4411 33.0072 46.9597 32.9493H46.9188C46.8198 32.9493 46.7481 33.0277 46.7481 33.1061V33.7025C46.7481 33.8218 46.8198 33.9002 46.9392 33.9275C47.5025 34.0774 48.3423 34.1252 48.7349 34.1252C50.0492 34.1252 50.6978 33.4401 50.6978 32.5812C50.6978 32.0801 50.5749 31.5859 49.7351 31.078ZM54.9445 33.1095H54.412C54.0535 33.1095 54.0228 33.0515 54.0228 32.5539V29.442H54.924C55.0333 29.442 55.1255 29.3534 55.1255 29.2443V28.6615C55.1255 28.5524 55.0333 28.4638 54.924 28.4638H54.0228V27.4446C54.0228 27.3458 53.9545 27.2947 53.8624 27.2947H53.8214L52.8894 27.4549C52.7802 27.4753 52.688 27.5435 52.688 27.6526V28.4638H51.7458C51.6366 28.4638 51.5478 28.5524 51.5478 28.6615V29.108C51.5478 29.217 51.6366 29.2852 51.7458 29.3056L52.688 29.4454V32.5573C52.688 33.8866 53.1489 34.132 54.2823 34.132C54.5041 34.132 54.7226 34.1013 54.965 34.0638C55.0947 34.0434 55.1562 33.9854 55.1562 33.8832V33.2594C55.1562 33.1606 55.0742 33.1095 54.9445 33.1095ZM57.5117 28.4638H56.59C56.4807 28.4638 56.392 28.5524 56.392 28.6615V33.8423C56.392 33.9513 56.4807 34.0502 56.59 34.0502H57.5117C57.6209 34.0502 57.7131 33.9513 57.7131 33.8423V28.6615C57.7131 28.5524 57.6209 28.4638 57.5117 28.4638ZM57.539 26.4528H56.5661C56.4568 26.4528 56.3578 26.5414 56.3578 26.6505V27.523C56.3578 27.6321 56.4568 27.7207 56.5661 27.7207H57.539C57.6482 27.7207 57.7404 27.6321 57.7404 27.523V26.6505C57.7404 26.5414 57.6516 26.4528 57.539 26.4528ZM62.2909 33.1095H61.7618C61.3999 33.1095 61.3726 33.0515 61.3726 32.5539V29.442H62.2739C62.3831 29.442 62.4753 29.3534 62.4753 29.2443V28.6615C62.4753 28.5524 62.3865 28.4638 62.2739 28.4638H61.3726V27.4446C61.3726 27.3458 61.301 27.2947 61.2122 27.2947H61.1712L60.2393 27.4549C60.1266 27.4753 60.0379 27.5435 60.0379 27.6526V28.4638H59.0957C58.9864 28.4638 58.8942 28.5524 58.8942 28.6615V29.108C58.8942 29.217 58.983 29.2852 59.0957 29.3056L60.0379 29.4454V32.5573C60.0379 33.8866 60.4987 34.132 61.6321 34.132C61.854 34.132 62.0725 34.1013 62.3148 34.0638C62.4446 34.0434 62.5026 33.9854 62.5026 33.8832V33.2594C62.4992 33.1606 62.4207 33.1095 62.2909 33.1095ZM68.1319 28.4638H67.2102C67.1009 28.4638 67.0088 28.5626 67.0088 28.6717V32.6357C66.7288 32.7857 66.2475 33.0311 65.8788 33.0311C65.5681 33.0311 65.3975 32.9697 65.2575 32.8538C65.0663 32.6834 65.0254 32.3971 65.0254 31.9029V28.6717C65.0254 28.5626 64.9366 28.4638 64.8274 28.4638H63.9056C63.7964 28.4638 63.7042 28.5626 63.7042 28.6717V31.9029C63.7042 32.7243 63.8374 33.3378 64.2061 33.7059C64.4962 33.9923 64.94 34.1218 65.4384 34.1218C66.0802 34.1218 66.4899 33.9616 67.0122 33.6275V33.8525C67.0122 33.9616 67.1009 34.0502 67.2136 34.0502H68.1353C68.2445 34.0502 68.3333 33.9616 68.3333 33.8525V28.6717C68.3333 28.5626 68.2445 28.4638 68.1319 28.4638ZM72.8838 33.1095H72.3513C71.9928 33.1095 71.9621 33.0515 71.9621 32.5539V29.442H72.8634C72.9726 29.442 73.0614 29.3534 73.0614 29.2443V28.6615C73.0614 28.5524 72.9726 28.4638 72.8634 28.4638H71.9621V27.4446C71.9621 27.3458 71.8904 27.2947 71.8017 27.2947H71.7607L70.8288 27.4549C70.7195 27.4753 70.6273 27.5435 70.6273 27.6526V28.4638H69.6851C69.5759 28.4638 69.4837 28.5524 69.4837 28.6615V29.108C69.4837 29.217 69.5725 29.2852 69.6851 29.3056L70.6273 29.4454V32.5573C70.6273 33.8866 71.0882 34.132 72.2216 34.132C72.4435 34.132 72.662 34.1013 72.9043 34.0638C73.0341 34.0434 73.0955 33.9854 73.0955 33.8832V33.2594C73.0921 33.1606 73.0136 33.1095 72.8838 33.1095Z" fill="white"/>
<path d="M29.8295 4.25342H0V34.0363H29.8295V4.25342Z" fill="#6A777D"/>
<path d="M34.0898 0H8.52072V25.5292H34.0898V0Z" fill="#B1B8BB"/>
<path d="M29.8294 4.25342H8.52414V25.5255H29.8294V4.25342Z" fill="#828C8F"/>
<path d="M17.1882 7.55983H16.205C16.0958 7.55983 16.007 7.63823 16.007 7.7473V10.4809H13.1907V7.7473C13.1907 7.63823 13.1019 7.55983 12.9927 7.55983H12.0095C11.9003 7.55983 11.8115 7.63823 11.8115 7.7473V14.721C11.8115 14.83 11.9003 14.9186 12.0095 14.9186H12.9927C13.1019 14.9186 13.1907 14.83 13.1907 14.721V11.6909H16.007V14.721C16.007 14.83 16.0958 14.9186 16.205 14.9186H17.1882C17.2974 14.9186 17.3862 14.83 17.3862 14.721V7.7473C17.3862 7.63823 17.2974 7.55983 17.1882 7.55983ZM21.155 7.48145C20.4313 7.48145 19.728 7.52915 19.2091 7.61096C19.0111 7.64163 18.8951 7.7098 18.8951 7.9109V14.7244C18.8951 14.8334 18.9838 14.9221 19.0931 14.9221H20.0831C20.1923 14.9221 20.2742 14.8334 20.2742 14.7244V12.1408C20.4995 12.1476 20.899 12.1783 21.1584 12.1783C22.6878 12.1783 24.0157 11.6125 24.0157 9.86053V9.77191C24.0123 8.01657 22.6844 7.48145 21.155 7.48145ZM22.6434 9.85712C22.6434 10.6513 22.2269 11.0467 21.155 11.0467C20.9877 11.0467 20.4313 11.0262 20.2708 11.016V8.65735C20.4483 8.6369 20.9467 8.61645 21.155 8.61645C22.145 8.61645 22.6434 8.93343 22.6434 9.76509V9.85712ZM26.3405 7.55983H25.3573C25.2481 7.55983 25.1593 7.63823 25.1593 7.7473V14.721C25.1593 14.83 25.2481 14.9186 25.3573 14.9186H26.3405C26.4497 14.9186 26.5385 14.83 26.5385 14.721V7.7473C26.5385 7.63823 26.4497 7.55983 26.3405 7.55983Z" fill="white"/>
</svg>
