<svg width="104" height="35" viewBox="0 0 104 35" fill="none" xmlns="http://www.w3.org/2000/svg">
<path d="M31.0268 9.64986L33.1482 12.7882L34.4891 10.7786L32.331 7.67041L31.0268 9.64986Z" fill="#777777"/>
<path d="M36.5806 7.63385V7.6305L34.4259 4.49219L34.4225 4.49888L35.7234 6.38791L36.5806 7.63385Z" fill="#777777"/>
<path d="M28.9353 12.8213L27.5878 14.8644L29.6791 18.006L31.0634 15.9261L28.9353 12.8213Z" fill="#777777"/>
<path d="M25.5033 18.0298L15.2531 33.5807H19.3158L27.5947 21.138L27.1711 20.5049L25.5033 18.0298Z" fill="#777777"/>
<path d="M37.9913 9.68939L40.1494 12.8277L40.1527 12.8244L37.9946 9.68604L37.9913 9.68939Z" fill="#777777"/>
<path d="M29.0956 23.3652L22.4445 33.5807H26.5105L31.1836 26.47L29.0956 23.3652Z" fill="#777777"/>
<path d="M35.9331 12.8521L34.5922 14.9186L36.7169 18.0569H36.7136L38.0912 15.9569L37.8744 15.6454L35.9331 12.8521Z" fill="#777777"/>
<path d="M31.1471 20.2107V20.214V20.2107L32.0877 21.6241L33.2352 23.3523L34.6628 21.1786L32.5347 18.0771L31.1471 20.2107Z" fill="#777777"/>
<path d="M30.7102 0.0239258C30.6868 0.0306244 30.6667 0.0406646 30.6432 0.0473633C30.6633 0.0406646 30.6834 0.0306244 30.7102 0.0239258Z" fill="#777777"/>
<path d="M27.5046 4.4516L29.626 7.58321V7.58656L30.9269 5.654L28.7654 2.54248L25.4432 7.52292L27.5046 4.4516Z" fill="#777777"/>
<path d="M27.5042 10.738L26.2901 8.96619L25.3728 7.62646L24.0719 9.57577L26.1666 12.7241L27.5042 10.738Z" fill="#777777"/>
<path d="M31.811 0.697208L33.0518 2.5025V2.49915L31.8143 0.697208C31.6742 0.4929 31.4341 0.00390625 30.9037 0.00390625C30.8337 0.00390625 30.7703 0.0105971 30.7136 0.0273437C30.7736 0.0139465 30.8337 0.00724862 30.9004 0.00724862C31.4307 0.0038993 31.6709 0.4929 31.811 0.697208Z" fill="#777777"/>
<path d="M21.9506 12.7544L8.05804 33.5805H12.1274L24.0487 15.8693L22.9413 14.2214L21.9506 12.7544Z" fill="#777777"/>
<path d="M20.463 10.5475L18.3383 7.38574L0.866669 33.5808H4.93271L20.463 10.5475Z" fill="#777777"/>
<path d="M20.2835 4.86719C20.2266 4.88058 20.1763 4.90068 20.1261 4.92412C20.1763 4.90402 20.2266 4.88393 20.2835 4.86719Z" fill="#777777"/>
<path d="M20.4762 4.84375C21.0066 4.84375 21.2467 5.3361 21.3868 5.53371L22.5042 7.21172L21.3902 5.53037C21.2501 5.33276 21.0099 4.84375 20.4762 4.84375C20.4095 4.84375 20.3461 4.85045 20.2861 4.86385C20.3461 4.8538 20.4062 4.84375 20.4762 4.84375Z" fill="#777777"/>
<path d="M31.1868 26.4703L35.9733 33.5809H40.0394L33.2349 23.3521L31.974 25.2712L31.1868 26.4703Z" fill="#4E4E4E"/>
<path d="M27.5881 14.8653L26.1672 12.7251V12.7285L24.0491 15.8701L25.5034 18.0304L26.4707 16.5601L27.5881 14.8653Z" fill="#4E4E4E"/>
<path d="M29.6793 18.0063L27.5945 21.138L29.0955 23.3653L31.1469 20.2102L29.6793 18.0063Z" fill="#4E4E4E"/>
<path d="M24.0722 9.5757L22.5011 7.21777L22.5245 7.25127L22.5878 7.3484L22.5945 7.3551L22.6045 7.37185L20.4664 10.547L21.9508 12.7542L22.4611 11.9872L24.0722 9.5757Z" fill="#4E4E4E"/>
<path d="M19.5694 5.53716C19.6027 5.49362 19.6428 5.42998 19.6861 5.35964C19.7195 5.3094 19.7562 5.25916 19.7962 5.20892C19.8029 5.19887 19.8095 5.19218 19.8162 5.18213C19.7061 5.3161 19.6261 5.45677 19.5694 5.53716L18.482 7.16828L19.5694 5.53716Z" fill="#4E4E4E"/>
<path d="M20.0067 5.00051C20.01 5.00051 20.01 4.99716 20.0067 5.00051C19.9363 5.0474 19.8727 5.11104 19.8191 5.17467C19.8224 5.17132 19.8325 5.16463 19.8358 5.16128C19.8894 5.10434 19.943 5.0474 20.0067 5.00051Z" fill="#4E4E4E"/>
<path d="M20.1265 4.92383C20.093 4.94057 20.0629 4.96403 20.0327 4.98412C20.0327 4.98412 20.0361 4.98412 20.0394 4.98077C20.0696 4.96068 20.0964 4.94057 20.1265 4.92383Z" fill="#4E4E4E"/>
<path d="M27.5878 14.8647L29.6791 18.0064L27.5878 14.8647Z" fill="#4E4E4E"/>
<path d="M25.5034 18.0304L26.474 16.5601L25.5034 18.0304L27.1711 20.5056L25.5034 18.0304Z" fill="#4E4E4E"/>
<path d="M31.147 20.2133V20.21L29.0923 23.365L31.147 20.2133Z" fill="#4E4E4E"/>
<path d="M33.2349 23.3523L31.9741 25.2748L33.2349 23.3523L32.0842 21.624L33.2349 23.3523Z" fill="#4E4E4E"/>
<path d="M26.1666 12.7241L24.0719 9.5791L26.1666 12.7241Z" fill="#4E4E4E"/>
<path d="M21.9508 12.7548L22.4644 11.9878L21.9508 12.7548L22.9414 14.2218L21.9508 12.7548Z" fill="#4E4E4E"/>
<path d="M21.3834 5.53713C21.2433 5.33617 21.0031 4.84717 20.4728 4.84717C21.0065 4.84717 21.2466 5.33617 21.3834 5.53713Z" fill="#4E4E4E"/>
<path d="M19.6858 5.35971C19.7159 5.31282 19.7561 5.25922 19.7963 5.20898C19.7595 5.25922 19.7193 5.31282 19.6858 5.35971Z" fill="#4E4E4E"/>
<path d="M21.3836 5.53662L22.5244 7.25483L22.501 7.21463L21.3836 5.53662Z" fill="#4E4E4E"/>
<path d="M20.2804 4.86719C20.2234 4.88058 20.1732 4.90068 20.1263 4.92412C20.0928 4.93752 20.066 4.96097 20.0392 4.98106C20.1096 4.93417 20.19 4.89398 20.2804 4.86719Z" fill="#4E4E4E"/>
<path d="M22.5947 7.35547L22.6048 7.37222L20.4633 10.544L22.6048 7.37222L22.5947 7.35547Z" fill="#4E4E4E"/>
<path d="M19.839 5.16224C19.8893 5.1053 19.9429 5.0517 20.0098 5.00146C19.9429 5.04836 19.8859 5.10195 19.839 5.16224Z" fill="#4E4E4E"/>
<path d="M30.4335 0.158138C30.4335 0.158138 30.4369 0.158134 30.4369 0.154785C30.3632 0.208374 30.3029 0.268662 30.2459 0.332299C30.2493 0.32895 30.256 0.325597 30.2593 0.318899C30.3129 0.26196 30.3699 0.208378 30.4335 0.158138Z" fill="#4E4E4E"/>
<path d="M35.9335 12.852L37.9915 9.69027L36.5806 7.63379L34.4892 10.7754L35.9335 12.852Z" fill="#4E4E4E"/>
<path d="M32.3308 7.67093L34.4222 4.49912L33.0512 2.50293L30.9265 5.65464L32.3308 7.67093Z" fill="#4E4E4E"/>
<path d="M30.6405 0.0512695C30.5736 0.0747148 30.5099 0.104855 30.4563 0.141698C30.4563 0.141698 30.4597 0.141705 30.463 0.138355C30.52 0.101513 30.5769 0.0713655 30.6405 0.0512695Z" fill="#4E4E4E"/>
<path d="M38.0948 15.9574L50.3496 33.5849H54.4157L40.1495 12.8291L38.0948 15.9574Z" fill="#4E4E4E"/>
<path d="M29.9959 0.693406C30.0292 0.646516 30.0693 0.582873 30.116 0.509187C30.146 0.465646 30.1827 0.415409 30.2194 0.365169C30.226 0.355121 30.2327 0.348427 30.2394 0.338379C30.126 0.472352 30.0492 0.613023 29.9892 0.693406L28.7617 2.54223L28.8818 2.35802L29.9959 0.693406Z" fill="#4E4E4E"/>
<path d="M35.7234 6.38749L34.4225 4.49512L35.7234 6.38749Z" fill="#4E4E4E"/>
<path d="M35.9333 12.8522L37.9913 9.69043L35.9333 12.8522Z" fill="#4E4E4E"/>
<path d="M40.1495 12.8291L38.0948 15.9574L37.878 15.6459L38.0948 15.9574L40.1495 12.8291Z" fill="#4E4E4E"/>
<path d="M30.2626 0.318964C30.3128 0.262026 30.3664 0.208443 30.4334 0.158203C30.3698 0.208443 30.3128 0.262026 30.2626 0.318964Z" fill="#4E4E4E"/>
<path d="M30.7073 0.0239258C30.6839 0.0306244 30.6638 0.0406646 30.6403 0.0473633C30.5767 0.0708085 30.5164 0.100956 30.4628 0.134449C30.5365 0.0909077 30.6135 0.047371 30.7073 0.0239258Z" fill="#4E4E4E"/>
<path d="M30.1161 0.512671C30.1463 0.46578 30.1831 0.418892 30.22 0.368652C30.1831 0.415543 30.1463 0.46578 30.1161 0.512671Z" fill="#4E4E4E"/>
<path d="M36.5808 7.63413L35.7236 6.38818L36.5808 7.63413Z" fill="#292929"/>
<path d="M32.3308 7.67041L34.489 10.7752L32.3308 7.67041Z" fill="#292929"/>
<path d="M34.4892 10.7754L36.5772 7.63379L34.4892 10.7754Z" fill="#292929"/>
<path d="M34.4222 4.49854L32.3308 7.67034L34.4222 4.49854Z" fill="#292929"/>
<path d="M34.489 10.7752L36.577 7.63351L35.7231 6.38756L34.4222 4.49854L32.3308 7.67034L34.489 10.7752Z" fill="#292929"/>
<path d="M35.9333 12.8521L37.8746 15.6454L35.9333 12.8521Z" fill="#292929"/>
<path d="M37.9913 9.69043L40.1494 12.8287L37.9913 9.69043Z" fill="#292929"/>
<path d="M35.9333 12.8522L37.8746 15.6455L38.0914 15.957L40.1494 12.8287L37.9913 9.69043L35.9333 12.8522Z" fill="#292929"/>
<path d="M25.3729 7.6272L25.4432 7.52002L25.3729 7.6272Z" fill="#4E4E4E"/>
<path d="M27.5042 10.7381L28.9318 12.8214L31.0232 9.64961L29.6256 7.58643L28.765 8.86587L27.5042 10.7381Z" fill="#4E4E4E"/>
<path d="M43.1613 33.5803H47.2274L36.7137 18.0562L34.6623 21.1777L43.1613 33.5803Z" fill="#4E4E4E"/>
<path d="M33.1481 12.7915L31.0634 15.9265L32.5344 18.0767L33.0447 17.293L34.5891 14.9183L33.1481 12.7915Z" fill="#4E4E4E"/>
<path d="M28.9356 12.8213L31.0637 15.9261L28.9356 12.8213Z" fill="#4E4E4E"/>
<path d="M34.6623 21.1782L32.5342 18.0767L33.0446 17.293L32.5342 18.0767L34.6623 21.1782L36.7137 18.0566L34.6623 21.1782Z" fill="#4E4E4E"/>
<path d="M29.6256 7.58643L28.765 8.86587L29.6256 7.58643Z" fill="#4E4E4E"/>
<path d="M25.3729 7.62724L27.501 4.44873L25.4429 7.52005L25.3729 7.62724L26.2902 8.96696L25.3729 7.62724Z" fill="#4E4E4E"/>
<path d="M30.4365 0.155002C30.4432 0.151652 30.4499 0.144951 30.4566 0.141602C30.4533 0.144951 30.4432 0.151652 30.4365 0.155002Z" fill="#292929"/>
<path d="M30.2429 0.339686C30.2429 0.339686 30.2465 0.336099 30.2501 0.33252C30.2465 0.336099 30.2429 0.339686 30.2429 0.339686Z" fill="#292929"/>
<path d="M30.9265 5.654L28.7617 2.54248L30.9265 5.654Z" fill="#292929"/>
<path d="M30.9008 0.000488281C30.8305 0.000488281 30.7702 0.0105354 30.7132 0.0205834C30.7099 0.0205834 30.7099 0.0205834 30.7065 0.0205834C30.7668 0.0105354 30.8305 0.000488281 30.9008 0.000488281Z" fill="#292929"/>
<path d="M33.0518 2.49864L31.811 0.693359L33.0518 2.49864Z" fill="#292929"/>
<path d="M29.9927 0.69405C30.0295 0.650509 30.0664 0.583519 30.1166 0.513184C30.0697 0.583519 30.0295 0.650509 29.9927 0.69405Z" fill="#292929"/>
<path d="M30.4667 0.138184C30.4667 0.138184 30.4633 0.138177 30.46 0.141526C30.4533 0.144875 30.4466 0.151577 30.4399 0.154926C30.4399 0.154926 30.4365 0.154929 30.4365 0.158279C30.4432 0.15158 30.4566 0.144882 30.4667 0.138184Z" fill="#292929"/>
<path d="M30.2631 0.318359C30.2597 0.321709 30.2497 0.32841 30.2497 0.33176C30.2464 0.33176 30.2463 0.335115 30.243 0.338465C30.2329 0.348513 30.2296 0.35521 30.2229 0.368607C30.2363 0.351861 30.2497 0.335106 30.2631 0.318359Z" fill="#292929"/>
<path d="M29.9959 0.693359L28.8851 2.35797L28.7617 2.54218L29.9959 0.693359Z" fill="#292929"/>
<path d="M30.9265 5.65464L33.0513 2.50293L30.9265 5.65464Z" fill="#292929"/>
<path d="M31.8106 0.697208C31.6739 0.4929 31.4304 0.00390625 30.9034 0.00390625C30.8333 0.00390625 30.77 0.0105971 30.7099 0.0273437C30.6165 0.050789 30.5398 0.0909797 30.4664 0.14122C30.4564 0.147918 30.4431 0.154616 30.4331 0.161315C30.3697 0.208205 30.313 0.265147 30.2663 0.322086C30.2529 0.335483 30.2363 0.355577 30.2229 0.372324C30.1829 0.419214 30.1495 0.469462 30.1195 0.516352C30.0728 0.586688 30.0328 0.653667 29.9994 0.697208L28.7686 2.54604L30.9301 5.65756L33.0548 2.50584L31.8106 0.697208Z" fill="#292929"/>
<path d="M26.2906 8.9668L27.5048 10.7386L27.5081 10.7352L26.2906 8.9668Z" fill="#292929"/>
<path d="M29.6256 7.58704L27.5042 4.44873V4.45208L29.6256 7.58704Z" fill="#292929"/>
<path d="M27.5042 10.7385L28.765 8.86621L27.5042 10.7385Z" fill="#292929"/>
<path d="M28.7651 8.86607L29.6257 7.58662L27.501 4.45166L25.3729 7.62681L26.2902 8.96654L27.5043 10.7383L28.7651 8.86607Z" fill="#292929"/>
<path d="M31.0237 9.65283L33.1484 12.7911L31.0237 9.65283Z" fill="#292929"/>
<path d="M31.0634 15.9264L33.1481 12.7914V12.7881L31.0634 15.9264Z" fill="#292929"/>
<path d="M31.0237 9.65039L28.9356 12.8222L31.0237 9.65374V9.65039Z" fill="#292929"/>
<path d="M31.0237 9.65283L28.9356 12.8213L31.0637 15.9261L33.1484 12.7878L31.0237 9.65283Z" fill="#292929"/>
<path d="M36.7138 18.0568L34.5891 14.9185L36.7138 18.0568Z" fill="#292929"/>
<path d="M34.589 14.9185L33.0446 17.2965L34.589 14.9185Z" fill="#292929"/>
<path d="M33.0446 17.2931L32.5342 18.0769L34.6623 21.1783L36.7137 18.0568L34.589 14.9185L33.0446 17.2931Z" fill="#292929"/>
<path d="M19.8191 5.18204C19.8191 5.18204 19.8191 5.17578 19.8253 5.17578C19.8191 5.18203 19.8191 5.18204 19.8191 5.18204Z" fill="#292929"/>
<path d="M20.0092 4.99777C20.0159 4.99442 20.0226 4.98772 20.0293 4.98438C20.0259 4.98772 20.0192 4.99442 20.0092 4.99777Z" fill="#292929"/>
<path d="M18.3382 7.38567L18.4822 7.16797L18.3382 7.38567Z" fill="#292929"/>
<path d="M20.4664 10.5475L18.3383 7.38574H18.335L20.4664 10.5475Z" fill="#292929"/>
<path d="M20.477 4.84375C20.41 4.84375 20.3464 4.85045 20.2861 4.86385H20.2827C20.3397 4.8538 20.4033 4.84375 20.477 4.84375Z" fill="#292929"/>
<path d="M19.8396 5.16162C19.8363 5.16497 19.8262 5.17166 19.8229 5.17501C19.8229 5.17501 19.8229 5.17836 19.8195 5.17836C19.8128 5.18841 19.8061 5.19847 19.7994 5.20516C19.8095 5.19177 19.8262 5.17502 19.8396 5.16162Z" fill="#292929"/>
<path d="M20.0393 4.98047C20.0393 4.98047 20.036 4.98047 20.0326 4.98382C20.0259 4.98717 20.0192 4.99386 20.0125 4.99721L20.0092 5.00056C20.0159 4.99387 20.0293 4.98717 20.0393 4.98047Z" fill="#292929"/>
<path d="M18.3382 7.38636L19.5723 5.53418L18.4816 7.16865L18.3382 7.38636Z" fill="#292929"/>
<path d="M22.5879 7.34915L22.5243 7.25537L22.5946 7.35585L22.5879 7.34915Z" fill="#292929"/>
<path d="M19.5692 5.53689C19.6026 5.49335 19.6428 5.42971 19.6864 5.35938C19.6428 5.42971 19.6026 5.49 19.5692 5.53689Z" fill="#292929"/>
<path d="M21.3838 5.53713C21.2471 5.33617 21.0069 4.84717 20.4766 4.84717C20.4065 4.84717 20.3432 4.85387 20.2831 4.87062C20.1931 4.89406 20.113 4.93425 20.043 4.98114C20.033 4.98784 20.0196 4.99454 20.0129 5.00123C19.9462 5.04812 19.8928 5.10506 19.8428 5.15865C19.8295 5.1754 19.8128 5.1888 19.8028 5.20555C19.7594 5.25579 19.7227 5.30937 19.6927 5.35626C19.646 5.42325 19.606 5.48688 19.576 5.53378L18.3452 7.38595L20.4732 10.5477L22.6113 7.3759L22.6013 7.35916L22.5313 7.25533L21.3838 5.53713Z" fill="#292929"/>
<path d="M22.9382 14.2222L24.0489 15.87L22.9382 14.2222Z" fill="#292929"/>
<path d="M24.0721 9.57568L22.4644 11.9872L24.0721 9.57568Z" fill="#292929"/>
<path d="M26.1672 12.7251L24.0491 15.8701L26.1672 12.7251Z" fill="#292929"/>
<path d="M22.4644 11.9873L21.9508 12.7543L22.9381 14.2213L24.0488 15.8691L26.1669 12.7275L24.0722 9.5791L22.4644 11.9873Z" fill="#292929"/>
<path d="M27.1705 20.5054L27.5941 21.1384L27.1705 20.5054Z" fill="#292929"/>
<path d="M27.5877 14.8647L26.4703 16.5595L27.5877 14.8647Z" fill="#292929"/>
<path d="M29.6793 18.0063L27.5945 21.138L29.6793 18.0063Z" fill="#292929"/>
<path d="M26.4707 16.5595L25.5034 18.0299L27.1711 20.505L27.5981 21.138L29.6795 18.0064L27.5881 14.8647L26.4707 16.5595Z" fill="#292929"/>
<path d="M29.0954 23.3652L31.1835 26.47L29.0954 23.3652Z" fill="#292929"/>
<path d="M31.1471 20.2134L32.0844 21.6235L31.1471 20.2134Z" fill="#292929"/>
<path d="M31.1868 26.4705L31.974 25.2715L31.1868 26.4705Z" fill="#292929"/>
<path d="M31.1868 26.4699L31.974 25.2709L33.2348 23.3517L32.0841 21.6235L31.1468 20.2134L29.0954 23.3651L31.1868 26.4699Z" fill="#292929"/>
<path d="M35.7935 1.96304H35.8935C36.0003 1.96304 36.087 1.98984 36.1571 2.04343C36.2271 2.09702 36.3171 2.22764 36.4206 2.4353L36.5807 2.74344H37.051L36.8275 2.36161C36.7508 2.22764 36.7041 2.14725 36.6907 2.13051C36.634 2.06017 36.594 2.00993 36.564 1.98649C36.534 1.95969 36.4873 1.93625 36.4339 1.9128C36.594 1.88936 36.7174 1.82907 36.8075 1.73529C36.8942 1.63816 36.9376 1.52094 36.9376 1.38362C36.9376 1.28314 36.9142 1.1927 36.8675 1.11232C36.8208 1.03194 36.7641 0.971647 36.6907 0.931455C36.6173 0.891263 36.5206 0.867814 36.3972 0.854417C36.3538 0.851067 36.1504 0.851074 35.7935 0.851074H35.4132V2.74678H35.7935V1.96304ZM35.7935 1.14581H35.9469C36.1671 1.14581 36.3038 1.15586 36.3572 1.17596C36.4105 1.19271 36.4539 1.22284 36.4839 1.26303C36.5139 1.30323 36.5306 1.35012 36.5306 1.40371C36.5306 1.46065 36.5139 1.50754 36.4839 1.55108C36.4539 1.59462 36.4105 1.62476 36.3605 1.64151C36.3071 1.65826 36.1704 1.6683 35.9469 1.6683H35.7935V1.14581Z" fill="#1D1D1D"/>
<path d="M35.3264 3.33306C35.6065 3.48713 35.9034 3.56751 36.2103 3.56751C36.5172 3.56751 36.814 3.48713 37.0942 3.33306C37.3744 3.17564 37.5912 2.95458 37.7513 2.67324C37.9048 2.3919 37.9848 2.09381 37.9848 1.78567C37.9848 1.47419 37.9047 1.1761 37.7446 0.888057C37.5845 0.603364 37.3644 0.382309 37.0875 0.22824C36.8074 0.0775203 36.5138 0.000488281 36.2103 0.000488281C35.9068 0.000488281 35.6132 0.0775203 35.333 0.22824C35.0529 0.382309 34.8327 0.600015 34.6726 0.888057C34.5125 1.17275 34.4324 1.47419 34.4324 1.78567C34.4324 2.09381 34.5125 2.3919 34.6659 2.67324C34.8294 2.95458 35.0495 3.17564 35.3264 3.33306ZM34.9828 1.06222C35.1129 0.831115 35.2897 0.656954 35.5132 0.533029C35.7366 0.412454 35.9701 0.352163 36.217 0.352163C36.4605 0.352163 36.6973 0.412454 36.9208 0.533029C37.1476 0.656954 37.3244 0.831115 37.4544 1.06222C37.5812 1.29332 37.6446 1.53113 37.6446 1.78233C37.6446 2.03353 37.5812 2.27132 37.4544 2.49573C37.3277 2.72348 37.1509 2.901 36.9274 3.02493C36.7006 3.1522 36.4638 3.21584 36.2136 3.21584C35.9668 3.21584 35.73 3.1522 35.5065 3.02493C35.2797 2.89765 35.1029 2.72013 34.9795 2.49573C34.8527 2.27132 34.7893 2.03018 34.7893 1.78233C34.7893 1.53448 34.8527 1.29332 34.9828 1.06222Z" fill="#1D1D1D"/>
<path d="M61.6973 19.4201V18.8708C60.6666 18.8708 60.0362 18.6933 60.0362 17.0086V10.4875H60.0696L63.275 19.3866H64.0656L67.2377 10.4875H67.271V18.8072L65.9835 18.8708V19.4201C66.6273 19.4201 67.7713 19.3565 68.4151 19.3565C69.0589 19.3565 70.2697 19.4201 70.9134 19.4201V18.8708L69.6092 18.8072V9.77741L70.9134 9.71042V9.16113L67.0642 9.22811L64.5325 16.1043H64.5159L62.0175 9.22811L58.1183 9.16113V9.71042L59.3924 9.77741V17.0086C59.3924 18.6933 58.732 18.8708 57.8614 18.8708V19.4201C58.6653 19.4201 59.1356 19.3565 59.7794 19.3565C60.4265 19.3531 60.8934 19.4201 61.6973 19.4201Z" fill="#1D1D1D"/>
<path d="M75.1091 19.6277C77.2338 19.6277 79.0417 18.365 79.0417 15.5985C79.0417 12.8487 77.2038 11.73 75.1091 11.73C73.0444 11.73 71.1931 13.0094 71.1931 15.7592C71.1965 18.5291 73.0144 19.6277 75.1091 19.6277ZM75.1091 12.2826C76.2532 12.2826 76.6868 13.4817 76.6868 15.6822C76.6868 17.8994 76.2532 19.0784 75.1091 19.0784C73.995 19.0784 73.5447 17.8961 73.5447 15.6822C73.5447 13.4817 73.995 12.2826 75.1091 12.2826Z" fill="#1D1D1D"/>
<path d="M85.4263 18.0769H85.443L85.4897 19.5171L88.5817 19.3563V18.8071L87.4843 18.7736V11.8472L84.2789 12.0079V12.5572C84.9893 12.5572 85.3596 12.5572 85.3596 13.4448V16.1142C85.3596 17.7018 84.3622 18.6396 83.5717 18.6396C82.5711 18.6396 82.5377 17.8458 82.5377 16.2951V11.8472L79.3156 12.0079V12.5572C80.1361 12.5572 80.413 12.5572 80.413 13.4448V16.8745C80.413 18.72 81.0434 19.5942 82.7345 19.5942C84.0087 19.5975 84.9126 18.9511 85.4263 18.0769Z" fill="#1D1D1D"/>
<path d="M97.0807 14.5805C97.0807 12.5407 96.1134 11.7168 94.7625 11.7168C93.4883 11.7168 92.6178 12.3632 92.0674 13.2508H92.0541L92.0207 11.8441L88.9286 12.0048V12.5575C89.7492 12.5575 90.0227 12.5575 90.0227 13.4149V18.7839L88.9286 18.8676V19.4169C89.7158 19.4169 90.1528 19.3532 91.0868 19.3532C92.0207 19.3532 92.441 19.4169 93.2115 19.4169V18.8676L92.1475 18.7839V15.1967C92.1475 13.6125 93.1315 12.6747 93.922 12.6747C94.7726 12.6747 94.9693 13.3044 94.9693 15.0527V18.7872L93.9053 18.871V19.4202C94.6958 19.4202 95.0961 19.3566 96.0301 19.3566C96.9673 19.3566 97.401 19.4202 98.1915 19.4202V18.871L97.0807 18.7872V14.5805Z" fill="#1D1D1D"/>
<path d="M101.804 18.8202C101.143 18.8202 101.113 18.2709 101.143 17.2661V12.6373H102.948V12.0076H101.143V8.99658C101.143 8.99658 100.243 9.30472 99.0317 9.30472V12.011H97.8242V12.6406H99.0317V17.2996C99.0317 18.5623 99.2419 19.6441 101.223 19.6441C102.904 19.6441 103.248 18.1838 103.255 18.1603V18.157L102.738 17.9627C102.738 17.9627 102.397 18.8202 101.804 18.8202Z" fill="#1D1D1D"/>
<path d="M60.443 25.2941C60.443 24.4534 61.1034 23.8539 62.0707 23.8539C63.7952 23.8539 64.7158 25.8267 64.8426 26.5401H65.3729C65.3729 26.0243 65.3429 25.5855 65.3429 24.8252C65.3429 24.3094 65.3729 23.9209 65.3729 23.385H64.8426C64.8426 23.385 64.7625 23.74 64.489 23.74C64.2322 23.74 63.5384 23.3013 62.2008 23.3013C60.7332 23.3013 58.7519 24.0951 58.7519 26.5066C58.7519 30.5994 64.3122 28.9348 64.3122 31.9291C64.3122 32.7698 63.7819 33.5134 62.4577 33.5134C60.3496 33.5134 59.2989 30.7636 59.1721 30.0334H58.5917C58.5917 30.6966 58.6384 31.1655 58.6384 31.9124C58.6384 32.6894 58.5917 33.1583 58.5917 33.9354H59.1221C59.1221 33.9354 59.1888 33.5468 59.5257 33.5468C59.8159 33.5468 60.6998 34.1296 62.411 34.1296C64.3789 34.1296 66.1668 33.1751 66.1668 30.7971C66.1635 26.4597 60.443 28.0473 60.443 25.2941Z" fill="#1D1D1D"/>
<path d="M69.986 26.2324L66.7639 26.3932V26.9425C67.5711 26.9425 67.8613 26.9425 67.8613 27.8334V33.1722L66.7639 33.2559V33.8052C67.5544 33.8052 67.988 33.7382 68.922 33.7382C69.8559 33.7382 70.3096 33.8052 71.0834 33.8052V33.2559L69.986 33.1722V26.2324Z" fill="#1D1D1D"/>
<path d="M67.6312 23.5969C67.6312 24.3907 68.2616 24.8295 68.9354 24.8295C69.5959 24.8295 70.2229 24.3907 70.2229 23.5969C70.2229 22.8031 69.5959 22.3677 68.9354 22.3677C68.2583 22.3643 67.6312 22.8031 67.6312 23.5969Z" fill="#1D1D1D"/>
<path d="M79.5724 28.9691C79.5724 26.9294 78.6051 26.1055 77.2509 26.1055C75.9767 26.1055 75.1061 26.7519 74.5591 27.6395H74.5424L74.5124 26.2327L71.4203 26.3935V26.9462C72.2409 26.9462 72.5144 26.9462 72.5144 27.8036V33.1725L71.4203 33.2563V33.8056C72.2075 33.8056 72.6445 33.7419 73.5785 33.7419C74.5124 33.7419 74.9327 33.8056 75.7065 33.8056V33.2563L74.6425 33.1725V29.5821C74.6425 27.9978 75.6265 27.06 76.417 27.06C77.2676 27.06 77.4644 27.6897 77.4644 29.438V33.1725L76.4003 33.2563V33.8056C77.1909 33.8056 77.5945 33.7419 78.5284 33.7419C79.4624 33.7419 79.896 33.8056 80.6865 33.8056V33.2563L79.5758 33.1725V28.9691H79.5724Z" fill="#1D1D1D"/>
<path d="M88.118 33.1257C87.7611 33.1257 87.6009 32.784 87.6176 32.285L87.6977 29.227C87.7277 27.7064 87.4909 26.1055 84.669 26.1055C82.9278 26.1055 81.4635 26.7519 81.4635 27.9007C81.4635 28.5471 81.9171 28.9357 82.5442 28.9357C83.2047 28.9357 83.625 28.5337 83.625 27.9643C83.625 27.415 83.2714 27.2208 83.2714 27.2208C83.3515 27.06 83.705 26.6548 84.5122 26.6548C85.5596 26.6548 85.673 27.5122 85.6263 28.805V29.5988C83.4348 29.5821 80.9665 29.7763 80.9665 31.8797C80.9665 33.5778 82.3041 34.0969 83.4348 34.0969C84.609 34.0969 85.2861 33.5778 85.6396 32.8979H85.673C85.9465 33.7051 86.607 34.03 87.3975 34.03C89.0553 34.03 89.2854 32.5563 89.2854 32.5563L88.7551 32.4256C88.7451 32.429 88.5849 33.1257 88.118 33.1257ZM85.5529 31.394C85.5196 32.5596 84.8124 33.1122 84.1853 33.1122C83.5082 33.1122 83.138 32.6266 83.138 31.6687C83.138 30.6505 83.5883 30.118 85.5863 30.1515L85.5529 31.394Z" fill="#1D1D1D"/>
<path d="M92.761 23.5969C92.761 22.8031 92.1306 22.3677 91.4735 22.3677C90.7964 22.3677 90.1693 22.8031 90.1693 23.5969C90.1693 24.3907 90.7997 24.8294 91.4735 24.8294C92.1306 24.8261 92.761 24.3907 92.761 23.5969Z" fill="#1D1D1D"/>
<path d="M92.5177 26.2324L89.2955 26.3932V26.9425C90.1027 26.9425 90.3929 26.9425 90.3929 27.8334V33.1722L89.2955 33.2559V33.8052C90.0861 33.8052 90.523 33.7382 91.4536 33.7382C92.3909 33.7382 92.8412 33.8052 93.6151 33.8052V33.2559L92.5177 33.1722V26.2324Z" fill="#1D1D1D"/>
</svg>
