<svg width="119" height="40" viewBox="0 0 119 40" fill="none" xmlns="http://www.w3.org/2000/svg">
<g opacity="0.4">
<path d="M35.4406 11.1341L37.8884 14.7552L39.4356 12.4364L36.9455 8.8501L35.4406 11.1341Z" fill="#777777"/>
<path d="M41.8489 8.80798V8.80412L39.3626 5.18298L39.3588 5.19071L40.8598 7.37035L41.8489 8.80798Z" fill="#777777"/>
<path d="M33.0273 14.7933L31.4725 17.1507L33.8856 20.7757L35.4828 18.3758L33.0273 14.7933Z" fill="#777777"/>
<path d="M29.0672 20.8032L17.2401 38.7466H21.9278L31.4804 24.3896L30.9916 23.6592L29.0672 20.8032Z" fill="#777777"/>
<path d="M43.4766 11.1799L45.9667 14.801L45.9705 14.7972L43.4804 11.176L43.4766 11.1799Z" fill="#777777"/>
<path d="M33.2122 26.9596L25.5379 38.7466H30.2295L35.6215 30.5421L33.2122 26.9596Z" fill="#777777"/>
<path d="M41.1017 14.8287L39.5545 17.2132L42.0061 20.8343H42.0023L43.5918 18.4112L43.3416 18.0518L41.1017 14.8287Z" fill="#777777"/>
<path d="M35.5794 23.3194V23.3233V23.3194L36.6647 24.9503L37.9887 26.9444L39.6359 24.4363L37.1805 20.8577L35.5794 23.3194Z" fill="#777777"/>
<path d="M35.0753 0.0273438C35.0483 0.035073 35.0251 0.0466578 34.998 0.054387C35.0212 0.0466578 35.0444 0.035073 35.0753 0.0273438Z" fill="#777777"/>
<path d="M31.3765 5.13606L33.8243 8.74945V8.75332L35.3253 6.52345L32.8313 2.93323L28.998 8.67989L31.3765 5.13606Z" fill="#777777"/>
<path d="M31.3761 12.3898L29.9751 10.3454L28.9167 8.79956L27.4157 11.0488L29.8327 14.6815L31.3761 12.3898Z" fill="#777777"/>
<path d="M36.3454 0.804114L37.7771 2.88714V2.88327L36.3492 0.804114C36.1876 0.568374 35.9105 0.00415039 35.2985 0.00415039C35.2177 0.00415039 35.1446 0.0118706 35.0792 0.0311937C35.1484 0.0157352 35.2177 0.00800697 35.2947 0.00800697C35.9066 0.00414237 36.1837 0.568374 36.3454 0.804114Z" fill="#777777"/>
<path d="M24.9681 14.7164L8.93817 38.7465H13.6336L27.3889 18.3105L26.1111 16.4091L24.9681 14.7164Z" fill="#777777"/>
<path d="M23.2516 12.1699L20.8 8.52173L0.640442 38.7468H5.33203L23.2516 12.1699Z" fill="#777777"/>
<path d="M23.0445 5.61572C22.9788 5.63118 22.9208 5.65436 22.8629 5.68141C22.9208 5.65823 22.9788 5.63505 23.0445 5.61572Z" fill="#777777"/>
<path d="M23.2669 5.58838C23.8788 5.58838 24.1559 6.15647 24.3176 6.38449L25.6069 8.32066L24.3214 6.38063C24.1598 6.15262 23.8827 5.58838 23.2669 5.58838C23.1899 5.58838 23.1168 5.59611 23.0475 5.61157C23.1168 5.59997 23.186 5.58838 23.2669 5.58838Z" fill="#777777"/>
<path d="M35.6252 30.5423L41.1481 38.7469H45.8397L37.9884 26.9443L36.5335 29.1588L35.6252 30.5423Z" fill="#4E4E4E"/>
<path d="M31.4729 17.1516L29.8334 14.6821V14.686L27.3894 18.311L29.0675 20.8037L30.1836 19.1071L31.4729 17.1516Z" fill="#4E4E4E"/>
<path d="M33.8857 20.7759L31.4803 24.3893L33.2122 26.9592L35.5792 23.3188L33.8857 20.7759Z" fill="#4E4E4E"/>
<path d="M27.416 11.0484L25.6033 8.32776L25.6302 8.36641L25.7033 8.47848L25.711 8.48621L25.7226 8.50554L23.2556 12.1692L24.9682 14.7159L25.5571 13.831L27.416 11.0484Z" fill="#4E4E4E"/>
<path d="M22.2205 6.38841C22.259 6.33817 22.3052 6.26474 22.3552 6.18358C22.3937 6.12561 22.436 6.06764 22.4822 6.00967C22.4899 5.99808 22.4976 5.99035 22.5053 5.97876C22.3783 6.13334 22.2859 6.29566 22.2205 6.38841L20.9658 8.27047L22.2205 6.38841Z" fill="#4E4E4E"/>
<path d="M22.725 5.76966C22.7289 5.76966 22.7289 5.7658 22.725 5.76966C22.6439 5.82377 22.5704 5.89719 22.5086 5.97062C22.5125 5.96675 22.5241 5.95903 22.5279 5.95517C22.5898 5.88947 22.6516 5.82377 22.725 5.76966Z" fill="#4E4E4E"/>
<path d="M22.8633 5.68103C22.8247 5.70035 22.7899 5.72741 22.7551 5.7506C22.7551 5.7506 22.759 5.7506 22.7629 5.74673C22.7976 5.72355 22.8286 5.70035 22.8633 5.68103Z" fill="#4E4E4E"/>
<path d="M31.4725 17.1512L33.8856 20.7762L31.4725 17.1512Z" fill="#4E4E4E"/>
<path d="M29.0674 20.8036L30.1873 19.1071L29.0674 20.8036L30.9917 23.6595L29.0674 20.8036Z" fill="#4E4E4E"/>
<path d="M35.5793 23.3227V23.3188L33.2084 26.9593L35.5793 23.3227Z" fill="#4E4E4E"/>
<path d="M37.9885 26.9443L36.5336 29.1626L37.9885 26.9443L36.6606 24.9502L37.9885 26.9443Z" fill="#4E4E4E"/>
<path d="M29.8327 14.6815L27.4157 11.0526L29.8327 14.6815Z" fill="#4E4E4E"/>
<path d="M24.9683 14.7165L25.561 13.8315L24.9683 14.7165L26.1113 16.4092L24.9683 14.7165Z" fill="#4E4E4E"/>
<path d="M24.3136 6.38864C24.1519 6.15676 23.8748 5.59253 23.2629 5.59253C23.8787 5.59253 24.1558 6.15676 24.3136 6.38864Z" fill="#4E4E4E"/>
<path d="M22.3548 6.18392C22.3896 6.12982 22.4359 6.06798 22.4823 6.01001C22.4398 6.06798 22.3934 6.12982 22.3548 6.18392Z" fill="#4E4E4E"/>
<path d="M24.3138 6.38806L25.6301 8.37061L25.6032 8.32423L24.3138 6.38806Z" fill="#4E4E4E"/>
<path d="M23.0409 5.61572C22.9752 5.63118 22.9172 5.65436 22.8631 5.68141C22.8245 5.69687 22.7936 5.72393 22.7626 5.74712C22.8438 5.69301 22.9365 5.64664 23.0409 5.61572Z" fill="#4E4E4E"/>
<path d="M25.7113 8.48645L25.7228 8.50578L23.252 12.1655L25.7228 8.50578L25.7113 8.48645Z" fill="#4E4E4E"/>
<path d="M22.5316 5.95589C22.5896 5.89019 22.6514 5.82835 22.7287 5.77039C22.6514 5.82449 22.5857 5.88633 22.5316 5.95589Z" fill="#4E4E4E"/>
<path d="M34.756 0.181847C34.756 0.181847 34.7599 0.181843 34.7599 0.177979C34.6749 0.239812 34.6053 0.309375 34.5396 0.382802C34.5435 0.378937 34.5512 0.37507 34.5551 0.36734C34.6169 0.301642 34.6826 0.239816 34.756 0.181847Z" fill="#4E4E4E"/>
<path d="M41.1021 14.8288L43.4768 11.1806L41.8488 8.80774L39.4357 12.4327L41.1021 14.8288Z" fill="#4E4E4E"/>
<path d="M36.9451 8.85065L39.3583 5.19087L37.7765 2.88757L35.3248 6.52417L36.9451 8.85065Z" fill="#4E4E4E"/>
<path d="M34.9949 0.0585938C34.9176 0.085646 34.8442 0.120423 34.7823 0.162934C34.7823 0.162934 34.7862 0.162942 34.7901 0.159077C34.8558 0.116567 34.9215 0.0817814 34.9949 0.0585938Z" fill="#4E4E4E"/>
<path d="M43.5959 18.4118L57.7361 38.7512H62.4277L45.9667 14.8022L43.5959 18.4118Z" fill="#4E4E4E"/>
<path d="M34.2511 0.799906C34.2895 0.745801 34.3357 0.672367 34.3896 0.587346C34.4242 0.537106 34.4666 0.479139 34.5089 0.42117C34.5166 0.409577 34.5243 0.401853 34.532 0.390259C34.4011 0.544843 34.3126 0.707155 34.2434 0.799906L32.827 2.93316L32.9656 2.72061L34.2511 0.799906Z" fill="#4E4E4E"/>
<path d="M40.8598 7.36979L39.3588 5.18628L40.8598 7.36979Z" fill="#4E4E4E"/>
<path d="M41.1019 14.829L43.4766 11.1808L41.1019 14.829Z" fill="#4E4E4E"/>
<path d="M45.9668 14.8022L43.596 18.4118L43.3458 18.0524L43.596 18.4118L45.9668 14.8022Z" fill="#4E4E4E"/>
<path d="M34.5588 0.3675C34.6168 0.301802 34.6786 0.239976 34.7559 0.182007C34.6825 0.239976 34.6168 0.301802 34.5588 0.3675Z" fill="#4E4E4E"/>
<path d="M35.072 0.0273438C35.0449 0.035073 35.0217 0.0466578 34.9947 0.054387C34.9212 0.0814392 34.8517 0.116224 34.7899 0.15487C34.8749 0.104631 34.9638 0.054396 35.072 0.0273438Z" fill="#4E4E4E"/>
<path d="M34.3898 0.59098C34.4246 0.536875 34.4671 0.482774 34.5096 0.424805C34.4671 0.478909 34.4246 0.536875 34.3898 0.59098Z" fill="#4E4E4E"/>
<path d="M41.849 8.80799L40.8599 7.37036L41.849 8.80799Z" fill="#292929"/>
<path d="M36.9453 8.8501L39.4354 12.4326L36.9453 8.8501Z" fill="#292929"/>
<path d="M39.4357 12.4327L41.8449 8.80774L39.4357 12.4327Z" fill="#292929"/>
<path d="M39.3584 5.19019L36.9453 8.84997L39.3584 5.19019Z" fill="#292929"/>
<path d="M39.4354 12.4324L41.8447 8.80746L40.8594 7.36983L39.3584 5.19019L36.9453 8.84997L39.4354 12.4324Z" fill="#292929"/>
<path d="M41.1019 14.8287L43.3419 18.0518L41.1019 14.8287Z" fill="#292929"/>
<path d="M43.4766 11.1808L45.9667 14.8019L43.4766 11.1808Z" fill="#292929"/>
<path d="M41.1019 14.829L43.3419 18.0521L43.5921 18.4115L45.9667 14.8019L43.4766 11.1808L41.1019 14.829Z" fill="#292929"/>
<path d="M28.9169 8.79994L28.998 8.67627L28.9169 8.79994Z" fill="#4E4E4E"/>
<path d="M31.376 12.3898L33.0233 14.7936L35.4364 11.1338L33.8238 8.75317L32.8308 10.2295L31.376 12.3898Z" fill="#4E4E4E"/>
<path d="M49.442 38.7461H54.1336L42.0025 20.8336L39.6355 24.4354L49.442 38.7461Z" fill="#4E4E4E"/>
<path d="M37.8883 14.759L35.4828 18.3763L37.1801 20.8574L37.769 19.9531L39.5509 17.2131L37.8883 14.759Z" fill="#4E4E4E"/>
<path d="M33.0277 14.7933L35.4832 18.3758L33.0277 14.7933Z" fill="#4E4E4E"/>
<path d="M39.6354 24.4361L37.1799 20.8574L37.7688 19.9531L37.1799 20.8574L39.6354 24.4361L42.0024 20.8343L39.6354 24.4361Z" fill="#4E4E4E"/>
<path d="M33.8238 8.75317L32.8308 10.2295L33.8238 8.75317Z" fill="#4E4E4E"/>
<path d="M28.9169 8.80007L31.3724 5.13257L28.9977 8.6764L28.9169 8.80007L29.9753 10.3459L28.9169 8.80007Z" fill="#4E4E4E"/>
<path d="M34.7595 0.178304C34.7673 0.174439 34.775 0.166706 34.7827 0.162842C34.7788 0.166706 34.7673 0.174439 34.7595 0.178304Z" fill="#292929"/>
<path d="M34.5361 0.391326C34.5361 0.391326 34.5403 0.387187 34.5444 0.383057C34.5403 0.387187 34.5361 0.391326 34.5361 0.391326Z" fill="#292929"/>
<path d="M35.3248 6.52345L32.827 2.93323L35.3248 6.52345Z" fill="#292929"/>
<path d="M35.2952 0.00012207C35.214 0.00012207 35.1445 0.0117149 35.0788 0.0233088C35.0749 0.0233088 35.0749 0.0233088 35.071 0.0233088C35.1406 0.0117149 35.214 0.00012207 35.2952 0.00012207Z" fill="#292929"/>
<path d="M37.7771 2.88282L36.3454 0.799805L37.7771 2.88282Z" fill="#292929"/>
<path d="M34.2474 0.800123C34.2899 0.749883 34.3324 0.672587 34.3904 0.591431C34.3363 0.672587 34.2899 0.749883 34.2474 0.800123Z" fill="#292929"/>
<path d="M34.7943 0.158813C34.7943 0.158813 34.7904 0.158805 34.7866 0.16267C34.7788 0.166535 34.7711 0.174267 34.7634 0.178132C34.7634 0.178132 34.7595 0.178136 34.7595 0.182C34.7673 0.174271 34.7827 0.166543 34.7943 0.158813Z" fill="#292929"/>
<path d="M34.5594 0.367065C34.5555 0.37093 34.5439 0.378663 34.5439 0.382527C34.5401 0.382527 34.5401 0.386399 34.5362 0.390264C34.5246 0.401858 34.5207 0.409586 34.513 0.425044C34.5285 0.405721 34.5439 0.386388 34.5594 0.367065Z" fill="#292929"/>
<path d="M34.2511 0.799805L32.9694 2.72051L32.827 2.93306L34.2511 0.799805Z" fill="#292929"/>
<path d="M35.3248 6.52417L37.7765 2.88757L35.3248 6.52417Z" fill="#292929"/>
<path d="M36.345 0.804114C36.1873 0.568374 35.9063 0.00415039 35.2982 0.00415039C35.2174 0.00415039 35.1443 0.0118706 35.075 0.0311937C34.9672 0.0582459 34.8787 0.10462 34.794 0.162589C34.7825 0.170318 34.7671 0.178046 34.7555 0.185775C34.6824 0.23988 34.617 0.305582 34.5631 0.371281C34.5477 0.386739 34.5285 0.409924 34.5131 0.429247C34.4669 0.483352 34.4284 0.54133 34.3937 0.595434C34.3399 0.676591 34.2937 0.753875 34.2552 0.804114L32.835 2.93738L35.329 6.52759L37.7806 2.891L36.345 0.804114Z" fill="#292929"/>
<path d="M29.9758 10.3461L31.3767 12.3904L31.3805 12.3866L29.9758 10.3461Z" fill="#292929"/>
<path d="M33.8238 8.7537L31.376 5.13257V5.13644L33.8238 8.7537Z" fill="#292929"/>
<path d="M31.376 12.39L32.8308 10.2297L31.376 12.39Z" fill="#292929"/>
<path d="M32.831 10.2294L33.824 8.75313L31.3724 5.13586L28.9169 8.7995L29.9753 10.3453L31.3762 12.3897L32.831 10.2294Z" fill="#292929"/>
<path d="M35.437 11.1376L37.8886 14.7587L35.437 11.1376Z" fill="#292929"/>
<path d="M35.4828 18.376L37.8883 14.7588V14.7549L35.4828 18.376Z" fill="#292929"/>
<path d="M35.437 11.1344L33.0277 14.7942L35.437 11.1383V11.1344Z" fill="#292929"/>
<path d="M35.437 11.1376L33.0277 14.7935L35.4832 18.376L37.8886 14.7548L35.437 11.1376Z" fill="#292929"/>
<path d="M42.0025 20.8341L39.5509 17.213L42.0025 20.8341Z" fill="#292929"/>
<path d="M39.5508 17.213L37.7688 19.9569L39.5508 17.213Z" fill="#292929"/>
<path d="M37.7688 19.953L37.1799 20.8573L39.6354 24.4359L42.0024 20.8341L39.5508 17.213L37.7688 19.953Z" fill="#292929"/>
<path d="M22.5086 5.97877C22.5086 5.97877 22.5086 5.97156 22.5158 5.97156C22.5086 5.97877 22.5086 5.97877 22.5086 5.97877Z" fill="#292929"/>
<path d="M22.728 5.76618C22.7357 5.76232 22.7434 5.7546 22.7512 5.75073C22.7473 5.7546 22.7396 5.76232 22.728 5.76618Z" fill="#292929"/>
<path d="M20.7999 8.52122L20.966 8.27002L20.7999 8.52122Z" fill="#292929"/>
<path d="M23.2556 12.1699L20.8001 8.52173H20.7963L23.2556 12.1699Z" fill="#292929"/>
<path d="M23.2677 5.58838C23.1904 5.58838 23.117 5.59611 23.0474 5.61157H23.0436C23.1093 5.59997 23.1827 5.58838 23.2677 5.58838Z" fill="#292929"/>
<path d="M22.5323 5.95544C22.5285 5.95931 22.5169 5.96703 22.513 5.97089C22.513 5.97089 22.513 5.97476 22.5091 5.97476C22.5014 5.98636 22.4937 5.99796 22.486 6.00569C22.4976 5.99023 22.5169 5.9709 22.5323 5.95544Z" fill="#292929"/>
<path d="M22.7628 5.74634C22.7628 5.74634 22.7589 5.74634 22.755 5.75021C22.7473 5.75407 22.7396 5.76179 22.7318 5.76566L22.728 5.76952C22.7357 5.7618 22.7512 5.75407 22.7628 5.74634Z" fill="#292929"/>
<path d="M20.7999 8.52201L22.2239 6.38489L20.9654 8.27082L20.7999 8.52201Z" fill="#292929"/>
<path d="M25.7034 8.47918L25.63 8.37097L25.7112 8.48691L25.7034 8.47918Z" fill="#292929"/>
<path d="M22.2202 6.38854C22.2589 6.3383 22.3053 6.26487 22.3555 6.18372C22.3053 6.26487 22.2589 6.33443 22.2202 6.38854Z" fill="#292929"/>
<path d="M24.3142 6.38864C24.1564 6.15676 23.8793 5.59253 23.2673 5.59253C23.1865 5.59253 23.1134 5.60026 23.0441 5.61958C22.9402 5.64664 22.8478 5.69301 22.767 5.74711C22.7554 5.75484 22.74 5.76257 22.7323 5.7703C22.6554 5.8244 22.5938 5.8901 22.5361 5.95193C22.5207 5.97126 22.5014 5.98672 22.4899 6.00604C22.4398 6.06401 22.3975 6.12584 22.3629 6.17994C22.309 6.25724 22.2628 6.33066 22.2282 6.38477L20.808 8.52189L23.2635 12.1701L25.7305 8.5103L25.7189 8.49098L25.6381 8.37118L24.3142 6.38864Z" fill="#292929"/>
<path d="M26.1075 16.4095L27.3891 18.3109L26.1075 16.4095Z" fill="#292929"/>
<path d="M27.4159 11.0486L25.5609 13.8311L27.4159 11.0486Z" fill="#292929"/>
<path d="M29.8334 14.6821L27.3894 18.311L29.8334 14.6821Z" fill="#292929"/>
<path d="M25.561 13.8313L24.9683 14.7162L26.1075 16.4089L27.3891 18.3103L29.833 14.6853L27.416 11.0526L25.561 13.8313Z" fill="#292929"/>
<path d="M30.991 23.6594L31.4798 24.3898L30.991 23.6594Z" fill="#292929"/>
<path d="M31.4724 17.1512L30.1831 19.1067L31.4724 17.1512Z" fill="#292929"/>
<path d="M33.8857 20.7759L31.4803 24.3893L33.8857 20.7759Z" fill="#292929"/>
<path d="M30.1835 19.1067L29.0674 20.8033L30.9917 23.6592L31.4844 24.3896L33.886 20.7762L31.4728 17.1512L30.1835 19.1067Z" fill="#292929"/>
<path d="M33.212 26.9596L35.6213 30.5421L33.212 26.9596Z" fill="#292929"/>
<path d="M35.5794 23.3229L36.6609 24.9499L35.5794 23.3229Z" fill="#292929"/>
<path d="M35.6252 30.5423L36.5335 29.1588L35.6252 30.5423Z" fill="#292929"/>
<path d="M35.6252 30.542L36.5335 29.1584L37.9883 26.944L36.6605 24.9499L35.579 23.3229L33.212 26.9595L35.6252 30.542Z" fill="#292929"/>
<path d="M40.9406 2.26461H41.056C41.1792 2.26461 41.2793 2.29553 41.3601 2.35737C41.4409 2.4192 41.5448 2.56991 41.6642 2.80952L41.8489 3.16507H42.3916L42.1337 2.7245C42.0452 2.56991 41.9913 2.47716 41.9759 2.45784C41.9105 2.37668 41.8643 2.31871 41.8296 2.29166C41.795 2.26075 41.7411 2.23369 41.6795 2.20664C41.8643 2.17959 42.0067 2.11003 42.1106 2.00182C42.2107 1.88974 42.2607 1.75449 42.2607 1.59604C42.2607 1.4801 42.2337 1.37576 42.1799 1.28301C42.126 1.19026 42.0606 1.12069 41.9759 1.07431C41.8912 1.02794 41.7796 1.00088 41.6372 0.985424C41.5872 0.981559 41.3524 0.981567 40.9406 0.981567H40.5018V3.16892H40.9406V2.26461ZM40.9406 1.32164H41.1176C41.3717 1.32164 41.5294 1.33325 41.591 1.35643C41.6526 1.37576 41.7026 1.41053 41.7373 1.45691C41.7719 1.50328 41.7912 1.55739 41.7912 1.61922C41.7912 1.68492 41.7719 1.73903 41.7373 1.78927C41.7026 1.83951 41.6526 1.87429 41.5949 1.89361C41.5333 1.91293 41.3755 1.92452 41.1176 1.92452H40.9406V1.32164Z" fill="#1D1D1D"/>
<path d="M40.4016 3.8454C40.7249 4.02317 41.0675 4.11592 41.4216 4.11592C41.7756 4.11592 42.1182 4.02317 42.4415 3.8454C42.7648 3.66376 43.0149 3.40869 43.1997 3.08407C43.3767 2.75944 43.4691 2.41549 43.4691 2.05995C43.4691 1.70054 43.3767 1.3566 43.192 1.02424C43.0072 0.695748 42.7532 0.440684 42.4338 0.262912C42.1105 0.0890051 41.7718 0.00012207 41.4216 0.00012207C41.0713 0.00012207 40.7326 0.0890051 40.4093 0.262912C40.086 0.440684 39.832 0.691884 39.6473 1.02424C39.4626 1.35273 39.3702 1.70054 39.3702 2.05995C39.3702 2.41549 39.4626 2.75944 39.6396 3.08407C39.8282 3.40869 40.0822 3.66376 40.4016 3.8454ZM40.0052 1.22519C40.1553 0.958537 40.3593 0.757583 40.6172 0.614593C40.875 0.475467 41.1445 0.405901 41.4293 0.405901C41.7102 0.405901 41.9835 0.475467 42.2413 0.614593C42.503 0.757583 42.707 0.958537 42.8571 1.22519C43.0034 1.49185 43.0765 1.76625 43.0765 2.05609C43.0765 2.34594 43.0034 2.62032 42.8571 2.87924C42.7109 3.14204 42.5069 3.34687 42.249 3.48986C41.9873 3.63671 41.7141 3.71014 41.4254 3.71014C41.1406 3.71014 40.8673 3.63671 40.6095 3.48986C40.3478 3.343 40.1438 3.13817 40.0014 2.87924C39.8551 2.62032 39.782 2.34207 39.782 2.05609C39.782 1.77011 39.8551 1.49185 40.0052 1.22519Z" fill="#1D1D1D"/>
<path d="M70.8296 22.4071V21.7733C69.6404 21.7733 68.913 21.5685 68.913 19.6246V12.1002H68.9515L72.6501 22.3685H73.5623L77.2224 12.1002H77.2609V21.6999L75.7753 21.7733V22.4071C76.5181 22.4071 77.8382 22.3337 78.581 22.3337C79.3238 22.3337 80.7209 22.4071 81.4637 22.4071V21.7733L79.9588 21.6999V11.2809L81.4637 11.2036V10.5698L77.0222 10.6471L74.1011 18.5811H74.0818L71.1991 10.6471L66.7 10.5698V11.2036L68.1702 11.2809V19.6246C68.1702 21.5685 67.4081 21.7733 66.4036 21.7733V22.4071C67.3312 22.4071 67.8738 22.3337 68.6166 22.3337C69.3633 22.3298 69.9021 22.4071 70.8296 22.4071Z" fill="#1D1D1D"/>
<path d="M86.3048 22.6467C88.7564 22.6467 90.8424 21.1897 90.8424 17.9976C90.8424 14.8247 88.7218 13.5339 86.3048 13.5339C83.9224 13.5339 81.7864 15.0102 81.7864 18.1831C81.7902 21.3791 83.8878 22.6467 86.3048 22.6467ZM86.3048 14.1716C87.6249 14.1716 88.1252 15.5551 88.1252 18.0942C88.1252 20.6525 87.6249 22.0129 86.3048 22.0129C85.0193 22.0129 84.4997 20.6487 84.4997 18.0942C84.4997 15.5551 85.0193 14.1716 86.3048 14.1716Z" fill="#1D1D1D"/>
<path d="M98.2092 20.8575H98.2285L98.2824 22.5193L101.85 22.3337V21.7L100.584 21.6613V13.6693L96.8853 13.8548V14.4886C97.7051 14.4886 98.1323 14.4886 98.1323 15.5127V18.5928C98.1323 20.4246 96.9815 21.5067 96.0694 21.5067C94.9147 21.5067 94.8763 20.5908 94.8763 18.8015V13.6693L91.1584 13.8548V14.4886C92.1052 14.4886 92.4246 14.4886 92.4246 15.5127V19.4701C92.4246 21.5995 93.152 22.6081 95.1033 22.6081C96.5735 22.612 97.6165 21.8661 98.2092 20.8575Z" fill="#1D1D1D"/>
<path d="M111.657 16.823C111.657 14.4695 110.541 13.5188 108.982 13.5188C107.512 13.5188 106.507 14.2647 105.872 15.2888H105.857L105.818 13.6657L102.25 13.8512V14.4888C103.197 14.4888 103.513 14.4888 103.513 15.4782V21.6731L102.25 21.7697V22.4035C103.159 22.4035 103.663 22.3301 104.741 22.3301C105.818 22.3301 106.303 22.4035 107.192 22.4035V21.7697L105.964 21.6731V17.5341C105.964 15.7062 107.1 14.6241 108.012 14.6241C108.993 14.6241 109.22 15.3506 109.22 17.368V21.677L107.993 21.7736V22.4074C108.905 22.4074 109.367 22.334 110.444 22.334C111.526 22.334 112.026 22.4074 112.938 22.4074V21.7736L111.657 21.677V16.823V16.823Z" fill="#1D1D1D"/>
<path d="M117.106 21.7153C116.344 21.7153 116.309 21.0815 116.344 19.9221V14.5812H118.426V13.8547H116.344V10.3804C116.344 10.3804 115.305 10.7359 113.908 10.7359V13.8585H112.515V14.5851H113.908V19.9607C113.908 21.4177 114.15 22.666 116.436 22.666C118.376 22.666 118.773 20.981 118.78 20.9539V20.9501L118.184 20.7259C118.184 20.7259 117.791 21.7153 117.106 21.7153Z" fill="#1D1D1D"/>
<path d="M69.3823 29.1852C69.3823 28.2152 70.1444 27.5234 71.2605 27.5234C73.2503 27.5234 74.3125 29.7996 74.4588 30.6228H75.0707C75.0707 30.0277 75.0361 29.5214 75.0361 28.6441C75.0361 28.049 75.0707 27.6007 75.0707 26.9824H74.4588C74.4588 26.9824 74.3664 27.392 74.0508 27.392C73.7545 27.392 72.9539 26.8857 71.4106 26.8857C69.7172 26.8857 67.431 27.8017 67.431 30.5842C67.431 35.3067 73.8468 33.386 73.8468 36.841C73.8468 37.811 73.2349 38.6689 71.7069 38.6689C69.2746 38.6689 68.0622 35.4961 67.916 34.6536H67.2463C67.2463 35.4188 67.3002 35.9598 67.3002 36.8216C67.3002 37.7182 67.2463 38.2593 67.2463 39.1559H67.8582C67.8582 39.1559 67.9352 38.7076 68.3239 38.7076C68.6588 38.7076 69.6787 39.38 71.6531 39.38C73.9238 39.38 75.9867 38.2786 75.9867 35.5347C75.9829 30.5301 69.3823 32.3619 69.3823 29.1852Z" fill="#1D1D1D"/>
<path d="M80.3935 30.2678L76.6757 30.4533V31.0871C77.607 31.0871 77.9419 31.0871 77.9419 32.1151V38.2753L76.6757 38.3719V39.0057C77.5878 39.0057 78.0882 38.9284 79.1658 38.9284C80.2434 38.9284 80.7669 39.0057 81.6598 39.0057V38.3719L80.3935 38.2753V30.2678V30.2678Z" fill="#1D1D1D"/>
<path d="M77.6764 27.2266C77.6764 28.1425 78.4038 28.6487 79.1812 28.6487C79.9433 28.6487 80.6668 28.1425 80.6668 27.2266C80.6668 26.3107 79.9433 25.8082 79.1812 25.8082C78.3999 25.8044 77.6764 26.3107 77.6764 27.2266Z" fill="#1D1D1D"/>
<path d="M91.4548 33.4253C91.4548 31.0718 90.3387 30.1211 88.7761 30.1211C87.3059 30.1211 86.3013 30.867 85.6702 31.8911H85.6509L85.6163 30.268L82.0485 30.4534V31.0911C82.9953 31.0911 83.3109 31.0911 83.3109 32.0805V38.2754L82.0485 38.372V39.0058C82.9568 39.0058 83.461 38.9324 84.5387 38.9324C85.6163 38.9324 86.1012 39.0058 86.9941 39.0058V38.372L85.7664 38.2754V34.1326C85.7664 32.3046 86.9017 31.2225 87.8139 31.2225C88.7953 31.2225 89.0224 31.9491 89.0224 33.9664V38.2754L87.7947 38.372V39.0058C88.7068 39.0058 89.1725 38.9324 90.2501 38.9324C91.3278 38.9324 91.8281 39.0058 92.7403 39.0058V38.372L91.4586 38.2754V33.4253H91.4548Z" fill="#1D1D1D"/>
<path d="M101.315 38.2213C100.903 38.2213 100.718 37.8271 100.738 37.2513L100.83 33.7229C100.865 31.9684 100.591 30.1211 97.3354 30.1211C95.3264 30.1211 93.6368 30.867 93.6368 32.1925C93.6368 32.9384 94.1602 33.3867 94.8838 33.3867C95.6458 33.3867 96.1308 32.9229 96.1308 32.2659C96.1308 31.6321 95.7228 31.408 95.7228 31.408C95.8152 31.2225 96.2232 30.7549 97.1545 30.7549C98.363 30.7549 98.4939 31.7442 98.44 33.236V34.1519C95.9114 34.1325 93.0634 34.3567 93.0634 36.7837C93.0634 38.743 94.6067 39.342 95.9114 39.342C97.2662 39.342 98.0474 38.743 98.4554 37.9585H98.4939C98.8095 38.8899 99.5715 39.2647 100.484 39.2647C102.397 39.2647 102.662 37.5643 102.662 37.5643L102.05 37.4136C102.039 37.4175 101.854 38.2213 101.315 38.2213ZM98.3553 36.2233C98.3169 37.5682 97.5009 38.2058 96.7774 38.2058C95.9961 38.2058 95.5689 37.6455 95.5689 36.5402C95.5689 35.3654 96.0885 34.7509 98.3938 34.7895L98.3553 36.2233Z" fill="#1D1D1D"/>
<path d="M106.672 27.2266C106.672 26.3106 105.945 25.8082 105.187 25.8082C104.405 25.8082 103.682 26.3106 103.682 27.2266C103.682 28.1425 104.409 28.6487 105.187 28.6487C105.945 28.6449 106.672 28.1425 106.672 27.2266Z" fill="#1D1D1D"/>
<path d="M106.392 30.2678L102.674 30.4533V31.0871C103.605 31.0871 103.94 31.0871 103.94 32.1151V38.2753L102.674 38.3719V39.0057C103.586 39.0057 104.09 38.9284 105.164 38.9284C106.245 38.9284 106.765 39.0057 107.658 39.0057V38.3719L106.392 38.2753V30.2678V30.2678Z" fill="#1D1D1D"/>
</g>
</svg>
