<svg width="74" height="42" viewBox="0 0 74 42" fill="none" xmlns="http://www.w3.org/2000/svg">
<path d="M37.7001 14.8402H38.6817C38.7874 14.8402 38.8794 14.7515 38.8794 14.6425V11.6124H41.6914V14.6425C41.6914 14.7515 41.78 14.8402 41.889 14.8402H42.8707C42.9797 14.8402 43.0683 14.7515 43.0683 14.6425V7.6689C43.0683 7.55983 42.9797 7.47803 42.8707 7.47803H41.889C41.78 7.47803 41.6914 7.55642 41.6914 7.6689V10.4024H38.8794V7.6689C38.8794 7.55983 38.7908 7.47803 38.6817 7.47803H37.7001C37.5911 7.47803 37.5024 7.55642 37.5024 7.6689V14.6425C37.5024 14.7481 37.5911 14.8402 37.7001 14.8402ZM45.9621 14.9185C46.4358 14.9185 46.9028 14.7618 47.3595 14.4823V14.6425C47.3595 14.7515 47.4481 14.8402 47.5572 14.8402H48.3991C48.5081 14.8402 48.5968 14.7515 48.5968 14.6425V11.0773C48.5968 9.80937 47.8231 9.18563 46.4154 9.18563C45.7337 9.18563 45.1577 9.26403 44.7623 9.34583C44.6328 9.37651 44.5749 9.44467 44.5749 9.55374V10.1877C44.5749 10.3274 44.6532 10.3547 44.7521 10.3547H44.8032C45.1304 10.3138 45.7848 10.2763 46.4188 10.2763C47.0016 10.2763 47.2913 10.4365 47.2913 11.0807V11.517H46.6676C44.943 11.517 44.2476 12.0998 44.2476 13.2314V13.2723C44.2476 14.6016 45.1406 14.9185 45.9621 14.9185ZM45.5667 13.2246C45.5667 12.669 45.7644 12.3827 46.6676 12.3827H47.2913V13.6029C47.005 13.7631 46.6369 13.879 46.2825 13.879C45.7882 13.879 45.5667 13.7495 45.5667 13.2655V13.2246ZM50.5191 12.035L51.8756 12.8667C52.1926 13.0644 52.3119 13.1837 52.3119 13.3711C52.3119 13.6404 52.2233 13.8483 51.6098 13.8483C51.3132 13.8483 50.4202 13.8006 49.9465 13.7392H49.9056C49.8067 13.7392 49.7386 13.8176 49.7386 13.896V14.4925C49.7386 14.6118 49.8067 14.6902 49.926 14.7209C50.4782 14.8708 51.3132 14.9185 51.6984 14.9185C52.997 14.9185 53.6412 14.2369 53.6412 13.3745C53.6412 12.8701 53.5219 12.3725 52.6902 11.868L51.3916 11.0739C51.1428 10.9239 50.9963 10.8251 50.9963 10.6683C50.9963 10.3615 51.2042 10.2525 51.6813 10.2525C52.2471 10.2525 53.0379 10.3308 53.314 10.3717H53.3549C53.4537 10.3717 53.5117 10.3036 53.5117 10.1843V9.61168C53.5117 9.49239 53.4537 9.41399 53.3344 9.38332C52.83 9.27425 52.3733 9.18563 51.5689 9.18563C50.3112 9.18563 49.6874 9.67985 49.6874 10.6717C49.6874 11.2443 50.0317 11.7385 50.5191 12.035ZM57.5336 11.868L56.235 11.0739C55.9862 10.9239 55.8396 10.8251 55.8396 10.6683C55.8396 10.3615 56.0475 10.2525 56.5247 10.2525C57.0905 10.2525 57.8812 10.3308 58.1573 10.3717H58.1982C58.297 10.3717 58.3584 10.3036 58.3584 10.1843V9.61168C58.3584 9.49239 58.297 9.41399 58.1777 9.38332C57.6733 9.27425 57.2166 9.18563 56.4156 9.18563C55.1579 9.18563 54.5342 9.67985 54.5342 10.6717C54.5342 11.2477 54.8784 11.7419 55.3658 12.0385L56.7224 12.8701C57.0393 13.0678 57.1552 13.1871 57.1552 13.3745C57.1552 13.6438 57.0666 13.8517 56.4531 13.8517C56.1532 13.8517 55.2636 13.804 54.7898 13.7427H54.7489C54.6501 13.7427 54.5819 13.821 54.5819 13.8994V14.4959C54.5819 14.6152 54.6501 14.6936 54.7693 14.7243C55.3215 14.8742 56.1566 14.922 56.5417 14.922C57.8403 14.922 58.4845 14.2403 58.4845 13.378C58.4845 12.8667 58.3652 12.3725 57.5336 11.868ZM61.7736 14.9185C63.3278 14.9185 64.139 13.8688 64.139 12.4509V11.6499C64.139 10.232 63.3278 9.18222 61.7736 9.18222C60.2194 9.18222 59.4082 10.232 59.4082 11.6499V12.4509C59.4048 13.8688 60.216 14.9185 61.7736 14.9185ZM60.7136 11.6499C60.7136 10.8387 61.0783 10.3104 61.7736 10.3104C62.4655 10.3104 62.8336 10.8353 62.8336 11.6499V12.4509C62.8336 13.2655 62.4655 13.7904 61.7736 13.7904C61.0783 13.7904 60.7136 13.2655 60.7136 12.4509V11.6499ZM42.615 19.3835V19.2949C42.615 17.543 41.2858 17.0079 39.7622 17.0079C39.0396 17.0079 38.3375 17.059 37.8194 17.1374C37.6217 17.1681 37.5024 17.2362 37.5024 17.4339V24.2507C37.5024 24.3598 37.5911 24.4484 37.7001 24.4484H38.692C38.801 24.4484 38.8794 24.3598 38.8794 24.2507V21.6638C39.1078 21.674 39.5032 21.7046 39.7622 21.7046C41.2858 21.7012 42.615 21.1354 42.615 19.3835ZM41.2483 19.3835C41.2483 20.1777 40.8324 20.5731 39.7622 20.5731C39.5952 20.5731 39.0396 20.5526 38.8794 20.5424V18.1838C39.0601 18.1633 39.5509 18.1429 39.7622 18.1429C40.7506 18.1429 41.2483 18.4599 41.2483 19.2915V19.3835ZM43.7841 24.445H44.7044C44.8134 24.445 44.8918 24.3462 44.8918 24.2371V17.1033C44.8918 16.9943 44.8134 16.9056 44.7044 16.9056H43.7841C43.675 16.9056 43.5864 16.9943 43.5864 17.1033V24.2371C43.583 24.3462 43.675 24.445 43.7841 24.445ZM49.0637 24.0871V24.2473C49.0637 24.3564 49.1523 24.445 49.2614 24.445H50.1033C50.2123 24.445 50.301 24.3564 50.301 24.2473V20.6821C50.301 19.4142 49.5272 18.7905 48.1196 18.7905C47.4345 18.7905 46.8619 18.8689 46.4665 18.9507C46.337 18.9813 46.2791 19.0495 46.2791 19.1586V19.7925C46.2791 19.9289 46.3574 19.9596 46.4563 19.9596H46.5074C46.8346 19.9187 47.489 19.8812 48.123 19.8812C48.7058 19.8812 48.9955 20.0414 48.9955 20.6855V21.1184H48.3718C46.6472 21.1184 45.9553 21.7046 45.9553 22.8328V22.8737C45.9553 24.2098 46.8483 24.5268 47.6697 24.5268C48.14 24.5234 48.607 24.3666 49.0637 24.0871ZM47.2709 22.8703V22.8294C47.2709 22.2738 47.4686 21.9876 48.3718 21.9876H48.9955V23.2078C48.7092 23.3645 48.3411 23.4838 47.9833 23.4838C47.489 23.4838 47.2709 23.3543 47.2709 22.8703ZM52.0256 22.9487C52.0256 24.2746 52.4823 24.5234 53.6003 24.5234C53.8184 24.5234 54.0331 24.4927 54.2751 24.4552C54.4047 24.4348 54.4626 24.3768 54.4626 24.2746V23.6508C54.4626 23.552 54.3842 23.5009 54.2547 23.5009H53.7298C53.3719 23.5009 53.3412 23.4395 53.3412 22.9487V19.8369H53.9479C54.057 19.8369 54.1456 19.7482 54.1456 19.6392V19.0563C54.1456 18.9473 54.057 18.8586 53.9479 18.8586H53.3412V17.8395C53.3412 17.7407 53.2731 17.6896 53.1844 17.6896H53.1435L52.2233 17.8498C52.1142 17.8702 52.0256 17.9384 52.0256 18.0475V18.8586H51.0951C50.986 18.8586 50.8974 18.9473 50.8974 19.0563V19.5028C50.8974 19.6119 50.986 19.6835 51.0951 19.7005L52.0256 19.8369V22.9487ZM57.9187 23.5043H57.3938C57.0359 23.5043 57.0053 23.4429 57.0053 22.9521V19.8403H57.8983C58.0073 19.8403 58.0959 19.7516 58.0959 19.6426V19.0597C58.0959 18.9507 58.0073 18.8621 57.8983 18.8621H57.0053V17.8429C57.0053 17.7441 56.9371 17.693 56.8451 17.693H56.8076L55.8873 17.8532C55.7782 17.8736 55.6896 17.9418 55.6896 18.0509V18.8621H55.0454C54.9364 18.8621 54.8477 18.9507 54.8477 19.0597V19.5062C54.8477 19.6153 54.9364 19.6869 55.0454 19.7039L55.6896 19.8403V22.9521C55.6896 24.278 56.1463 24.5268 57.2643 24.5268C57.4824 24.5268 57.7006 24.4961 57.9392 24.4586C58.0687 24.4382 58.13 24.3802 58.13 24.278V23.6543C58.1266 23.5554 58.0482 23.5043 57.9187 23.5043ZM63.7743 24.2371V21.0059C63.7743 19.7482 63.488 18.7871 62.0599 18.7871C61.4055 18.7871 61.0272 18.8961 60.4546 19.2642V19.0563C60.4546 18.9473 60.3659 18.8586 60.2569 18.8586H59.3945C59.2855 18.8586 59.1969 18.9473 59.1969 19.0563V24.2371C59.1969 24.3462 59.2855 24.445 59.3945 24.445H60.3046C60.4137 24.445 60.5023 24.3462 60.5023 24.2371V20.2561C60.9181 20.0379 61.2862 19.8982 61.6202 19.8982C62.3837 19.8982 62.4621 20.147 62.4621 21.0059V24.2371C62.4621 24.3462 62.5507 24.445 62.6598 24.445H63.5732C63.6823 24.445 63.7743 24.3462 63.7743 24.2371ZM69.3607 22.1068C69.5004 22.1068 69.5584 22.0182 69.5584 21.858V21.3059C69.5584 19.83 68.7267 18.7905 67.1998 18.7905C65.683 18.7905 64.8207 19.7619 64.8207 21.3059V22.0387C64.8207 23.9883 66.2284 24.5234 67.2168 24.5234C68.1098 24.5234 68.4949 24.4757 69.1391 24.3564C69.3198 24.3257 69.347 24.2575 69.347 24.1008V23.4463C69.347 23.3475 69.2687 23.2964 69.1664 23.2964H69.1357C68.7199 23.3373 68.0382 23.3952 67.3122 23.3952C66.3613 23.3952 66.1227 22.7101 66.1227 22.1375V22.1068H69.3607ZM66.1397 21.1355C66.1397 20.3515 66.5862 19.9152 67.1998 19.9152C67.8133 19.9152 68.2393 20.3617 68.2393 21.1355V21.1764H66.1397V21.1355ZM73.2837 18.7871C72.885 18.7871 72.3532 18.8859 71.8658 19.2642V19.0563C71.8658 18.9473 71.7772 18.8586 71.6682 18.8586H70.8058C70.6968 18.8586 70.6081 18.9473 70.6081 19.0563V24.2371C70.6081 24.3462 70.6968 24.445 70.8058 24.445H71.7193C71.8284 24.445 71.917 24.3462 71.917 24.2371V20.2561C72.3328 20.0379 72.7486 19.8982 73.2837 19.8982C73.3928 19.8982 73.4814 19.8096 73.4814 19.7005V18.9848C73.4814 18.8791 73.3928 18.7871 73.2837 18.7871ZM38.7022 26.6911H37.7138C37.6047 26.6911 37.5127 26.7695 37.5127 26.8786V33.8522C37.5127 33.9612 37.6013 34.0499 37.7138 34.0499H38.7022C38.8113 34.0499 38.9033 33.9612 38.9033 33.8522V26.8786C38.8999 26.7695 38.8113 26.6911 38.7022 26.6911ZM43.491 28.3953C42.8332 28.3953 42.4514 28.5044 41.872 28.8725V28.6646C41.872 28.5555 41.7834 28.4669 41.6709 28.4669H40.8018C40.6927 28.4669 40.6007 28.5555 40.6007 28.6646V33.8453C40.6007 33.9544 40.6893 34.0532 40.8018 34.0532H41.722C41.8311 34.0532 41.9231 33.9544 41.9231 33.8453V29.8643C42.3424 29.6462 42.7139 29.5065 43.0547 29.5065C43.825 29.5065 43.9068 29.7553 43.9068 30.6142V33.8453C43.9068 33.9544 43.9954 34.0532 44.1079 34.0532H45.0282C45.1372 34.0532 45.2293 33.9544 45.2293 33.8453V30.6142C45.2224 29.3565 44.9361 28.3953 43.491 28.3953ZM49.6568 31.0777L48.3445 30.287C48.0923 30.137 47.9423 30.0382 47.9423 29.8814C47.9423 29.5746 48.1537 29.4622 48.6342 29.4622C49.2034 29.4622 50.0044 29.5405 50.2839 29.5814H50.3248C50.4237 29.5814 50.485 29.5133 50.485 29.394V28.818C50.485 28.6987 50.4237 28.6203 50.3044 28.5896C49.7931 28.4805 49.333 28.3919 48.5252 28.3919C47.2539 28.3919 46.6233 28.8861 46.6233 29.878C46.6233 30.4506 46.9744 30.9482 47.4652 31.2447L48.8353 32.0764C49.1557 32.2741 49.275 32.39 49.275 32.5808C49.275 32.8501 49.1864 33.058 48.5661 33.058C48.2661 33.058 47.3663 33.0069 46.8857 32.9489H46.8448C46.746 32.9489 46.6744 33.0273 46.6744 33.1057V33.7022C46.6744 33.8215 46.746 33.8999 46.8653 33.9271C47.4277 34.0771 48.2661 34.1248 48.6581 34.1248C49.9703 34.1248 50.6179 33.4398 50.6179 32.5808C50.6179 32.0798 50.4952 31.5856 49.6568 31.0777ZM54.858 33.1091H54.3263C53.9684 33.1091 53.9377 33.0512 53.9377 32.5536V29.4417H54.8375C54.9466 29.4417 55.0386 29.3531 55.0386 29.244V28.6612C55.0386 28.5521 54.9466 28.4635 54.8375 28.4635H53.9377V27.4444C53.9377 27.3455 53.8695 27.2944 53.7775 27.2944H53.7366L52.8061 27.4546C52.6971 27.4751 52.605 27.5432 52.605 27.6523V28.4635H51.6643C51.5552 28.4635 51.4666 28.5521 51.4666 28.6612V29.1077C51.4666 29.2168 51.5552 29.2849 51.6643 29.3054L52.605 29.4451V32.557C52.605 33.8862 53.0652 34.1317 54.1967 34.1317C54.4183 34.1317 54.6364 34.101 54.8784 34.0635C55.0079 34.043 55.0693 33.9851 55.0693 33.8828V33.2591C55.0693 33.1603 54.9875 33.1091 54.858 33.1091ZM57.4211 28.4635H56.5008C56.3917 28.4635 56.3031 28.5521 56.3031 28.6612V33.8419C56.3031 33.951 56.3917 34.0499 56.5008 34.0499H57.4211C57.5301 34.0499 57.6222 33.951 57.6222 33.8419V28.6612C57.6222 28.5521 57.5301 28.4635 57.4211 28.4635ZM57.4483 26.4525H56.477C56.3679 26.4525 56.269 26.5412 56.269 26.6502V27.5228C56.269 27.6318 56.3679 27.7205 56.477 27.7205H57.4483C57.5574 27.7205 57.6494 27.6318 57.6494 27.5228V26.6502C57.6494 26.5412 57.5608 26.4525 57.4483 26.4525ZM62.1928 33.1091H61.6645C61.3032 33.1091 61.276 33.0512 61.276 32.5536V29.4417H62.1758C62.2849 29.4417 62.3769 29.3531 62.3769 29.244V28.6612C62.3769 28.5521 62.2883 28.4635 62.1758 28.4635H61.276V27.4444C61.276 27.3455 61.2044 27.2944 61.1158 27.2944H61.0749L60.1444 27.4546C60.0319 27.4751 59.9433 27.5432 59.9433 27.6523V28.4635H59.0026C58.8935 28.4635 58.8015 28.5521 58.8015 28.6612V29.1077C58.8015 29.2168 58.8901 29.2849 59.0026 29.3054L59.9433 29.4451V32.557C59.9433 33.8862 60.4034 34.1317 61.535 34.1317C61.7566 34.1317 61.9747 34.101 62.2167 34.0635C62.3462 34.043 62.4042 33.9851 62.4042 33.8828V33.2591C62.4007 33.1603 62.3223 33.1091 62.1928 33.1091ZM68.0246 28.4635H67.1043C66.9952 28.4635 66.9032 28.5623 66.9032 28.6714V32.6354C66.6237 32.7853 66.1432 33.0307 65.775 33.0307C65.4649 33.0307 65.2945 32.9694 65.1547 32.8535C64.9638 32.6831 64.9229 32.3968 64.9229 31.9026V28.6714C64.9229 28.5623 64.8343 28.4635 64.7253 28.4635H63.805C63.6959 28.4635 63.6039 28.5623 63.6039 28.6714V31.9026C63.6039 32.724 63.7368 33.3375 64.1049 33.7056C64.3947 33.9919 64.8377 34.1214 65.3354 34.1214C65.9761 34.1214 66.3852 33.9612 66.9066 33.6272V33.8522C66.9066 33.9612 66.9953 34.0499 67.1077 34.0499H68.028C68.1371 34.0499 68.2257 33.9612 68.2257 33.8522V28.6714C68.2257 28.5623 68.1371 28.4635 68.0246 28.4635ZM72.7691 33.1091H72.2374C71.8795 33.1091 71.8488 33.0512 71.8488 32.5536V29.4417H72.7486C72.8577 29.4417 72.9463 29.3531 72.9463 29.244V28.6612C72.9463 28.5521 72.8577 28.4635 72.7486 28.4635H71.8488V27.4444C71.8488 27.3455 71.7772 27.2944 71.6886 27.2944H71.6477L70.7172 27.4546C70.6081 27.4751 70.5161 27.5432 70.5161 27.6523V28.4635H69.5754C69.4663 28.4635 69.3743 28.5521 69.3743 28.6612V29.1077C69.3743 29.2168 69.4629 29.2849 69.5754 29.3054L70.5161 29.4451V32.557C70.5161 33.8862 70.9763 34.1317 72.1078 34.1317C72.3294 34.1317 72.5475 34.101 72.7895 34.0635C72.919 34.043 72.9804 33.9851 72.9804 33.8828V33.2591C72.977 33.1603 72.8986 33.1091 72.7691 33.1091Z" fill="#1D1D1D"/>
<path d="M29.7825 4.25342H0V34.0359H29.7825V4.25342Z" fill="#3E3E3E"/>
<path d="M34.0362 0H8.50739V25.5289H34.0362V0Z" fill="#ACACAC"/>
<path d="M29.7825 4.25342H8.51068V25.5252H29.7825V4.25342Z" fill="#6E6E6E"/>
<path d="M17.1612 7.55983H16.1796C16.0705 7.55983 15.9819 7.63823 15.9819 7.7473V10.4808H13.17V7.7473C13.17 7.63823 13.0814 7.55983 12.9723 7.55983H11.9907C11.8816 7.55983 11.793 7.63823 11.793 7.7473V14.7209C11.793 14.8299 11.8816 14.9185 11.9907 14.9185H12.9723C13.0814 14.9185 13.17 14.8299 13.17 14.7209V11.6908H15.9819V14.7209C15.9819 14.8299 16.0705 14.9185 16.1796 14.9185H17.1612C17.2703 14.9185 17.3589 14.8299 17.3589 14.7209V7.7473C17.3589 7.63823 17.2703 7.55983 17.1612 7.55983ZM21.1218 7.48145C20.3992 7.48145 19.6971 7.52915 19.179 7.61096C18.9813 7.64163 18.8654 7.7098 18.8654 7.9109V14.7243C18.8654 14.8333 18.954 14.922 19.0631 14.922H20.0515C20.1606 14.922 20.2424 14.8333 20.2424 14.7243V12.1407C20.4674 12.1475 20.8661 12.1782 21.1252 12.1782C22.6521 12.1782 23.978 11.6124 23.978 9.8605V9.77188C23.9746 8.01656 22.6487 7.48145 21.1218 7.48145ZM22.6078 9.85709C22.6078 10.6512 22.192 11.0466 21.1218 11.0466C20.9548 11.0466 20.3992 11.0262 20.239 11.0159V8.65733C20.4162 8.63688 20.9139 8.61644 21.1218 8.61644C22.1102 8.61644 22.6078 8.93341 22.6078 9.76506V9.85709ZM26.2991 7.55983H25.3175C25.2084 7.55983 25.1198 7.63823 25.1198 7.7473V14.7209C25.1198 14.8299 25.2084 14.9185 25.3175 14.9185H26.2991C26.4082 14.9185 26.4968 14.8299 26.4968 14.7209V7.7473C26.4968 7.63823 26.4082 7.55983 26.2991 7.55983Z" fill="white"/>
<path d="M2.05617 39.4603V38.9113C2.05617 38.0324 1.57703 37.6484 0.825012 37.6484C0.517223 37.6484 0.203083 37.6706 0.0856793 37.6897C0.031737 37.6992 0 37.7341 0 37.7912V40.5835C0 40.6438 0.031737 40.6755 0.0856793 40.6851C0.203083 40.7041 0.517223 40.7263 0.825012 40.7263C1.57703 40.7263 2.05617 40.3329 2.05617 39.4603ZM1.68492 39.4603C1.68492 40.1932 1.31049 40.409 0.821836 40.409C0.631451 40.409 0.50136 40.409 0.371264 40.3995V37.9753C0.504533 37.9657 0.631451 37.9626 0.821836 37.9626C1.31049 37.9626 1.68492 38.1752 1.68492 38.9113V39.4603ZM2.97635 38.0229V37.6992C2.97635 37.6548 2.93829 37.6167 2.89387 37.6167H2.68761C2.64318 37.6167 2.6051 37.6548 2.6051 37.6992V38.0229C2.6051 38.0673 2.64318 38.1022 2.68761 38.1022H2.89387C2.93829 38.1022 2.97635 38.0673 2.97635 38.0229ZM2.96684 40.6153V38.5432C2.96684 38.4988 2.93193 38.4607 2.88434 38.4607H2.69078C2.64636 38.4607 2.61146 38.4988 2.61146 38.5432V40.6153C2.61146 40.6597 2.64636 40.6978 2.69078 40.6978H2.88434C2.93193 40.6978 2.96684 40.6597 2.96684 40.6153ZM5.3879 38.6575V38.5528C5.3879 38.5052 5.34347 38.4639 5.29587 38.4639H4.40741C3.70933 38.4639 3.50627 38.8225 3.50627 39.1842V39.2159C3.50627 39.4254 3.56655 39.5713 3.69347 39.6887C3.57924 39.7522 3.52848 39.8696 3.52848 39.9806V39.9838C3.52848 40.1107 3.58559 40.244 3.71568 40.3011L3.74425 40.3138C3.61098 40.4154 3.49039 40.6026 3.49039 40.831V40.8659C3.49039 41.2626 3.78231 41.5132 4.42645 41.5132C5.0928 41.5132 5.353 41.2721 5.353 40.8818V40.8501C5.353 40.4661 4.97223 40.3551 4.57242 40.2535L3.96635 40.0981C3.87116 40.0727 3.83944 40.0378 3.83944 39.968C3.83944 39.9077 3.87117 39.8632 3.94098 39.8283C4.05838 39.8791 4.19799 39.9108 4.41376 39.9108C5.03886 39.9108 5.31491 39.6633 5.31491 39.2159V39.1842C5.31491 38.9653 5.24829 38.8415 5.17531 38.7654L5.32126 38.7368C5.35934 38.7273 5.3879 38.7082 5.3879 38.6575ZM4.95319 39.2128C4.95319 39.4571 4.84212 39.6284 4.40423 39.6284C3.93779 39.6284 3.8553 39.3936 3.8553 39.2128V39.181C3.8553 38.9526 3.94731 38.7463 4.40423 38.7463C4.84212 38.7463 4.95319 38.9367 4.95319 39.181V39.2128ZM4.98491 40.8818C4.98491 41.1071 4.88021 41.2372 4.41694 41.2372C3.96636 41.2372 3.82991 41.0944 3.82991 40.8659V40.831C3.82991 40.6184 3.91241 40.5169 4.02981 40.4154L4.48991 40.5328C4.85482 40.6248 4.98491 40.6914 4.98491 40.8501V40.8818ZM6.20972 38.0229V37.6992C6.20972 37.6548 6.17166 37.6167 6.12723 37.6167H5.92098C5.87655 37.6167 5.83847 37.6548 5.83847 37.6992V38.0229C5.83847 38.0673 5.87338 38.1022 5.92098 38.1022H6.12723C6.17166 38.1022 6.20972 38.0673 6.20972 38.0229ZM6.20021 40.6153V38.5432C6.20021 38.4988 6.16213 38.4607 6.11771 38.4607H5.92415C5.87973 38.4607 5.84483 38.4988 5.84483 38.5432V40.6153C5.84483 40.6597 5.8829 40.6978 5.92415 40.6978H6.11771C6.16213 40.6978 6.20021 40.6597 6.20021 40.6153ZM7.99299 40.6375V40.4947C7.99299 40.4534 7.96444 40.4376 7.90733 40.4376H7.67885C7.51703 40.4376 7.45991 40.4058 7.45991 40.1805V38.7622H7.8978C7.94222 38.7622 7.9803 38.7273 7.9803 38.6829V38.5432C7.9803 38.4988 7.94222 38.4607 7.8978 38.4607H7.45991V38.0165C7.45991 37.9753 7.43135 37.9467 7.39962 37.9467H7.38694L7.17435 37.9784C7.12992 37.9879 7.10135 38.0197 7.10135 38.0609V38.4576H6.70789C6.66347 38.4576 6.62857 38.4861 6.62857 38.5305V38.6416C6.62857 38.686 6.6603 38.7114 6.70789 38.7146L7.10135 38.759V40.1774C7.10135 40.6248 7.27906 40.7232 7.65348 40.7232C7.72964 40.7232 7.83751 40.7136 7.91684 40.7041C7.97078 40.6978 7.99299 40.6724 7.99299 40.6375ZM9.96665 40.6153V39.1969C9.96665 38.7178 9.73819 38.4322 9.17338 38.4322C8.89732 38.4322 8.71012 38.4576 8.54512 38.4861C8.488 38.4956 8.45944 38.5178 8.45944 38.5623V38.7051C8.45944 38.759 8.49751 38.7685 8.53241 38.7685H8.55145C8.71328 38.7527 8.91002 38.7368 9.17338 38.7368C9.49069 38.7368 9.60809 38.8542 9.60809 39.1969V39.3587H9.30665C8.58318 39.3587 8.32618 39.5777 8.32618 40.0155V40.0631C8.32618 40.5708 8.64347 40.7232 8.98934 40.7232C9.2178 40.7232 9.42089 40.6375 9.61444 40.5232V40.6121C9.61444 40.6565 9.65252 40.6946 9.69695 40.6946H9.88415C9.92857 40.6978 9.96665 40.6597 9.96665 40.6153ZM9.60809 40.2694C9.41453 40.3741 9.24637 40.4312 9.05916 40.4312C8.82435 40.4312 8.68473 40.3551 8.68473 40.06V40.0124C8.68473 39.7236 8.81482 39.6126 9.30665 39.6126H9.60809V40.2694ZM10.9027 40.6153V37.7182C10.9027 37.6738 10.871 37.6421 10.8297 37.6421H10.6171C10.5727 37.6421 10.5442 37.677 10.5442 37.7182V40.6153C10.5442 40.6597 10.5759 40.6978 10.6171 40.6978H10.8297C10.8773 40.6978 10.9027 40.6565 10.9027 40.6153ZM14.282 40.6502V40.4439C14.282 40.4154 14.2662 40.3963 14.2376 40.3963H13.4539C13.0223 40.3963 12.9525 40.2821 12.9525 39.9743V39.2921H14.1995C14.244 39.2921 14.282 39.2572 14.282 39.2128V39.0573C14.282 39.0129 14.2471 38.978 14.1995 38.978H12.9525V38.4131C12.9525 38.1053 13.0223 37.9911 13.4539 37.9911H14.2376C14.2662 37.9911 14.282 37.9721 14.282 37.9435V37.7404C14.282 37.7151 14.2662 37.6865 14.2408 37.6833C14.0694 37.6675 13.6887 37.658 13.4475 37.658C12.8795 37.658 12.5813 37.8737 12.5813 38.4131V39.9775C12.5813 40.5169 12.8764 40.7327 13.4475 40.7327C13.6887 40.7327 14.0853 40.7295 14.2408 40.7136C14.2662 40.7009 14.282 40.6724 14.282 40.6502ZM16.5032 40.6153V39.2794C16.5032 38.74 16.2843 38.4354 15.7956 38.4354C15.5544 38.4354 15.3736 38.4956 15.1483 38.6226V38.5432C15.1483 38.4988 15.1165 38.4607 15.0721 38.4607H14.8691C14.8246 38.4607 14.7929 38.4988 14.7929 38.5432V40.6153C14.7929 40.6597 14.831 40.6978 14.8691 40.6978H15.069C15.1134 40.6978 15.1515 40.6565 15.1515 40.6153V38.8986C15.3387 38.8066 15.5291 38.74 15.7004 38.74C16.0082 38.74 16.1478 38.8669 16.1478 39.2762V40.6121C16.1478 40.6565 16.1859 40.6946 16.2303 40.6946H16.4239C16.4683 40.6978 16.5032 40.6597 16.5032 40.6153ZM18.9147 38.6575V38.5528C18.9147 38.5052 18.8703 38.4639 18.8227 38.4639H17.9311C17.233 38.4639 17.0299 38.8225 17.0299 39.1842V39.2159C17.0299 39.4254 17.0902 39.5713 17.2171 39.6887C17.1029 39.7522 17.049 39.8696 17.049 39.9806V39.9838C17.049 40.1107 17.1061 40.244 17.2362 40.3011L17.2647 40.3138C17.1315 40.4154 17.0109 40.6026 17.0109 40.831V40.8659C17.0109 41.2626 17.3028 41.5132 17.947 41.5132C18.6133 41.5132 18.8735 41.2721 18.8735 40.8818V40.8501C18.8735 40.4661 18.4927 40.3551 18.0929 40.2535L17.4869 40.0981C17.3948 40.0727 17.3599 40.0378 17.3599 39.968C17.3599 39.9077 17.3917 39.8632 17.4615 39.8283C17.5789 39.8791 17.7185 39.9108 17.9342 39.9108C18.5625 39.9108 18.8354 39.6633 18.8354 39.2159V39.1842C18.8354 38.9653 18.7719 38.8415 18.6958 38.7654L18.8417 38.7368C18.8862 38.7273 18.9147 38.7082 18.9147 38.6575ZM18.48 39.2128C18.48 39.4571 18.369 39.6284 17.9311 39.6284C17.4646 39.6284 17.3821 39.3936 17.3821 39.2128V39.181C17.3821 38.9526 17.4741 38.7463 17.9311 38.7463C18.369 38.7463 18.48 38.9367 18.48 39.181V39.2128ZM18.5118 40.8818C18.5118 41.1071 18.407 41.2372 17.9438 41.2372C17.4932 41.2372 17.3567 41.0944 17.3567 40.8659V40.831C17.3567 40.6184 17.4392 40.5169 17.5567 40.4154L18.0168 40.5328C18.3817 40.6248 18.5118 40.6914 18.5118 40.8501V40.8818ZM19.7556 38.0229V37.6992C19.7556 37.6548 19.7175 37.6167 19.6731 37.6167H19.4669C19.4224 37.6167 19.3843 37.6548 19.3843 37.6992V38.0229C19.3843 38.0673 19.4224 38.1022 19.4669 38.1022H19.6731C19.7175 38.1022 19.7556 38.0673 19.7556 38.0229ZM19.7461 40.6153V38.5432C19.7461 38.4988 19.7112 38.4607 19.6636 38.4607H19.4669C19.4224 38.4607 19.3875 38.4988 19.3875 38.5432V40.6153C19.3875 40.6597 19.4224 40.6978 19.4669 40.6978H19.6636C19.7112 40.6978 19.7461 40.6597 19.7461 40.6153ZM22.0624 40.6153V39.2794C22.0624 38.74 21.8435 38.4354 21.3548 38.4354C21.1137 38.4354 20.9328 38.4956 20.7075 38.6226V38.5432C20.7075 38.4988 20.6758 38.4607 20.6314 38.4607H20.4283C20.3839 38.4607 20.3521 38.4988 20.3521 38.5432V40.6153C20.3521 40.6597 20.3902 40.6978 20.4283 40.6978H20.6282C20.6726 40.6978 20.7107 40.6565 20.7107 40.6153V38.8986C20.8979 38.8066 21.0883 38.74 21.2596 38.74C21.5706 38.74 21.707 38.8669 21.707 39.2762V40.6121C21.707 40.6565 21.742 40.6946 21.7895 40.6946H21.9831C22.0275 40.6978 22.0624 40.6597 22.0624 40.6153ZM24.3693 39.603V39.3841C24.3693 38.8066 24.0678 38.4322 23.4745 38.4322C22.8938 38.4322 22.5733 38.8003 22.5733 39.3841V39.749C22.5733 40.5074 23.027 40.7263 23.4967 40.7263C23.7696 40.7263 23.9917 40.7009 24.2233 40.6565C24.2868 40.6438 24.3058 40.6153 24.3058 40.5645V40.4249C24.3058 40.3836 24.2741 40.3678 24.2392 40.3678H24.2201C24.0329 40.3963 23.7315 40.4122 23.4967 40.4122C23.1222 40.4122 22.9318 40.2345 22.9318 39.749V39.6919H24.2931C24.3407 39.6919 24.3693 39.657 24.3693 39.603ZM24.0075 39.4222H22.9287V39.3841C22.9287 38.9462 23.1254 38.7463 23.4745 38.7463C23.833 38.7463 24.0075 38.9272 24.0075 39.3841V39.4222ZM26.6126 39.603V39.3841C26.6126 38.8066 26.3112 38.4322 25.7178 38.4322C25.1371 38.4322 24.8167 38.8003 24.8167 39.3841V39.749C24.8167 40.5074 25.2704 40.7263 25.74 40.7263C26.0129 40.7263 26.235 40.7009 26.4667 40.6565C26.5301 40.6438 26.5492 40.6153 26.5492 40.5645V40.4249C26.5492 40.3836 26.5174 40.3678 26.4825 40.3678H26.4635C26.2763 40.3963 25.9748 40.4122 25.74 40.4122C25.3656 40.4122 25.1752 40.2345 25.1752 39.749V39.6919H26.5365C26.5841 39.6919 26.6126 39.657 26.6126 39.603ZM26.2509 39.4222H25.172V39.3841C25.172 38.9462 25.3688 38.7463 25.7178 38.7463C26.0764 38.7463 26.2509 38.9272 26.2509 39.3841V39.4222ZM28.1167 38.6733V38.5083C28.1167 38.4607 28.0881 38.4354 28.031 38.4354C27.8469 38.4354 27.6597 38.4893 27.4567 38.6289V38.5432C27.4567 38.4988 27.4249 38.4607 27.3805 38.4607H27.1901C27.1457 38.4607 27.114 38.4988 27.114 38.5432V40.6153C27.114 40.6597 27.1489 40.6978 27.1901 40.6978H27.39C27.4344 40.6978 27.4693 40.6565 27.4693 40.6153V38.9113C27.6724 38.7907 27.8438 38.74 28.031 38.74C28.0881 38.74 28.1167 38.7178 28.1167 38.6733ZM28.9385 38.0229V37.6992C28.9385 37.6548 28.9004 37.6167 28.856 37.6167H28.6497C28.6053 37.6167 28.5704 37.6548 28.5704 37.6992V38.0229C28.5704 38.0673 28.6085 38.1022 28.6497 38.1022H28.856C28.9004 38.1022 28.9385 38.0673 28.9385 38.0229ZM28.929 40.6153V38.5432C28.929 38.4988 28.8941 38.4607 28.8465 38.4607H28.6529C28.6085 38.4607 28.5736 38.4988 28.5736 38.5432V40.6153C28.5736 40.6597 28.6085 40.6978 28.6529 40.6978H28.8465C28.8941 40.6978 28.929 40.6597 28.929 40.6153ZM31.2453 40.6153V39.2794C31.2453 38.74 31.0264 38.4354 30.5377 38.4354C30.2997 38.4354 30.1157 38.4956 29.8904 38.6226V38.5432C29.8904 38.4988 29.8587 38.4607 29.8143 38.4607H29.6112C29.5668 38.4607 29.5318 38.4988 29.5318 38.5432V40.6153C29.5318 40.6597 29.5699 40.6978 29.6112 40.6978H29.8111C29.8555 40.6978 29.8936 40.6565 29.8936 40.6153V38.8986C30.0808 38.8066 30.2712 38.74 30.4425 38.74C30.7503 38.74 30.8899 38.8669 30.8899 39.2762V40.6121C30.8899 40.6565 30.928 40.6946 30.9724 40.6946H31.166C31.2104 40.6978 31.2453 40.6597 31.2453 40.6153ZM33.6568 38.6575V38.5528C33.6568 38.5052 33.6124 38.4639 33.5648 38.4639H32.6732C31.9751 38.4639 31.772 38.8225 31.772 39.1842V39.2159C31.772 39.4254 31.8323 39.5713 31.9593 39.6887C31.845 39.7522 31.7911 39.8696 31.7911 39.9806V39.9838C31.7911 40.1107 31.8482 40.244 31.9783 40.3011L32.0069 40.3138C31.8736 40.4154 31.7498 40.6026 31.7498 40.831V40.8659C31.7498 41.2626 32.0418 41.5132 32.6859 41.5132C33.3522 41.5132 33.6124 41.2721 33.6124 40.8818V40.8501C33.6124 40.4661 33.2285 40.3551 32.8319 40.2535L32.2258 40.0981C32.1338 40.0727 32.0989 40.0378 32.0989 39.968C32.0989 39.9077 32.1306 39.8632 32.2004 39.8283C32.3178 39.8791 32.4574 39.9108 32.6732 39.9108C33.2983 39.9108 33.5744 39.6633 33.5744 39.2159V39.1842C33.5744 38.9653 33.5077 38.8415 33.4347 38.7654L33.5807 38.7368C33.6283 38.7273 33.6568 38.7082 33.6568 38.6575ZM33.2221 39.2128C33.2221 39.4571 33.1111 39.6284 32.6732 39.6284C32.2068 39.6284 32.1243 39.3936 32.1243 39.2128V39.181C32.1243 38.9526 32.2163 38.7463 32.6732 38.7463C33.1111 38.7463 33.2221 38.9367 33.2221 39.181V39.2128ZM33.2539 40.8818C33.2539 41.1071 33.1492 41.2372 32.6827 41.2372C32.2321 41.2372 32.0957 41.0944 32.0957 40.8659V40.831C32.0957 40.6184 32.1782 40.5169 32.2956 40.4154L32.7557 40.5328C33.1206 40.6248 33.2507 40.6914 33.2507 40.8501V40.8818H33.2539ZM35.7352 39.6157C35.7352 39.6887 35.6749 39.749 35.6019 39.749H35.2593C35.1863 39.749 35.126 39.6887 35.126 39.6157V39.0731C35.126 39.0002 35.1863 38.9367 35.2593 38.9367H35.6019C35.6749 38.9367 35.7352 38.997 35.7352 39.0731V39.6157ZM39.4033 39.5999V37.7531C39.4033 37.7087 39.3684 37.677 39.3271 37.677H39.1082C39.0638 37.677 39.032 37.7151 39.032 37.7531V39.5999C39.032 40.1298 38.8702 40.409 38.3689 40.409C37.8675 40.409 37.7057 40.1234 37.7057 39.5999V37.7531C37.7057 37.7087 37.6708 37.677 37.6296 37.677H37.4106C37.3662 37.677 37.3345 37.7151 37.3345 37.7531V39.5999C37.3345 40.3773 37.7152 40.7263 38.3689 40.7263C39.0257 40.7263 39.4033 40.3773 39.4033 39.5999ZM41.6848 40.6153V39.2762C41.6848 38.7368 41.4658 38.4322 40.9803 38.4322C40.7423 38.4322 40.5583 38.4925 40.3362 38.6194V38.5432C40.3362 38.4988 40.3045 38.4607 40.26 38.4607H40.057C40.0125 38.4607 39.9808 38.4988 39.9808 38.5432V40.6153C39.9808 40.6597 40.0157 40.6978 40.057 40.6978H40.2537C40.2981 40.6978 40.3362 40.6565 40.3362 40.6153V38.8986C40.5234 38.8066 40.7138 38.74 40.882 38.74C41.1897 38.74 41.3262 38.8669 41.3262 39.2762V40.6153C41.3262 40.6597 41.3611 40.6978 41.4055 40.6978H41.5991C41.6498 40.6978 41.6848 40.6597 41.6848 40.6153ZM42.624 38.0229V37.6992C42.624 37.6548 42.5891 37.6199 42.5446 37.6199H42.3384C42.294 37.6199 42.2559 37.6548 42.2559 37.6992V38.0229C42.2559 38.0673 42.294 38.1022 42.3384 38.1022H42.5446C42.5891 38.1022 42.624 38.0673 42.624 38.0229ZM42.6176 40.6153V38.5432C42.6176 38.4988 42.5827 38.4607 42.5351 38.4607H42.3416C42.2971 38.4607 42.2591 38.4988 42.2591 38.5432V40.6153C42.2591 40.6597 42.2971 40.6978 42.3416 40.6978H42.5351C42.5827 40.6978 42.6176 40.6597 42.6176 40.6153ZM44.9022 38.5305C44.9022 38.4893 44.8769 38.4607 44.8388 38.4607H44.6167C44.5849 38.4607 44.5564 38.4861 44.5405 38.5401L44.0741 40.3106C44.0487 40.409 44.0265 40.428 43.9884 40.428C43.9471 40.428 43.9281 40.409 43.9027 40.3106L43.4363 38.5401C43.4204 38.4861 43.3919 38.4607 43.3601 38.4607H43.138C43.0968 38.4607 43.0745 38.4893 43.0745 38.5305C43.0745 38.5401 43.0746 38.5464 43.0777 38.5591L43.6235 40.4947C43.6774 40.6787 43.8139 40.7263 43.9884 40.7263C44.1629 40.7263 44.2994 40.6787 44.3533 40.4947L44.8991 38.5591C44.9022 38.5464 44.9022 38.5401 44.9022 38.5305ZM47.0092 39.603V39.3841C47.0092 38.8066 46.7109 38.4322 46.1207 38.4322C45.5432 38.4322 45.2227 38.8034 45.2227 39.3841V39.749C45.2227 40.5074 45.6765 40.7263 46.1429 40.7263C46.4126 40.7263 46.6379 40.7009 46.8664 40.6565C46.9298 40.6438 46.9489 40.6153 46.9489 40.5645V40.4249C46.9489 40.3836 46.9171 40.3678 46.8854 40.3678H46.8664C46.6792 40.3963 46.3809 40.4122 46.1461 40.4122C45.7717 40.4122 45.5845 40.2345 45.5845 39.749V39.6919H46.9394C46.9806 39.6919 47.0092 39.657 47.0092 39.603ZM46.6506 39.4222H45.5781V39.3841C45.5781 38.9462 45.7717 38.7463 46.1207 38.7463C46.4761 38.7463 46.6506 38.924 46.6506 39.3841V39.4222ZM48.4847 38.6733V38.5083C48.4847 38.4576 48.4561 38.4354 48.399 38.4354C48.2181 38.4354 48.0309 38.4893 47.8278 38.6289V38.5432C47.8278 38.4988 47.7961 38.4607 47.7517 38.4607H47.5613C47.5169 38.4607 47.4851 38.4988 47.4851 38.5432V40.6153C47.4851 40.6597 47.5232 40.6978 47.5613 40.6978H47.758C47.8024 40.6978 47.8405 40.6565 47.8405 40.6153V38.9113C48.0436 38.7907 48.2118 38.74 48.399 38.74C48.4561 38.74 48.4847 38.7178 48.4847 38.6733ZM50.3219 40.1361C50.3219 39.895 50.214 39.7204 49.8776 39.5237L49.4778 39.2826C49.2906 39.1715 49.1986 39.0954 49.1986 38.9748C49.1986 38.7685 49.3477 38.74 49.5762 38.74C49.8015 38.74 50.0617 38.759 50.2013 38.7717H50.214C50.2552 38.7717 50.2838 38.7527 50.2838 38.7019V38.5686C50.2838 38.5242 50.2584 38.4956 50.2076 38.4861C50.0173 38.4544 49.8047 38.4322 49.5762 38.4322C49.1605 38.4322 48.8432 38.5496 48.8432 38.9716C48.8432 39.2286 49.0082 39.4031 49.2557 39.5523L49.665 39.7966C49.8967 39.933 49.9697 40.0124 49.9697 40.133C49.9697 40.3519 49.83 40.4217 49.5698 40.4217C49.4239 40.4217 49.1288 40.4027 48.9352 40.3773H48.9194C48.8781 40.3773 48.8464 40.4027 48.8464 40.4376V40.5804C48.8464 40.6248 48.8781 40.6502 48.9321 40.6597C49.1288 40.7073 49.4207 40.72 49.5698 40.72C50.0204 40.7263 50.3219 40.5518 50.3219 40.1361ZM51.1659 38.0229V37.6992C51.1659 37.6548 51.1278 37.6199 51.0866 37.6199H50.8803C50.8359 37.6199 50.7978 37.6548 50.7978 37.6992V38.0229C50.7978 38.0673 50.8359 38.1022 50.8803 38.1022H51.0866C51.1278 38.1022 51.1659 38.0673 51.1659 38.0229ZM51.1564 40.6153V38.5432C51.1564 38.4988 51.1183 38.4607 51.0771 38.4607H50.8835C50.8391 38.4607 50.8042 38.4988 50.8042 38.5432V40.6153C50.8042 40.6597 50.8391 40.6978 50.8835 40.6978H51.0771C51.1215 40.6978 51.1564 40.6597 51.1564 40.6153ZM52.9428 40.6375V40.4947C52.9428 40.4534 52.9143 40.4376 52.8572 40.4376H52.6319C52.4701 40.4376 52.4129 40.4058 52.4129 40.1805V38.7622H52.8508C52.8952 38.7622 52.9301 38.7241 52.9301 38.6829V38.5432C52.9301 38.4988 52.8921 38.4607 52.8508 38.4607H52.4129V38.0165C52.4129 37.9753 52.3844 37.9467 52.3526 37.9467H52.3399L52.1305 37.9784C52.0861 37.9879 52.0576 38.0197 52.0576 38.0609V38.4576H51.6641C51.6196 38.4576 51.5879 38.4861 51.5879 38.5305V38.6416C51.5879 38.686 51.6196 38.7114 51.6641 38.7146L52.0576 38.759V40.1774C52.0576 40.6248 52.2352 40.7232 52.6065 40.7232C52.6826 40.7232 52.7874 40.7136 52.8699 40.7041C52.9206 40.6978 52.9428 40.6724 52.9428 40.6375ZM54.9038 40.6153V39.1969C54.9038 38.7178 54.6785 38.4322 54.1169 38.4322C53.8408 38.4322 53.6536 38.4576 53.4886 38.4861C53.4315 38.4956 53.4029 38.5178 53.4029 38.5623V38.7051C53.4029 38.759 53.4378 38.7685 53.4759 38.7685H53.4949C53.6568 38.7527 53.8503 38.7368 54.1137 38.7368C54.4278 38.7368 54.5452 38.8542 54.5452 39.1969V39.3587H54.247C53.5267 39.3587 53.2728 39.5777 53.2728 40.0155V40.0631C53.2728 40.5708 53.587 40.7232 53.9328 40.7232C54.1581 40.7232 54.3612 40.6375 54.5548 40.5232V40.6121C54.5548 40.6565 54.5896 40.6946 54.6372 40.6946H54.8245C54.8689 40.6978 54.9038 40.6597 54.9038 40.6153ZM54.5484 40.2694C54.3549 40.3741 54.1898 40.4312 54.0026 40.4312C53.7678 40.4312 53.6314 40.3551 53.6314 40.06V40.0124C53.6314 39.7236 53.7615 39.6126 54.2501 39.6126H54.5484V40.2694ZM54.65 38.0133V37.6833C54.65 37.6421 54.6087 37.604 54.5674 37.604H54.4088C54.3675 37.604 54.3295 37.6453 54.3295 37.6833V38.0133C54.3295 38.0578 54.3707 38.0895 54.4088 38.0895H54.5674C54.6087 38.0927 54.65 38.0578 54.65 38.0133ZM53.9423 38.0133V37.6833C53.9423 37.6421 53.9011 37.604 53.863 37.604H53.7044C53.6631 37.604 53.625 37.6453 53.625 37.6833V38.0133C53.625 38.0578 53.6663 38.0895 53.7044 38.0895H53.863C53.9011 38.0927 53.9423 38.0578 53.9423 38.0133ZM56.6173 40.6375V40.4947C56.6173 40.4534 56.5887 40.4376 56.5316 40.4376H56.3031C56.1413 40.4376 56.0842 40.4058 56.0842 40.1805V38.7622H56.5189C56.5633 38.7622 56.6014 38.7241 56.6014 38.6829V38.5432C56.6014 38.4988 56.5665 38.4607 56.5189 38.4607H56.0842V38.0165C56.0842 37.9753 56.0556 37.9467 56.0239 37.9467H56.0112L55.8018 37.9784C55.7574 37.9879 55.7288 38.0197 55.7288 38.0609V38.4576H55.3353C55.2909 38.4576 55.2592 38.4861 55.2592 38.5305V38.6416C55.2592 38.686 55.2909 38.7114 55.3353 38.7146L55.7288 38.759V40.1774C55.7288 40.6248 55.9065 40.7232 56.2777 40.7232C56.3539 40.7232 56.4586 40.7136 56.5411 40.7041C56.5982 40.6978 56.6173 40.6724 56.6173 40.6375ZM59.9744 38.5845V38.5337C59.9744 37.8769 59.4984 37.6516 58.8416 37.6516C58.6068 37.6516 58.3434 37.6643 58.1689 37.6833C58.1086 37.6929 58.0705 37.7278 58.0705 37.7849V40.6184C58.0705 40.6629 58.1023 40.7009 58.1435 40.7009H58.3625C58.4069 40.7009 58.4354 40.6597 58.4354 40.6184V39.4761C58.5401 39.4856 58.7115 39.4952 58.8384 39.4952C59.4984 39.4952 59.9744 39.2635 59.9744 38.5845ZM59.6063 38.5845C59.6063 39.0097 59.3937 39.1874 58.8416 39.1874C58.7369 39.1874 58.5306 39.1747 58.4386 39.1715V37.9784C58.5338 37.9689 58.7178 37.9626 58.8416 37.9626C59.3651 37.9626 59.6063 38.1212 59.6063 38.5305V38.5845ZM62.1511 39.7331V39.4254C62.1511 38.8288 61.8433 38.4354 61.25 38.4354C60.6566 38.4354 60.352 38.8288 60.352 39.4254V39.7331C60.352 40.3329 60.6566 40.7263 61.25 40.7263C61.8433 40.7263 62.1511 40.3329 62.1511 39.7331ZM61.7957 39.7331C61.7957 40.152 61.6244 40.4122 61.25 40.4122C60.8692 40.4122 60.7073 40.1488 60.7073 39.7331V39.4254C60.7073 39.0065 60.8724 38.7463 61.25 38.7463C61.6307 38.7463 61.7957 39.0097 61.7957 39.4254V39.7331ZM63.7821 40.6375V40.4947C63.7821 40.4534 63.7535 40.4376 63.6964 40.4376H63.4679C63.3061 40.4376 63.249 40.4058 63.249 40.1805V38.7622H63.6837C63.7281 38.7622 63.7662 38.7241 63.7662 38.6829V38.5432C63.7662 38.4988 63.7281 38.4607 63.6837 38.4607H63.249V38.0165C63.249 37.9753 63.2204 37.9467 63.1887 37.9467H63.176L62.9666 37.9784C62.9222 37.9879 62.8936 38.0197 62.8936 38.0609V38.4576H62.5001C62.4557 38.4576 62.424 38.4861 62.424 38.5305V38.6416C62.424 38.686 62.4557 38.7114 62.5001 38.7146L62.8936 38.759V40.1774C62.8936 40.6248 63.0713 40.7232 63.4425 40.7232C63.5187 40.7232 63.6234 40.7136 63.7059 40.7041C63.7599 40.6978 63.7821 40.6724 63.7821 40.6375ZM65.632 40.1361C65.632 39.895 65.5209 39.7204 65.1877 39.5237L64.7879 39.2826C64.6007 39.1715 64.5087 39.0954 64.5087 38.9748C64.5087 38.7685 64.6578 38.74 64.8863 38.74C65.1116 38.74 65.3718 38.759 65.5114 38.7717H65.5241C65.5653 38.7717 65.5939 38.7527 65.5939 38.7019V38.5686C65.5939 38.5242 65.5685 38.4956 65.5177 38.4861C65.3274 38.4544 65.1148 38.4322 64.8863 38.4322C64.4706 38.4322 64.1533 38.5496 64.1533 38.9716C64.1533 39.2286 64.3183 39.4031 64.5658 39.5523L64.972 39.7966C65.2036 39.933 65.2766 40.0124 65.2766 40.133C65.2766 40.3519 65.1401 40.4217 64.8768 40.4217C64.7308 40.4217 64.4357 40.4027 64.2422 40.3773H64.2263C64.1851 40.3773 64.1533 40.4027 64.1533 40.4376V40.5804C64.1533 40.6248 64.185 40.6502 64.239 40.6597C64.4357 40.7073 64.7276 40.72 64.8768 40.72C65.3274 40.7263 65.632 40.5518 65.632 40.1361ZM67.7516 40.5645V37.7182C67.7516 37.6738 67.7199 37.6421 67.6786 37.6421H67.4724C67.4279 37.6421 67.3962 37.677 67.3962 37.7182V38.4734C67.2375 38.4449 67.0472 38.4322 66.9234 38.4322C66.3332 38.4322 66.0413 38.7907 66.0413 39.4285V39.7205C66.0413 40.3297 66.3205 40.7232 66.9234 40.7232C67.1709 40.7232 67.4184 40.7041 67.6659 40.6533C67.7389 40.6438 67.7516 40.6153 67.7516 40.5645ZM67.3962 40.3868C67.2598 40.3995 67.0599 40.4122 66.9234 40.4122C66.5236 40.4122 66.3967 40.1647 66.3967 39.7205V39.4285C66.3967 38.9938 66.5268 38.7463 66.9234 38.7463C67.0535 38.7463 67.2629 38.7495 67.3962 38.7749V40.3868ZM69.8363 40.6153V39.1969C69.8363 38.7178 69.611 38.4322 69.0494 38.4322C68.7733 38.4322 68.5861 38.4576 68.4211 38.4861C68.364 38.4956 68.3354 38.5178 68.3354 38.5623V38.7051C68.3354 38.759 68.3703 38.7685 68.4084 38.7685H68.4275C68.5893 38.7527 68.7828 38.7368 69.0462 38.7368C69.3603 38.7368 69.4809 38.8542 69.4809 39.1969V39.3587H69.1795C68.4592 39.3587 68.2053 39.5777 68.2053 40.0155V40.0631C68.2053 40.5708 68.5195 40.7232 68.8653 40.7232C69.0938 40.7232 69.2937 40.6375 69.4873 40.5232V40.6121C69.4873 40.6565 69.5253 40.6946 69.5698 40.6946H69.757C69.8014 40.6978 69.8363 40.6597 69.8363 40.6153ZM69.4809 40.2694C69.2874 40.3741 69.1192 40.4312 68.9351 40.4312C68.7003 40.4312 68.5639 40.3551 68.5639 40.06V40.0124C68.5639 39.7236 68.694 39.6126 69.1826 39.6126H69.4841V40.2694H69.4809ZM73.0728 40.6153V39.1747C73.0728 38.6099 72.7809 38.4258 72.416 38.4258C72.2066 38.4258 71.9686 38.4861 71.7433 38.5908C71.6418 38.4734 71.5117 38.4258 71.3403 38.4258C71.1182 38.4258 70.912 38.5147 70.7502 38.6162V38.5401C70.7502 38.4956 70.7184 38.4576 70.674 38.4576H70.4709C70.4265 38.4576 70.3948 38.4956 70.3948 38.5401V40.6121C70.3948 40.6565 70.4233 40.6946 70.4646 40.6946H70.6772C70.7216 40.6946 70.7502 40.6533 70.7502 40.6121V38.8955C70.9215 38.8098 71.0992 38.7368 71.2451 38.7368C71.4546 38.7368 71.5561 38.8098 71.5561 39.1652V40.6121C71.5561 40.6565 71.5847 40.6946 71.6259 40.6946H71.8385C71.8829 40.6946 71.9115 40.6533 71.9115 40.6121V39.1652C71.9115 39.0446 71.902 38.9367 71.8766 38.8479C72.0352 38.7876 72.2034 38.7368 72.3494 38.7368C72.5588 38.7368 72.7175 38.832 72.7175 39.1715V40.6121C72.7175 40.6565 72.7524 40.6946 72.7968 40.6946H72.9903C73.0348 40.6978 73.0728 40.6597 73.0728 40.6153Z" fill="#A1A1A1"/>
</svg>
