<svg width="120" height="60" viewBox="0 0 120 60" fill="none" xmlns="http://www.w3.org/2000/svg">
<path d="M43.5023 17.1243H44.635C44.757 17.1243 44.8631 17.0221 44.8631 16.8962V13.3998H48.1078V16.8962C48.1078 17.0221 48.2101 17.1243 48.3359 17.1243H49.4686C49.5945 17.1243 49.6967 17.0221 49.6967 16.8962V8.84939C49.6967 8.72354 49.5945 8.62915 49.4686 8.62915H48.3359C48.2101 8.62915 48.1078 8.71961 48.1078 8.84939V12.0036H44.8631V8.84939C44.8631 8.72354 44.7609 8.62915 44.635 8.62915H43.5023C43.3765 8.62915 43.2742 8.71961 43.2742 8.84939V16.8962C43.2742 17.0181 43.3765 17.1243 43.5023 17.1243ZM53.0358 17.2148C53.5825 17.2148 54.1213 17.0339 54.6483 16.7114V16.8962C54.6483 17.0221 54.7506 17.1243 54.8764 17.1243H55.8479C55.9737 17.1243 56.076 17.0221 56.076 16.8962V12.7823C56.076 11.3193 55.1832 10.5996 53.5589 10.5996C52.7723 10.5996 52.1076 10.69 51.6514 10.7844C51.502 10.8198 51.4351 10.8985 51.4351 11.0243V11.7558C51.4351 11.9171 51.5256 11.9486 51.6396 11.9486H51.6986C52.0762 11.9014 52.8313 11.8581 53.5628 11.8581C54.2353 11.8581 54.5696 12.0429 54.5696 12.7863V13.2897H53.8499C51.8599 13.2897 51.0575 13.9622 51.0575 15.268V15.3152C51.0575 16.849 52.088 17.2148 53.0358 17.2148ZM52.5796 15.2601C52.5796 14.619 52.8077 14.2887 53.8499 14.2887H54.5696V15.6967C54.2393 15.8815 53.8145 16.0152 53.4055 16.0152C52.8352 16.0152 52.5796 15.8658 52.5796 15.3073V15.2601ZM58.2942 13.8875L59.8595 14.8471C60.2252 15.0753 60.3629 15.2129 60.3629 15.4292C60.3629 15.7399 60.2606 15.9798 59.5527 15.9798C59.2105 15.9798 58.1801 15.9248 57.6334 15.854H57.5862C57.4722 15.854 57.3935 15.9444 57.3935 16.0349V16.7232C57.3935 16.8608 57.4722 16.9513 57.6098 16.9867C58.247 17.1597 59.2105 17.2148 59.655 17.2148C61.1534 17.2148 61.8967 16.4282 61.8967 15.4332C61.8967 14.8511 61.7591 14.2769 60.7994 13.6948L59.301 12.7784C59.0139 12.6054 58.8448 12.4913 58.8448 12.3104C58.8448 11.9564 59.0847 11.8306 59.6353 11.8306C60.2882 11.8306 61.2006 11.921 61.5192 11.9682H61.5664C61.6804 11.9682 61.7473 11.8896 61.7473 11.7519V11.0912C61.7473 10.9535 61.6804 10.8631 61.5428 10.8277C60.9607 10.7018 60.4337 10.5996 59.5055 10.5996C58.0542 10.5996 57.3345 11.1698 57.3345 12.3143C57.3345 12.9751 57.7317 13.5453 58.2942 13.8875ZM66.3882 13.6948L64.8897 12.7784C64.6026 12.6054 64.4335 12.4913 64.4335 12.3104C64.4335 11.9564 64.6734 11.8306 65.224 11.8306C65.8769 11.8306 66.7893 11.921 67.1079 11.9682H67.1551C67.2691 11.9682 67.3399 11.8896 67.3399 11.7519V11.0912C67.3399 10.9535 67.2691 10.8631 67.1315 10.8277C66.5494 10.7018 66.0224 10.5996 65.0982 10.5996C63.6469 10.5996 62.9272 11.1698 62.9272 12.3143C62.9272 12.979 63.3244 13.5493 63.8868 13.8914L65.4521 14.8511C65.8179 15.0792 65.9516 15.2168 65.9516 15.4332C65.9516 15.7439 65.8493 15.9838 65.1414 15.9838C64.7953 15.9838 63.7688 15.9287 63.2221 15.8579H63.1749C63.0609 15.8579 62.9822 15.9484 62.9822 16.0388V16.7271C62.9822 16.8647 63.0609 16.9552 63.1985 16.9906C63.8357 17.1636 64.7992 17.2187 65.2437 17.2187C66.7421 17.2187 67.4855 16.4321 67.4855 15.4371C67.4855 14.8471 67.3478 14.2769 66.3882 13.6948ZM71.2807 17.2148C73.0742 17.2148 74.0102 16.0034 74.0102 14.3673V13.4431C74.0102 11.807 73.0742 10.5956 71.2807 10.5956C69.4873 10.5956 68.5513 11.807 68.5513 13.4431V14.3673C68.5473 16.0034 69.4834 17.2148 71.2807 17.2148ZM70.0576 13.4431C70.0576 12.507 70.4784 11.8974 71.2807 11.8974C72.0791 11.8974 72.5039 12.5031 72.5039 13.4431V14.3673C72.5039 15.3073 72.0791 15.913 71.2807 15.913C70.4784 15.913 70.0576 15.3073 70.0576 14.3673V13.4431ZM49.1737 22.3669V22.2647C49.1737 20.2431 47.6398 19.6217 45.8818 19.6217C45.048 19.6217 44.2378 19.6807 43.64 19.7712C43.4119 19.8066 43.2742 19.8852 43.2742 20.1134V27.9793C43.2742 28.1051 43.3765 28.2074 43.5023 28.2074H44.6468C44.7727 28.2074 44.8631 28.1051 44.8631 27.9793V24.9942C45.1266 25.006 45.5829 25.0413 45.8818 25.0413C47.6398 25.0413 49.1737 24.3885 49.1737 22.3669ZM47.5965 22.3669C47.5965 23.2833 47.1167 23.7395 45.8818 23.7395C45.6891 23.7395 45.048 23.7159 44.8631 23.7041V20.9825C45.0716 20.9589 45.6379 20.9353 45.8818 20.9353C47.0223 20.9353 47.5965 21.3011 47.5965 22.2608V22.3669ZM50.5227 28.2074H51.5845C51.7104 28.2074 51.8009 28.0933 51.8009 27.9675V19.7358C51.8009 19.6099 51.7104 19.5077 51.5845 19.5077H50.5227C50.3968 19.5077 50.2945 19.6099 50.2945 19.7358V27.9675C50.2906 28.0933 50.3968 28.2074 50.5227 28.2074ZM56.6148 27.7944V27.9793C56.6148 28.1051 56.717 28.2074 56.8429 28.2074H57.8143C57.9402 28.2074 58.0424 28.1051 58.0424 27.9793V23.8654C58.0424 22.4023 57.1497 21.6826 55.5254 21.6826C54.7348 21.6826 54.0741 21.7731 53.6179 21.8675C53.4684 21.9029 53.4016 21.9815 53.4016 22.1074V22.8389C53.4016 22.9962 53.492 23.0316 53.6061 23.0316H53.6651C54.0426 22.9844 54.7978 22.9412 55.5293 22.9412C56.2018 22.9412 56.5361 23.126 56.5361 23.8693V24.3688H55.8164C53.8263 24.3688 53.0279 25.0453 53.0279 26.3471V26.3943C53.0279 27.936 54.0584 28.3018 55.0062 28.3018C55.549 28.2978 56.0878 28.1169 56.6148 27.7944ZM54.5461 26.3904V26.3431C54.5461 25.7021 54.7742 25.3717 55.8164 25.3717H56.5361V26.7797C56.2058 26.9606 55.781 27.0983 55.368 27.0983C54.7978 27.0983 54.5461 26.9488 54.5461 26.3904ZM60.0325 26.4808C60.0325 28.0107 60.5595 28.2978 61.8495 28.2978C62.1012 28.2978 62.349 28.2624 62.6283 28.2192C62.7777 28.1956 62.8446 28.1287 62.8446 28.0107V27.291C62.8446 27.1769 62.7541 27.1179 62.6047 27.1179H61.999C61.586 27.1179 61.5506 27.0471 61.5506 26.4808V22.89H62.2507C62.3766 22.89 62.4788 22.7878 62.4788 22.6619V21.9894C62.4788 21.8635 62.3766 21.7613 62.2507 21.7613H61.5506V20.5853C61.5506 20.4713 61.472 20.4123 61.3697 20.4123H61.3225L60.2606 20.5971C60.1348 20.6207 60.0325 20.6994 60.0325 20.8252V21.7613H58.9588C58.833 21.7613 58.7307 21.8635 58.7307 21.9894V22.5046C58.7307 22.6304 58.833 22.713 58.9588 22.7327L60.0325 22.89V26.4808ZM66.8326 27.1219H66.2269C65.8139 27.1219 65.7785 27.0511 65.7785 26.4847V22.894H66.809C66.9348 22.894 67.0371 22.7917 67.0371 22.6658V21.9933C67.0371 21.8675 66.9348 21.7652 66.809 21.7652H65.7785V20.5892C65.7785 20.4752 65.6999 20.4162 65.5937 20.4162H65.5504L64.4885 20.601C64.3627 20.6246 64.2604 20.7033 64.2604 20.8292V21.7652H63.5171C63.3912 21.7652 63.289 21.8675 63.289 21.9933V22.5085C63.289 22.6344 63.3912 22.717 63.5171 22.7366L64.2604 22.894V26.4847C64.2604 28.0147 64.7874 28.3018 66.0775 28.3018C66.3292 28.3018 66.5809 28.2664 66.8562 28.2231C67.0056 28.1995 67.0764 28.1326 67.0764 28.0147V27.2949C67.0725 27.1809 66.982 27.1219 66.8326 27.1219ZM73.5894 27.9675V24.239C73.5894 22.7878 73.259 21.6787 71.6111 21.6787C70.856 21.6787 70.4194 21.8045 69.7587 22.2293V21.9894C69.7587 21.8635 69.6564 21.7613 69.5306 21.7613H68.5355C68.4097 21.7613 68.3074 21.8635 68.3074 21.9894V27.9675C68.3074 28.0933 68.4097 28.2074 68.5355 28.2074H69.5856C69.7115 28.2074 69.8138 28.0933 69.8138 27.9675V23.3738C70.2936 23.1221 70.7183 22.9608 71.1038 22.9608C71.9847 22.9608 72.0752 23.2479 72.0752 24.239V27.9675C72.0752 28.0933 72.1775 28.2074 72.3033 28.2074H73.3573C73.4832 28.2074 73.5894 28.0933 73.5894 27.9675ZM80.0355 25.5094C80.1967 25.5094 80.2636 25.4071 80.2636 25.2223V24.5851C80.2636 22.8822 79.304 21.6826 77.542 21.6826C75.7918 21.6826 74.7968 22.8035 74.7968 24.5851V25.4307C74.7968 27.6804 76.4211 28.2978 77.5617 28.2978C78.5921 28.2978 79.0365 28.2428 79.7798 28.1051C79.9883 28.0697 80.0198 27.9911 80.0198 27.8101V27.055C80.0198 26.941 79.9293 26.882 79.8113 26.882H79.7759C79.2961 26.9292 78.5095 26.996 77.6718 26.996C76.5745 26.996 76.2992 26.2055 76.2992 25.5448V25.5094H80.0355ZM76.3189 24.3885C76.3189 23.4839 76.8341 22.9805 77.542 22.9805C78.2499 22.9805 78.7416 23.4957 78.7416 24.3885V24.4357H76.3189V24.3885ZM84.5623 21.6787C84.1021 21.6787 83.4886 21.7927 82.9262 22.2293V21.9894C82.9262 21.8635 82.8239 21.7613 82.6981 21.7613H81.7031C81.5772 21.7613 81.4749 21.8635 81.4749 21.9894V27.9675C81.4749 28.0933 81.5772 28.2074 81.7031 28.2074H82.7571C82.8829 28.2074 82.9852 28.0933 82.9852 27.9675V23.3738C83.465 23.1221 83.9448 22.9608 84.5623 22.9608C84.6882 22.9608 84.7904 22.8586 84.7904 22.7327V21.9068C84.7904 21.7849 84.6882 21.6787 84.5623 21.6787ZM44.6586 30.7992H43.5181C43.3922 30.7992 43.286 30.8896 43.286 31.0155V39.0623C43.286 39.1882 43.3883 39.2904 43.5181 39.2904H44.6586C44.7845 39.2904 44.8907 39.1882 44.8907 39.0623V31.0155C44.8867 30.8896 44.7845 30.7992 44.6586 30.7992ZM50.1844 32.7657C49.4254 32.7657 48.9849 32.8915 48.3163 33.3163V33.0764C48.3163 32.9505 48.214 32.8483 48.0842 32.8483H47.0813C46.9555 32.8483 46.8493 32.9505 46.8493 33.0764V39.0544C46.8493 39.1803 46.9515 39.2944 47.0813 39.2944H48.1432C48.2691 39.2944 48.3753 39.1803 48.3753 39.0544V34.4608C48.859 34.209 49.2877 34.0478 49.681 34.0478C50.5698 34.0478 50.6642 34.3349 50.6642 35.326V39.0544C50.6642 39.1803 50.7665 39.2944 50.8963 39.2944H51.9582C52.084 39.2944 52.1902 39.1803 52.1902 39.0544V35.326C52.1824 33.8748 51.852 32.7657 50.1844 32.7657ZM57.2991 35.8609L55.7849 34.9484C55.4939 34.7754 55.3208 34.6613 55.3208 34.4804C55.3208 34.1265 55.5647 33.9967 56.1192 33.9967C56.776 33.9967 57.7003 34.0871 58.0228 34.1343H58.07C58.184 34.1343 58.2548 34.0557 58.2548 33.918V33.2533C58.2548 33.1157 58.184 33.0252 58.0464 32.9898C57.4564 32.864 56.9255 32.7617 55.9934 32.7617C54.5264 32.7617 53.7988 33.332 53.7988 34.4765C53.7988 35.1372 54.2039 35.7114 54.7702 36.0536L56.3513 37.0132C56.721 37.2414 56.8586 37.3751 56.8586 37.5953C56.8586 37.906 56.7564 38.1459 56.0406 38.1459C55.6945 38.1459 54.6562 38.0869 54.1016 38.0201H54.0544C53.9404 38.0201 53.8578 38.1105 53.8578 38.201V38.8893C53.8578 39.0269 53.9404 39.1174 54.078 39.1488C54.727 39.3219 55.6945 39.3769 56.1468 39.3769C57.6609 39.3769 58.4082 38.5864 58.4082 37.5953C58.4082 37.0172 58.2666 36.4469 57.2991 35.8609ZM63.3008 38.2049H62.6873C62.2743 38.2049 62.2389 38.1381 62.2389 37.5639V33.9731H63.2772C63.4031 33.9731 63.5092 33.8708 63.5092 33.745V33.0724C63.5092 32.9466 63.4031 32.8443 63.2772 32.8443H62.2389V31.6684C62.2389 31.5543 62.1602 31.4953 62.0541 31.4953H62.0069L60.9332 31.6802C60.8073 31.7038 60.7011 31.7824 60.7011 31.9083V32.8443H59.6156C59.4898 32.8443 59.3875 32.9466 59.3875 33.0724V33.5876C59.3875 33.7135 59.4898 33.7922 59.6156 33.8158L60.7011 33.977V37.5678C60.7011 39.1016 61.2321 39.3848 62.5378 39.3848C62.7934 39.3848 63.0452 39.3494 63.3244 39.3062C63.4738 39.2826 63.5446 39.2157 63.5446 39.0977V38.378C63.5446 38.2639 63.4502 38.2049 63.3008 38.2049ZM66.2584 32.8443H65.1965C65.0706 32.8443 64.9684 32.9466 64.9684 33.0724V39.0505C64.9684 39.1764 65.0706 39.2904 65.1965 39.2904H66.2584C66.3842 39.2904 66.4904 39.1764 66.4904 39.0505V33.0724C66.4904 32.9466 66.3842 32.8443 66.2584 32.8443ZM66.2898 30.5239H65.1689C65.0431 30.5239 64.929 30.6261 64.929 30.752V31.7588C64.929 31.8847 65.0431 31.9869 65.1689 31.9869H66.2898C66.4157 31.9869 66.5219 31.8847 66.5219 31.7588V30.752C66.5219 30.6261 66.4196 30.5239 66.2898 30.5239ZM71.7645 38.2049H71.1549C70.738 38.2049 70.7065 38.1381 70.7065 37.5639V33.9731H71.7448C71.8707 33.9731 71.9769 33.8708 71.9769 33.745V33.0724C71.9769 32.9466 71.8746 32.8443 71.7448 32.8443H70.7065V31.6684C70.7065 31.5543 70.6239 31.4953 70.5217 31.4953H70.4745L69.4008 31.6802C69.271 31.7038 69.1688 31.7824 69.1688 31.9083V32.8443H68.0833C67.9574 32.8443 67.8512 32.9466 67.8512 33.0724V33.5876C67.8512 33.7135 67.9535 33.7922 68.0833 33.8158L69.1688 33.977V37.5678C69.1688 39.1016 69.6997 39.3848 71.0054 39.3848C71.2611 39.3848 71.5128 39.3494 71.792 39.3062C71.9415 39.2826 72.0083 39.2157 72.0083 39.0977V38.378C72.0044 38.2639 71.9139 38.2049 71.7645 38.2049ZM78.4938 32.8443H77.4319C77.306 32.8443 77.1998 32.9584 77.1998 33.0842V37.6582C76.8773 37.8313 76.3228 38.1145 75.898 38.1145C75.5401 38.1145 75.3435 38.0437 75.1822 37.91C74.962 37.7133 74.9148 37.3829 74.9148 36.8127V33.0842C74.9148 32.9584 74.8125 32.8443 74.6867 32.8443H73.6248C73.4989 32.8443 73.3927 32.9584 73.3927 33.0842V36.8127C73.3927 37.7605 73.5461 38.4684 73.9709 38.8932C74.3052 39.2236 74.8165 39.373 75.3907 39.373C76.1301 39.373 76.602 39.1882 77.2038 38.8027V39.0623C77.2038 39.1882 77.306 39.2904 77.4358 39.2904H78.4977C78.6236 39.2904 78.7258 39.1882 78.7258 39.0623V33.0842C78.7258 32.9584 78.6236 32.8443 78.4938 32.8443ZM83.9684 38.2049H83.3549C82.9419 38.2049 82.9065 38.1381 82.9065 37.5639V33.9731H83.9448C84.0707 33.9731 84.1729 33.8708 84.1729 33.745V33.0724C84.1729 32.9466 84.0707 32.8443 83.9448 32.8443H82.9065V31.6684C82.9065 31.5543 82.8239 31.4953 82.7217 31.4953H82.6745L81.6008 31.6802C81.4749 31.7038 81.3688 31.7824 81.3688 31.9083V32.8443H80.2833C80.1574 32.8443 80.0512 32.9466 80.0512 33.0724V33.5876C80.0512 33.7135 80.1535 33.7922 80.2833 33.8158L81.3688 33.977V37.5678C81.3688 39.1016 81.8997 39.3848 83.2054 39.3848C83.4611 39.3848 83.7128 39.3494 83.992 39.3062C84.1415 39.2826 84.2123 39.2157 84.2123 39.0977V38.378C84.2083 38.2639 84.1179 38.2049 83.9684 38.2049Z" fill="#5A5F62"/>
<path d="M34.3661 4.90857H0V39.2747H34.3661V4.90857Z" fill="#B00835"/>
<path d="M39.2744 0.000244141H9.81659V29.458H39.2744V0.000244141Z" fill="#F7A600"/>
<path d="M34.366 4.90857H9.8205V29.4541H34.366V4.90857Z" fill="#DE6106"/>
<path d="M19.8024 8.72363H18.6697C18.5438 8.72363 18.4416 8.81409 18.4416 8.93995V12.0942H15.1969V8.93995C15.1969 8.81409 15.0946 8.72363 14.9688 8.72363H13.8361C13.7102 8.72363 13.608 8.81409 13.608 8.93995V16.9868C13.608 17.1126 13.7102 17.2149 13.8361 17.2149H14.9688C15.0946 17.2149 15.1969 17.1126 15.1969 16.9868V13.4904H18.4416V16.9868C18.4416 17.1126 18.5438 17.2149 18.6697 17.2149H19.8024C19.9282 17.2149 20.0305 17.1126 20.0305 16.9868V8.93995C20.0305 8.81409 19.9282 8.72363 19.8024 8.72363ZM24.3724 8.63318C23.5387 8.63318 22.7285 8.68824 22.1307 8.78263C21.9026 8.81803 21.7688 8.89669 21.7688 9.12873V16.9907C21.7688 17.1165 21.8711 17.2188 21.9969 17.2188H23.1375C23.2634 17.2188 23.3577 17.1165 23.3577 16.9907V14.0095C23.6173 14.0174 24.0775 14.0528 24.3764 14.0528C26.1383 14.0528 27.6683 13.3999 27.6683 11.3784V11.2761C27.6643 9.25065 26.1344 8.63318 24.3724 8.63318ZM26.0872 11.3744C26.0872 12.2908 25.6074 12.747 24.3724 12.747C24.1797 12.747 23.5387 12.7234 23.3538 12.7116V9.99004C23.5583 9.96645 24.1325 9.94285 24.3724 9.94285C25.513 9.94285 26.0872 10.3086 26.0872 11.2683V11.3744ZM30.3466 8.72363H29.2139C29.0881 8.72363 28.9858 8.81409 28.9858 8.93995V16.9868C28.9858 17.1126 29.0881 17.2149 29.2139 17.2149H30.3466C30.4725 17.2149 30.5747 17.1126 30.5747 16.9868V8.93995C30.5747 8.81409 30.4725 8.72363 30.3466 8.72363Z" fill="white"/>
<path d="M2.37262 45.5338V44.9004C2.37262 43.8861 1.81974 43.4431 0.951985 43.4431C0.596826 43.4431 0.234339 43.4687 0.0988657 43.4907C0.0366214 43.5017 0 43.542 0 43.6079V46.8299C0 46.8995 0.0366214 46.9361 0.0988657 46.9471C0.234339 46.9691 0.596826 46.9947 0.951985 46.9947C1.81974 46.9947 2.37262 46.5407 2.37262 45.5338ZM1.94424 45.5338C1.94424 46.3796 1.51218 46.6286 0.94832 46.6286C0.728634 46.6286 0.578522 46.6286 0.428403 46.6176V43.8202C0.582183 43.8093 0.728634 43.8056 0.94832 43.8056C1.51218 43.8056 1.94424 44.0509 1.94424 44.9004V45.5338ZM3.43442 43.8752V43.5017C3.43442 43.4504 3.3905 43.4065 3.33924 43.4065H3.10124C3.04998 43.4065 3.00604 43.4504 3.00604 43.5017V43.8752C3.00604 43.9264 3.04998 43.9667 3.10124 43.9667H3.33924C3.3905 43.9667 3.43442 43.9264 3.43442 43.8752ZM3.42345 46.8665V44.4756C3.42345 44.4244 3.38317 44.3804 3.32825 44.3804H3.10491C3.05365 44.3804 3.01337 44.4244 3.01337 44.4756V46.8665C3.01337 46.9178 3.05365 46.9617 3.10491 46.9617H3.32825C3.38317 46.9617 3.42345 46.9178 3.42345 46.8665ZM6.21712 44.6074V44.4866C6.21712 44.4317 6.16585 44.3841 6.11093 44.3841H5.08573C4.28022 44.3841 4.0459 44.7978 4.0459 45.2152V45.2519C4.0459 45.4935 4.11545 45.6619 4.26191 45.7974C4.1301 45.8706 4.07153 46.0061 4.07153 46.1343V46.1379C4.07153 46.2844 4.13742 46.4382 4.28754 46.5041L4.3205 46.5187C4.16672 46.6359 4.02757 46.8519 4.02757 47.1155V47.1558C4.02757 47.6135 4.36443 47.9027 5.1077 47.9027C5.8766 47.9027 6.17685 47.6245 6.17685 47.1741V47.1375C6.17685 46.6945 5.73747 46.5663 5.27613 46.4491L4.57679 46.2697C4.46694 46.2404 4.43034 46.2002 4.43034 46.1196C4.43034 46.0501 4.46696 45.9988 4.54751 45.9585C4.68298 46.0171 4.84408 46.0537 5.09306 46.0537C5.81436 46.0537 6.13289 45.7681 6.13289 45.2519V45.2152C6.13289 44.9626 6.05603 44.8198 5.97181 44.7319L6.14022 44.699C6.18416 44.688 6.21712 44.666 6.21712 44.6074ZM5.71551 45.2482C5.71551 45.5301 5.58734 45.7278 5.08207 45.7278C4.54384 45.7278 4.44865 45.4569 4.44865 45.2482V45.2116C4.44865 44.948 4.55482 44.71 5.08207 44.71C5.58734 44.71 5.71551 44.9296 5.71551 45.2116V45.2482ZM5.75211 47.1741C5.75211 47.4341 5.63129 47.5842 5.09673 47.5842C4.5768 47.5842 4.41935 47.4194 4.41935 47.1558V47.1155C4.41935 46.8702 4.51455 46.753 4.65002 46.6359L5.18093 46.7714C5.602 46.8775 5.75211 46.9544 5.75211 47.1375V47.1741ZM7.16542 43.8752V43.5017C7.16542 43.4504 7.1215 43.4065 7.07024 43.4065H6.83224C6.78098 43.4065 6.73704 43.4504 6.73704 43.5017V43.8752C6.73704 43.9264 6.77732 43.9667 6.83224 43.9667H7.07024C7.1215 43.9667 7.16542 43.9264 7.16542 43.8752ZM7.15445 46.8665V44.4756C7.15445 44.4244 7.11051 44.3804 7.05925 44.3804H6.8359C6.78464 44.3804 6.74437 44.4244 6.74437 44.4756V46.8665C6.74437 46.9178 6.78831 46.9617 6.8359 46.9617H7.05925C7.11051 46.9617 7.15445 46.9178 7.15445 46.8665ZM9.22314 46.8922V46.7274C9.22314 46.6798 9.1902 46.6615 9.1243 46.6615H8.86066C8.67393 46.6615 8.60802 46.6249 8.60802 46.3649V44.7283H9.1133C9.16456 44.7283 9.2085 44.688 9.2085 44.6367V44.4756C9.2085 44.4244 9.16456 44.3804 9.1133 44.3804H8.60802V43.8678C8.60802 43.8202 8.57507 43.7873 8.53846 43.7873H8.52382L8.27851 43.8239C8.22725 43.8349 8.19428 43.8715 8.19428 43.9191V44.3768H7.74027C7.68901 44.3768 7.64873 44.4097 7.64873 44.461V44.5891C7.64873 44.6404 7.68534 44.6697 7.74027 44.6733L8.19428 44.7246V46.3613C8.19428 46.8775 8.39934 46.991 8.83139 46.991C8.91926 46.991 9.04373 46.98 9.13527 46.9691C9.19751 46.9617 9.22314 46.9324 9.22314 46.8922ZM11.5006 46.8665V45.2299C11.5006 44.677 11.2369 44.3475 10.5852 44.3475C10.2667 44.3475 10.0506 44.3768 9.86025 44.4097C9.79434 44.4207 9.76138 44.4463 9.76138 44.4976V44.6624C9.76138 44.7246 9.80531 44.7356 9.84559 44.7356H9.86756C10.0543 44.7173 10.2813 44.699 10.5852 44.699C10.9513 44.699 11.0868 44.8344 11.0868 45.2299V45.4166H10.739C9.90417 45.4166 9.60761 45.6693 9.60761 46.1745V46.2295C9.60761 46.8153 9.97374 46.991 10.3728 46.991C10.6365 46.991 10.8708 46.8922 11.0941 46.7604V46.8629C11.0941 46.9141 11.1381 46.9581 11.1893 46.9581H11.4054C11.4566 46.9617 11.5006 46.9178 11.5006 46.8665ZM11.0868 46.4674C10.8635 46.5883 10.6694 46.6542 10.4534 46.6542C10.1825 46.6542 10.0214 46.5663 10.0214 46.2258V46.1709C10.0214 45.8377 10.1715 45.7095 10.739 45.7095H11.0868V46.4674ZM12.5807 46.8665V43.5237C12.5807 43.4724 12.5441 43.4358 12.4965 43.4358H12.2511C12.1999 43.4358 12.1669 43.4761 12.1669 43.5237V46.8665C12.1669 46.9178 12.2036 46.9617 12.2511 46.9617H12.4965C12.5514 46.9617 12.5807 46.9141 12.5807 46.8665ZM16.4801 46.9068V46.6688C16.4801 46.6359 16.4618 46.6139 16.4289 46.6139H15.5245C15.0265 46.6139 14.946 46.4821 14.946 46.1269V45.3397H16.3849C16.4362 45.3397 16.4801 45.2995 16.4801 45.2482V45.0688C16.4801 45.0175 16.4398 44.9773 16.3849 44.9773H14.946V44.3255C14.946 43.9703 15.0265 43.8385 15.5245 43.8385H16.4289C16.4618 43.8385 16.4801 43.8166 16.4801 43.7836V43.5493C16.4801 43.52 16.4618 43.487 16.4325 43.4834C16.2348 43.4651 15.7954 43.4541 15.5171 43.4541C14.8617 43.4541 14.5176 43.7031 14.5176 44.3255V46.1306C14.5176 46.753 14.8581 47.002 15.5171 47.002C15.7954 47.002 16.2531 46.9984 16.4325 46.98C16.4618 46.9654 16.4801 46.9325 16.4801 46.9068ZM19.0431 46.8665V45.3251C19.0431 44.7026 18.7905 44.3511 18.2266 44.3511C17.9483 44.3511 17.7396 44.4207 17.4797 44.5672V44.4756C17.4797 44.4244 17.443 44.3804 17.3918 44.3804H17.1575C17.1062 44.3804 17.0696 44.4244 17.0696 44.4756V46.8665C17.0696 46.9178 17.1135 46.9617 17.1575 46.9617H17.3881C17.4394 46.9617 17.4833 46.9141 17.4833 46.8665V44.8857C17.6993 44.7795 17.919 44.7026 18.1168 44.7026C18.4719 44.7026 18.633 44.8491 18.633 45.3214V46.8629C18.633 46.9141 18.677 46.9581 18.7282 46.9581H18.9516C19.0028 46.9617 19.0431 46.9178 19.0431 46.8665ZM21.8258 44.6074V44.4866C21.8258 44.4317 21.7745 44.3841 21.7196 44.3841H20.6907C19.8852 44.3841 19.6509 44.7978 19.6509 45.2152V45.2519C19.6509 45.4935 19.7205 45.6619 19.8669 45.7974C19.7351 45.8706 19.6729 46.0061 19.6729 46.1343V46.1379C19.6729 46.2844 19.7388 46.4382 19.8889 46.5041L19.9218 46.5187C19.7681 46.6359 19.6289 46.8519 19.6289 47.1155V47.1558C19.6289 47.6135 19.9658 47.9027 20.7091 47.9027C21.478 47.9027 21.7782 47.6245 21.7782 47.1741V47.1375C21.7782 46.6945 21.3388 46.5663 20.8775 46.4491L20.1782 46.2697C20.072 46.2404 20.0317 46.2002 20.0317 46.1196C20.0317 46.0501 20.0683 45.9988 20.1489 45.9585C20.2843 46.0171 20.4454 46.0537 20.6944 46.0537C21.4194 46.0537 21.7343 45.7681 21.7343 45.2519V45.2152C21.7343 44.9626 21.661 44.8198 21.5732 44.7319L21.7416 44.699C21.7928 44.688 21.8258 44.666 21.8258 44.6074ZM21.3242 45.2482C21.3242 45.5301 21.196 45.7278 20.6907 45.7278C20.1525 45.7278 20.0573 45.4569 20.0573 45.2482V45.2116C20.0573 44.948 20.1635 44.71 20.6907 44.71C21.196 44.71 21.3242 44.9296 21.3242 45.2116V45.2482ZM21.3608 47.1741C21.3608 47.4341 21.24 47.5842 20.7054 47.5842C20.1855 47.5842 20.028 47.4194 20.028 47.1558V47.1155C20.028 46.8702 20.1232 46.753 20.2587 46.6359L20.7896 46.7714C21.2107 46.8775 21.3608 46.9544 21.3608 47.1375V47.1741ZM22.7961 43.8752V43.5017C22.7961 43.4504 22.7521 43.4065 22.7009 43.4065H22.4629C22.4116 43.4065 22.3677 43.4504 22.3677 43.5017V43.8752C22.3677 43.9264 22.4116 43.9667 22.4629 43.9667H22.7009C22.7521 43.9667 22.7961 43.9264 22.7961 43.8752ZM22.7851 46.8665V44.4756C22.7851 44.4244 22.7448 44.3804 22.6899 44.3804H22.4629C22.4116 44.3804 22.3713 44.4244 22.3713 44.4756V46.8665C22.3713 46.9178 22.4116 46.9617 22.4629 46.9617H22.6899C22.7448 46.9617 22.7851 46.9178 22.7851 46.8665ZM25.4579 46.8665V45.3251C25.4579 44.7026 25.2053 44.3511 24.6414 44.3511C24.3632 44.3511 24.1545 44.4207 23.8945 44.5672V44.4756C23.8945 44.4244 23.8579 44.3804 23.8066 44.3804H23.5723C23.521 44.3804 23.4844 44.4244 23.4844 44.4756V46.8665C23.4844 46.9178 23.5283 46.9617 23.5723 46.9617H23.803C23.8542 46.9617 23.8982 46.9141 23.8982 46.8665V44.8857C24.1142 44.7795 24.3339 44.7026 24.5316 44.7026C24.8904 44.7026 25.0478 44.8491 25.0478 45.3214V46.8629C25.0478 46.9141 25.0881 46.9581 25.143 46.9581H25.3664C25.4177 46.9617 25.4579 46.9178 25.4579 46.8665ZM28.1198 45.6985V45.4459C28.1198 44.7795 27.772 44.3475 27.0873 44.3475C26.4172 44.3475 26.0474 44.7722 26.0474 45.4459V45.867C26.0474 46.7421 26.571 46.9947 27.1129 46.9947C27.4278 46.9947 27.6841 46.9654 27.9514 46.9141C28.0246 46.8995 28.0466 46.8666 28.0466 46.808V46.6469C28.0466 46.5993 28.0099 46.581 27.9697 46.581H27.9477C27.7317 46.6139 27.3838 46.6322 27.1129 46.6322C26.6809 46.6322 26.4612 46.4272 26.4612 45.867V45.8011H28.0319C28.0868 45.8011 28.1198 45.7608 28.1198 45.6985ZM27.7024 45.4899H26.4575V45.4459C26.4575 44.9406 26.6845 44.71 27.0873 44.71C27.501 44.71 27.7024 44.9187 27.7024 45.4459V45.4899ZM30.7084 45.6985V45.4459C30.7084 44.7795 30.3606 44.3475 29.6759 44.3475C29.0059 44.3475 28.636 44.7722 28.636 45.4459V45.867C28.636 46.7421 29.1596 46.9947 29.7015 46.9947C30.0164 46.9947 30.2727 46.9654 30.54 46.9141C30.6132 46.8995 30.6352 46.8666 30.6352 46.808V46.6469C30.6352 46.5993 30.5986 46.581 30.5583 46.581H30.5363C30.3203 46.6139 29.9725 46.6322 29.7015 46.6322C29.2695 46.6322 29.0498 46.4272 29.0498 45.867V45.8011H30.6205C30.6755 45.8011 30.7084 45.7608 30.7084 45.6985ZM30.291 45.4899H29.0461V45.4459C29.0461 44.9406 29.2731 44.71 29.6759 44.71C30.0896 44.71 30.291 44.9187 30.291 45.4459V45.4899ZM32.4439 44.6257V44.4354C32.4439 44.3804 32.411 44.3511 32.3451 44.3511C32.1327 44.3511 31.9167 44.4134 31.6824 44.5745V44.4756C31.6824 44.4244 31.6457 44.3804 31.5945 44.3804H31.3748C31.3235 44.3804 31.2869 44.4244 31.2869 44.4756V46.8665C31.2869 46.9178 31.3272 46.9617 31.3748 46.9617H31.6055C31.6567 46.9617 31.697 46.9141 31.697 46.8665V44.9004C31.9313 44.7612 32.129 44.7026 32.3451 44.7026C32.411 44.7026 32.4439 44.677 32.4439 44.6257ZM33.3922 43.8752V43.5017C33.3922 43.4504 33.3483 43.4065 33.297 43.4065H33.0591C33.0078 43.4065 32.9675 43.4504 32.9675 43.5017V43.8752C32.9675 43.9264 33.0115 43.9667 33.0591 43.9667H33.297C33.3483 43.9667 33.3922 43.9264 33.3922 43.8752ZM33.3813 46.8665V44.4756C33.3813 44.4244 33.341 44.3804 33.2861 44.3804H33.0627C33.0115 44.3804 32.9712 44.4244 32.9712 44.4756V46.8665C32.9712 46.9178 33.0115 46.9617 33.0627 46.9617H33.2861C33.341 46.9617 33.3813 46.9178 33.3813 46.8665ZM36.0541 46.8665V45.3251C36.0541 44.7026 35.8015 44.3511 35.2376 44.3511C34.963 44.3511 34.7506 44.4207 34.4907 44.5672V44.4756C34.4907 44.4244 34.4541 44.3804 34.4028 44.3804H34.1685C34.1172 44.3804 34.0769 44.4244 34.0769 44.4756V46.8665C34.0769 46.9178 34.1209 46.9617 34.1685 46.9617H34.3991C34.4504 46.9617 34.4943 46.9141 34.4943 46.8665V44.8857C34.7104 44.7795 34.93 44.7026 35.1278 44.7026C35.4829 44.7026 35.644 44.8491 35.644 45.3214V46.8629C35.644 46.9141 35.688 46.9581 35.7392 46.9581H35.9626C36.0138 46.9617 36.0541 46.9178 36.0541 46.8665ZM38.8368 44.6074V44.4866C38.8368 44.4317 38.7855 44.3841 38.7306 44.3841H37.7017C36.8962 44.3841 36.6619 44.7978 36.6619 45.2152V45.2519C36.6619 45.4935 36.7315 45.6619 36.8779 45.7974C36.7461 45.8706 36.6839 46.0061 36.6839 46.1343V46.1379C36.6839 46.2844 36.7498 46.4382 36.8999 46.5041L36.9329 46.5187C36.7791 46.6359 36.6363 46.8519 36.6363 47.1155V47.1558C36.6363 47.6135 36.9731 47.9027 37.7164 47.9027C38.4853 47.9027 38.7855 47.6245 38.7855 47.1741V47.1375C38.7855 46.6945 38.3425 46.5663 37.8848 46.4491L37.1855 46.2697C37.0793 46.2404 37.039 46.2002 37.039 46.1196C37.039 46.0501 37.0756 45.9988 37.1562 45.9585C37.2917 46.0171 37.4528 46.0537 37.7017 46.0537C38.423 46.0537 38.7416 45.7681 38.7416 45.2519V45.2152C38.7416 44.9626 38.6647 44.8198 38.5805 44.7319L38.7489 44.699C38.8038 44.688 38.8368 44.666 38.8368 44.6074ZM38.3352 45.2482C38.3352 45.5301 38.207 45.7278 37.7017 45.7278C37.1635 45.7278 37.0683 45.4569 37.0683 45.2482V45.2116C37.0683 44.948 37.1745 44.71 37.7017 44.71C38.207 44.71 38.3352 44.9296 38.3352 45.2116V45.2482ZM38.3718 47.1741C38.3718 47.4341 38.2509 47.5842 37.7127 47.5842C37.1928 47.5842 37.0354 47.4194 37.0354 47.1558V47.1155C37.0354 46.8702 37.1306 46.753 37.266 46.6359L37.7969 46.7714C38.218 46.8775 38.3681 46.9544 38.3681 47.1375V47.1741H38.3718ZM41.235 45.7132C41.235 45.7974 41.1655 45.867 41.0812 45.867H40.6858C40.6016 45.867 40.532 45.7974 40.532 45.7132V45.0871C40.532 45.0029 40.6016 44.9297 40.6858 44.9297H41.0812C41.1655 44.9297 41.235 44.9992 41.235 45.0871V45.7132ZM45.4676 45.6949V43.5639C45.4676 43.5127 45.4273 43.4761 45.3798 43.4761H45.1271C45.0759 43.4761 45.0392 43.52 45.0392 43.5639V45.6949C45.0392 46.3063 44.8525 46.6286 44.274 46.6286C43.6955 46.6286 43.5088 46.299 43.5088 45.6949V43.5639C43.5088 43.5127 43.4685 43.4761 43.4209 43.4761H43.1683C43.117 43.4761 43.0804 43.52 43.0804 43.5639V45.6949C43.0804 46.5919 43.5198 46.9947 44.274 46.9947C45.0319 46.9947 45.4676 46.5919 45.4676 45.6949ZM48.1002 46.8665V45.3214C48.1002 44.699 47.8476 44.3475 47.2874 44.3475C47.0128 44.3475 46.8004 44.4171 46.5441 44.5635V44.4756C46.5441 44.4244 46.5075 44.3804 46.4562 44.3804H46.2219C46.1706 44.3804 46.134 44.4244 46.134 44.4756V46.8665C46.134 46.9178 46.1743 46.9617 46.2219 46.9617H46.4489C46.5002 46.9617 46.5441 46.9141 46.5441 46.8665V44.8857C46.7601 44.7795 46.9798 44.7026 47.1739 44.7026C47.529 44.7026 47.6865 44.8491 47.6865 45.3214V46.8665C47.6865 46.9178 47.7267 46.9617 47.778 46.9617H48.0013C48.0599 46.9617 48.1002 46.9178 48.1002 46.8665ZM49.184 43.8752V43.5017C49.184 43.4504 49.1437 43.4101 49.0924 43.4101H48.8545C48.8032 43.4101 48.7593 43.4504 48.7593 43.5017V43.8752C48.7593 43.9264 48.8032 43.9667 48.8545 43.9667H49.0924C49.1437 43.9667 49.184 43.9264 49.184 43.8752ZM49.1767 46.8665V44.4756C49.1767 44.4244 49.1364 44.3804 49.0815 44.3804H48.8581C48.8069 44.3804 48.7629 44.4244 48.7629 44.4756V46.8665C48.7629 46.9178 48.8069 46.9617 48.8581 46.9617H49.0815C49.1364 46.9617 49.1767 46.9178 49.1767 46.8665ZM51.8129 44.461C51.8129 44.4134 51.7836 44.3804 51.7397 44.3804H51.4834C51.4468 44.3804 51.4138 44.4097 51.3955 44.472L50.8573 46.515C50.828 46.6286 50.8023 46.6505 50.7584 46.6505C50.7108 46.6505 50.6888 46.6286 50.6595 46.515L50.1213 44.472C50.103 44.4097 50.07 44.3804 50.0334 44.3804H49.7771C49.7295 44.3804 49.7039 44.4134 49.7039 44.461C49.7039 44.472 49.7039 44.4793 49.7076 44.4939L50.3373 46.7274C50.3996 46.9398 50.557 46.9947 50.7584 46.9947C50.9598 46.9947 51.1172 46.9398 51.1795 46.7274L51.8092 44.4939C51.8129 44.4793 51.8129 44.472 51.8129 44.461ZM54.2441 45.6985V45.4459C54.2441 44.7795 53.8999 44.3475 53.2189 44.3475C52.5525 44.3475 52.1827 44.7759 52.1827 45.4459V45.867C52.1827 46.7421 52.7063 46.9947 53.2445 46.9947C53.5557 46.9947 53.8157 46.9654 54.0793 46.9141C54.1525 46.8995 54.1745 46.8666 54.1745 46.808V46.6469C54.1745 46.5993 54.1379 46.581 54.1013 46.581H54.0793C53.8633 46.6139 53.5191 46.6322 53.2482 46.6322C52.8161 46.6322 52.6001 46.4272 52.6001 45.867V45.8011H54.1635C54.2111 45.8011 54.2441 45.7608 54.2441 45.6985ZM53.8303 45.4899H52.5928V45.4459C52.5928 44.9406 52.8161 44.71 53.2189 44.71C53.629 44.71 53.8303 44.915 53.8303 45.4459V45.4899ZM55.9467 44.6257V44.4354C55.9467 44.3768 55.9137 44.3511 55.8478 44.3511C55.6391 44.3511 55.4231 44.4134 55.1887 44.5745V44.4756C55.1887 44.4244 55.1521 44.3804 55.1009 44.3804H54.8812C54.8299 44.3804 54.7933 44.4244 54.7933 44.4756V46.8665C54.7933 46.9178 54.8372 46.9617 54.8812 46.9617H55.1082C55.1594 46.9617 55.2034 46.9141 55.2034 46.8665V44.9004C55.4377 44.7612 55.6318 44.7026 55.8478 44.7026C55.9137 44.7026 55.9467 44.677 55.9467 44.6257ZM58.0666 46.3137C58.0666 46.0354 57.9421 45.834 57.554 45.607L57.0927 45.3287C56.8767 45.2006 56.7705 45.1127 56.7705 44.9736C56.7705 44.7356 56.9426 44.7026 57.2062 44.7026C57.4661 44.7026 57.7664 44.7246 57.9275 44.7393H57.9421C57.9897 44.7393 58.0227 44.7173 58.0227 44.6587V44.5049C58.0227 44.4537 57.9934 44.4207 57.9348 44.4097C57.7151 44.3731 57.4698 44.3475 57.2062 44.3475C56.7265 44.3475 56.3604 44.483 56.3604 44.9699C56.3604 45.2665 56.5508 45.4679 56.8364 45.64L57.3087 45.9219C57.576 46.0793 57.6602 46.1709 57.6602 46.31C57.6602 46.5626 57.4991 46.6432 57.1989 46.6432C57.0304 46.6432 56.6899 46.6212 56.4666 46.5919H56.4483C56.4007 46.5919 56.364 46.6212 56.364 46.6615V46.8263C56.364 46.8775 56.4007 46.9068 56.4629 46.9178C56.6899 46.9727 57.0268 46.9874 57.1989 46.9874C57.7188 46.9947 58.0666 46.7933 58.0666 46.3137ZM59.0405 43.8752V43.5017C59.0405 43.4504 58.9966 43.4101 58.949 43.4101H58.711C58.6598 43.4101 58.6158 43.4504 58.6158 43.5017V43.8752C58.6158 43.9264 58.6598 43.9667 58.711 43.9667H58.949C58.9966 43.9667 59.0405 43.9264 59.0405 43.8752ZM59.0296 46.8665V44.4756C59.0296 44.4244 58.9856 44.3804 58.938 44.3804H58.7147C58.6634 44.3804 58.6232 44.4244 58.6232 44.4756V46.8665C58.6232 46.9178 58.6634 46.9617 58.7147 46.9617H58.938C58.9893 46.9617 59.0296 46.9178 59.0296 46.8665ZM61.091 46.8922V46.7274C61.091 46.6798 61.058 46.6615 60.9921 46.6615H60.7321C60.5454 46.6615 60.4795 46.6249 60.4795 46.3649V44.7283H60.9848C61.036 44.7283 61.0763 44.6843 61.0763 44.6367V44.4756C61.0763 44.4244 61.0324 44.3804 60.9848 44.3804H60.4795V43.8678C60.4795 43.8202 60.4465 43.7873 60.4099 43.7873H60.3953L60.1536 43.8239C60.1024 43.8349 60.0694 43.8715 60.0694 43.9191V44.3768H59.6154C59.5641 44.3768 59.5275 44.4097 59.5275 44.461V44.5891C59.5275 44.6404 59.5641 44.6697 59.6154 44.6733L60.0694 44.7246V46.3613C60.0694 46.8775 60.2745 46.991 60.7028 46.991C60.7907 46.991 60.9116 46.98 61.0068 46.9691C61.0653 46.9617 61.091 46.9324 61.091 46.8922ZM63.3537 46.8665V45.2299C63.3537 44.677 63.0938 44.3475 62.4457 44.3475C62.1271 44.3475 61.9111 44.3768 61.7207 44.4097C61.6548 44.4207 61.6219 44.4463 61.6219 44.4976V44.6624C61.6219 44.7246 61.6621 44.7356 61.7061 44.7356H61.728C61.9148 44.7173 62.1381 44.699 62.442 44.699C62.8045 44.699 62.94 44.8344 62.94 45.2299V45.4166H62.5958C61.7647 45.4166 61.4717 45.6693 61.4717 46.1745V46.2295C61.4717 46.8153 61.8342 46.991 62.2333 46.991C62.4933 46.991 62.7276 46.8922 62.951 46.7604V46.8629C62.951 46.9141 62.9912 46.9581 63.0461 46.9581H63.2622C63.3134 46.9617 63.3537 46.9178 63.3537 46.8665ZM62.9436 46.4674C62.7203 46.5883 62.5299 46.6542 62.3139 46.6542C62.0429 46.6542 61.8855 46.5663 61.8855 46.2258V46.1709C61.8855 45.8377 62.0356 45.7095 62.5995 45.7095H62.9436V46.4674ZM63.0608 43.8642V43.4834C63.0608 43.4358 63.0132 43.3918 62.9656 43.3918H62.7825C62.7349 43.3918 62.691 43.4394 62.691 43.4834V43.8642C62.691 43.9154 62.7386 43.952 62.7825 43.952H62.9656C63.0132 43.9557 63.0608 43.9154 63.0608 43.8642ZM62.2443 43.8642V43.4834C62.2443 43.4358 62.1967 43.3918 62.1528 43.3918H61.9697C61.9221 43.3918 61.8782 43.4394 61.8782 43.4834V43.8642C61.8782 43.9154 61.9257 43.952 61.9697 43.952H62.1528C62.1967 43.9557 62.2443 43.9154 62.2443 43.8642ZM65.3309 46.8922V46.7274C65.3309 46.6798 65.2979 46.6615 65.232 46.6615H64.9684C64.7817 46.6615 64.7158 46.6249 64.7158 46.3649V44.7283H65.2174C65.2687 44.7283 65.3126 44.6843 65.3126 44.6367V44.4756C65.3126 44.4244 65.2723 44.3804 65.2174 44.3804H64.7158V43.8678C64.7158 43.8202 64.6828 43.7873 64.6462 43.7873H64.6316L64.3899 43.8239C64.3386 43.8349 64.3057 43.8715 64.3057 43.9191V44.3768H63.8517C63.8004 44.3768 63.7638 44.4097 63.7638 44.461V44.5891C63.7638 44.6404 63.8004 44.6697 63.8517 44.6733L64.3057 44.7246V46.3613C64.3057 46.8775 64.5107 46.991 64.9391 46.991C65.027 46.991 65.1478 46.98 65.243 46.9691C65.3089 46.9617 65.3309 46.9324 65.3309 46.8922ZM69.2047 44.5232V44.4646C69.2047 43.7067 68.6555 43.4468 67.8975 43.4468C67.6266 43.4468 67.3227 43.4614 67.1213 43.4834C67.0518 43.4944 67.0078 43.5346 67.0078 43.6006V46.8702C67.0078 46.9215 67.0444 46.9654 67.092 46.9654H67.3447C67.3959 46.9654 67.4289 46.9178 67.4289 46.8702V45.5521C67.5497 45.5631 67.7474 45.5741 67.8939 45.5741C68.6555 45.5741 69.2047 45.3068 69.2047 44.5232ZM68.78 44.5232C68.78 45.0139 68.5346 45.2189 67.8975 45.2189C67.7767 45.2189 67.5387 45.2043 67.4326 45.2006V43.8239C67.5424 43.8129 67.7547 43.8056 67.8975 43.8056C68.5017 43.8056 68.78 43.9887 68.78 44.461V44.5232ZM71.7164 45.8487V45.4935C71.7164 44.8052 71.3613 44.3511 70.6766 44.3511C69.9919 44.3511 69.6404 44.8052 69.6404 45.4935V45.8487C69.6404 46.5407 69.9919 46.9947 70.6766 46.9947C71.3613 46.9947 71.7164 46.5407 71.7164 45.8487ZM71.3063 45.8487C71.3063 46.332 71.1086 46.6322 70.6766 46.6322C70.2372 46.6322 70.0505 46.3283 70.0505 45.8487V45.4935C70.0505 45.0102 70.2409 44.71 70.6766 44.71C71.1159 44.71 71.3063 45.0139 71.3063 45.4935V45.8487ZM73.5984 46.8922V46.7274C73.5984 46.6798 73.5655 46.6615 73.4995 46.6615H73.2359C73.0492 46.6615 72.9833 46.6249 72.9833 46.3649V44.7283H73.4849C73.5361 44.7283 73.5801 44.6843 73.5801 44.6367V44.4756C73.5801 44.4244 73.5361 44.3804 73.4849 44.3804H72.9833V43.8678C72.9833 43.8202 72.9503 43.7873 72.9137 43.7873H72.8991L72.6574 43.8239C72.6061 43.8349 72.5732 43.8715 72.5732 43.9191V44.3768H72.1192C72.0679 44.3768 72.0313 44.4097 72.0313 44.461V44.5891C72.0313 44.6404 72.0679 44.6697 72.1192 44.6733L72.5732 44.7246V46.3613C72.5732 46.8775 72.7782 46.991 73.2066 46.991C73.2945 46.991 73.4153 46.98 73.5105 46.9691C73.5728 46.9617 73.5984 46.9324 73.5984 46.8922ZM75.733 46.3137C75.733 46.0354 75.6049 45.834 75.2204 45.607L74.7591 45.3287C74.5431 45.2006 74.4369 45.1127 74.4369 44.9736C74.4369 44.7356 74.609 44.7026 74.8726 44.7026C75.1325 44.7026 75.4328 44.7246 75.5939 44.7393H75.6085C75.6561 44.7393 75.6891 44.7173 75.6891 44.6587V44.5049C75.6891 44.4537 75.6598 44.4207 75.6012 44.4097C75.3815 44.3731 75.1362 44.3475 74.8726 44.3475C74.3929 44.3475 74.0268 44.483 74.0268 44.9699C74.0268 45.2665 74.2172 45.4679 74.5028 45.64L74.9714 45.9219C75.2387 46.0793 75.3229 46.1709 75.3229 46.31C75.3229 46.5626 75.1655 46.6432 74.8616 46.6432C74.6932 46.6432 74.3526 46.6212 74.1293 46.5919H74.111C74.0634 46.5919 74.0268 46.6212 74.0268 46.6615V46.8263C74.0268 46.8775 74.0634 46.9068 74.1256 46.9178C74.3526 46.9727 74.6895 46.9874 74.8616 46.9874C75.3815 46.9947 75.733 46.7933 75.733 46.3137ZM78.1788 46.808V43.5237C78.1788 43.4724 78.1422 43.4358 78.0946 43.4358H77.8566C77.8054 43.4358 77.7688 43.4761 77.7688 43.5237V44.3951C77.5857 44.3621 77.366 44.3475 77.2232 44.3475C76.5422 44.3475 76.2053 44.7612 76.2053 45.4972V45.834C76.2053 46.537 76.5275 46.991 77.2232 46.991C77.5088 46.991 77.7944 46.9691 78.08 46.9105C78.1642 46.8995 78.1788 46.8666 78.1788 46.808ZM77.7688 46.6029C77.6113 46.6176 77.3807 46.6322 77.2232 46.6322C76.7619 46.6322 76.6154 46.3466 76.6154 45.834V45.4972C76.6154 44.9956 76.7655 44.71 77.2232 44.71C77.3733 44.71 77.615 44.7136 77.7688 44.7429V46.6029ZM80.5844 46.8665V45.2299C80.5844 44.677 80.3244 44.3475 79.6764 44.3475C79.3578 44.3475 79.1418 44.3768 78.9514 44.4097C78.8855 44.4207 78.8526 44.4463 78.8526 44.4976V44.6624C78.8526 44.7246 78.8928 44.7356 78.9368 44.7356H78.9587C79.1455 44.7173 79.3688 44.699 79.6727 44.699C80.0352 44.699 80.1743 44.8344 80.1743 45.2299V45.4166H79.8265C78.9953 45.4166 78.7024 45.6693 78.7024 46.1745V46.2295C78.7024 46.8153 79.0649 46.991 79.464 46.991C79.7276 46.991 79.9583 46.8922 80.1817 46.7604V46.8629C80.1817 46.9141 80.2256 46.9581 80.2768 46.9581H80.4929C80.5441 46.9617 80.5844 46.9178 80.5844 46.8665ZM80.1743 46.4674C79.951 46.5883 79.7569 46.6542 79.5445 46.6542C79.2736 46.6542 79.1162 46.5663 79.1162 46.2258V46.1709C79.1162 45.8377 79.2663 45.7095 79.8301 45.7095H80.178V46.4674H80.1743ZM84.3191 46.8665V45.2043C84.3191 44.5525 83.9822 44.3402 83.5611 44.3402C83.3195 44.3402 83.0449 44.4097 82.7849 44.5306C82.6678 44.3951 82.5176 44.3402 82.3199 44.3402C82.0636 44.3402 81.8256 44.4427 81.6389 44.5598V44.472C81.6389 44.4207 81.6023 44.3768 81.551 44.3768H81.3167C81.2654 44.3768 81.2288 44.4207 81.2288 44.472V46.8629C81.2288 46.9141 81.2618 46.9581 81.3094 46.9581H81.5547C81.6059 46.9581 81.6389 46.9105 81.6389 46.8629V44.8821C81.8366 44.7832 82.0416 44.699 82.2101 44.699C82.4517 44.699 82.5689 44.7832 82.5689 45.1933V46.8629C82.5689 46.9141 82.6019 46.9581 82.6495 46.9581H82.8948C82.946 46.9581 82.979 46.9105 82.979 46.8629V45.1933C82.979 45.0541 82.968 44.9297 82.9387 44.8271C83.1218 44.7576 83.3158 44.699 83.4842 44.699C83.7259 44.699 83.909 44.8088 83.909 45.2006V46.8629C83.909 46.9141 83.9493 46.9581 84.0005 46.9581H84.2239C84.2751 46.9617 84.3191 46.9178 84.3191 46.8665Z" fill="#595F61"/>
</svg>
