<svg width="96" height="32" viewBox="0 0 96 32" fill="none" xmlns="http://www.w3.org/2000/svg">
<g opacity="0.4">
<path d="M28.2783 9.04735L30.2673 11.9898L31.5246 10.1056L29.5011 7.19141L28.2783 9.04735Z" fill="#777777"/>
<path d="M33.4856 7.15707V7.15393L31.4653 4.21143L31.4622 4.2177L32.6818 5.98886L33.4856 7.15707Z" fill="#777777"/>
<path d="M26.3173 12.021L25.0538 13.9366L27.0147 16.8823L28.3126 14.9321L26.3173 12.021Z" fill="#777777"/>
<path d="M23.0993 16.9043L13.4887 31.4849H17.2979L25.0602 19.8185L24.6631 19.225L23.0993 16.9043Z" fill="#777777"/>
<path d="M34.8082 9.08469L36.8317 12.0272L36.8348 12.0241L34.8113 9.08154L34.8082 9.08469Z" fill="#777777"/>
<path d="M26.4675 21.9072L20.2314 31.4853H24.0438L28.4253 24.8183L26.4675 21.9072Z" fill="#777777"/>
<path d="M32.8784 12.0498L31.6212 13.9874L33.6134 16.9299H33.6102L34.9019 14.9609L34.6986 14.6688L32.8784 12.0498Z" fill="#777777"/>
<path d="M28.3911 18.9491V18.9523V18.9491L29.2731 20.2744L30.3489 21.8948L31.6874 19.8567L29.6921 16.9487L28.3911 18.9491Z" fill="#777777"/>
<path d="M27.9815 0.0219727C27.9595 0.0282533 27.9407 0.0376671 27.9187 0.0439478C27.9375 0.0376671 27.9564 0.0282533 27.9815 0.0219727Z" fill="#777777"/>
<path d="M24.9758 4.1733L26.9649 7.10951V7.11266L28.1846 5.30068L26.158 2.3833L23.0431 7.05299L24.9758 4.1733Z" fill="#777777"/>
<path d="M24.9755 10.0678L23.8371 8.40653L22.9771 7.15039L21.7574 8.97807L23.7214 11.93L24.9755 10.0678Z" fill="#777777"/>
<path d="M29.0135 0.653462L30.1769 2.34611V2.34297L29.0166 0.653462C28.8853 0.461901 28.6601 0.00341797 28.1629 0.00341797C28.0972 0.00341797 28.0378 0.00969137 27.9846 0.0253931C28.0409 0.0128317 28.0972 0.00655179 28.1597 0.00655179C28.657 0.00341145 28.8822 0.461901 29.0135 0.653462Z" fill="#777777"/>
<path d="M19.7684 11.9585L6.74268 31.4852H10.5581L21.7356 14.879L20.6973 13.334L19.7684 11.9585Z" fill="#777777"/>
<path d="M18.3737 9.8888L16.3815 6.92432L0 31.4849H3.81234L18.3737 9.8888Z" fill="#777777"/>
<path d="M18.2054 4.56348C18.152 4.57604 18.1049 4.59487 18.0578 4.61686C18.1049 4.59801 18.152 4.57918 18.2054 4.56348Z" fill="#777777"/>
<path d="M18.3861 4.54102C18.8833 4.54102 19.1085 5.00265 19.2398 5.18793L20.2875 6.76124L19.243 5.18479C19.1116 4.99951 18.8864 4.54102 18.3861 4.54102C18.3235 4.54102 18.2641 4.5473 18.2078 4.55986C18.2641 4.55044 18.3204 4.54102 18.3861 4.54102Z" fill="#777777"/>
<path d="M28.4283 24.8182L32.9162 31.4852H36.7285L30.3486 21.8945L29.1664 23.694L28.4283 24.8182Z" fill="#4E4E4E"/>
<path d="M25.0542 13.9373L23.7219 11.9307V11.9338L21.736 14.8795L23.0995 16.905L24.0065 15.5264L25.0542 13.9373Z" fill="#4E4E4E"/>
<path d="M27.0148 16.8823L25.0601 19.8185L26.4675 21.9069L28.3908 18.9487L27.0148 16.8823Z" fill="#4E4E4E"/>
<path d="M21.7575 8.97789L20.2845 6.76709L20.3064 6.7985L20.3658 6.88957L20.3721 6.89585L20.3815 6.91155L18.3768 9.88859L19.7685 11.9581L20.247 11.2389L21.7575 8.97789Z" fill="#4E4E4E"/>
<path d="M17.5358 5.19127C17.5671 5.15045 17.6047 5.09078 17.6453 5.02484C17.6766 4.97773 17.711 4.93062 17.7485 4.88352C17.7548 4.8741 17.761 4.86782 17.7673 4.8584C17.6641 4.98401 17.589 5.11591 17.5358 5.19127L16.5163 6.72062L17.5358 5.19127Z" fill="#4E4E4E"/>
<path d="M17.9458 4.68841C17.9489 4.68841 17.9489 4.68527 17.9458 4.68841C17.8798 4.73237 17.8201 4.79204 17.7699 4.8517C17.773 4.84856 17.7825 4.84229 17.7856 4.83915C17.8358 4.78576 17.8861 4.73237 17.9458 4.68841Z" fill="#4E4E4E"/>
<path d="M18.0582 4.61621C18.0268 4.63191 17.9985 4.6539 17.9702 4.67274C17.9702 4.67274 17.9734 4.67274 17.9765 4.6696C18.0048 4.65076 18.0299 4.63191 18.0582 4.61621Z" fill="#4E4E4E"/>
<path d="M25.0538 13.937L27.0147 16.8827L25.0538 13.937Z" fill="#4E4E4E"/>
<path d="M23.0995 16.905L24.0096 15.5264L23.0995 16.905L24.6632 19.2257L23.0995 16.905Z" fill="#4E4E4E"/>
<path d="M28.391 18.9519V18.9487L26.4645 21.9069L28.391 18.9519Z" fill="#4E4E4E"/>
<path d="M30.3487 21.8948L29.1665 23.6974L30.3487 21.8948L29.2697 20.2744L30.3487 21.8948Z" fill="#4E4E4E"/>
<path d="M23.7214 11.9302L21.7574 8.98145L23.7214 11.9302Z" fill="#4E4E4E"/>
<path d="M19.7685 11.9584L20.2501 11.2393L19.7685 11.9584L20.6973 13.3339L19.7685 11.9584Z" fill="#4E4E4E"/>
<path d="M19.2367 5.19134C19.1053 5.00292 18.8801 4.54443 18.3829 4.54443C18.8833 4.54443 19.1084 5.00292 19.2367 5.19134Z" fill="#4E4E4E"/>
<path d="M17.6449 5.02511C17.6732 4.98114 17.7109 4.93089 17.7485 4.88379C17.714 4.93089 17.6763 4.98114 17.6449 5.02511Z" fill="#4E4E4E"/>
<path d="M19.2368 5.19092L20.3063 6.80192L20.2845 6.76423L19.2368 5.19092Z" fill="#4E4E4E"/>
<path d="M18.2024 4.56348C18.149 4.57604 18.1019 4.59487 18.058 4.61686C18.0266 4.62942 18.0014 4.65141 17.9763 4.67025C18.0423 4.62628 18.1176 4.5886 18.2024 4.56348Z" fill="#4E4E4E"/>
<path d="M20.3723 6.896L20.3817 6.9117L18.3739 9.8856L20.3817 6.9117L20.3723 6.896Z" fill="#4E4E4E"/>
<path d="M17.7886 4.8397C17.8357 4.78632 17.886 4.73607 17.9488 4.68896C17.886 4.73293 17.8326 4.78318 17.7886 4.8397Z" fill="#4E4E4E"/>
<path d="M27.7221 0.147675C27.7221 0.147675 27.7252 0.147672 27.7252 0.144531C27.6561 0.194777 27.5996 0.251303 27.5462 0.310969C27.5493 0.307829 27.5556 0.304686 27.5588 0.298405C27.609 0.245019 27.6624 0.19478 27.7221 0.147675Z" fill="#4E4E4E"/>
<path d="M32.8788 12.0499L34.8085 9.08539L33.4855 7.15723L31.5247 10.1029L32.8788 12.0499Z" fill="#4E4E4E"/>
<path d="M29.5009 7.19174L31.4618 4.21783L30.1764 2.34619L28.1842 5.30126L29.5009 7.19174Z" fill="#4E4E4E"/>
<path d="M27.9161 0.0473633C27.8533 0.0693457 27.7936 0.0976053 27.7434 0.132149C27.7434 0.132149 27.7465 0.132156 27.7497 0.129015C27.8031 0.0944715 27.8564 0.0662053 27.9161 0.0473633Z" fill="#4E4E4E"/>
<path d="M34.9052 14.9614L46.3954 31.489H50.2078L36.8317 12.0283L34.9052 14.9614Z" fill="#4E4E4E"/>
<path d="M27.3116 0.64977C27.3429 0.605805 27.3804 0.546133 27.4242 0.477045C27.4524 0.436221 27.4868 0.389118 27.5212 0.342013C27.5274 0.332592 27.5337 0.326316 27.5399 0.316895C27.4336 0.442508 27.3617 0.574402 27.3054 0.64977L26.1545 2.38324L26.2671 2.21052L27.3116 0.64977Z" fill="#4E4E4E"/>
<path d="M32.6818 5.98866L31.4622 4.21436L32.6818 5.98866Z" fill="#4E4E4E"/>
<path d="M32.8787 12.0499L34.8083 9.08545L32.8787 12.0499Z" fill="#4E4E4E"/>
<path d="M36.8317 12.0283L34.9053 14.9614L34.702 14.6693L34.9053 14.9614L36.8317 12.0283Z" fill="#4E4E4E"/>
<path d="M27.5618 0.29868C27.6089 0.245294 27.6591 0.195054 27.7219 0.147949C27.6623 0.195054 27.6089 0.245294 27.5618 0.29868Z" fill="#4E4E4E"/>
<path d="M27.9787 0.0219727C27.9567 0.0282533 27.9379 0.0376671 27.9159 0.0439478C27.8562 0.0659302 27.7997 0.0941963 27.7495 0.1256C27.8185 0.0847753 27.8908 0.0439551 27.9787 0.0219727Z" fill="#4E4E4E"/>
<path d="M27.4244 0.480247C27.4526 0.436282 27.4872 0.39232 27.5217 0.345215C27.4872 0.38918 27.4526 0.436282 27.4244 0.480247Z" fill="#4E4E4E"/>
<path d="M33.4857 7.15747L32.682 5.98926L33.4857 7.15747Z" fill="#292929"/>
<path d="M29.501 7.19141L31.5245 10.1025L29.501 7.19141Z" fill="#292929"/>
<path d="M31.5247 10.1029L33.4824 7.15723L31.5247 10.1029Z" fill="#292929"/>
<path d="M31.4619 4.21729L29.501 7.19119L31.4619 4.21729Z" fill="#292929"/>
<path d="M31.5245 10.1023L33.4823 7.15665L32.6816 5.98844L31.4619 4.21729L29.501 7.19119L31.5245 10.1023Z" fill="#292929"/>
<path d="M32.8787 12.0498L34.6989 14.6688L32.8787 12.0498Z" fill="#292929"/>
<path d="M34.8082 9.08545L36.8317 12.0279L34.8082 9.08545Z" fill="#292929"/>
<path d="M32.8787 12.0499L34.6989 14.669L34.9022 14.961L36.8318 12.0279L34.8083 9.08545L32.8787 12.0499Z" fill="#292929"/>
<path d="M22.9772 7.15079L23.0431 7.05029L22.9772 7.15079Z" fill="#4E4E4E"/>
<path d="M24.9755 10.0679L26.3141 12.0212L28.275 9.04725L26.9646 7.11279L26.1577 8.31241L24.9755 10.0679Z" fill="#4E4E4E"/>
<path d="M39.6558 31.4847H43.4681L33.6105 16.9292L31.6871 19.856L39.6558 31.4847Z" fill="#4E4E4E"/>
<path d="M30.2672 11.9932L28.3126 14.9325L29.6918 16.9486L30.1703 16.2138L31.6183 13.9873L30.2672 11.9932Z" fill="#4E4E4E"/>
<path d="M26.3176 12.021L28.3129 14.9321L26.3176 12.021Z" fill="#4E4E4E"/>
<path d="M31.687 19.8567L29.6917 16.9487L30.1702 16.2139L29.6917 16.9487L31.687 19.8567L33.6103 16.9299L31.687 19.8567Z" fill="#4E4E4E"/>
<path d="M26.9645 7.11279L26.1577 8.31241L26.9645 7.11279Z" fill="#4E4E4E"/>
<path d="M22.9772 7.15059L24.9725 4.17041L23.0428 7.0501L22.9772 7.15059L23.8372 8.40673L22.9772 7.15059Z" fill="#4E4E4E"/>
<path d="M27.7249 0.144888C27.7312 0.141748 27.7375 0.135465 27.7438 0.132324C27.7406 0.135465 27.7312 0.141748 27.7249 0.144888Z" fill="#292929"/>
<path d="M27.5433 0.317755C27.5433 0.317755 27.5466 0.314392 27.55 0.311035C27.5466 0.314392 27.5433 0.317755 27.5433 0.317755Z" fill="#292929"/>
<path d="M28.1842 5.30068L26.1545 2.3833L28.1842 5.30068Z" fill="#292929"/>
<path d="M28.1602 0C28.0942 0 28.0377 0.00942026 27.9843 0.0188413C27.9812 0.0188413 27.9812 0.0188413 27.978 0.0188413C28.0346 0.00942026 28.0942 0 28.1602 0Z" fill="#292929"/>
<path d="M30.177 2.34254L29.0135 0.649902L30.177 2.34254Z" fill="#292929"/>
<path d="M27.3087 0.65005C27.3432 0.609225 27.3777 0.546416 27.4248 0.480469C27.3809 0.546416 27.3432 0.609225 27.3087 0.65005Z" fill="#292929"/>
<path d="M27.7532 0.128906C27.7532 0.128906 27.75 0.1289 27.7469 0.13204C27.7406 0.13518 27.7343 0.141464 27.7281 0.144604C27.7281 0.144604 27.7249 0.144607 27.7249 0.147748C27.7312 0.141467 27.7438 0.135187 27.7532 0.128906Z" fill="#292929"/>
<path d="M27.5622 0.29834C27.5591 0.30148 27.5497 0.307764 27.5497 0.310904C27.5466 0.310904 27.5465 0.31405 27.5434 0.317191C27.534 0.326612 27.5308 0.332891 27.5246 0.345453C27.5371 0.329751 27.5497 0.314042 27.5622 0.29834Z" fill="#292929"/>
<path d="M27.3116 0.649902L26.2702 2.21065L26.1545 2.38337L27.3116 0.649902Z" fill="#292929"/>
<path d="M28.1842 5.30126L30.1764 2.34619L28.1842 5.30126Z" fill="#292929"/>
<path d="M29.0133 0.653462C28.885 0.461901 28.6567 0.00341797 28.1626 0.00341797C28.0969 0.00341797 28.0375 0.00969137 27.9812 0.0253931C27.8936 0.0473755 27.8217 0.0850584 27.7529 0.132164C27.7435 0.138444 27.731 0.144724 27.7216 0.151005C27.6622 0.19497 27.609 0.248359 27.5653 0.301745C27.5527 0.314306 27.5371 0.333146 27.5246 0.348848C27.4871 0.392813 27.4558 0.439925 27.4276 0.48389C27.3839 0.549837 27.3463 0.612637 27.3151 0.653462L26.161 2.38694L28.1876 5.30431L30.1798 2.34924L29.0133 0.653462Z" fill="#292929"/>
<path d="M23.8376 8.40723L24.976 10.0685L24.9791 10.0653L23.8376 8.40723Z" fill="#292929"/>
<path d="M26.9646 7.11291L24.9755 4.17041V4.17355L26.9646 7.11291Z" fill="#292929"/>
<path d="M24.9755 10.068L26.1577 8.3125L24.9755 10.068Z" fill="#292929"/>
<path d="M26.1578 8.31231L26.9646 7.1127L24.9725 4.17334L22.9772 7.15038L23.8372 8.40652L24.9756 10.0678L26.1578 8.31231Z" fill="#292929"/>
<path d="M28.2754 9.05029L30.2675 11.9928L28.2754 9.05029Z" fill="#292929"/>
<path d="M28.3126 14.9322L30.2672 11.9929V11.9897L28.3126 14.9322Z" fill="#292929"/>
<path d="M28.2754 9.04785L26.3176 12.0218L28.2754 9.05099V9.04785Z" fill="#292929"/>
<path d="M28.2754 9.05029L26.3176 12.0211L28.3129 14.9321L30.2676 11.9896L28.2754 9.05029Z" fill="#292929"/>
<path d="M33.6104 16.9298L31.6183 13.9873L33.6104 16.9298Z" fill="#292929"/>
<path d="M31.6181 13.9873L30.1701 16.2169L31.6181 13.9873Z" fill="#292929"/>
<path d="M30.1702 16.2138L29.6917 16.9486L31.687 19.8566L33.6103 16.9298L31.6182 13.9873L30.1702 16.2138Z" fill="#292929"/>
<path d="M17.7699 4.8584C17.7699 4.8584 17.7699 4.85254 17.7758 4.85254C17.7699 4.8584 17.7699 4.8584 17.7699 4.8584Z" fill="#292929"/>
<path d="M17.9481 4.68541C17.9544 4.68227 17.9607 4.67599 17.967 4.67285C17.9638 4.67599 17.9575 4.68227 17.9481 4.68541Z" fill="#292929"/>
<path d="M16.3813 6.92434L16.5164 6.72021L16.3813 6.92434Z" fill="#292929"/>
<path d="M18.3769 9.88929L16.3816 6.9248H16.3784L18.3769 9.88929Z" fill="#292929"/>
<path d="M18.3868 4.54102C18.324 4.54102 18.2643 4.5473 18.2078 4.55986H18.2047C18.258 4.55044 18.3177 4.54102 18.3868 4.54102Z" fill="#292929"/>
<path d="M17.7891 4.83936C17.786 4.8425 17.7766 4.84877 17.7734 4.85191C17.7734 4.85191 17.7734 4.85505 17.7703 4.85505C17.764 4.86447 17.7577 4.8739 17.7514 4.88018C17.7609 4.86762 17.7766 4.85192 17.7891 4.83936Z" fill="#292929"/>
<path d="M17.9764 4.66943C17.9764 4.66943 17.9732 4.66944 17.9701 4.67258C17.9638 4.67572 17.9575 4.68199 17.9513 4.68513L17.9481 4.68827C17.9544 4.68199 17.967 4.67571 17.9764 4.66943Z" fill="#292929"/>
<path d="M16.3813 6.92509L17.5385 5.18848L16.5158 6.72097L16.3813 6.92509Z" fill="#292929"/>
<path d="M20.366 6.89018L20.3063 6.80225L20.3723 6.89645L20.366 6.89018Z" fill="#292929"/>
<path d="M17.5355 5.19134C17.5669 5.15052 17.6046 5.09085 17.6454 5.0249C17.6046 5.09085 17.5669 5.14738 17.5355 5.19134Z" fill="#292929"/>
<path d="M19.237 5.19134C19.1088 5.00292 18.8836 4.54443 18.3863 4.54443C18.3207 4.54443 18.2612 4.55072 18.2049 4.56642C18.1205 4.5884 18.0455 4.62608 17.9798 4.67005C17.9704 4.67633 17.9579 4.68261 17.9516 4.68889C17.8891 4.73285 17.839 4.78624 17.7921 4.83648C17.7796 4.85218 17.764 4.86475 17.7546 4.88045C17.7139 4.92756 17.6795 4.9778 17.6514 5.02176C17.6076 5.08457 17.5701 5.14424 17.5419 5.1882L16.3879 6.92481L18.3832 9.88929L20.3879 6.91539L20.3785 6.89969L20.3128 6.80234L19.237 5.19134Z" fill="#292929"/>
<path d="M20.6944 13.334L21.7358 14.879L20.6944 13.334Z" fill="#292929"/>
<path d="M21.7576 8.97803L20.2502 11.2391L21.7576 8.97803Z" fill="#292929"/>
<path d="M23.7219 11.9307L21.736 14.8795L23.7219 11.9307Z" fill="#292929"/>
<path d="M20.2501 11.2394L19.7685 11.9585L20.6942 13.334L21.7356 14.879L23.7216 11.9334L21.7575 8.98145L20.2501 11.2394Z" fill="#292929"/>
<path d="M24.6626 19.2256L25.0598 19.8191L24.6626 19.2256Z" fill="#292929"/>
<path d="M25.0538 13.937L24.0061 15.526L25.0538 13.937Z" fill="#292929"/>
<path d="M27.0148 16.8823L25.0601 19.8185L27.0148 16.8823Z" fill="#292929"/>
<path d="M24.0064 15.526L23.0995 16.9046L24.6632 19.2253L25.0635 19.8189L27.015 16.8827L25.0541 13.937L24.0064 15.526Z" fill="#292929"/>
<path d="M26.4674 21.9072L28.4252 24.8183L26.4674 21.9072Z" fill="#292929"/>
<path d="M28.3911 18.9521L29.2699 20.2742L28.3911 18.9521Z" fill="#292929"/>
<path d="M28.4283 24.8186L29.1664 23.6943L28.4283 24.8186Z" fill="#292929"/>
<path d="M28.4283 24.8183L29.1664 23.6941L30.3486 21.8946L29.2696 20.2742L28.3908 18.9521L26.4674 21.9072L28.4283 24.8183Z" fill="#292929"/>
<path d="M32.7475 1.83995H32.8413C32.9414 1.83995 33.0227 1.86508 33.0884 1.91532C33.1541 1.96557 33.2385 2.08804 33.3355 2.28274L33.4856 2.57166H33.9265L33.717 2.21365C33.6451 2.08804 33.6013 2.01267 33.5888 1.99697C33.5356 1.93102 33.4981 1.88392 33.4699 1.86193C33.4418 1.83681 33.398 1.81483 33.348 1.79285C33.4981 1.77086 33.6138 1.71434 33.6982 1.62641C33.7795 1.53534 33.8202 1.42543 33.8202 1.29668C33.8202 1.20247 33.7983 1.11768 33.7545 1.04231C33.7107 0.966941 33.6576 0.910413 33.5888 0.872728C33.52 0.835044 33.4293 0.813058 33.3136 0.800497C33.2729 0.797357 33.0821 0.797363 32.7475 0.797363H32.391V2.57479H32.7475V1.83995ZM32.7475 1.07371H32.8914C33.0978 1.07371 33.226 1.08313 33.276 1.10198C33.3261 1.11768 33.3667 1.14594 33.3949 1.18362C33.423 1.2213 33.4387 1.26527 33.4387 1.31552C33.4387 1.3689 33.423 1.41287 33.3949 1.45369C33.3667 1.49452 33.3261 1.52278 33.2792 1.53848C33.2291 1.55418 33.1009 1.5636 32.8914 1.5636H32.7475V1.07371Z" fill="#1D1D1D"/>
<path d="M32.3096 3.12463C32.5723 3.26909 32.8506 3.34446 33.1383 3.34446C33.4261 3.34446 33.7044 3.26909 33.9671 3.12463C34.2298 2.97704 34.4331 2.76978 34.5832 2.50599C34.7271 2.2422 34.8021 1.96271 34.8021 1.6738C34.8021 1.38175 34.7271 1.10226 34.5769 0.832189C34.4268 0.56526 34.2204 0.357997 33.9608 0.213541C33.6981 0.0722256 33.4229 0 33.1383 0C32.8537 0 32.5785 0.0722256 32.3158 0.213541C32.0531 0.357997 31.8467 0.562119 31.6966 0.832189C31.5465 1.09912 31.4714 1.38175 31.4714 1.6738C31.4714 1.96271 31.5465 2.2422 31.6903 2.50599C31.8436 2.76978 32.05 2.97704 32.3096 3.12463ZM31.9874 0.995483C32.1094 0.7788 32.2752 0.615506 32.4847 0.499313C32.6942 0.386261 32.9132 0.329732 33.1446 0.329732C33.3729 0.329732 33.5949 0.386261 33.8045 0.499313C34.0171 0.615506 34.1829 0.7788 34.3049 0.995483C34.4237 1.21217 34.4831 1.43514 34.4831 1.67066C34.4831 1.90619 34.4237 2.12915 34.3049 2.33955C34.186 2.55309 34.0203 2.71954 33.8107 2.83573C33.5981 2.95506 33.376 3.01473 33.1415 3.01473C32.91 3.01473 32.688 2.95506 32.4784 2.83573C32.2658 2.7164 32.1 2.54995 31.9843 2.33955C31.8655 2.12915 31.806 1.90305 31.806 1.67066C31.806 1.43828 31.8655 1.21217 31.9874 0.995483Z" fill="#1D1D1D"/>
<path d="M57.0351 18.2077V17.6927C56.0688 17.6927 55.4777 17.5263 55.4777 15.9467V9.83244H55.509L58.5144 18.1763H59.2556L62.2298 9.83244H62.2611V17.633L61.0539 17.6927V18.2077C61.6575 18.2077 62.7302 18.1481 63.3338 18.1481C63.9374 18.1481 65.0727 18.2077 65.6762 18.2077V17.6927L64.4534 17.633V9.16669L65.6762 9.10388V8.58887L62.0672 8.65167L59.6935 15.0988H59.6778L57.3354 8.65167L53.6794 8.58887V9.10388L54.8741 9.16669V15.9467C54.8741 17.5263 54.2549 17.6927 53.4386 17.6927V18.2077C54.1923 18.2077 54.6333 18.1481 55.2369 18.1481C55.8436 18.1449 56.2814 18.2077 57.0351 18.2077Z" fill="#1D1D1D"/>
<path d="M69.6101 18.4025C71.6023 18.4025 73.2973 17.2186 73.2973 14.6247C73.2973 12.0464 71.5741 10.9976 69.6101 10.9976C67.6742 10.9976 65.9385 12.1972 65.9385 14.7754C65.9416 17.3725 67.6461 18.4025 69.6101 18.4025ZM69.6101 11.5157C70.6828 11.5157 71.0894 12.64 71.0894 14.7032C71.0894 16.7821 70.6828 17.8875 69.6101 17.8875C68.5655 17.8875 68.1433 16.7789 68.1433 14.7032C68.1433 12.64 68.5655 11.5157 69.6101 11.5157Z" fill="#1D1D1D"/>
<path d="M79.2835 16.9485H79.2991L79.3429 18.2988L82.242 18.1481V17.6331L81.2131 17.6016V11.1074L78.2076 11.2582V11.7732C78.8738 11.7732 79.2209 11.7732 79.2209 12.6054V15.1082C79.2209 16.5967 78.2858 17.476 77.5446 17.476C76.6064 17.476 76.5751 16.7318 76.5751 15.2778V11.1074L73.554 11.2582V11.7732C74.3234 11.7732 74.583 11.7732 74.583 12.6054V15.8211C74.583 17.5514 75.174 18.371 76.7596 18.371C77.9543 18.3742 78.8019 17.7681 79.2835 16.9485Z" fill="#1D1D1D"/>
<path d="M90.2108 13.6703C90.2108 11.7579 89.3039 10.9854 88.0373 10.9854C86.8426 10.9854 86.0263 11.5914 85.5103 12.4236H85.4978L85.4665 11.1047L82.5674 11.2554V11.7736C83.3367 11.7736 83.5932 11.7736 83.5932 12.5775V17.6115L82.5674 17.69V18.205C83.3055 18.205 83.7152 18.1453 84.5908 18.1453C85.4665 18.1453 85.8606 18.205 86.583 18.205V17.69L85.5854 17.6115V14.2482C85.5854 12.7628 86.508 11.8835 87.2492 11.8835C88.0467 11.8835 88.2312 12.4739 88.2312 14.1131V17.6146L87.2335 17.6931V18.2081C87.9747 18.2081 88.35 18.1485 89.2257 18.1485C90.1045 18.1485 90.5111 18.2081 91.2523 18.2081V17.6931L90.2108 17.6146V13.6703Z" fill="#1D1D1D"/>
<path d="M94.639 17.6457C94.0198 17.6457 93.9916 17.1307 94.0198 16.1886V11.8486H95.7117V11.2582H94.0198V8.43506C94.0198 8.43506 93.1754 8.72397 92.0401 8.72397V11.2614H90.908V11.8518H92.0401V16.22C92.0401 17.4039 92.2371 18.4182 94.0948 18.4182C95.671 18.4182 95.9932 17.049 95.9994 17.027V17.0239L95.5147 16.8418C95.5147 16.8418 95.1957 17.6457 94.639 17.6457Z" fill="#1D1D1D"/>
<path d="M55.859 23.7157C55.859 22.9274 56.4783 22.3653 57.3852 22.3653C59.0021 22.3653 59.8653 24.215 59.9841 24.8839H60.4814C60.4814 24.4003 60.4532 23.9889 60.4532 23.276C60.4532 22.7924 60.4814 22.4281 60.4814 21.9257H59.9841C59.9841 21.9257 59.9091 22.2586 59.6526 22.2586C59.4118 22.2586 58.7613 21.8472 57.5072 21.8472C56.1311 21.8472 54.2734 22.5914 54.2734 24.8525C54.2734 28.69 59.4868 27.1292 59.4868 29.9367C59.4868 30.7249 58.9896 31.4221 57.748 31.4221C55.7715 31.4221 54.7863 28.8438 54.6675 28.1592H54.1233C54.1233 28.781 54.1671 29.2207 54.1671 29.921C54.1671 30.6495 54.1233 31.0892 54.1233 31.8178H54.6206C54.6206 31.8178 54.6831 31.4535 54.999 31.4535C55.2711 31.4535 56.0998 31.9999 57.7042 31.9999C59.5494 31.9999 61.2257 31.1049 61.2257 28.8753C61.2226 24.8085 55.859 26.297 55.859 23.7157Z" fill="#1D1D1D"/>
<path d="M64.8066 24.5952L61.7855 24.7459V25.261C62.5423 25.261 62.8144 25.261 62.8144 26.0963V31.102L61.7855 31.1805V31.6955C62.5267 31.6955 62.9332 31.6327 63.8089 31.6327C64.6846 31.6327 65.1099 31.6955 65.8355 31.6955V31.1805L64.8066 31.102V24.5952Z" fill="#1D1D1D"/>
<path d="M62.5988 22.1242C62.5988 22.8685 63.1898 23.2799 63.8216 23.2799C64.4408 23.2799 65.0288 22.8685 65.0288 22.1242C65.0288 21.38 64.4408 20.9717 63.8216 20.9717C63.1867 20.9686 62.5988 21.38 62.5988 22.1242Z" fill="#1D1D1D"/>
<path d="M73.7949 27.1611C73.7949 25.2486 72.888 24.4761 71.6182 24.4761C70.4236 24.4761 69.6073 25.0822 69.0944 25.9144H69.0788L69.0506 24.5954L66.1515 24.7461V25.2643C66.9208 25.2643 67.1773 25.2643 67.1773 26.0682V31.1022L66.1515 31.1807V31.6957C66.8896 31.6957 67.2993 31.6361 68.1749 31.6361C69.0506 31.6361 69.4447 31.6957 70.1702 31.6957V31.1807L69.1726 31.1022V27.7358C69.1726 26.2504 70.0952 25.3711 70.8364 25.3711C71.6339 25.3711 71.8184 25.9615 71.8184 27.6007V31.1022L70.8207 31.1807V31.6957C71.5619 31.6957 71.9404 31.6361 72.816 31.6361C73.6917 31.6361 74.0983 31.6957 74.8395 31.6957V31.1807L73.7981 31.1022V27.1611H73.7949Z" fill="#1D1D1D"/>
<path d="M81.8073 31.0582C81.4727 31.0582 81.3226 30.7379 81.3382 30.27L81.4133 27.4029C81.4414 25.9772 81.2194 24.4761 78.5736 24.4761C76.9411 24.4761 75.5681 25.0822 75.5681 26.1593C75.5681 26.7654 75.9934 27.1297 76.5814 27.1297C77.2006 27.1297 77.5947 26.7528 77.5947 26.219C77.5947 25.7039 77.2632 25.5218 77.2632 25.5218C77.3382 25.3711 77.6697 24.9911 78.4266 24.9911C79.4086 24.9911 79.5149 25.795 79.4711 27.0072V27.7514C77.4164 27.7357 75.1021 27.9179 75.1021 29.89C75.1021 31.4822 76.3562 31.9689 77.4164 31.9689C78.5173 31.9689 79.1521 31.4822 79.4836 30.8447H79.5149C79.7714 31.6015 80.3906 31.9061 81.1318 31.9061C82.6861 31.9061 82.9019 30.5244 82.9019 30.5244L82.4047 30.4019C82.3953 30.405 82.2452 31.0582 81.8073 31.0582ZM79.4023 29.4347C79.3711 30.5275 78.708 31.0457 78.1201 31.0457C77.4852 31.0457 77.1381 30.5903 77.1381 29.6922C77.1381 28.7375 77.5603 28.2382 79.4336 28.2696L79.4023 29.4347Z" fill="#1D1D1D"/>
<path d="M86.1605 22.1242C86.1605 21.3799 85.5695 20.9717 84.9533 20.9717C84.3185 20.9717 83.7305 21.3799 83.7305 22.1242C83.7305 22.8685 84.3216 23.2798 84.9533 23.2798C85.5695 23.2767 86.1605 22.8685 86.1605 22.1242Z" fill="#1D1D1D"/>
<path d="M85.9325 24.5952L82.9114 24.7459V25.261C83.6683 25.261 83.9404 25.261 83.9404 26.0963V31.102L82.9114 31.1805V31.6955C83.6526 31.6955 84.0623 31.6327 84.9349 31.6327C85.8137 31.6327 86.2359 31.6955 86.9614 31.6955V31.1805L85.9325 31.102V24.5952Z" fill="#1D1D1D"/>
</g>
</svg>
