<svg width="120" height="56" viewBox="0 0 120 56" fill="none" xmlns="http://www.w3.org/2000/svg">
<path d="M35.8 11.0881L38.2478 14.6943L39.795 12.3851L37.3049 8.81348L35.8 11.0881Z" fill="#009FE3"/>
<path d="M42.2083 8.77147V8.76762L39.722 5.16138L39.7181 5.16908L41.2191 7.33975L42.2083 8.77147Z" fill="#009FE3"/>
<path d="M33.3869 14.7332L31.832 17.0809L34.2452 20.691L35.8424 18.3009L33.3869 14.7332Z" fill="#009FE3"/>
<path d="M29.4267 20.7177L17.5996 38.5872H22.2873L31.8398 24.2893L31.3511 23.5618L29.4267 20.7177Z" fill="#009FE3"/>
<path d="M43.8362 11.1343L46.3263 14.7406L46.3301 14.7367L43.84 11.1305L43.8362 11.1343Z" fill="#009FE3"/>
<path d="M33.5715 26.8489L25.8972 38.5874H30.5888L35.9808 30.4166L33.5715 26.8489Z" fill="#009FE3"/>
<path d="M41.4614 14.7676L39.9142 17.1422L42.3658 20.7485H42.362L43.9515 18.3353L43.7013 17.9774L41.4614 14.7676Z" fill="#009FE3"/>
<path d="M35.9385 23.2231V23.227V23.2231L37.0238 24.8473L38.3478 26.8332L39.995 24.3354L37.5395 20.7715L35.9385 23.2231Z" fill="#009FE3"/>
<path d="M35.4347 0.0270996C35.4077 0.0348296 35.3845 0.0464275 35.3574 0.0541575C35.3806 0.0464275 35.4038 0.0348296 35.4347 0.0270996Z" fill="#009FE3"/>
<path d="M31.7358 5.11515L34.1836 8.71369V8.71754L35.6846 6.49683L33.1906 2.92139L29.3573 8.64441L31.7358 5.11515Z" fill="#009FE3"/>
<path d="M31.7357 12.3391L30.3348 10.3032L29.2764 8.76367L27.7754 11.0036L30.1924 14.6214L31.7357 12.3391Z" fill="#009FE3"/>
<path d="M36.7044 0.800714L38.1362 2.87517V2.87132L36.7083 0.800714C36.5467 0.565943 36.2696 0.00402832 35.6576 0.00402832C35.5768 0.00402832 35.5037 0.0117286 35.4382 0.0309721C35.5075 0.0155773 35.5768 0.00787492 35.6538 0.00787492C36.2657 0.00402621 36.5428 0.565943 36.7044 0.800714Z" fill="#009FE3"/>
<path d="M25.3278 14.6559L9.29797 38.5872H13.9934L27.7487 18.2352L26.4709 16.3416L25.3278 14.6559Z" fill="#009FE3"/>
<path d="M23.6112 12.1196L21.1595 8.48645L1 38.5872H5.69158L23.6112 12.1196Z" fill="#009FE3"/>
<path d="M23.4041 5.59229C23.3384 5.60775 23.2804 5.63093 23.2224 5.65799C23.2804 5.6348 23.3384 5.61161 23.4041 5.59229Z" fill="#009FE3"/>
<path d="M23.6265 5.56531C24.2384 5.56531 24.5155 6.13107 24.6772 6.35814L25.9665 8.28635L24.681 6.35429C24.5194 6.12722 24.2423 5.56531 23.6265 5.56531C23.5495 5.56531 23.4764 5.573 23.4071 5.5884C23.4764 5.57685 23.5457 5.56531 23.6265 5.56531Z" fill="#009FE3"/>
<path d="M35.9847 30.4165L41.5076 38.5873H46.1992L38.3479 26.8334L36.893 29.0387L35.9847 30.4165Z" fill="#D7007F"/>
<path d="M31.832 17.0808L30.1925 14.6215V14.6253L27.7485 18.2354L29.4266 20.7178L30.5427 19.0282L31.832 17.0808Z" fill="#D7007F"/>
<path d="M34.2452 20.6908L31.8397 24.2893L33.5716 26.8487L35.9386 23.2232L34.2452 20.6908Z" fill="#D7007F"/>
<path d="M27.7756 11.0037L25.9628 8.29419L25.9898 8.33268L26.0629 8.44429L26.0706 8.45199L26.0821 8.47123L23.6151 12.1198L25.3278 14.6561L25.9167 13.7748L27.7756 11.0037Z" fill="#D7007F"/>
<path d="M22.5799 6.36206C22.6184 6.31203 22.6646 6.23891 22.7146 6.15808C22.7531 6.10035 22.7954 6.04262 22.8416 5.98489C22.8493 5.97334 22.857 5.96565 22.8647 5.9541C22.7377 6.10805 22.6453 6.26969 22.5799 6.36206L21.3252 8.23638L22.5799 6.36206Z" fill="#D7007F"/>
<path d="M23.0847 5.7461C23.0886 5.7461 23.0886 5.74224 23.0847 5.7461C23.0036 5.80021 22.9301 5.87365 22.8683 5.94708C22.8722 5.94322 22.8837 5.93549 22.8876 5.93162C22.9494 5.86592 23.0113 5.80021 23.0847 5.7461Z" fill="#D7007F"/>
<path d="M23.223 5.65771C23.1843 5.67704 23.1495 5.70409 23.1147 5.72728C23.1147 5.72728 23.1186 5.72728 23.1225 5.72342C23.1573 5.70023 23.1882 5.67704 23.223 5.65771Z" fill="#D7007F"/>
<path d="M31.832 17.0806L34.2452 20.6907L31.832 17.0806Z" fill="#D7007F"/>
<path d="M29.4265 20.7177L30.5465 19.0281L29.4265 20.7177L31.3509 23.5619L29.4265 20.7177Z" fill="#D7007F"/>
<path d="M35.9387 23.2272V23.2234L33.5679 26.8489L35.9387 23.2272Z" fill="#D7007F"/>
<path d="M38.3478 26.8335L36.8929 29.0426L38.3478 26.8335L37.02 24.8475L38.3478 26.8335Z" fill="#D7007F"/>
<path d="M30.1924 14.6214L27.7754 11.0074L30.1924 14.6214Z" fill="#D7007F"/>
<path d="M25.3278 14.6558L25.9205 13.7744L25.3278 14.6558L26.4708 16.3415L25.3278 14.6558Z" fill="#D7007F"/>
<path d="M24.6735 6.36205C24.5118 6.13112 24.2347 5.56921 23.6228 5.56921C24.2386 5.56921 24.5157 6.13112 24.6735 6.36205Z" fill="#D7007F"/>
<path d="M22.7142 6.15867C22.749 6.10456 22.7954 6.04272 22.8418 5.98474C22.7992 6.04272 22.7529 6.10456 22.7142 6.15867Z" fill="#D7007F"/>
<path d="M24.6735 6.36206L25.9897 8.33644L25.9628 8.29026L24.6735 6.36206Z" fill="#D7007F"/>
<path d="M23.3997 5.59229C23.3342 5.60768 23.2765 5.63077 23.2226 5.65771C23.1841 5.67311 23.1533 5.70005 23.1226 5.72314C23.2034 5.66926 23.2957 5.62307 23.3997 5.59229Z" fill="#D7007F"/>
<path d="M26.0705 8.45178L26.0821 8.47103L23.6112 12.1158L26.0821 8.47103L26.0705 8.45178Z" fill="#D7007F"/>
<path d="M22.8914 5.93174C22.9493 5.86603 23.0112 5.80419 23.0885 5.74622C23.0112 5.80033 22.9455 5.86216 22.8914 5.93174Z" fill="#D7007F"/>
<path d="M35.1161 0.180993C35.1161 0.180993 35.12 0.180989 35.12 0.177124C35.0349 0.238964 34.9654 0.308534 34.8997 0.381969C34.9035 0.378104 34.9112 0.374242 34.9151 0.366512C34.9769 0.300807 35.0427 0.238968 35.1161 0.180993Z" fill="#D7007F"/>
<path d="M41.4616 14.7677L43.8363 11.1345L42.2083 8.77136L39.7952 12.3815L41.4616 14.7677Z" fill="#D7007F"/>
<path d="M37.3048 8.8138L39.7179 5.16907L38.1361 2.87524L35.6844 6.49687L37.3048 8.8138Z" fill="#D7007F"/>
<path d="M35.3545 0.0578613C35.2772 0.0849164 35.2038 0.119703 35.142 0.162218C35.142 0.162218 35.1458 0.162215 35.1497 0.15835C35.2154 0.115834 35.2811 0.0810514 35.3545 0.0578613Z" fill="#D7007F"/>
<path d="M43.9553 18.3354L58.0955 38.5912H62.7871L46.3261 14.7407L43.9553 18.3354Z" fill="#D7007F"/>
<path d="M34.6107 0.797C34.6492 0.743118 34.6953 0.669992 34.7492 0.58532C34.7839 0.535287 34.8262 0.477559 34.8685 0.419828C34.8762 0.408282 34.8839 0.400584 34.8916 0.389038C34.7608 0.542986 34.6722 0.704631 34.603 0.797L33.1866 2.92149L33.3252 2.70981L34.6107 0.797Z" fill="#D7007F"/>
<path d="M41.2191 7.33943L39.7181 5.16492L41.2191 7.33943Z" fill="#D7007F"/>
<path d="M41.4614 14.7675L43.8361 11.1343L41.4614 14.7675Z" fill="#D7007F"/>
<path d="M46.3262 14.7407L43.9554 18.3354L43.7052 17.9775L43.9554 18.3354L46.3262 14.7407Z" fill="#D7007F"/>
<path d="M34.9187 0.366549C34.9767 0.300844 35.0385 0.239005 35.1158 0.18103C35.0424 0.239005 34.9767 0.300844 34.9187 0.366549Z" fill="#D7007F"/>
<path d="M35.4306 0.0270996C35.4037 0.034797 35.3806 0.046346 35.3536 0.0540434C35.2805 0.0809844 35.2112 0.115621 35.1497 0.154108C35.2343 0.104075 35.3228 0.0540406 35.4306 0.0270996Z" fill="#D7007F"/>
<path d="M34.7494 0.589661C34.7842 0.53555 34.8267 0.481437 34.8692 0.423462C34.8267 0.477572 34.7842 0.53555 34.7494 0.589661Z" fill="#D7007F"/>
<path d="M42.2081 8.77132L41.219 7.3396L42.2081 8.77132Z" fill="#281E69"/>
<path d="M37.3051 8.81348L39.7952 12.3812L37.3051 8.81348Z" fill="#281E69"/>
<path d="M39.7952 12.3815L42.2044 8.77136L39.7952 12.3815Z" fill="#281E69"/>
<path d="M39.7182 5.16907L37.3051 8.8138L39.7182 5.16907Z" fill="#281E69"/>
<path d="M39.7952 12.3816L42.2044 8.77146L41.2192 7.33974L39.7182 5.16907L37.3051 8.8138L39.7952 12.3816Z" fill="#281E69"/>
<path d="M41.4614 14.7676L43.7014 17.9774L41.4614 14.7676Z" fill="#281E69"/>
<path d="M43.8362 11.1343L46.3263 14.7405L43.8362 11.1343Z" fill="#281E69"/>
<path d="M41.4614 14.7675L43.7014 17.9773L43.9516 18.3352L46.3262 14.7405L43.8361 11.1343L41.4614 14.7675Z" fill="#281E69"/>
<path d="M29.2765 8.76394L29.3576 8.64026L29.2765 8.76394Z" fill="#D7007F"/>
<path d="M31.7356 12.3388L33.3828 14.7327L35.796 11.088L34.1834 8.71716L33.1904 10.1874L31.7356 12.3388Z" fill="#D7007F"/>
<path d="M49.8016 38.5871H54.4932L42.3621 20.7483L39.9951 24.3353L49.8016 38.5871Z" fill="#D7007F"/>
<path d="M38.248 14.6982L35.8425 18.3006L37.5398 20.7715L38.1287 19.8709L39.9106 17.1422L38.248 14.6982Z" fill="#D7007F"/>
<path d="M33.3868 14.7332L35.8423 18.3009L33.3868 14.7332Z" fill="#D7007F"/>
<path d="M39.9952 24.3352L37.5397 20.7713L38.1285 19.8707L37.5397 20.7713L39.9952 24.3352L42.3621 20.7482L39.9952 24.3352Z" fill="#D7007F"/>
<path d="M34.1834 8.71716L33.1904 10.1874L34.1834 8.71716Z" fill="#D7007F"/>
<path d="M29.2765 8.76375L31.732 5.11133L29.3573 8.64059L29.2765 8.76375L30.3349 10.3032L29.2765 8.76375Z" fill="#D7007F"/>
<path d="M35.1188 0.176692C35.1263 0.172924 35.1338 0.165389 35.1414 0.161621C35.1376 0.165389 35.1263 0.172924 35.1188 0.176692Z" fill="#281E69"/>
<path d="M34.8955 0.389578C34.8955 0.389578 34.8997 0.385401 34.9039 0.381226C34.8997 0.385401 34.8955 0.389578 34.8955 0.389578Z" fill="#281E69"/>
<path d="M35.6845 6.49684L33.1866 2.92139L35.6845 6.49684Z" fill="#281E69"/>
<path d="M35.6546 0.00012207C35.5734 0.00012207 35.5039 0.0117162 35.4382 0.0233112C35.4343 0.0233112 35.4343 0.0233112 35.4304 0.0233112C35.5 0.0117162 35.5734 0.00012207 35.6546 0.00012207Z" fill="#281E69"/>
<path d="M38.1363 2.87133L36.7046 0.796875L38.1363 2.87133Z" fill="#281E69"/>
<path d="M34.6071 0.797697C34.6496 0.747452 34.6921 0.670155 34.75 0.588989C34.6959 0.670155 34.6496 0.747452 34.6071 0.797697Z" fill="#281E69"/>
<path d="M35.1527 0.157959C35.1527 0.157959 35.1489 0.157963 35.1451 0.161731C35.1376 0.165499 35.1301 0.173034 35.1225 0.176802C35.1225 0.176802 35.1188 0.176806 35.1188 0.180574C35.1263 0.173037 35.1414 0.165496 35.1527 0.157959Z" fill="#281E69"/>
<path d="M34.918 0.365723C34.9142 0.369522 34.9028 0.377117 34.9028 0.380916C34.899 0.380916 34.899 0.384716 34.8952 0.388515C34.8838 0.399912 34.88 0.407509 34.8724 0.422705C34.8876 0.40371 34.9028 0.384717 34.918 0.365723Z" fill="#281E69"/>
<path d="M34.6107 0.796875L33.329 2.70968L33.1866 2.92136L34.6107 0.796875Z" fill="#281E69"/>
<path d="M35.6844 6.49687L38.1361 2.87524L35.6844 6.49687Z" fill="#281E69"/>
<path d="M36.7045 0.800714C36.5467 0.565943 36.2657 0.00402832 35.6576 0.00402832C35.5768 0.00402832 35.5037 0.0117286 35.4344 0.0309721C35.3266 0.0579131 35.2381 0.104096 35.1535 0.161827C35.1419 0.169524 35.1265 0.177221 35.115 0.184918C35.0418 0.2388 34.9764 0.304226 34.9225 0.369655C34.9071 0.385049 34.8879 0.408145 34.8725 0.427389C34.8263 0.481271 34.7878 0.538998 34.7532 0.59288C34.6993 0.673703 34.6531 0.750681 34.6146 0.800714L33.1945 2.9252L35.6884 6.50065L38.14 2.87901L36.7045 0.800714Z" fill="#281E69"/>
<path d="M30.3351 10.3031L31.736 12.3391L31.7399 12.3352L30.3351 10.3031Z" fill="#281E69"/>
<path d="M34.1834 8.71757L31.7356 5.11133V5.11517L34.1834 8.71757Z" fill="#281E69"/>
<path d="M31.7356 12.3389L33.1904 10.1875L31.7356 12.3389Z" fill="#281E69"/>
<path d="M33.1906 10.1875L34.1836 8.71726L31.732 5.11487L29.2765 8.76344L30.3349 10.3029L31.7358 12.3389L33.1906 10.1875Z" fill="#281E69"/>
<path d="M35.7961 11.0922L38.2478 14.6984L35.7961 11.0922Z" fill="#281E69"/>
<path d="M35.8425 18.3008L38.248 14.6984V14.6946L35.8425 18.3008Z" fill="#281E69"/>
<path d="M35.7961 11.0883L33.3868 14.733L35.7961 11.0921V11.0883Z" fill="#281E69"/>
<path d="M35.7961 11.0922L33.3868 14.733L35.8423 18.3008L38.2478 14.6946L35.7961 11.0922Z" fill="#281E69"/>
<path d="M42.362 20.7484L39.9104 17.1422L42.362 20.7484Z" fill="#281E69"/>
<path d="M39.9104 17.1422L38.1284 19.8748L39.9104 17.1422Z" fill="#281E69"/>
<path d="M38.1285 19.8709L37.5397 20.7715L39.9952 24.3354L42.3621 20.7484L39.9105 17.1422L38.1285 19.8709Z" fill="#281E69"/>
<path d="M22.8683 5.94973C22.8683 5.94973 22.8683 5.94653 22.8715 5.94653C22.8683 5.94973 22.8683 5.94973 22.8683 5.94973Z" fill="#281E69"/>
<path d="M23.0876 5.74201C23.0952 5.73824 23.1027 5.7307 23.1103 5.72693C23.1065 5.7307 23.0989 5.73824 23.0876 5.74201Z" fill="#281E69"/>
<path d="M21.1593 8.48637L21.3248 8.23621L21.1593 8.48637Z" fill="#281E69"/>
<path d="M23.6148 12.1196L21.1594 8.48645H21.1555L23.6148 12.1196Z" fill="#281E69"/>
<path d="M23.6274 5.56531C23.5501 5.56531 23.4766 5.57304 23.4071 5.5885H23.4032C23.4689 5.5769 23.5423 5.56531 23.6274 5.56531Z" fill="#281E69"/>
<path d="M22.891 5.93103C22.8872 5.93483 22.8759 5.94243 22.8721 5.94623C22.8721 5.94623 22.8721 5.95003 22.8683 5.95003C22.8607 5.96142 22.8531 5.97282 22.8455 5.98042C22.8569 5.96522 22.8759 5.94623 22.891 5.93103Z" fill="#281E69"/>
<path d="M23.1216 5.72302C23.1216 5.72302 23.1178 5.72302 23.114 5.72679C23.1065 5.73056 23.099 5.7381 23.0914 5.74187L23.0876 5.74563C23.0952 5.73809 23.1103 5.73056 23.1216 5.72302Z" fill="#281E69"/>
<path d="M21.1593 8.48649L22.5833 6.35815L21.3248 8.23633L21.1593 8.48649Z" fill="#281E69"/>
<path d="M26.0632 8.44477L25.9897 8.33655L26.0709 8.4525L26.0632 8.44477Z" fill="#281E69"/>
<path d="M22.5797 6.3628C22.6184 6.31256 22.6648 6.23912 22.715 6.15796C22.6648 6.23912 22.6184 6.30869 22.5797 6.3628Z" fill="#281E69"/>
<path d="M24.6733 6.36205C24.5155 6.13112 24.2384 5.56921 23.6264 5.56921C23.5456 5.56921 23.4725 5.57691 23.4032 5.59615C23.2993 5.62309 23.2069 5.66928 23.1261 5.72316C23.1146 5.73086 23.0992 5.73855 23.0915 5.74625C23.0145 5.80013 22.9529 5.86556 22.8952 5.92714C22.8798 5.94638 22.8605 5.96178 22.849 5.98102C22.799 6.03875 22.7566 6.10033 22.722 6.15421C22.6681 6.23119 22.6219 6.30431 22.5873 6.35819L21.1671 8.48653L23.6226 12.1197L26.0896 8.47498L26.0781 8.45575L25.9972 8.33643L24.6733 6.36205Z" fill="#281E69"/>
<path d="M26.4669 16.3416L27.7485 18.2351L26.4669 16.3416Z" fill="#281E69"/>
<path d="M27.7754 11.0037L25.9203 13.7747L27.7754 11.0037Z" fill="#281E69"/>
<path d="M30.1925 14.6215L27.7485 18.2354L30.1925 14.6215Z" fill="#281E69"/>
<path d="M25.9205 13.7747L25.3278 14.656L26.467 16.3418L27.7486 18.2353L30.1925 14.6252L27.7755 11.0074L25.9205 13.7747Z" fill="#281E69"/>
<path d="M31.351 23.562L31.8397 24.2894L31.351 23.562Z" fill="#281E69"/>
<path d="M31.8321 17.0806L30.5427 19.028L31.8321 17.0806Z" fill="#281E69"/>
<path d="M34.2452 20.6908L31.8397 24.2893L34.2452 20.6908Z" fill="#281E69"/>
<path d="M30.5426 19.028L29.4265 20.7176L31.3509 23.5618L31.8435 24.2892L34.2451 20.6907L31.832 17.0806L30.5426 19.028Z" fill="#281E69"/>
<path d="M33.5717 26.8489L35.981 30.4166L33.5717 26.8489Z" fill="#281E69"/>
<path d="M35.9385 23.2269L37.02 24.8472L35.9385 23.2269Z" fill="#281E69"/>
<path d="M35.9847 30.4165L36.893 29.0387L35.9847 30.4165Z" fill="#281E69"/>
<path d="M35.9848 30.4163L36.8931 29.0385L38.3479 26.8332L37.0201 24.8472L35.9386 23.2269L33.5717 26.8486L35.9848 30.4163Z" fill="#281E69"/>
<path d="M41.2998 2.25531H41.4153C41.5385 2.25531 41.6385 2.2861 41.7194 2.34768C41.8002 2.40926 41.9041 2.55936 42.0234 2.79798L42.2081 3.15206H42.7508L42.4929 2.7133C42.4044 2.55936 42.3505 2.46699 42.3351 2.44775C42.2697 2.36693 42.2235 2.30919 42.1889 2.28225C42.1542 2.25146 42.1004 2.22452 42.0388 2.19758C42.2235 2.17064 42.3659 2.10136 42.4698 1.9936C42.5699 1.88199 42.6199 1.74728 42.6199 1.58948C42.6199 1.47402 42.593 1.37011 42.5391 1.27774C42.4852 1.18537 42.4198 1.11609 42.3351 1.06991C42.2505 1.02373 42.1389 0.99678 41.9965 0.981386C41.9464 0.977537 41.7117 0.977539 41.2998 0.977539H40.8611V3.15591H41.2998V2.25531ZM41.2998 1.31623H41.4769C41.7309 1.31623 41.8887 1.32777 41.9503 1.35086C42.0119 1.37011 42.0619 1.40474 42.0965 1.45093C42.1312 1.49711 42.1504 1.551 42.1504 1.61258C42.1504 1.67801 42.1312 1.73188 42.0965 1.78192C42.0619 1.83195 42.0119 1.86659 41.9541 1.88583C41.8925 1.90508 41.7348 1.91663 41.4769 1.91663H41.2998V1.31623Z" fill="#1D1D1B"/>
<path d="M40.7609 3.82959C41.0842 4.00663 41.4268 4.09899 41.7809 4.09899C42.1349 4.09899 42.4775 4.00663 42.8008 3.82959C43.1241 3.6487 43.3742 3.39468 43.559 3.07139C43.736 2.7481 43.8284 2.40557 43.8284 2.05148C43.8284 1.69355 43.736 1.35102 43.5513 1.02003C43.3665 0.692887 43.1125 0.438872 42.7931 0.261831C42.4698 0.0886396 42.1311 0.00012207 41.7809 0.00012207C41.4306 0.00012207 41.0919 0.0886396 40.7686 0.261831C40.4454 0.438872 40.1913 0.689039 40.0066 1.02003C39.8219 1.34717 39.7295 1.69355 39.7295 2.05148C39.7295 2.40557 39.8219 2.7481 39.9989 3.07139C40.1875 3.39468 40.4415 3.6487 40.7609 3.82959ZM40.3645 1.22016C40.5146 0.954601 40.7186 0.754468 40.9765 0.612065C41.2343 0.473512 41.5038 0.404232 41.7886 0.404232C42.0695 0.404232 42.3428 0.473512 42.6006 0.612065C42.8623 0.754468 43.0663 0.954601 43.2164 1.22016C43.3627 1.48572 43.4358 1.75898 43.4358 2.04763C43.4358 2.33629 43.3627 2.60955 43.2164 2.86741C43.0702 3.12912 42.8662 3.3331 42.6083 3.47551C42.3466 3.62176 42.0734 3.69488 41.7847 3.69488C41.4999 3.69488 41.2267 3.62176 40.9688 3.47551C40.7071 3.32925 40.5031 3.12527 40.3607 2.86741C40.2144 2.60955 40.1413 2.33244 40.1413 2.04763C40.1413 1.76283 40.2144 1.48572 40.3645 1.22016Z" fill="#1D1D1B"/>
<path d="M71.1888 22.315V21.6838C69.9996 21.6838 69.2722 21.4798 69.2722 19.5439V12.0505H69.3107L73.0093 22.2765H73.9214L77.5816 12.0505H77.62V21.6106L76.1344 21.6838V22.315C76.8772 22.315 78.1973 22.2418 78.9401 22.2418C79.6829 22.2418 81.08 22.315 81.8228 22.315V21.6838L80.318 21.6106V11.2345L81.8228 11.1576V10.5264L77.3814 10.6033L74.4602 18.5047H74.441L71.5583 10.6033L67.0592 10.5264V11.1576L68.5294 11.2345V19.5439C68.5294 21.4798 67.7673 21.6838 66.7628 21.6838V22.315C67.6904 22.315 68.233 22.2418 68.9758 22.2418C69.7225 22.238 70.2613 22.315 71.1888 22.315Z" fill="#1D1D1B"/>
<path d="M86.6645 22.5535C89.1161 22.5535 91.2021 21.1026 91.2021 17.9235C91.2021 14.7637 89.0815 13.4783 86.6645 13.4783C84.2822 13.4783 82.1461 14.9485 82.1461 18.1083C82.15 21.2912 84.2475 22.5535 86.6645 22.5535ZM86.6645 14.1133C87.9846 14.1133 88.4849 15.4911 88.4849 18.0198C88.4849 20.5676 87.9846 21.9223 86.6645 21.9223C85.379 21.9223 84.8595 20.5637 84.8595 18.0198C84.8595 15.4911 85.379 14.1133 86.6645 14.1133Z" fill="#1D1D1B"/>
<path d="M98.5684 20.7715H98.5877L98.6416 22.4265L102.209 22.2417V21.6105L100.943 21.572V13.6129L97.2445 13.7977V14.4288C98.0642 14.4288 98.4914 14.4288 98.4914 15.4488V18.5162C98.4914 20.3405 97.3407 21.4181 96.4285 21.4181C95.2739 21.4181 95.2355 20.506 95.2355 18.724V13.6129L91.5176 13.7977V14.4288C92.4644 14.4288 92.7838 14.4288 92.7838 15.4488V19.3898C92.7838 21.5105 93.5112 22.515 95.4625 22.515C96.9327 22.5188 97.9757 21.776 98.5684 20.7715Z" fill="#1D1D1B"/>
<path d="M112.016 16.7535C112.016 14.4097 110.9 13.4629 109.341 13.4629C107.871 13.4629 106.866 14.2057 106.231 15.2256H106.216L106.178 13.6091L102.61 13.7939V14.4289C103.557 14.4289 103.872 14.4289 103.872 15.4142V21.5837L102.61 21.6799V22.3111C103.518 22.3111 104.022 22.2379 105.1 22.2379C106.178 22.2379 106.662 22.3111 107.552 22.3111V21.6799L106.324 21.5837V17.4617C106.324 15.6413 107.459 14.5636 108.371 14.5636C109.353 14.5636 109.58 15.2872 109.58 17.2962V21.5875L108.352 21.6837V22.3149C109.264 22.3149 109.726 22.2418 110.804 22.2418C111.885 22.2418 112.385 22.3149 113.298 22.3149V21.6837L112.016 21.5875V16.7535Z" fill="#1D1D1B"/>
<path d="M117.466 21.6262C116.704 21.6262 116.669 20.995 116.704 19.8404V14.5214H118.786V13.7979H116.704V10.3379C116.704 10.3379 115.665 10.692 114.268 10.692V13.8017H112.874V14.5253H114.268V19.8788C114.268 21.3298 114.51 22.5729 116.796 22.5729C118.736 22.5729 119.132 20.8949 119.14 20.868V20.8641L118.543 20.6409C118.543 20.6409 118.151 21.6262 117.466 21.6262Z" fill="#1D1D1B"/>
<path d="M69.7419 29.0659C69.7419 28.0998 70.5039 27.4109 71.6201 27.4109C73.6098 27.4109 74.6721 29.6778 74.8183 30.4976H75.4303C75.4303 29.9049 75.3957 29.4007 75.3957 28.527C75.3957 27.9343 75.4303 27.4879 75.4303 26.8721H74.8183C74.8183 26.8721 74.726 27.2801 74.4104 27.2801C74.114 27.2801 73.3135 26.7759 71.7701 26.7759C70.0767 26.7759 67.7906 27.688 67.7906 30.4591C67.7906 35.1622 74.2064 33.2494 74.2064 36.6902C74.2064 37.6562 73.5944 38.5106 72.0665 38.5106C69.6341 38.5106 68.4218 35.3508 68.2755 34.5118H67.6058C67.6058 35.2738 67.6597 35.8126 67.6597 36.6709C67.6597 37.5638 67.6058 38.1026 67.6058 38.9955H68.2178C68.2178 38.9955 68.2948 38.5491 68.6835 38.5491C69.0183 38.5491 70.0382 39.2188 72.0126 39.2188C74.2834 39.2188 76.3463 38.1219 76.3463 35.3893C76.3424 30.4052 69.7419 32.2295 69.7419 29.0659Z" fill="#1D1D1B"/>
<path d="M80.7529 30.1432L77.035 30.3279V30.9591C77.9664 30.9591 78.3013 30.9591 78.3013 31.9829V38.1177L77.035 38.2139V38.8451C77.9472 38.8451 78.4475 38.7681 79.5252 38.7681C80.6028 38.7681 81.1262 38.8451 82.0191 38.8451V38.2139L80.7529 38.1177V30.1432Z" fill="#1D1D1B"/>
<path d="M78.0355 27.1143C78.0355 28.0264 78.7629 28.5306 79.5404 28.5306C80.3024 28.5306 81.026 28.0264 81.026 27.1143C81.026 26.2021 80.3024 25.7018 79.5404 25.7018C78.7591 25.698 78.0355 26.2021 78.0355 27.1143Z" fill="#1D1D1B"/>
<path d="M91.8143 33.2873C91.8143 30.9435 90.6982 29.9967 89.1356 29.9967C87.6654 29.9967 86.6609 30.7395 86.0297 31.7594H86.0105L85.9758 30.143L82.4081 30.3277V30.9627C83.3549 30.9627 83.6705 30.9627 83.6705 31.948V38.1175L82.4081 38.2137V38.8449C83.3164 38.8449 83.8206 38.7718 84.8982 38.7718C85.9758 38.7718 86.4608 38.8449 87.3537 38.8449V38.2137L86.1259 38.1175V33.9917C86.1259 32.1712 87.2613 31.0936 88.1734 31.0936C89.1549 31.0936 89.3819 31.8171 89.3819 33.8262V38.1175L88.1542 38.2137V38.8449C89.0663 38.8449 89.532 38.7718 90.6097 38.7718C91.6873 38.7718 92.1876 38.8449 93.0998 38.8449V38.2137L91.8182 38.1175V33.2873H91.8143Z" fill="#1D1D1B"/>
<path d="M101.674 38.0636C101.263 38.0636 101.078 37.671 101.097 37.0976L101.189 33.5837C101.224 31.8364 100.951 29.9967 97.6948 29.9967C95.6858 29.9967 93.9962 30.7395 93.9962 32.0596C93.9962 32.8024 94.5196 33.2489 95.2432 33.2489C96.0052 33.2489 96.4902 32.787 96.4902 32.1327C96.4902 31.5015 96.0822 31.2783 96.0822 31.2783C96.1746 31.0936 96.5825 30.6279 97.5139 30.6279C98.7224 30.6279 98.8533 31.6132 98.7994 33.0988V34.0109C96.2708 33.9917 93.4227 34.2149 93.4227 36.6319C93.4227 38.5832 94.9661 39.1797 96.2708 39.1797C97.6255 39.1797 98.4068 38.5832 98.8148 37.8019H98.8533C99.1688 38.7294 99.9309 39.1027 100.843 39.1027C102.756 39.1027 103.021 37.4093 103.021 37.4093L102.409 37.2592C102.398 37.2631 102.213 38.0636 101.674 38.0636ZM98.7147 36.0738C98.6762 37.4132 97.8603 38.0482 97.1367 38.0482C96.3555 38.0482 95.9282 37.4901 95.9282 36.3894C95.9282 35.2194 96.4478 34.6075 98.7532 34.6459L98.7147 36.0738Z" fill="#1D1D1B"/>
<path d="M107.032 27.1143C107.032 26.2021 106.305 25.7018 105.546 25.7018C104.765 25.7018 104.042 26.2021 104.042 27.1143C104.042 28.0264 104.769 28.5306 105.546 28.5306C106.305 28.5267 107.032 28.0264 107.032 27.1143Z" fill="#1D1D1B"/>
<path d="M106.751 30.1432L103.033 30.3279V30.9591C103.964 30.9591 104.299 30.9591 104.299 31.9829V38.1177L103.033 38.2139V38.8451C103.945 38.8451 104.449 38.7681 105.523 38.7681C106.605 38.7681 107.124 38.8451 108.017 38.8451V38.2139L106.751 38.1177V30.1432Z" fill="#1D1D1B"/>
</svg>
