<svg width="391" height="47" viewBox="0 0 391 47" fill="none" xmlns="http://www.w3.org/2000/svg">
<g clip-path="url(#clip0)">
<path d="M1.41477 27.46L2.29261 24.9884H5.82102L6.69886 27.46H7.80682L4.60227 18.7327H3.51136L0.306818 27.46H1.41477ZM2.625 24.0509L4.02273 20.1134H4.09091L5.48864 24.0509H2.625ZM15.0639 27.5964C16.5128 27.5964 17.4673 26.71 17.6378 25.5509H16.6321C16.4446 26.2668 15.848 26.6929 15.0639 26.6929C13.8707 26.6929 13.1037 25.7043 13.1037 24.1873C13.1037 22.7043 13.8878 21.7327 15.0639 21.7327C15.9503 21.7327 16.4787 22.2782 16.6321 22.8748H17.6378C17.4673 21.6475 16.4276 20.8293 15.0469 20.8293C13.2741 20.8293 12.098 22.227 12.098 24.2214C12.098 26.1816 13.223 27.5964 15.0639 27.5964ZM21.767 27.5964C23.5398 27.5964 24.733 26.2498 24.733 24.2214C24.733 22.1759 23.5398 20.8293 21.767 20.8293C19.9943 20.8293 18.8011 22.1759 18.8011 24.2214C18.8011 26.2498 19.9943 27.5964 21.767 27.5964ZM21.767 26.6929C20.4205 26.6929 19.8068 25.5339 19.8068 24.2214C19.8068 22.9089 20.4205 21.7327 21.767 21.7327C23.1136 21.7327 23.7273 22.9089 23.7273 24.2214C23.7273 25.5339 23.1136 26.6929 21.767 26.6929ZM27.2738 18.7327H26.2681V27.46H27.2738V18.7327ZM30.1214 18.7327H29.1158V27.46H30.1214V18.7327ZM33.8896 27.6134C35.0316 27.6134 35.6282 26.9998 35.8327 26.5736H35.8839V27.46H36.8896V23.1475C36.8896 21.0679 35.3043 20.8293 34.4691 20.8293C33.4805 20.8293 32.3555 21.1702 31.8441 22.3634L32.7987 22.7043C33.0202 22.227 33.5444 21.7157 34.5032 21.7157C35.4279 21.7157 35.8839 22.2057 35.8839 23.0452V23.0793C35.8839 23.5651 35.3896 23.5225 34.1964 23.6759C32.9819 23.8336 31.6566 24.102 31.6566 25.602C31.6566 26.8804 32.6452 27.6134 33.8896 27.6134ZM34.043 26.71C33.2418 26.71 32.6623 26.352 32.6623 25.6532C32.6623 24.8861 33.3612 24.6475 34.1452 24.5452C34.5714 24.4941 35.7134 24.3748 35.8839 24.1702V25.0907C35.8839 25.9089 35.2362 26.71 34.043 26.71ZM38.8615 27.46H39.8331V26.4543H39.9524C40.174 26.8123 40.6001 27.5964 41.8615 27.5964C43.4979 27.5964 44.6399 26.2839 44.6399 24.2043C44.6399 22.1418 43.4979 20.8293 41.8445 20.8293C40.5661 20.8293 40.174 21.6134 39.9524 21.9543H39.8672V18.7327H38.8615V27.46ZM39.8501 24.1873C39.8501 22.7214 40.4979 21.7327 41.7251 21.7327C43.0036 21.7327 43.6342 22.8066 43.6342 24.1873C43.6342 25.585 42.9865 26.6929 41.7251 26.6929C40.5149 26.6929 39.8501 25.6702 39.8501 24.1873ZM48.8374 27.5964C50.6101 27.5964 51.8033 26.2498 51.8033 24.2214C51.8033 22.1759 50.6101 20.8293 48.8374 20.8293C47.0646 20.8293 45.8714 22.1759 45.8714 24.2214C45.8714 26.2498 47.0646 27.5964 48.8374 27.5964ZM48.8374 26.6929C47.4908 26.6929 46.8771 25.5339 46.8771 24.2214C46.8771 22.9089 47.4908 21.7327 48.8374 21.7327C50.1839 21.7327 50.7976 22.9089 50.7976 24.2214C50.7976 25.5339 50.1839 26.6929 48.8374 26.6929ZM53.3384 27.46H54.3441V23.3179C54.3441 22.4316 55.043 21.7839 55.9975 21.7839C56.266 21.7839 56.543 21.835 56.6112 21.852V20.8293C56.4961 20.8208 56.2319 20.8123 56.0827 20.8123C55.2987 20.8123 54.6168 21.2554 54.3782 21.9032H54.31V20.9145H53.3384V27.46ZM59.7294 27.6134C60.8714 27.6134 61.468 26.9998 61.6726 26.5736H61.7237V27.46H62.7294V23.1475C62.7294 21.0679 61.1442 20.8293 60.3089 20.8293C59.3203 20.8293 58.1953 21.1702 57.6839 22.3634L58.6385 22.7043C58.8601 22.227 59.3842 21.7157 60.343 21.7157C61.2678 21.7157 61.7237 22.2057 61.7237 23.0452V23.0793C61.7237 23.5651 61.2294 23.5225 60.0362 23.6759C58.8217 23.8336 57.4964 24.102 57.4964 25.602C57.4964 26.8804 58.4851 27.6134 59.7294 27.6134ZM59.8828 26.71C59.0817 26.71 58.5021 26.352 58.5021 25.6532C58.5021 24.8861 59.201 24.6475 59.9851 24.5452C60.4112 24.4941 61.5533 24.3748 61.7237 24.1702V25.0907C61.7237 25.9089 61.076 26.71 59.8828 26.71ZM67.4116 20.9145H66.0138V19.3464H65.0082V20.9145H64.0195V21.7668H65.0082V25.8577C65.0082 26.9998 65.9286 27.5452 66.7809 27.5452C67.1559 27.5452 67.3945 27.477 67.5309 27.4259L67.3263 26.5225C67.2411 26.5395 67.1048 26.5736 66.8832 26.5736C66.44 26.5736 66.0138 26.4373 66.0138 25.585V21.7668H67.4116V20.9145ZM68.9244 27.46H69.93V20.9145H68.9244V27.46ZM69.4357 19.8236C69.8278 19.8236 70.1516 19.5168 70.1516 19.1418C70.1516 18.7668 69.8278 18.46 69.4357 18.46C69.0437 18.46 68.7198 18.7668 68.7198 19.1418C68.7198 19.5168 69.0437 19.8236 69.4357 19.8236ZM74.4311 27.5964C76.2038 27.5964 77.397 26.2498 77.397 24.2214C77.397 22.1759 76.2038 20.8293 74.4311 20.8293C72.6584 20.8293 71.4652 22.1759 71.4652 24.2214C71.4652 26.2498 72.6584 27.5964 74.4311 27.5964ZM74.4311 26.6929C73.0845 26.6929 72.4709 25.5339 72.4709 24.2214C72.4709 22.9089 73.0845 21.7327 74.4311 21.7327C75.7777 21.7327 76.3913 22.9089 76.3913 24.2214C76.3913 25.5339 75.7777 26.6929 74.4311 26.6929ZM79.9379 23.5225C79.9379 22.3804 80.6452 21.7327 81.6083 21.7327C82.5415 21.7327 83.1083 22.3421 83.1083 23.3691V27.46H84.114V23.3009C84.114 21.6304 83.2234 20.8293 81.8981 20.8293C80.9094 20.8293 80.2958 21.2725 79.989 21.9373H79.9038V20.9145H78.9322V27.46H79.9379V23.5225ZM89.4631 27.46H90.4347V26.4543H90.554C90.7756 26.8123 91.2017 27.5964 92.4631 27.5964C94.0994 27.5964 95.2415 26.2839 95.2415 24.2043C95.2415 22.1418 94.0994 20.8293 92.446 20.8293C91.1676 20.8293 90.7756 21.6134 90.554 21.9543H90.4688V18.7327H89.4631V27.46ZM90.4517 24.1873C90.4517 22.7214 91.0994 21.7327 92.3267 21.7327C93.6051 21.7327 94.2358 22.8066 94.2358 24.1873C94.2358 25.585 93.5881 26.6929 92.3267 26.6929C91.1165 26.6929 90.4517 25.6702 90.4517 24.1873ZM99.5241 27.5964C100.854 27.5964 101.825 26.9316 102.132 25.9429L101.161 25.6702C100.905 26.352 100.312 26.6929 99.5241 26.6929C98.3438 26.6929 97.5298 25.9302 97.483 24.5282H102.234V24.102C102.234 21.6645 100.786 20.8293 99.4219 20.8293C97.6491 20.8293 96.473 22.227 96.473 24.2384C96.473 26.2498 97.6321 27.5964 99.5241 27.5964ZM97.483 23.6589C97.5511 22.6404 98.2713 21.7327 99.4219 21.7327C100.513 21.7327 101.212 22.5509 101.212 23.6589H97.483ZM106.611 20.9145H105.213V19.3464H104.207V20.9145H103.219V21.7668H104.207V25.8577C104.207 26.9998 105.128 27.5452 105.98 27.5452C106.355 27.5452 106.594 27.477 106.73 27.4259L106.526 26.5225C106.44 26.5395 106.304 26.5736 106.082 26.5736C105.639 26.5736 105.213 26.4373 105.213 25.585V21.7668H106.611V20.9145ZM109.607 27.46H110.595L112.027 22.4316H112.129L113.561 27.46H114.55L116.544 20.9145H115.487L114.072 25.9089H114.004L112.624 20.9145H111.55L110.152 25.9259H110.084L108.669 20.9145H107.612L109.607 27.46ZM120.395 27.5964C121.725 27.5964 122.696 26.9316 123.003 25.9429L122.032 25.6702C121.776 26.352 121.184 26.6929 120.395 26.6929C119.215 26.6929 118.401 25.9302 118.354 24.5282H123.105V24.102C123.105 21.6645 121.657 20.8293 120.293 20.8293C118.52 20.8293 117.344 22.227 117.344 24.2384C117.344 26.2498 118.503 27.5964 120.395 27.5964ZM118.354 23.6589C118.422 22.6404 119.142 21.7327 120.293 21.7327C121.384 21.7327 122.083 22.5509 122.083 23.6589H118.354ZM127.38 27.5964C128.709 27.5964 129.681 26.9316 129.988 25.9429L129.016 25.6702C128.76 26.352 128.168 26.6929 127.38 26.6929C126.199 26.6929 125.385 25.9302 125.338 24.5282H130.09V24.102C130.09 21.6645 128.641 20.8293 127.277 20.8293C125.505 20.8293 124.328 22.227 124.328 24.2384C124.328 26.2498 125.488 27.5964 127.38 27.5964ZM125.338 23.6589C125.407 22.6404 126.127 21.7327 127.277 21.7327C128.368 21.7327 129.067 22.5509 129.067 23.6589H125.338ZM132.625 23.5225C132.625 22.3804 133.333 21.7327 134.296 21.7327C135.229 21.7327 135.796 22.3421 135.796 23.3691V27.46H136.801V23.3009C136.801 21.6304 135.911 20.8293 134.586 20.8293C133.597 20.8293 132.983 21.2725 132.676 21.9373H132.591V20.9145H131.62V27.46H132.625V23.5225Z" fill="#475156"/>
<g opacity="0.5">
<path d="M204.61 16.773H205.72C205.839 16.773 205.943 16.6728 205.943 16.5496V13.1249H209.121V16.5496C209.121 16.6728 209.221 16.773 209.345 16.773H210.454C210.577 16.773 210.678 16.6728 210.678 16.5496V8.66775C210.678 8.54448 210.577 8.45203 210.454 8.45203H209.345C209.221 8.45203 209.121 8.54063 209.121 8.66775V11.7573H205.943V8.66775C205.943 8.54448 205.843 8.45203 205.72 8.45203H204.61C204.487 8.45203 204.387 8.54063 204.387 8.66775V16.5496C204.387 16.669 204.487 16.773 204.61 16.773ZM213.948 16.8616C214.484 16.8616 215.011 16.6844 215.528 16.3685V16.5496C215.528 16.6728 215.628 16.773 215.751 16.773H216.703C216.826 16.773 216.926 16.6728 216.926 16.5496V12.5201C216.926 11.087 216.051 10.382 214.46 10.382C213.69 10.382 213.039 10.4706 212.592 10.5631C212.446 10.5978 212.38 10.6748 212.38 10.7981V11.5146C212.38 11.6726 212.469 11.7034 212.581 11.7034H212.638C213.008 11.6571 213.748 11.6148 214.464 11.6148C215.123 11.6148 215.451 11.7958 215.451 12.5239V13.017H214.746C212.796 13.017 212.01 13.6757 212.01 14.9547V15.0009C212.01 16.5033 213.02 16.8616 213.948 16.8616ZM213.501 14.947C213.501 14.3191 213.725 13.9955 214.746 13.9955H215.451V15.3746C215.127 15.5557 214.711 15.6866 214.31 15.6866C213.752 15.6866 213.501 15.5403 213.501 14.9932V14.947ZM219.099 13.6025L220.632 14.5425C220.99 14.7659 221.125 14.9008 221.125 15.1127C221.125 15.417 221.025 15.652 220.331 15.652C219.996 15.652 218.987 15.598 218.451 15.5287H218.405C218.294 15.5287 218.216 15.6173 218.216 15.7059V16.3801C218.216 16.5149 218.294 16.6035 218.428 16.6382C219.052 16.8077 219.996 16.8616 220.432 16.8616C221.899 16.8616 222.627 16.0911 222.627 15.1165C222.627 14.5464 222.493 13.9839 221.553 13.4138L220.085 12.5162C219.804 12.3467 219.638 12.235 219.638 12.0578C219.638 11.7111 219.873 11.5878 220.412 11.5878C221.052 11.5878 221.945 11.6764 222.258 11.7226H222.304C222.415 11.7226 222.481 11.6456 222.481 11.5108V10.8636C222.481 10.7287 222.415 10.6401 222.281 10.6055C221.711 10.4822 221.194 10.382 220.285 10.382C218.864 10.382 218.159 10.9406 218.159 12.0616C218.159 12.7088 218.548 13.2674 219.099 13.6025ZM227.027 13.4138L225.559 12.5162C225.278 12.3467 225.112 12.235 225.112 12.0578C225.112 11.7111 225.347 11.5878 225.886 11.5878C226.526 11.5878 227.42 11.6764 227.732 11.7226H227.778C227.89 11.7226 227.959 11.6456 227.959 11.5108V10.8636C227.959 10.7287 227.89 10.6401 227.755 10.6055C227.185 10.4822 226.668 10.382 225.763 10.382C224.342 10.382 223.637 10.9406 223.637 12.0616C223.637 12.7127 224.026 13.2713 224.577 13.6064L226.11 14.5464C226.468 14.7698 226.599 14.9046 226.599 15.1165C226.599 15.4208 226.499 15.6558 225.805 15.6558C225.466 15.6558 224.461 15.6019 223.926 15.5326H223.879C223.768 15.5326 223.691 15.6212 223.691 15.7098V16.3839C223.691 16.5187 223.768 16.6073 223.902 16.642C224.527 16.8115 225.47 16.8654 225.906 16.8654C227.373 16.8654 228.101 16.095 228.101 15.1204C228.101 14.5425 227.967 13.9839 227.027 13.4138ZM231.819 16.8616C233.576 16.8616 234.492 15.6751 234.492 14.0725V13.1672C234.492 11.5647 233.576 10.3782 231.819 10.3782C230.062 10.3782 229.145 11.5647 229.145 13.1672V14.0725C229.142 15.6751 230.058 16.8616 231.819 16.8616ZM230.621 13.1672C230.621 12.2504 231.033 11.6533 231.819 11.6533C232.601 11.6533 233.017 12.2465 233.017 13.1672V14.0725C233.017 14.9932 232.601 15.5865 231.819 15.5865C231.033 15.5865 230.621 14.9932 230.621 14.0725V13.1672ZM210.165 21.9081V21.8079C210.165 19.8279 208.663 19.223 206.941 19.223C206.124 19.223 205.331 19.2808 204.745 19.3694C204.522 19.4041 204.387 19.4812 204.387 19.7046V27.4092C204.387 27.5325 204.487 27.6326 204.61 27.6326H205.731C205.854 27.6326 205.943 27.5325 205.943 27.4092V24.4853C206.201 24.4968 206.648 24.5315 206.941 24.5315C208.663 24.5277 210.165 23.8882 210.165 21.9081ZM208.62 21.9081C208.62 22.8057 208.15 23.2525 206.941 23.2525C206.752 23.2525 206.124 23.2294 205.943 23.2179V20.5521C206.147 20.529 206.702 20.5059 206.941 20.5059C208.058 20.5059 208.62 20.8641 208.62 21.8041V21.9081ZM211.487 27.6288H212.527C212.65 27.6288 212.739 27.517 212.739 27.3938V19.3309C212.739 19.2076 212.65 19.1075 212.527 19.1075H211.487C211.363 19.1075 211.263 19.2076 211.263 19.3309V27.3938C211.259 27.517 211.363 27.6288 211.487 27.6288ZM217.454 27.2243V27.4053C217.454 27.5286 217.554 27.6288 217.677 27.6288H218.629C218.752 27.6288 218.852 27.5286 218.852 27.4053V23.3758C218.852 21.9428 217.978 21.2378 216.387 21.2378C215.612 21.2378 214.965 21.3264 214.518 21.4189C214.372 21.4535 214.306 21.5306 214.306 21.6538V22.3704C214.306 22.5245 214.395 22.5591 214.507 22.5591H214.564C214.934 22.5129 215.674 22.4705 216.39 22.4705C217.049 22.4705 217.377 22.6516 217.377 23.3797V23.8689H216.672C214.722 23.8689 213.94 24.5315 213.94 25.8066V25.8528C213.94 27.363 214.95 27.7212 215.878 27.7212C216.41 27.7174 216.938 27.5402 217.454 27.2243ZM215.427 25.849V25.8028C215.427 25.1748 215.651 24.8513 216.672 24.8513H217.377V26.2304C217.053 26.4076 216.637 26.5424 216.233 26.5424C215.674 26.5424 215.427 26.396 215.427 25.849ZM220.801 25.9376C220.801 27.4362 221.318 27.7174 222.581 27.7174C222.828 27.7174 223.07 27.6827 223.344 27.6403C223.49 27.6172 223.556 27.5517 223.556 27.4361V26.7312C223.556 26.6195 223.467 26.5617 223.321 26.5617H222.728C222.323 26.5617 222.288 26.4923 222.288 25.9376V22.4205H222.974C223.097 22.4205 223.197 22.3203 223.197 22.197V21.5383C223.197 21.415 223.097 21.3148 222.974 21.3148H222.288V20.163C222.288 20.0513 222.211 19.9935 222.111 19.9935H222.065L221.025 20.1746C220.902 20.1977 220.801 20.2747 220.801 20.398V21.3148H219.75C219.626 21.3148 219.526 21.415 219.526 21.5383V22.0429C219.526 22.1662 219.626 22.2471 219.75 22.2664L220.801 22.4205V25.9376ZM227.462 26.5655H226.869C226.464 26.5655 226.43 26.4962 226.43 25.9415V22.4243H227.439C227.562 22.4243 227.662 22.3242 227.662 22.2009V21.5421C227.662 21.4189 227.562 21.3187 227.439 21.3187H226.43V20.1669C226.43 20.0551 226.353 19.9974 226.249 19.9974H226.206L225.166 20.1784C225.043 20.2015 224.943 20.2786 224.943 20.4019V21.3187H224.214C224.091 21.3187 223.991 21.4189 223.991 21.5421V22.0468C223.991 22.1701 224.091 22.251 224.214 22.2702L224.943 22.4243V25.9415C224.943 27.44 225.459 27.7212 226.722 27.7212C226.969 27.7212 227.215 27.6866 227.485 27.6442C227.631 27.6211 227.701 27.5556 227.701 27.44V26.735C227.697 26.6233 227.608 26.5655 227.462 26.5655ZM234.08 27.3938V23.7418C234.08 22.3203 233.757 21.2339 232.143 21.2339C231.403 21.2339 230.975 21.3572 230.328 21.7733V21.5383C230.328 21.415 230.228 21.3148 230.105 21.3148H229.13C229.007 21.3148 228.907 21.415 228.907 21.5383V27.3938C228.907 27.517 229.007 27.6288 229.13 27.6288H230.159C230.282 27.6288 230.382 27.517 230.382 27.3938V22.8943C230.852 22.6477 231.268 22.4898 231.646 22.4898C232.508 22.4898 232.597 22.771 232.597 23.7418V27.3938C232.597 27.517 232.697 27.6288 232.821 27.6288H233.853C233.976 27.6288 234.08 27.517 234.08 27.3938ZM240.394 24.9861C240.552 24.9861 240.618 24.8859 240.618 24.7049V24.0808C240.618 22.4128 239.678 21.2378 237.952 21.2378C236.238 21.2378 235.263 22.3357 235.263 24.0808V24.909C235.263 27.1125 236.854 27.7174 237.971 27.7174C238.98 27.7174 239.416 27.6634 240.144 27.5286C240.348 27.4939 240.379 27.4169 240.379 27.2397V26.5C240.379 26.3883 240.29 26.3305 240.175 26.3305H240.14C239.67 26.3768 238.899 26.4423 238.079 26.4423C237.004 26.4423 236.734 25.6679 236.734 25.0208V24.9861H240.394ZM236.754 23.8882C236.754 23.0022 237.258 22.5091 237.952 22.5091C238.645 22.5091 239.127 23.0137 239.127 23.8882V23.9344H236.754V23.8882ZM244.828 21.2339C244.377 21.2339 243.776 21.3457 243.226 21.7733V21.5383C243.226 21.415 243.125 21.3148 243.002 21.3148H242.028C241.904 21.3148 241.804 21.415 241.804 21.5383V27.3938C241.804 27.517 241.904 27.6288 242.028 27.6288H243.06C243.183 27.6288 243.283 27.517 243.283 27.3938V22.8943C243.753 22.6477 244.223 22.4898 244.828 22.4898C244.951 22.4898 245.052 22.3896 245.052 22.2664V21.4574C245.052 21.338 244.951 21.2339 244.828 21.2339ZM205.743 30.1674H204.626C204.502 30.1674 204.398 30.256 204.398 30.3793V38.2611C204.398 38.3844 204.498 38.4846 204.626 38.4846H205.743C205.866 38.4846 205.97 38.3844 205.97 38.2611V30.3793C205.966 30.256 205.866 30.1674 205.743 30.1674ZM211.155 32.0936C210.412 32.0936 209.98 32.2169 209.325 32.6329V32.3979C209.325 32.2746 209.225 32.1745 209.098 32.1745H208.116C207.992 32.1745 207.888 32.2746 207.888 32.3979V38.2534C207.888 38.3767 207.989 38.4884 208.116 38.4884H209.156C209.279 38.4884 209.383 38.3767 209.383 38.2534V33.7539C209.857 33.5074 210.277 33.3494 210.662 33.3494C211.533 33.3494 211.625 33.6306 211.625 34.6014V38.2534C211.625 38.3767 211.725 38.4884 211.852 38.4884H212.893C213.016 38.4884 213.12 38.3767 213.12 38.2534V34.6014C213.112 33.1799 212.789 32.0936 211.155 32.0936ZM218.124 35.1253L216.641 34.2316C216.356 34.0621 216.186 33.9504 216.186 33.7732C216.186 33.4265 216.425 33.2993 216.968 33.2993C217.612 33.2993 218.517 33.3879 218.833 33.4342H218.879C218.991 33.4342 219.06 33.3571 219.06 33.2223V32.5713C219.06 32.4364 218.991 32.3478 218.856 32.3132C218.278 32.1899 217.758 32.0897 216.845 32.0897C215.408 32.0897 214.695 32.6483 214.695 33.7693C214.695 34.4165 215.092 34.9789 215.647 35.3141L217.196 36.2541C217.558 36.4775 217.693 36.6085 217.693 36.8242C217.693 37.1285 217.592 37.3635 216.891 37.3635C216.552 37.3635 215.535 37.3057 214.992 37.2402H214.946C214.834 37.2402 214.753 37.3289 214.753 37.4175V38.0916C214.753 38.2264 214.834 38.315 214.969 38.3458C215.605 38.5154 216.552 38.5693 216.995 38.5693C218.478 38.5693 219.21 37.795 219.21 36.8242C219.21 36.2579 219.072 35.6993 218.124 35.1253ZM224.003 37.4213H223.402C222.997 37.4213 222.962 37.3558 222.962 36.7934V33.2762H223.98C224.103 33.2762 224.207 33.1761 224.207 33.0528V32.3941C224.207 32.2708 224.103 32.1706 223.98 32.1706H222.962V31.0188C222.962 30.9071 222.885 30.8493 222.781 30.8493H222.735L221.684 31.0303C221.56 31.0535 221.456 31.1305 221.456 31.2538V32.1706H220.393C220.27 32.1706 220.17 32.2708 220.17 32.3941V32.8987C220.17 33.022 220.27 33.099 220.393 33.1221L221.456 33.2801V36.7972C221.456 38.2996 221.976 38.577 223.255 38.577C223.506 38.577 223.752 38.5423 224.026 38.5C224.172 38.4768 224.241 38.4113 224.241 38.2958V37.5908C224.241 37.4791 224.149 37.4213 224.003 37.4213ZM226.9 32.1706H225.859C225.736 32.1706 225.636 32.2708 225.636 32.3941V38.2495C225.636 38.3728 225.736 38.4846 225.859 38.4846H226.9C227.023 38.4846 227.127 38.3728 227.127 38.2495V32.3941C227.127 32.2708 227.023 32.1706 226.9 32.1706ZM226.93 29.8978H225.832C225.709 29.8978 225.597 29.9979 225.597 30.1212V31.1074C225.597 31.2307 225.709 31.3308 225.832 31.3308H226.93C227.054 31.3308 227.158 31.2307 227.158 31.1074V30.1212C227.158 29.9979 227.057 29.8978 226.93 29.8978ZM232.293 37.4213H231.696C231.287 37.4213 231.257 37.3558 231.257 36.7934V33.2762H232.274C232.397 33.2762 232.501 33.1761 232.501 33.0528V32.3941C232.501 32.2708 232.401 32.1706 232.274 32.1706H231.257V31.0188C231.257 30.9071 231.176 30.8493 231.075 30.8493H231.029L229.978 31.0303C229.85 31.0535 229.75 31.1305 229.75 31.2538V32.1706H228.687C228.564 32.1706 228.46 32.2708 228.46 32.3941V32.8987C228.46 33.022 228.56 33.099 228.687 33.1221L229.75 33.2801V36.7972C229.75 38.2996 230.27 38.577 231.549 38.577C231.8 38.577 232.046 38.5423 232.32 38.5C232.466 38.4768 232.532 38.4113 232.532 38.2958V37.5908C232.528 37.4791 232.439 37.4213 232.293 37.4213ZM238.884 32.1706H237.844C237.721 32.1706 237.617 32.2823 237.617 32.4056V36.8858C237.301 37.0553 236.758 37.3327 236.342 37.3327C235.991 37.3327 235.798 37.2634 235.64 37.1324C235.425 36.9398 235.378 36.6162 235.378 36.0576V32.4056C235.378 32.2823 235.278 32.1706 235.155 32.1706H234.115C233.992 32.1706 233.888 32.2823 233.888 32.4056V36.0576C233.888 36.986 234.038 37.6794 234.454 38.0955C234.781 38.4191 235.282 38.5654 235.845 38.5654C236.569 38.5654 237.031 38.3844 237.62 38.0068V38.2611C237.62 38.3844 237.721 38.4846 237.848 38.4846H238.888C239.011 38.4846 239.111 38.3844 239.111 38.2611V32.4056C239.111 32.2823 239.011 32.1706 238.884 32.1706ZM244.246 37.4213H243.645C243.241 37.4213 243.206 37.3558 243.206 36.7934V33.2762H244.223C244.347 33.2762 244.447 33.1761 244.447 33.0528V32.3941C244.447 32.2708 244.347 32.1706 244.223 32.1706H243.206V31.0188C243.206 30.9071 243.125 30.8493 243.025 30.8493H242.979L241.927 31.0303C241.804 31.0535 241.7 31.1305 241.7 31.2538V32.1706H240.637C240.514 32.1706 240.41 32.2708 240.41 32.3941V32.8987C240.41 33.022 240.51 33.099 240.637 33.1221L241.7 33.2801V36.7972C241.7 38.2996 242.22 38.577 243.499 38.577C243.75 38.577 243.996 38.5423 244.27 38.5C244.416 38.4768 244.485 38.4113 244.485 38.2958V37.5908C244.481 37.4791 244.393 37.4213 244.246 37.4213Z" fill="#1D1D1D"/>
<path d="M195.661 4.8076H162V38.469H195.661V4.8076Z" fill="#3E3E3E"/>
<path d="M200.469 0H171.615V28.8537H200.469V0Z" fill="#ACACAC"/>
<path d="M195.661 4.8076H171.619V28.8498H195.661V4.8076Z" fill="#6E6E6E"/>
<path d="M181.396 8.54416H180.287C180.164 8.54416 180.063 8.63277 180.063 8.75605V11.8456H176.885V8.75605C176.885 8.63277 176.785 8.54416 176.662 8.54416H175.552C175.429 8.54416 175.329 8.63277 175.329 8.75605V16.6378C175.329 16.7611 175.429 16.8613 175.552 16.8613H176.662C176.785 16.8613 176.885 16.7611 176.885 16.6378V13.2131H180.063V16.6378C180.063 16.7611 180.164 16.8613 180.287 16.8613H181.396C181.52 16.8613 181.62 16.7611 181.62 16.6378V8.75605C181.62 8.63277 181.52 8.54416 181.396 8.54416ZM185.873 8.45557C185.056 8.45557 184.262 8.50949 183.677 8.60194C183.453 8.63661 183.322 8.71366 183.322 8.94095V16.6417C183.322 16.765 183.423 16.8651 183.546 16.8651H184.663C184.786 16.8651 184.879 16.765 184.879 16.6417V13.7217C185.133 13.7294 185.584 13.764 185.877 13.764C187.602 13.764 189.101 13.1245 189.101 11.1445V11.0443C189.097 9.06038 187.599 8.45557 185.873 8.45557ZM187.552 11.1406C187.552 12.0382 187.082 12.4851 185.873 12.4851C185.684 12.4851 185.056 12.462 184.875 12.4504V9.7846C185.075 9.76149 185.638 9.73838 185.873 9.73838C186.99 9.73838 187.552 10.0966 187.552 11.0366V11.1406ZM191.724 8.54416H190.615C190.492 8.54416 190.391 8.63277 190.391 8.75605V16.6378C190.391 16.7611 190.492 16.8613 190.615 16.8613H191.724C191.848 16.8613 191.948 16.7611 191.948 16.6378V8.75605C191.948 8.63277 191.848 8.54416 191.724 8.54416Z" fill="white"/>
<path d="M164.324 44.5996V43.9792C164.324 42.9858 163.782 42.5518 162.932 42.5518C162.585 42.5518 162.23 42.5769 162.097 42.5985C162.036 42.6092 162 42.6487 162 42.7132V45.8692C162 45.9374 162.036 45.9732 162.097 45.984C162.23 46.0055 162.585 46.0306 162.932 46.0306C163.782 46.0306 164.324 45.5859 164.324 44.5996ZM163.904 44.5996C163.904 45.4281 163.481 45.672 162.929 45.672C162.714 45.672 162.567 45.672 162.42 45.6612V42.9212C162.57 42.9105 162.714 42.9069 162.929 42.9069C163.481 42.9069 163.904 43.1472 163.904 43.9792V44.5996ZM165.364 42.975V42.6092C165.364 42.559 165.321 42.516 165.271 42.516H165.038C164.987 42.516 164.944 42.559 164.944 42.6092V42.975C164.944 43.0252 164.987 43.0647 165.038 43.0647H165.271C165.321 43.0647 165.364 43.0252 165.364 42.975ZM165.353 45.9051V43.5632C165.353 43.513 165.314 43.4699 165.26 43.4699H165.041C164.991 43.4699 164.952 43.513 164.952 43.5632V45.9051C164.952 45.9553 164.991 45.9983 165.041 45.9983H165.26C165.314 45.9983 165.353 45.9553 165.353 45.9051ZM168.09 43.6923V43.5739C168.09 43.5201 168.039 43.4735 167.986 43.4735H166.981C166.192 43.4735 165.963 43.8788 165.963 44.2876V44.3235C165.963 44.5602 166.031 44.7252 166.175 44.8579C166.045 44.9296 165.988 45.0623 165.988 45.1878V45.1914C165.988 45.3348 166.053 45.4855 166.2 45.55L166.232 45.5644C166.081 45.6791 165.945 45.8907 165.945 46.1489V46.1884C165.945 46.6367 166.275 46.92 167.003 46.92C167.756 46.92 168.05 46.6474 168.05 46.2063V46.1705C168.05 45.7365 167.62 45.611 167.168 45.4962L166.483 45.3205C166.375 45.2918 166.339 45.2524 166.339 45.1735C166.339 45.1053 166.375 45.0551 166.454 45.0157C166.587 45.073 166.745 45.1089 166.989 45.1089C167.695 45.1089 168.007 44.8292 168.007 44.3235V44.2876C168.007 44.0402 167.932 43.9003 167.849 43.8142L168.014 43.782C168.057 43.7712 168.09 43.7497 168.09 43.6923ZM167.598 44.3199C167.598 44.5961 167.473 44.7897 166.978 44.7897C166.451 44.7897 166.357 44.5243 166.357 44.3199V44.284C166.357 44.0258 166.461 43.7927 166.978 43.7927C167.473 43.7927 167.598 44.0079 167.598 44.284V44.3199ZM167.634 46.2063C167.634 46.461 167.516 46.608 166.992 46.608C166.483 46.608 166.329 46.4466 166.329 46.1884V46.1489C166.329 45.9087 166.422 45.7939 166.555 45.6791L167.075 45.8118C167.487 45.9158 167.634 45.9911 167.634 46.1705V46.2063ZM169.018 42.975V42.6092C169.018 42.559 168.975 42.516 168.925 42.516H168.692C168.642 42.516 168.599 42.559 168.599 42.6092V42.975C168.599 43.0252 168.638 43.0647 168.692 43.0647H168.925C168.975 43.0647 169.018 43.0252 169.018 42.975ZM169.008 45.9051V43.5632C169.008 43.513 168.965 43.4699 168.914 43.4699H168.696C168.646 43.4699 168.606 43.513 168.606 43.5632V45.9051C168.606 45.9553 168.649 45.9983 168.696 45.9983H168.914C168.965 45.9983 169.008 45.9553 169.008 45.9051ZM171.034 45.9302V45.7688C171.034 45.7222 171.002 45.7042 170.937 45.7042H170.679C170.496 45.7042 170.431 45.6684 170.431 45.4137V43.8106H170.926C170.977 43.8106 171.02 43.7712 171.02 43.721V43.5632C171.02 43.513 170.977 43.4699 170.926 43.4699H170.431V42.9679C170.431 42.9212 170.399 42.889 170.363 42.889H170.349L170.109 42.9248C170.059 42.9356 170.026 42.9714 170.026 43.0181V43.4664H169.582C169.531 43.4664 169.492 43.4986 169.492 43.5488V43.6744C169.492 43.7246 169.528 43.7533 169.582 43.7569L170.026 43.8071V45.4102C170.026 45.9158 170.227 46.027 170.65 46.027C170.736 46.027 170.858 46.0162 170.948 46.0055C171.009 45.9983 171.034 45.9696 171.034 45.9302ZM173.265 45.9051V44.302C173.265 43.7604 173.006 43.4377 172.368 43.4377C172.056 43.4377 171.845 43.4664 171.658 43.4986C171.593 43.5094 171.561 43.5345 171.561 43.5847V43.7461C171.561 43.8071 171.604 43.8178 171.644 43.8178H171.665C171.848 43.7999 172.07 43.782 172.368 43.782C172.727 43.782 172.859 43.9146 172.859 44.302V44.4849H172.519C171.701 44.4849 171.411 44.7323 171.411 45.2273V45.281C171.411 45.8549 171.769 46.027 172.16 46.027C172.418 46.027 172.648 45.9302 172.867 45.8011V45.9015C172.867 45.9517 172.91 45.9947 172.96 45.9947H173.171C173.222 45.9983 173.265 45.9553 173.265 45.9051ZM172.859 45.5142C172.641 45.6325 172.451 45.6971 172.239 45.6971C171.974 45.6971 171.816 45.611 171.816 45.2775V45.2237C171.816 44.8973 171.963 44.7718 172.519 44.7718H172.859V45.5142ZM174.323 45.9051V42.6307C174.323 42.5805 174.287 42.5447 174.24 42.5447H174C173.95 42.5447 173.917 42.5841 173.917 42.6307V45.9051C173.917 45.9553 173.953 45.9983 174 45.9983H174.24C174.294 45.9983 174.323 45.9517 174.323 45.9051ZM178.142 45.9445V45.7114C178.142 45.6791 178.124 45.6576 178.092 45.6576H177.206C176.718 45.6576 176.639 45.5285 176.639 45.1806V44.4096H178.049C178.099 44.4096 178.142 44.3701 178.142 44.3199V44.1442C178.142 44.094 178.103 44.0545 178.049 44.0545H176.639V43.4161C176.639 43.0683 176.718 42.9392 177.206 42.9392H178.092C178.124 42.9392 178.142 42.9177 178.142 42.8854V42.6558C178.142 42.6272 178.124 42.5949 178.095 42.5913C177.902 42.5734 177.471 42.5626 177.199 42.5626C176.557 42.5626 176.22 42.8065 176.22 43.4161V45.1842C176.22 45.7939 176.553 46.0378 177.199 46.0378C177.471 46.0378 177.92 46.0342 178.095 46.0162C178.124 46.0019 178.142 45.9696 178.142 45.9445ZM180.653 45.9051V44.3952C180.653 43.7855 180.405 43.4413 179.853 43.4413C179.58 43.4413 179.376 43.5094 179.121 43.6528V43.5632C179.121 43.513 179.085 43.4699 179.035 43.4699H178.806C178.755 43.4699 178.72 43.513 178.72 43.5632V45.9051C178.72 45.9553 178.763 45.9983 178.806 45.9983H179.032C179.082 45.9983 179.125 45.9517 179.125 45.9051V43.9649C179.336 43.8609 179.552 43.7855 179.745 43.7855C180.093 43.7855 180.251 43.929 180.251 44.3916V45.9015C180.251 45.9517 180.294 45.9947 180.344 45.9947H180.563C180.613 45.9983 180.653 45.9553 180.653 45.9051ZM183.378 43.6923V43.5739C183.378 43.5201 183.328 43.4735 183.274 43.4735H182.266C181.477 43.4735 181.248 43.8788 181.248 44.2876V44.3235C181.248 44.5602 181.316 44.7252 181.459 44.8579C181.33 44.9296 181.269 45.0623 181.269 45.1878V45.1914C181.269 45.3348 181.334 45.4855 181.481 45.55L181.513 45.5644C181.363 45.6791 181.226 45.8907 181.226 46.1489V46.1884C181.226 46.6367 181.556 46.92 182.284 46.92C183.037 46.92 183.332 46.6474 183.332 46.2063V46.1705C183.332 45.7365 182.901 45.611 182.449 45.4962L181.764 45.3205C181.66 45.2918 181.621 45.2524 181.621 45.1735C181.621 45.1053 181.657 45.0551 181.736 45.0157C181.868 45.073 182.026 45.1089 182.27 45.1089C182.98 45.1089 183.289 44.8292 183.289 44.3235V44.2876C183.289 44.0402 183.217 43.9003 183.131 43.8142L183.296 43.782C183.346 43.7712 183.378 43.7497 183.378 43.6923ZM182.887 44.3199C182.887 44.5961 182.761 44.7897 182.266 44.7897C181.739 44.7897 181.646 44.5243 181.646 44.3199V44.284C181.646 44.0258 181.75 43.7927 182.266 43.7927C182.761 43.7927 182.887 44.0079 182.887 44.284V44.3199ZM182.923 46.2063C182.923 46.461 182.804 46.608 182.281 46.608C181.771 46.608 181.617 46.4466 181.617 46.1884V46.1489C181.617 45.9087 181.711 45.7939 181.843 45.6791L182.363 45.8118C182.776 45.9158 182.923 45.9911 182.923 46.1705V46.2063ZM184.329 42.975V42.6092C184.329 42.559 184.286 42.516 184.235 42.516H184.002C183.952 42.516 183.909 42.559 183.909 42.6092V42.975C183.909 43.0252 183.952 43.0647 184.002 43.0647H184.235C184.286 43.0647 184.329 43.0252 184.329 42.975ZM184.318 45.9051V43.5632C184.318 43.513 184.278 43.4699 184.225 43.4699H184.002C183.952 43.4699 183.913 43.513 183.913 43.5632V45.9051C183.913 45.9553 183.952 45.9983 184.002 45.9983H184.225C184.278 45.9983 184.318 45.9553 184.318 45.9051ZM186.936 45.9051V44.3952C186.936 43.7855 186.688 43.4413 186.136 43.4413C185.864 43.4413 185.659 43.5094 185.404 43.6528V43.5632C185.404 43.513 185.369 43.4699 185.318 43.4699H185.089C185.039 43.4699 185.003 43.513 185.003 43.5632V45.9051C185.003 45.9553 185.046 45.9983 185.089 45.9983H185.315C185.365 45.9983 185.408 45.9517 185.408 45.9051V43.9649C185.62 43.8609 185.835 43.7855 186.028 43.7855C186.38 43.7855 186.534 43.929 186.534 44.3916V45.9015C186.534 45.9517 186.574 45.9947 186.627 45.9947H186.846C186.896 45.9983 186.936 45.9553 186.936 45.9051ZM189.543 44.761V44.5136C189.543 43.8609 189.202 43.4377 188.532 43.4377C187.875 43.4377 187.513 43.8537 187.513 44.5136V44.926C187.513 45.7831 188.026 46.0306 188.557 46.0306C188.865 46.0306 189.116 46.0019 189.378 45.9517C189.45 45.9373 189.471 45.9051 189.471 45.8477V45.6899C189.471 45.6433 189.435 45.6253 189.396 45.6253H189.375C189.163 45.6576 188.822 45.6755 188.557 45.6755C188.134 45.6755 187.918 45.4747 187.918 44.926V44.8614H189.457C189.511 44.8614 189.543 44.822 189.543 44.761ZM189.134 44.5566H187.915V44.5136C187.915 44.0187 188.137 43.7927 188.532 43.7927C188.937 43.7927 189.134 43.9971 189.134 44.5136V44.5566ZM192.079 44.761V44.5136C192.079 43.8609 191.738 43.4377 191.067 43.4377C190.411 43.4377 190.049 43.8537 190.049 44.5136V44.926C190.049 45.7831 190.562 46.0306 191.092 46.0306C191.401 46.0306 191.652 46.0019 191.914 45.9517C191.985 45.9373 192.007 45.9051 192.007 45.8477V45.6899C192.007 45.6433 191.971 45.6253 191.932 45.6253H191.91C191.698 45.6576 191.358 45.6755 191.092 45.6755C190.669 45.6755 190.454 45.4747 190.454 44.926V44.8614H191.993C192.046 44.8614 192.079 44.822 192.079 44.761ZM191.67 44.5566H190.45V44.5136C190.45 44.0187 190.673 43.7927 191.067 43.7927C191.473 43.7927 191.67 43.9971 191.67 44.5136V44.5566ZM193.779 43.7102V43.5237C193.779 43.4699 193.746 43.4413 193.682 43.4413C193.474 43.4413 193.262 43.5022 193.033 43.66V43.5632C193.033 43.513 192.997 43.4699 192.947 43.4699H192.731C192.681 43.4699 192.645 43.513 192.645 43.5632V45.9051C192.645 45.9553 192.685 45.9983 192.731 45.9983H192.957C193.007 45.9983 193.047 45.9517 193.047 45.9051V43.9792C193.276 43.8429 193.47 43.7855 193.682 43.7855C193.746 43.7855 193.779 43.7604 193.779 43.7102ZM194.707 42.975V42.6092C194.707 42.559 194.664 42.516 194.614 42.516H194.381C194.331 42.516 194.291 42.559 194.291 42.6092V42.975C194.291 43.0252 194.334 43.0647 194.381 43.0647H194.614C194.664 43.0647 194.707 43.0252 194.707 42.975ZM194.697 45.9051V43.5632C194.697 43.513 194.657 43.4699 194.603 43.4699H194.385C194.334 43.4699 194.295 43.513 194.295 43.5632V45.9051C194.295 45.9553 194.334 45.9983 194.385 45.9983H194.603C194.657 45.9983 194.697 45.9553 194.697 45.9051ZM197.315 45.9051V44.3952C197.315 43.7855 197.067 43.4413 196.515 43.4413C196.246 43.4413 196.038 43.5094 195.783 43.6528V43.5632C195.783 43.513 195.747 43.4699 195.697 43.4699H195.468C195.418 43.4699 195.378 43.513 195.378 43.5632V45.9051C195.378 45.9553 195.421 45.9983 195.468 45.9983H195.694C195.744 45.9983 195.787 45.9517 195.787 45.9051V43.9649C195.998 43.8609 196.214 43.7855 196.407 43.7855C196.755 43.7855 196.913 43.929 196.913 44.3916V45.9015C196.913 45.9517 196.956 45.9947 197.006 45.9947H197.225C197.275 45.9983 197.315 45.9553 197.315 45.9051ZM200.04 43.6923V43.5739C200.04 43.5201 199.99 43.4735 199.936 43.4735H198.929C198.14 43.4735 197.91 43.8788 197.91 44.2876V44.3235C197.91 44.5602 197.978 44.7252 198.122 44.8579C197.993 44.9296 197.932 45.0623 197.932 45.1878V45.1914C197.932 45.3348 197.996 45.4855 198.143 45.55L198.175 45.5644C198.025 45.6791 197.885 45.8907 197.885 46.1489V46.1884C197.885 46.6367 198.215 46.92 198.943 46.92C199.696 46.92 199.99 46.6474 199.99 46.2063V46.1705C199.99 45.7365 199.556 45.611 199.108 45.4962L198.423 45.3205C198.319 45.2918 198.279 45.2524 198.279 45.1735C198.279 45.1053 198.315 45.0551 198.394 45.0157C198.527 45.073 198.685 45.1089 198.929 45.1089C199.635 45.1089 199.947 44.8292 199.947 44.3235V44.2876C199.947 44.0402 199.872 43.9003 199.789 43.8142L199.954 43.782C200.008 43.7712 200.04 43.7497 200.04 43.6923ZM199.549 44.3199C199.549 44.5961 199.423 44.7897 198.929 44.7897C198.401 44.7897 198.308 44.5243 198.308 44.3199V44.284C198.308 44.0258 198.412 43.7927 198.929 43.7927C199.423 43.7927 199.549 44.0079 199.549 44.284V44.3199ZM199.585 46.2063C199.585 46.461 199.466 46.608 198.939 46.608C198.43 46.608 198.276 46.4466 198.276 46.1884V46.1489C198.276 45.9087 198.369 45.7939 198.502 45.6791L199.022 45.8118C199.434 45.9158 199.581 45.9911 199.581 46.1705V46.2063H199.585ZM202.389 44.7754C202.389 44.8579 202.321 44.926 202.239 44.926H201.851C201.769 44.926 201.701 44.8579 201.701 44.7754V44.1621C201.701 44.0796 201.769 44.0079 201.851 44.0079H202.239C202.321 44.0079 202.389 44.076 202.389 44.1621V44.7754ZM206.535 44.7574V42.6702C206.535 42.62 206.496 42.5841 206.449 42.5841H206.202C206.151 42.5841 206.116 42.6272 206.116 42.6702V44.7574C206.116 45.3564 205.933 45.672 205.366 45.672C204.799 45.672 204.616 45.3492 204.616 44.7574V42.6702C204.616 42.62 204.577 42.5841 204.53 42.5841H204.283C204.233 42.5841 204.197 42.6272 204.197 42.6702V44.7574C204.197 45.6361 204.627 46.0306 205.366 46.0306C206.108 46.0306 206.535 45.6361 206.535 44.7574ZM209.114 45.9051V44.3916C209.114 43.782 208.866 43.4377 208.318 43.4377C208.049 43.4377 207.841 43.5058 207.59 43.6493V43.5632C207.59 43.513 207.554 43.4699 207.503 43.4699H207.274C207.224 43.4699 207.188 43.513 207.188 43.5632V45.9051C207.188 45.9553 207.227 45.9983 207.274 45.9983H207.496C207.547 45.9983 207.59 45.9517 207.59 45.9051V43.9649C207.801 43.8609 208.016 43.7855 208.206 43.7855C208.554 43.7855 208.708 43.929 208.708 44.3916V45.9051C208.708 45.9553 208.748 45.9983 208.798 45.9983H209.017C209.074 45.9983 209.114 45.9553 209.114 45.9051ZM210.175 42.975V42.6092C210.175 42.559 210.136 42.5196 210.086 42.5196H209.853C209.802 42.5196 209.759 42.559 209.759 42.6092V42.975C209.759 43.0252 209.802 43.0647 209.853 43.0647H210.086C210.136 43.0647 210.175 43.0252 210.175 42.975ZM210.168 45.9051V43.5632C210.168 43.513 210.129 43.4699 210.075 43.4699H209.856C209.806 43.4699 209.763 43.513 209.763 43.5632V45.9051C209.763 45.9553 209.806 45.9983 209.856 45.9983H210.075C210.129 45.9983 210.168 45.9553 210.168 45.9051ZM212.75 43.5488C212.75 43.5022 212.722 43.4699 212.679 43.4699H212.428C212.392 43.4699 212.359 43.4986 212.341 43.5596L211.814 45.5608C211.786 45.672 211.76 45.6935 211.717 45.6935C211.671 45.6935 211.649 45.672 211.621 45.5608L211.093 43.5596C211.075 43.4986 211.043 43.4699 211.007 43.4699H210.756C210.71 43.4699 210.685 43.5022 210.685 43.5488C210.685 43.5596 210.685 43.5668 210.688 43.5811L211.305 45.7688C211.366 45.9768 211.52 46.0306 211.717 46.0306C211.915 46.0306 212.069 45.9768 212.13 45.7688L212.747 43.5811C212.75 43.5668 212.75 43.5596 212.75 43.5488ZM215.132 44.761V44.5136C215.132 43.8609 214.794 43.4377 214.127 43.4377C213.475 43.4377 213.112 43.8573 213.112 44.5136V44.926C213.112 45.7831 213.625 46.0306 214.153 46.0306C214.457 46.0306 214.712 46.0019 214.97 45.9517C215.042 45.9373 215.063 45.9051 215.063 45.8477V45.6899C215.063 45.6433 215.028 45.6253 214.992 45.6253H214.97C214.759 45.6576 214.422 45.6755 214.156 45.6755C213.733 45.6755 213.521 45.4747 213.521 44.926V44.8614H215.053C215.099 44.8614 215.132 44.822 215.132 44.761ZM214.726 44.5566H213.514V44.5136C213.514 44.0187 213.733 43.7927 214.127 43.7927C214.529 43.7927 214.726 43.9936 214.726 44.5136V44.5566ZM216.799 43.7102V43.5237C216.799 43.4664 216.767 43.4413 216.702 43.4413C216.498 43.4413 216.286 43.5022 216.057 43.66V43.5632C216.057 43.513 216.021 43.4699 215.971 43.4699H215.756C215.705 43.4699 215.67 43.513 215.67 43.5632V45.9051C215.67 45.9553 215.713 45.9983 215.756 45.9983H215.978C216.028 45.9983 216.071 45.9517 216.071 45.9051V43.9792C216.301 43.8429 216.491 43.7855 216.702 43.7855C216.767 43.7855 216.799 43.7604 216.799 43.7102ZM218.876 45.3635C218.876 45.091 218.754 44.8937 218.374 44.6714L217.922 44.3988C217.71 44.2733 217.606 44.1872 217.606 44.0509C217.606 43.8178 217.775 43.7855 218.033 43.7855C218.288 43.7855 218.582 43.8071 218.739 43.8214H218.754C218.8 43.8214 218.833 43.7999 218.833 43.7425V43.5919C218.833 43.5417 218.804 43.5094 218.747 43.4986C218.531 43.4628 218.291 43.4377 218.033 43.4377C217.563 43.4377 217.205 43.5704 217.205 44.0473C217.205 44.3378 217.391 44.5351 217.671 44.7036L218.133 44.9798C218.395 45.134 218.478 45.2237 218.478 45.3599C218.478 45.6074 218.32 45.6863 218.026 45.6863C217.861 45.6863 217.527 45.6648 217.309 45.6361H217.291C217.244 45.6361 217.208 45.6648 217.208 45.7042V45.8656C217.208 45.9158 217.244 45.9445 217.305 45.9553C217.527 46.0091 217.857 46.0234 218.026 46.0234C218.535 46.0306 218.876 45.8333 218.876 45.3635ZM219.83 42.975V42.6092C219.83 42.559 219.787 42.5196 219.74 42.5196H219.507C219.457 42.5196 219.414 42.559 219.414 42.6092V42.975C219.414 43.0252 219.457 43.0647 219.507 43.0647H219.74C219.787 43.0647 219.83 43.0252 219.83 42.975ZM219.819 45.9051V43.5632C219.819 43.513 219.776 43.4699 219.729 43.4699H219.511C219.46 43.4699 219.421 43.513 219.421 43.5632V45.9051C219.421 45.9553 219.46 45.9983 219.511 45.9983H219.729C219.78 45.9983 219.819 45.9553 219.819 45.9051ZM221.838 45.9302V45.7688C221.838 45.7222 221.806 45.7042 221.741 45.7042H221.487C221.304 45.7042 221.239 45.6684 221.239 45.4137V43.8106H221.734C221.784 43.8106 221.824 43.7676 221.824 43.721V43.5632C221.824 43.513 221.781 43.4699 221.734 43.4699H221.239V42.9679C221.239 42.9212 221.207 42.889 221.171 42.889H221.157L220.92 42.9248C220.87 42.9356 220.837 42.9714 220.837 43.0181V43.4664H220.393C220.343 43.4664 220.307 43.4986 220.307 43.5488V43.6744C220.307 43.7246 220.343 43.7533 220.393 43.7569L220.837 43.8071V45.4102C220.837 45.9158 221.038 46.027 221.458 46.027C221.544 46.027 221.662 46.0162 221.756 46.0055C221.813 45.9983 221.838 45.9696 221.838 45.9302ZM224.054 45.9051V44.302C224.054 43.7604 223.8 43.4377 223.165 43.4377C222.853 43.4377 222.641 43.4664 222.455 43.4986C222.39 43.5094 222.358 43.5345 222.358 43.5847V43.7461C222.358 43.8071 222.398 43.8178 222.441 43.8178H222.462C222.645 43.7999 222.864 43.782 223.161 43.782C223.516 43.782 223.649 43.9146 223.649 44.302V44.4849H223.312C222.498 44.4849 222.211 44.7323 222.211 45.2273V45.281C222.211 45.8549 222.566 46.027 222.957 46.027C223.212 46.027 223.441 45.9302 223.66 45.8011V45.9015C223.66 45.9517 223.699 45.9947 223.753 45.9947H223.965C224.015 45.9983 224.054 45.9553 224.054 45.9051ZM223.653 45.5142C223.434 45.6325 223.247 45.6971 223.036 45.6971C222.771 45.6971 222.616 45.611 222.616 45.2775V45.2237C222.616 44.8973 222.763 44.7718 223.316 44.7718H223.653V45.5142ZM223.768 42.9643V42.5913C223.768 42.5447 223.721 42.5016 223.674 42.5016H223.495C223.448 42.5016 223.405 42.5483 223.405 42.5913V42.9643C223.405 43.0145 223.452 43.0503 223.495 43.0503H223.674C223.721 43.0539 223.768 43.0145 223.768 42.9643ZM222.968 42.9643V42.5913C222.968 42.5447 222.921 42.5016 222.878 42.5016H222.699C222.652 42.5016 222.609 42.5483 222.609 42.5913V42.9643C222.609 43.0145 222.656 43.0503 222.699 43.0503H222.878C222.921 43.0539 222.968 43.0145 222.968 42.9643ZM225.991 45.9302V45.7688C225.991 45.7222 225.959 45.7042 225.894 45.7042H225.636C225.453 45.7042 225.389 45.6684 225.389 45.4137V43.8106H225.88C225.93 43.8106 225.973 43.7676 225.973 43.721V43.5632C225.973 43.513 225.934 43.4699 225.88 43.4699H225.389V42.9679C225.389 42.9212 225.356 42.889 225.32 42.889H225.306L225.069 42.9248C225.019 42.9356 224.987 42.9714 224.987 43.0181V43.4664H224.542C224.492 43.4664 224.456 43.4986 224.456 43.5488V43.6744C224.456 43.7246 224.492 43.7533 224.542 43.7569L224.987 43.8071V45.4102C224.987 45.9158 225.188 46.027 225.607 46.027C225.693 46.027 225.812 46.0162 225.905 46.0055C225.97 45.9983 225.991 45.9696 225.991 45.9302ZM229.785 43.6098V43.5524C229.785 42.8101 229.247 42.5554 228.505 42.5554C228.24 42.5554 227.942 42.5698 227.745 42.5913C227.677 42.6021 227.634 42.6415 227.634 42.7061V45.9087C227.634 45.9589 227.669 46.0019 227.716 46.0019H227.964C228.014 46.0019 228.046 45.9553 228.046 45.9087V44.6176C228.164 44.6283 228.358 44.6391 228.501 44.6391C229.247 44.6391 229.785 44.3773 229.785 43.6098ZM229.369 43.6098C229.369 44.0904 229.129 44.2912 228.505 44.2912C228.387 44.2912 228.154 44.2769 228.05 44.2733V42.9248C228.157 42.9141 228.365 42.9069 228.505 42.9069C229.097 42.9069 229.369 43.0862 229.369 43.5488V43.6098ZM232.246 44.9081V44.5602C232.246 43.886 231.898 43.4413 231.227 43.4413C230.556 43.4413 230.212 43.886 230.212 44.5602V44.9081C230.212 45.5859 230.556 46.0306 231.227 46.0306C231.898 46.0306 232.246 45.5859 232.246 44.9081ZM231.844 44.9081C231.844 45.3815 231.65 45.6755 231.227 45.6755C230.797 45.6755 230.614 45.3779 230.614 44.9081V44.5602C230.614 44.0868 230.8 43.7927 231.227 43.7927C231.657 43.7927 231.844 44.0904 231.844 44.5602V44.9081ZM234.089 45.9302V45.7688C234.089 45.7222 234.057 45.7042 233.992 45.7042H233.734C233.551 45.7042 233.486 45.6684 233.486 45.4137V43.8106H233.978C234.028 43.8106 234.071 43.7676 234.071 43.721V43.5632C234.071 43.513 234.028 43.4699 233.978 43.4699H233.486V42.9679C233.486 42.9212 233.454 42.889 233.418 42.889H233.404L233.167 42.9248C233.117 42.9356 233.085 42.9714 233.085 43.0181V43.4664H232.64C232.59 43.4664 232.554 43.4986 232.554 43.5488V43.6744C232.554 43.7246 232.59 43.7533 232.64 43.7569L233.085 43.8071V45.4102C233.085 45.9158 233.286 46.027 233.705 46.027C233.791 46.027 233.91 46.0162 234.003 46.0055C234.064 45.9983 234.089 45.9696 234.089 45.9302ZM236.18 45.3635C236.18 45.091 236.054 44.8937 235.678 44.6714L235.226 44.3988C235.014 44.2733 234.91 44.1872 234.91 44.0509C234.91 43.8178 235.079 43.7855 235.337 43.7855C235.592 43.7855 235.886 43.8071 236.044 43.8214H236.058C236.105 43.8214 236.137 43.7999 236.137 43.7425V43.5919C236.137 43.5417 236.108 43.5094 236.051 43.4986C235.836 43.4628 235.595 43.4377 235.337 43.4377C234.867 43.4377 234.509 43.5704 234.509 44.0473C234.509 44.3378 234.695 44.5351 234.975 44.7036L235.434 44.9798C235.696 45.134 235.778 45.2237 235.778 45.3599C235.778 45.6074 235.624 45.6863 235.326 45.6863C235.161 45.6863 234.828 45.6648 234.609 45.6361H234.591C234.544 45.6361 234.509 45.6648 234.509 45.7042V45.8656C234.509 45.9158 234.544 45.9445 234.605 45.9553C234.828 46.0091 235.158 46.0234 235.326 46.0234C235.836 46.0306 236.18 45.8333 236.18 45.3635ZM238.576 45.8477V42.6307C238.576 42.5805 238.54 42.5447 238.493 42.5447H238.26C238.21 42.5447 238.174 42.5841 238.174 42.6307V43.4843C237.995 43.452 237.779 43.4377 237.639 43.4377C236.972 43.4377 236.642 43.8429 236.642 44.5638V44.8937C236.642 45.5823 236.958 46.027 237.639 46.027C237.919 46.027 238.199 46.0055 238.479 45.9481C238.561 45.9374 238.576 45.9051 238.576 45.8477ZM238.174 45.6468C238.02 45.6612 237.794 45.6755 237.639 45.6755C237.188 45.6755 237.044 45.3958 237.044 44.8937V44.5638C237.044 44.0724 237.191 43.7927 237.639 43.7927C237.787 43.7927 238.023 43.7963 238.174 43.825V45.6468ZM240.932 45.9051V44.302C240.932 43.7604 240.677 43.4377 240.042 43.4377C239.73 43.4377 239.519 43.4664 239.332 43.4986C239.268 43.5094 239.235 43.5345 239.235 43.5847V43.7461C239.235 43.8071 239.275 43.8178 239.318 43.8178H239.339C239.522 43.7999 239.741 43.782 240.039 43.782C240.394 43.782 240.53 43.9146 240.53 44.302V44.4849H240.189C239.375 44.4849 239.088 44.7323 239.088 45.2273V45.281C239.088 45.8549 239.443 46.027 239.834 46.027C240.093 46.027 240.318 45.9302 240.537 45.8011V45.9015C240.537 45.9517 240.58 45.9947 240.63 45.9947H240.842C240.892 45.9983 240.932 45.9553 240.932 45.9051ZM240.53 45.5142C240.311 45.6325 240.121 45.6971 239.913 45.6971C239.648 45.6971 239.494 45.611 239.494 45.2775V45.2237C239.494 44.8973 239.641 44.7718 240.193 44.7718H240.534V45.5142H240.53ZM244.59 45.9051V44.2769C244.59 43.6385 244.26 43.4305 243.847 43.4305C243.611 43.4305 243.342 43.4986 243.087 43.617C242.972 43.4843 242.825 43.4305 242.632 43.4305C242.381 43.4305 242.147 43.5309 241.965 43.6457V43.5596C241.965 43.5094 241.929 43.4664 241.879 43.4664H241.649C241.599 43.4664 241.563 43.5094 241.563 43.5596V45.9015C241.563 45.9517 241.595 45.9947 241.642 45.9947H241.882C241.932 45.9947 241.965 45.9481 241.965 45.9015V43.9613C242.158 43.8644 242.359 43.782 242.524 43.782C242.761 43.782 242.876 43.8644 242.876 44.2661V45.9015C242.876 45.9517 242.908 45.9947 242.954 45.9947H243.195C243.245 45.9947 243.277 45.9481 243.277 45.9015V44.2661C243.277 44.1298 243.266 44.0079 243.238 43.9075C243.417 43.8393 243.607 43.782 243.772 43.782C244.009 43.782 244.188 43.8895 244.188 44.2733V45.9015C244.188 45.9517 244.228 45.9947 244.278 45.9947H244.497C244.547 45.9983 244.59 45.9553 244.59 45.9051Z" fill="#A1A1A1"/>
</g>
<g opacity="0.5">
<path d="M308.215 15.0785L310.623 18.6258L312.145 16.3543L309.696 12.8411L308.215 15.0785Z" fill="#777777"/>
<path d="M314.519 12.7999V12.7961L312.073 9.24886L312.069 9.25642L313.546 11.3916L314.519 12.7999Z" fill="#777777"/>
<path d="M305.842 18.6632L304.312 20.9725L306.686 24.5235L308.257 22.1726L305.842 18.6632Z" fill="#777777"/>
<path d="M301.946 24.5503L290.312 42.1277H294.923L304.32 28.0635L303.839 27.348L301.946 24.5503Z" fill="#777777"/>
<path d="M316.12 15.1233L318.569 18.6706L318.573 18.6668L316.124 15.1196L316.12 15.1233Z" fill="#777777"/>
<path d="M306.023 30.5811L298.474 42.1277H303.089L308.393 34.0905L306.023 30.5811Z" fill="#777777"/>
<path d="M313.784 18.6977L312.262 21.0335L314.673 24.5808H314.67L316.233 22.2071L315.987 21.855L313.784 18.6977Z" fill="#777777"/>
<path d="M308.352 27.0153V27.019V27.0153L309.419 28.6129L310.722 30.5663L312.342 28.1093L309.927 24.6037L308.352 27.0153Z" fill="#777777"/>
<path d="M307.856 4.19833C307.829 4.20591 307.806 4.21725 307.78 4.22483C307.802 4.21725 307.825 4.20591 307.856 4.19833Z" fill="#777777"/>
<path d="M304.218 9.20288L306.625 12.7426V12.7464L308.102 10.562L305.649 7.04498L301.878 12.6744L304.218 9.20288Z" fill="#777777"/>
<path d="M304.217 16.3087L302.839 14.306L301.798 12.7917L300.322 14.995L302.699 18.5536L304.217 16.3087Z" fill="#777777"/>
<path d="M309.105 4.95921L310.514 6.99975V6.99596L309.109 4.95921C308.95 4.72828 308.677 4.17557 308.076 4.17557C307.996 4.17557 307.924 4.18313 307.86 4.20206C307.928 4.18692 307.996 4.17935 308.072 4.17935C308.674 4.17556 308.946 4.72828 309.105 4.95921Z" fill="#777777"/>
<path d="M297.914 18.5878L282.146 42.1278H286.765L300.295 22.1086L299.038 20.246L297.914 18.5878Z" fill="#777777"/>
<path d="M296.226 16.0931L293.814 12.5193L273.984 42.1279H278.599L296.226 16.0931Z" fill="#777777"/>
<path d="M296.021 9.67268C295.957 9.68783 295.9 9.71053 295.843 9.73704C295.9 9.71432 295.957 9.69161 296.021 9.67268Z" fill="#777777"/>
<path d="M296.241 9.646C296.843 9.646 297.115 10.2025 297.274 10.4259L298.542 12.3225L297.278 10.4221C297.119 10.1987 296.846 9.646 296.241 9.646C296.165 9.646 296.093 9.65357 296.025 9.66871C296.093 9.65735 296.161 9.646 296.241 9.646Z" fill="#777777"/>
<path d="M308.397 34.0908L313.829 42.128H318.444L310.721 30.5663L309.29 32.7355L308.397 34.0908Z" fill="#4E4E4E"/>
<path d="M304.312 20.9732L302.7 18.5541V18.5579L300.296 22.1089L301.946 24.5507L303.044 22.8888L304.312 20.9732Z" fill="#4E4E4E"/>
<path d="M306.686 24.5237L304.32 28.0633L306.023 30.5809L308.352 27.0147L306.686 24.5237Z" fill="#4E4E4E"/>
<path d="M300.322 14.9946L298.539 12.3294L298.565 12.3673L298.637 12.4771L298.645 12.4846L298.656 12.5036L296.23 16.0925L297.914 18.5873L298.494 17.7204L300.322 14.9946Z" fill="#4E4E4E"/>
<path d="M295.211 10.4295C295.249 10.3803 295.295 10.3084 295.344 10.2289C295.382 10.1721 295.423 10.1153 295.469 10.0585C295.476 10.0471 295.484 10.0396 295.491 10.0282C295.367 10.1796 295.276 10.3386 295.211 10.4295L293.977 12.2732L295.211 10.4295Z" fill="#4E4E4E"/>
<path d="M295.707 9.82349C295.711 9.82349 295.711 9.8197 295.707 9.82349C295.627 9.87649 295.556 9.94842 295.495 10.0203C295.499 10.0166 295.51 10.009 295.514 10.0052C295.574 9.94085 295.635 9.87649 295.707 9.82349Z" fill="#4E4E4E"/>
<path d="M295.843 9.73663C295.805 9.75556 295.771 9.78207 295.737 9.80479C295.737 9.80479 295.741 9.80478 295.745 9.801C295.779 9.77828 295.809 9.75556 295.843 9.73663Z" fill="#4E4E4E"/>
<path d="M304.312 20.973L306.686 24.524L304.312 20.973Z" fill="#4E4E4E"/>
<path d="M301.946 24.5508L303.048 22.8888L301.946 24.5508L303.839 27.3484L301.946 24.5508Z" fill="#4E4E4E"/>
<path d="M308.352 27.0186V27.0148L306.02 30.581L308.352 27.0186Z" fill="#4E4E4E"/>
<path d="M310.721 30.5662L309.29 32.7392L310.721 30.5662L309.415 28.6127L310.721 30.5662Z" fill="#4E4E4E"/>
<path d="M302.699 18.5535L300.322 14.9987L302.699 18.5535Z" fill="#4E4E4E"/>
<path d="M297.914 18.5879L298.497 17.7209L297.914 18.5879L299.038 20.246L297.914 18.5879Z" fill="#4E4E4E"/>
<path d="M297.27 10.4298C297.111 10.2027 296.839 9.64993 296.237 9.64993C296.843 9.64993 297.115 10.2027 297.27 10.4298Z" fill="#4E4E4E"/>
<path d="M295.344 10.2292C295.378 10.1762 295.423 10.1156 295.469 10.0588C295.427 10.1156 295.382 10.1762 295.344 10.2292Z" fill="#4E4E4E"/>
<path d="M297.271 10.4293L298.565 12.3714L298.539 12.326L297.271 10.4293Z" fill="#4E4E4E"/>
<path d="M296.017 9.67268C295.953 9.68783 295.896 9.71053 295.843 9.73704C295.805 9.75218 295.775 9.77868 295.745 9.8014C295.824 9.7484 295.915 9.70297 296.017 9.67268Z" fill="#4E4E4E"/>
<path d="M298.645 12.4848L298.656 12.5037L296.226 16.0889L298.656 12.5037L298.645 12.4848Z" fill="#4E4E4E"/>
<path d="M295.517 10.0059C295.574 9.94152 295.635 9.88094 295.711 9.82416C295.635 9.87716 295.57 9.93773 295.517 10.0059Z" fill="#4E4E4E"/>
<path d="M307.541 4.34968C307.541 4.34968 307.545 4.34967 307.545 4.34589C307.462 4.40646 307.393 4.4746 307.329 4.54653C307.333 4.54275 307.34 4.53896 307.344 4.53139C307.405 4.46703 307.469 4.40646 307.541 4.34968Z" fill="#4E4E4E"/>
<path d="M313.784 18.6978L316.12 15.124L314.519 12.7995L312.145 16.3506L313.784 18.6978Z" fill="#4E4E4E"/>
<path d="M309.695 12.8417L312.069 9.25656L310.513 7.00024L308.101 10.5627L309.695 12.8417Z" fill="#4E4E4E"/>
<path d="M307.776 4.22894C307.7 4.25544 307.628 4.28951 307.568 4.33115C307.568 4.33115 307.572 4.33116 307.575 4.32738C307.64 4.28573 307.704 4.25166 307.776 4.22894Z" fill="#4E4E4E"/>
<path d="M316.237 22.2077L330.146 42.1322H334.761L318.569 18.6718L316.237 22.2077Z" fill="#4E4E4E"/>
<path d="M307.045 4.95517C307.083 4.90217 307.128 4.83023 307.181 4.74695C307.216 4.69773 307.257 4.64095 307.299 4.58416C307.306 4.5728 307.314 4.56524 307.322 4.55388C307.193 4.70531 307.106 4.86431 307.038 4.95517L305.644 7.04491L305.781 6.8367L307.045 4.95517Z" fill="#4E4E4E"/>
<path d="M313.546 11.391L312.069 9.25201L313.546 11.391Z" fill="#4E4E4E"/>
<path d="M313.784 18.698L316.12 15.1243L313.784 18.698Z" fill="#4E4E4E"/>
<path d="M318.569 18.6718L316.237 22.2077L315.991 21.8556L316.237 22.2077L318.569 18.6718Z" fill="#4E4E4E"/>
<path d="M307.348 4.53152C307.405 4.46716 307.465 4.40659 307.541 4.34981C307.469 4.40659 307.405 4.46716 307.348 4.53152Z" fill="#4E4E4E"/>
<path d="M307.852 4.19833C307.825 4.20591 307.802 4.21725 307.776 4.22483C307.704 4.25133 307.636 4.2854 307.575 4.32326C307.658 4.27404 307.746 4.22483 307.852 4.19833Z" fill="#4E4E4E"/>
<path d="M307.182 4.7504C307.216 4.6974 307.257 4.6444 307.299 4.58762C307.257 4.64062 307.216 4.6974 307.182 4.7504Z" fill="#4E4E4E"/>
<path d="M314.519 12.7998L313.546 11.3915L314.519 12.7998Z" fill="#292929"/>
<path d="M309.695 12.8411L312.145 16.3505L309.695 12.8411Z" fill="#292929"/>
<path d="M312.145 16.3506L314.515 12.7995L312.145 16.3506Z" fill="#292929"/>
<path d="M312.069 9.25592L309.695 12.841L312.069 9.25592Z" fill="#292929"/>
<path d="M312.145 16.3505L314.515 12.7994L313.546 11.3911L312.069 9.25592L309.695 12.841L312.145 16.3505Z" fill="#292929"/>
<path d="M313.784 18.6977L315.988 21.855L313.784 18.6977Z" fill="#292929"/>
<path d="M316.12 15.1243L318.569 18.6715L316.12 15.1243Z" fill="#292929"/>
<path d="M313.784 18.698L315.988 21.8554L316.234 22.2074L318.569 18.6715L316.12 15.1243L313.784 18.698Z" fill="#292929"/>
<path d="M301.798 12.792L301.878 12.6708L301.798 12.792Z" fill="#4E4E4E"/>
<path d="M304.217 16.3086L305.838 18.6633L308.211 15.0782L306.625 12.7462L305.648 14.1923L304.217 16.3086Z" fill="#4E4E4E"/>
<path d="M321.988 42.1272H326.603L314.67 24.5802L312.342 28.1085L321.988 42.1272Z" fill="#4E4E4E"/>
<path d="M310.623 18.6294L308.257 22.1729L309.926 24.6034L310.506 23.7175L312.258 21.0334L310.623 18.6294Z" fill="#4E4E4E"/>
<path d="M305.842 18.6632L308.257 22.1726L305.842 18.6632Z" fill="#4E4E4E"/>
<path d="M312.341 28.1091L309.926 24.6035L310.505 23.7176L309.926 24.6035L312.341 28.1091L314.67 24.5808L312.341 28.1091Z" fill="#4E4E4E"/>
<path d="M306.625 12.7462L305.648 14.1923L306.625 12.7462Z" fill="#4E4E4E"/>
<path d="M301.798 12.7921L304.214 9.19942L301.878 12.671L301.798 12.7921L302.839 14.3064L301.798 12.7921Z" fill="#4E4E4E"/>
<path d="M307.545 4.34611C307.553 4.34232 307.561 4.33475 307.568 4.33096C307.564 4.33475 307.553 4.34232 307.545 4.34611Z" fill="#292929"/>
<path d="M307.326 4.55491C307.326 4.55491 307.33 4.55086 307.334 4.54681C307.33 4.55086 307.326 4.55491 307.326 4.55491Z" fill="#292929"/>
<path d="M308.101 10.562L305.644 7.04498L308.101 10.562Z" fill="#292929"/>
<path d="M308.071 4.17165C307.992 4.17165 307.924 4.183 307.859 4.19436C307.856 4.19436 307.856 4.19436 307.852 4.19436C307.92 4.183 307.992 4.17165 308.071 4.17165Z" fill="#292929"/>
<path d="M310.514 6.99547L309.105 4.95494L310.514 6.99547Z" fill="#292929"/>
<path d="M307.042 4.9553C307.083 4.90609 307.125 4.83037 307.182 4.75087C307.129 4.83037 307.083 4.90609 307.042 4.9553Z" fill="#292929"/>
<path d="M307.579 4.32706C307.579 4.32706 307.576 4.32705 307.572 4.33083C307.564 4.33462 307.557 4.3422 307.549 4.34598C307.549 4.34598 307.545 4.34598 307.545 4.34977C307.553 4.3422 307.568 4.33463 307.579 4.32706Z" fill="#292929"/>
<path d="M307.348 4.5311C307.344 4.53488 307.333 4.54246 307.333 4.54624C307.329 4.54624 307.329 4.55004 307.326 4.55382C307.314 4.56518 307.31 4.57275 307.303 4.58789C307.318 4.56896 307.333 4.55003 307.348 4.5311Z" fill="#292929"/>
<path d="M307.045 4.95494L305.784 6.83647L305.644 7.04468L307.045 4.95494Z" fill="#292929"/>
<path d="M308.101 10.5627L310.513 7.00024L308.101 10.5627Z" fill="#292929"/>
<path d="M309.105 4.95921C308.95 4.72828 308.673 4.17557 308.075 4.17557C307.996 4.17557 307.924 4.18313 307.856 4.20206C307.75 4.22856 307.663 4.27399 307.579 4.33077C307.568 4.33835 307.553 4.34592 307.541 4.35349C307.47 4.40649 307.405 4.47085 307.352 4.53521C307.337 4.55035 307.318 4.57306 307.303 4.59199C307.258 4.64499 307.22 4.70179 307.186 4.75479C307.133 4.83429 307.087 4.91 307.049 4.95921L305.652 7.04897L308.106 10.5659L310.517 7.00353L309.105 4.95921Z" fill="#292929"/>
<path d="M302.84 14.3064L304.218 16.3091L304.222 16.3053L302.84 14.3064Z" fill="#292929"/>
<path d="M306.625 12.7467L304.217 9.19942V9.20321L306.625 12.7467Z" fill="#292929"/>
<path d="M304.217 16.3089L305.648 14.1927L304.217 16.3089Z" fill="#292929"/>
<path d="M305.648 14.1922L306.625 12.746L304.214 9.20256L301.798 12.7915L302.839 14.3058L304.217 16.3084L305.648 14.1922Z" fill="#292929"/>
<path d="M308.212 15.0819L310.623 18.6291L308.212 15.0819Z" fill="#292929"/>
<path d="M308.257 22.1728L310.623 18.6293V18.6255L308.257 22.1728Z" fill="#292929"/>
<path d="M308.212 15.0787L305.842 18.6639L308.212 15.0825V15.0787Z" fill="#292929"/>
<path d="M308.212 15.0819L305.842 18.6632L308.257 22.1726L310.623 18.6254L308.212 15.0819Z" fill="#292929"/>
<path d="M314.67 24.5807L312.259 21.0334L314.67 24.5807Z" fill="#292929"/>
<path d="M312.258 21.0334L310.505 23.7213L312.258 21.0334Z" fill="#292929"/>
<path d="M310.505 23.7175L309.926 24.6034L312.341 28.109L314.67 24.5807L312.258 21.0334L310.505 23.7175Z" fill="#292929"/>
<path d="M295.495 10.0282C295.495 10.0282 295.495 10.0211 295.502 10.0211C295.495 10.0282 295.495 10.0282 295.495 10.0282Z" fill="#292929"/>
<path d="M295.711 9.82005C295.718 9.81627 295.726 9.8087 295.733 9.80492C295.729 9.8087 295.722 9.81627 295.711 9.82005Z" fill="#292929"/>
<path d="M293.814 12.519L293.977 12.2729L293.814 12.519Z" fill="#292929"/>
<path d="M296.23 16.0931L293.814 12.5193H293.81L296.23 16.0931Z" fill="#292929"/>
<path d="M296.241 9.646C296.165 9.646 296.093 9.65357 296.025 9.66871H296.021C296.086 9.65735 296.158 9.646 296.241 9.646Z" fill="#292929"/>
<path d="M295.518 10.0055C295.514 10.0092 295.503 10.0168 295.499 10.0206C295.499 10.0206 295.499 10.0244 295.495 10.0244C295.487 10.0357 295.48 10.0471 295.472 10.0547C295.484 10.0395 295.503 10.0206 295.518 10.0055Z" fill="#292929"/>
<path d="M295.745 9.80061C295.745 9.80061 295.741 9.80062 295.737 9.8044C295.73 9.80819 295.722 9.81575 295.714 9.81954L295.711 9.82333C295.718 9.81576 295.733 9.80818 295.745 9.80061Z" fill="#292929"/>
<path d="M293.814 12.5197L295.215 10.4261L293.977 12.2736L293.814 12.5197Z" fill="#292929"/>
<path d="M298.637 12.4778L298.565 12.3718L298.645 12.4853L298.637 12.4778Z" fill="#292929"/>
<path d="M295.211 10.4298C295.249 10.3806 295.294 10.3086 295.343 10.2291C295.294 10.3086 295.249 10.3768 295.211 10.4298Z" fill="#292929"/>
<path d="M297.271 10.4298C297.115 10.2027 296.843 9.64993 296.241 9.64993C296.161 9.64993 296.089 9.65751 296.021 9.67644C295.919 9.70294 295.828 9.74836 295.749 9.80136C295.737 9.80893 295.722 9.8165 295.715 9.82408C295.639 9.87708 295.578 9.94143 295.522 10.002C295.506 10.0209 295.488 10.0361 295.476 10.055C295.427 10.1118 295.385 10.1724 295.351 10.2254C295.298 10.3011 295.253 10.373 295.219 10.426L293.822 12.5195L296.237 16.0933L298.664 12.5082L298.652 12.4893L298.573 12.3719L297.271 10.4298Z" fill="#292929"/>
<path d="M299.035 20.2462L300.295 22.1088L299.035 20.2462Z" fill="#292929"/>
<path d="M300.322 14.9948L298.497 17.7205L300.322 14.9948Z" fill="#292929"/>
<path d="M302.7 18.5541L300.296 22.1089L302.7 18.5541Z" fill="#292929"/>
<path d="M298.497 17.7207L297.914 18.5876L299.035 20.2458L300.295 22.1084L302.699 18.5573L300.322 14.9987L298.497 17.7207Z" fill="#292929"/>
<path d="M303.839 27.3484L304.319 28.0639L303.839 27.3484Z" fill="#292929"/>
<path d="M304.312 20.973L303.044 22.8886L304.312 20.973Z" fill="#292929"/>
<path d="M306.686 24.5237L304.32 28.0633L306.686 24.5237Z" fill="#292929"/>
<path d="M303.044 22.8886L301.946 24.5505L303.839 27.3482L304.324 28.0637L306.686 24.524L304.312 20.973L303.044 22.8886Z" fill="#292929"/>
<path d="M306.023 30.5811L308.393 34.0905L306.023 30.5811Z" fill="#292929"/>
<path d="M308.352 27.0187L309.416 28.6125L308.352 27.0187Z" fill="#292929"/>
<path d="M308.397 34.0909L309.29 32.7356L308.397 34.0909Z" fill="#292929"/>
<path d="M308.397 34.0905L309.29 32.7352L310.721 30.566L309.415 28.6125L308.351 27.0187L306.023 30.5811L308.397 34.0905Z" fill="#292929"/>
<path d="M313.625 6.38997H313.739C313.86 6.38997 313.958 6.42026 314.038 6.48084C314.117 6.54141 314.219 6.68905 314.337 6.92376L314.519 7.27206H315.052L314.799 6.84048C314.712 6.68905 314.659 6.59819 314.643 6.57926C314.579 6.49976 314.534 6.44297 314.5 6.41647C314.466 6.38619 314.412 6.35969 314.352 6.33319C314.534 6.30668 314.674 6.23854 314.776 6.13254C314.874 6.02275 314.924 5.89026 314.924 5.73504C314.924 5.62147 314.897 5.51925 314.844 5.42839C314.791 5.33753 314.727 5.26939 314.643 5.22396C314.56 5.17853 314.45 5.15202 314.31 5.13688C314.261 5.13309 314.03 5.1331 313.625 5.1331H313.193V7.27584H313.625V6.38997ZM313.625 5.46624H313.799C314.049 5.46624 314.204 5.47761 314.265 5.50032C314.325 5.51925 314.375 5.55332 314.409 5.59874C314.443 5.64417 314.462 5.69718 314.462 5.75775C314.462 5.82211 314.443 5.87511 314.409 5.92433C314.375 5.97354 314.325 6.00761 314.269 6.02654C314.208 6.04547 314.053 6.05682 313.799 6.05682H313.625V5.46624Z" fill="#1D1D1D"/>
<path d="M313.095 7.93848C313.413 8.11263 313.75 8.20349 314.098 8.20349C314.447 8.20349 314.784 8.11263 315.102 7.93848C315.42 7.76055 315.666 7.51069 315.847 7.19268C316.021 6.87468 316.112 6.53775 316.112 6.18946C316.112 5.83738 316.021 5.50045 315.84 5.17487C315.658 4.85308 315.408 4.60322 315.094 4.42908C314.776 4.25872 314.443 4.17165 314.098 4.17165C313.754 4.17165 313.421 4.25872 313.103 4.42908C312.785 4.60322 312.535 4.8493 312.353 5.17487C312.171 5.49666 312.08 5.83738 312.08 6.18946C312.08 6.53775 312.171 6.87468 312.345 7.19268C312.531 7.51069 312.781 7.76055 313.095 7.93848ZM312.705 5.37173C312.853 5.11051 313.053 4.91366 313.307 4.77358C313.561 4.63729 313.826 4.56915 314.106 4.56915C314.382 4.56915 314.651 4.63729 314.905 4.77358C315.162 4.91366 315.363 5.11051 315.51 5.37173C315.654 5.63295 315.726 5.90175 315.726 6.18568C315.726 6.46961 315.654 6.73839 315.51 6.99204C315.366 7.24947 315.166 7.45012 314.912 7.5902C314.655 7.73406 314.386 7.80599 314.102 7.80599C313.822 7.80599 313.553 7.73406 313.299 7.5902C313.042 7.44634 312.841 7.24568 312.701 6.99204C312.557 6.73839 312.486 6.46583 312.486 6.18568C312.486 5.90553 312.557 5.63295 312.705 5.37173Z" fill="#1D1D1D"/>
<path d="M343.025 26.1216V25.5008C341.856 25.5008 341.14 25.3001 341.14 23.3959V16.025H341.178L344.816 26.0838H345.713L349.314 16.025H349.351V25.4288L347.89 25.5008V26.1216C348.621 26.1216 349.919 26.0497 350.65 26.0497C351.381 26.0497 352.755 26.1216 353.485 26.1216V25.5008L352.005 25.4288V15.2224L353.485 15.1467V14.5258L349.117 14.6015L346.243 22.3737H346.224L343.389 14.6015L338.963 14.5258V15.1467L340.409 15.2224V23.3959C340.409 25.3001 339.66 25.5008 338.672 25.5008V26.1216C339.584 26.1216 340.118 26.0497 340.849 26.0497C341.583 26.0459 342.113 26.1216 343.025 26.1216Z" fill="#1D1D1D"/>
<path d="M358.248 26.3562C360.659 26.3562 362.711 24.929 362.711 21.802C362.711 18.6938 360.625 17.4294 358.248 17.4294C355.904 17.4294 353.803 18.8755 353.803 21.9837C353.807 25.1145 355.87 26.3562 358.248 26.3562ZM358.248 18.054C359.546 18.054 360.038 19.4093 360.038 21.8966C360.038 24.4028 359.546 25.7354 358.248 25.7354C356.983 25.7354 356.472 24.399 356.472 21.8966C356.472 19.4093 356.983 18.054 358.248 18.054Z" fill="#1D1D1D"/>
<path d="M369.958 24.6035H369.976L370.029 26.2314L373.539 26.0497V25.4288L372.293 25.391V17.562L368.655 17.7437V18.3646C369.462 18.3646 369.882 18.3646 369.882 19.3678V22.3851C369.882 24.1795 368.75 25.2396 367.853 25.2396C366.717 25.2396 366.679 24.3423 366.679 22.5895V17.562L363.022 17.7437V18.3646C363.953 18.3646 364.268 18.3646 364.268 19.3678V23.2445C364.268 25.3304 364.983 26.3185 366.902 26.3185C368.349 26.3223 369.374 25.5916 369.958 24.6035Z" fill="#1D1D1D"/>
<path d="M383.185 20.6513C383.185 18.3458 382.087 17.4145 380.554 17.4145C379.108 17.4145 378.12 18.1451 377.495 19.1483H377.48L377.442 17.5583L373.932 17.74V18.3647C374.864 18.3647 375.174 18.3647 375.174 19.3338V25.4024L373.932 25.4971V26.1179C374.826 26.1179 375.322 26.046 376.382 26.046C377.442 26.046 377.919 26.1179 378.793 26.1179V25.4971L377.586 25.4024V21.3479C377.586 19.5572 378.703 18.4972 379.6 18.4972C380.565 18.4972 380.789 19.2089 380.789 21.1851V25.4062L379.581 25.5009V26.1217C380.478 26.1217 380.932 26.0498 381.992 26.0498C383.056 26.0498 383.548 26.1217 384.446 26.1217V25.5009L383.185 25.4062V20.6513Z" fill="#1D1D1D"/>
<path d="M388.545 25.4439C387.796 25.4439 387.762 24.823 387.796 23.6873V18.4553H389.844V17.7436H387.796V14.3402C387.796 14.3402 386.774 14.6885 385.399 14.6885V17.7474H384.029V18.4591H385.399V23.7251C385.399 25.1524 385.638 26.3752 387.887 26.3752C389.795 26.3752 390.185 24.7246 390.192 24.6981V24.6943L389.605 24.4747C389.605 24.4747 389.219 25.4439 388.545 25.4439Z" fill="#1D1D1D"/>
<path d="M341.602 32.7615C341.602 31.8113 342.351 31.1336 343.449 31.1336C345.406 31.1336 346.451 33.3634 346.595 34.1698H347.197C347.197 33.5868 347.163 33.0908 347.163 32.2315C347.163 31.6485 347.197 31.2093 347.197 30.6036H346.595C346.595 30.6036 346.504 31.0049 346.194 31.0049C345.902 31.0049 345.115 30.5089 343.597 30.5089C341.931 30.5089 339.682 31.4062 339.682 34.1319C339.682 38.7581 345.993 36.8766 345.993 40.2611C345.993 41.2113 345.391 42.0518 343.888 42.0518C341.496 42.0518 340.303 38.9436 340.159 38.1183H339.501C339.501 38.8679 339.554 39.3979 339.554 40.2421C339.554 41.1204 339.501 41.6505 339.501 42.5288H340.103C340.103 42.5288 340.178 42.0896 340.561 42.0896C340.89 42.0896 341.893 42.7483 343.835 42.7483C346.069 42.7483 348.098 41.6694 348.098 38.9815C348.094 34.0789 341.602 35.8734 341.602 32.7615Z" fill="#1D1D1D"/>
<path d="M352.433 33.8218L348.776 34.0035V34.6244C349.692 34.6244 350.022 34.6244 350.022 35.6314V41.6659L348.776 41.7606V42.3814C349.673 42.3814 350.165 42.3057 351.225 42.3057C352.285 42.3057 352.8 42.3814 353.679 42.3814V41.7606L352.433 41.6659V33.8218Z" fill="#1D1D1D"/>
<path d="M349.76 30.8427C349.76 31.74 350.476 32.2359 351.24 32.2359C351.99 32.2359 352.702 31.74 352.702 30.8427C352.702 29.9455 351.99 29.4533 351.24 29.4533C350.472 29.4496 349.76 29.9455 349.76 30.8427Z" fill="#1D1D1D"/>
<path d="M363.313 36.915C363.313 34.6095 362.215 33.6782 360.678 33.6782C359.232 33.6782 358.244 34.4089 357.623 35.4121H357.604L357.57 33.8221L354.061 34.0038V34.6284C354.992 34.6284 355.303 34.6284 355.303 35.5976V41.6662L354.061 41.7608V42.3817C354.954 42.3817 355.45 42.3097 356.51 42.3097C357.57 42.3097 358.047 42.3817 358.926 42.3817V41.7608L357.718 41.6662V37.6078C357.718 35.8172 358.835 34.7571 359.732 34.7571C360.697 34.7571 360.921 35.4689 360.921 37.445V41.6662L359.713 41.7608V42.3817C360.61 42.3817 361.068 42.3097 362.128 42.3097C363.188 42.3097 363.681 42.3817 364.578 42.3817V41.7608L363.317 41.6662V36.915H363.313Z" fill="#1D1D1D"/>
<path d="M373.012 41.6132C372.607 41.6132 372.426 41.227 372.445 40.6629L372.535 37.2065C372.57 35.4878 372.301 33.6782 369.098 33.6782C367.122 33.6782 365.46 34.4088 365.46 35.7074C365.46 36.438 365.975 36.8772 366.686 36.8772C367.436 36.8772 367.913 36.4229 367.913 35.7793C367.913 35.1584 367.512 34.9389 367.512 34.9389C367.603 34.7571 368.004 34.2991 368.92 34.2991C370.109 34.2991 370.237 35.2682 370.184 36.7295V37.6267C367.697 37.6078 364.896 37.8274 364.896 40.2049C364.896 42.1242 366.414 42.711 367.697 42.711C369.03 42.711 369.798 42.1242 370.2 41.3557H370.237C370.548 42.2681 371.298 42.6353 372.195 42.6353C374.076 42.6353 374.337 40.9696 374.337 40.9696L373.736 40.8219C373.724 40.8257 373.542 41.6132 373.012 41.6132ZM370.101 39.6559C370.063 40.9734 369.261 41.598 368.549 41.598C367.781 41.598 367.36 41.0491 367.36 39.9664C367.36 38.8155 367.871 38.2136 370.139 38.2514L370.101 39.6559Z" fill="#1D1D1D"/>
<path d="M378.282 30.8427C378.282 29.9455 377.566 29.4533 376.821 29.4533C376.052 29.4533 375.34 29.9455 375.34 30.8427C375.34 31.7399 376.056 32.2359 376.821 32.2359C377.566 32.2321 378.282 31.7399 378.282 30.8427Z" fill="#1D1D1D"/>
<path d="M378.006 33.8218L374.349 34.0035V34.6244C375.265 34.6244 375.594 34.6244 375.594 35.6314V41.6659L374.349 41.7606V42.3814C375.246 42.3814 375.742 42.3057 376.798 42.3057C377.862 42.3057 378.373 42.3814 379.251 42.3814V41.7606L378.006 41.6659V33.8218Z" fill="#1D1D1D"/>
</g>
</g>
<defs>
<clipPath id="clip0">
<rect width="390.193" height="46.92" fill="white"/>
</clipPath>
</defs>
</svg>
