<svg width="160" height="26" viewBox="0 0 160 26" fill="none" xmlns="http://www.w3.org/2000/svg">
<g opacity="0.5">
<path d="M29.0002 11.4156H29.7553C29.8366 11.4156 29.9074 11.3474 29.9074 11.2635V8.93273H32.0704V11.2635C32.0704 11.3474 32.1386 11.4156 32.2225 11.4156H32.9775C33.0614 11.4156 33.1296 11.3474 33.1296 11.2635V5.89926C33.1296 5.81536 33.0614 5.75244 32.9775 5.75244H32.2225C32.1386 5.75244 32.0704 5.81274 32.0704 5.89926V8.00198H29.9074V5.89926C29.9074 5.81536 29.8392 5.75244 29.7553 5.75244H29.0002C28.9163 5.75244 28.8481 5.81274 28.8481 5.89926V11.2635C28.8481 11.3448 28.9163 11.4156 29.0002 11.4156ZM35.3555 11.4759C35.72 11.4759 36.0792 11.3553 36.4305 11.1403V11.2635C36.4305 11.3474 36.4987 11.4156 36.5826 11.4156H37.2302C37.3141 11.4156 37.3822 11.3474 37.3822 11.2635V8.5211C37.3822 7.54578 36.7871 7.06599 35.7043 7.06599C35.1799 7.06599 34.7368 7.12629 34.4327 7.18921C34.333 7.21281 34.2885 7.26524 34.2885 7.34914V7.83681C34.2885 7.9443 34.3488 7.96527 34.4248 7.96527H34.4641C34.7158 7.93381 35.2192 7.90497 35.7069 7.90497C36.1552 7.90497 36.3781 8.0282 36.3781 8.52373V8.85932H35.8983C34.5716 8.85932 34.0368 9.30766 34.0368 10.1781V10.2096C34.0368 11.2321 34.7237 11.4759 35.3555 11.4759ZM35.0514 10.1729C35.0514 9.7455 35.2035 9.52526 35.8983 9.52526H36.3781V10.4639C36.1578 10.5871 35.8747 10.6763 35.602 10.6763C35.2218 10.6763 35.0514 10.5766 35.0514 10.2043V10.1729ZM38.8609 9.25784L39.9044 9.89757C40.1483 10.0496 40.24 10.1414 40.24 10.2856C40.24 10.4927 40.1719 10.6527 39.6999 10.6527C39.4718 10.6527 38.7849 10.616 38.4205 10.5688H38.389C38.313 10.5688 38.2606 10.6291 38.2606 10.6894V11.1482C38.2606 11.2399 38.313 11.3003 38.4047 11.3239C38.8295 11.4392 39.4718 11.4759 39.7681 11.4759C40.767 11.4759 41.2626 10.9515 41.2626 10.2882C41.2626 9.90019 41.1708 9.5174 40.5311 9.12937L39.5321 8.51848C39.3408 8.40312 39.228 8.32708 39.228 8.20648C39.228 7.97051 39.3879 7.88661 39.755 7.88661C40.1902 7.88661 40.7985 7.94692 41.0109 7.97838H41.0423C41.1184 7.97838 41.1629 7.92595 41.1629 7.83418V7.39372C41.1629 7.30195 41.1184 7.24165 41.0266 7.21805C40.6386 7.13415 40.2872 7.06599 39.6685 7.06599C38.701 7.06599 38.2212 7.44615 38.2212 8.2091C38.2212 8.64957 38.486 9.02974 38.8609 9.25784ZM44.2567 9.12937L43.2578 8.51848C43.0664 8.40312 42.9536 8.32708 42.9536 8.20648C42.9536 7.97051 43.1136 7.88661 43.4806 7.88661C43.9159 7.88661 44.5241 7.94692 44.7365 7.97838H44.768C44.844 7.97838 44.8912 7.92595 44.8912 7.83418V7.39372C44.8912 7.30195 44.844 7.24165 44.7522 7.21805C44.3642 7.13415 44.0129 7.06599 43.3967 7.06599C42.4293 7.06599 41.9495 7.44615 41.9495 8.2091C41.9495 8.65219 42.2143 9.03236 42.5892 9.26046L43.6327 9.90019C43.8765 10.0523 43.9657 10.144 43.9657 10.2882C43.9657 10.4953 43.8975 10.6553 43.4256 10.6553C43.1948 10.6553 42.5105 10.6186 42.1461 10.5714H42.1147C42.0386 10.5714 41.9862 10.6317 41.9862 10.692V11.1508C41.9862 11.2426 42.0386 11.3029 42.1304 11.3265C42.5551 11.4418 43.1975 11.4785 43.4937 11.4785C44.4927 11.4785 44.9882 10.9542 44.9882 10.2908C44.9882 9.89757 44.8964 9.5174 44.2567 9.12937ZM47.5183 11.4759C48.7138 11.4759 49.3378 10.6684 49.3378 9.5777V8.96157C49.3378 7.87089 48.7138 7.06336 47.5183 7.06336C46.3227 7.06336 45.6987 7.87089 45.6987 8.96157V9.5777C45.6961 10.6684 46.3201 11.4759 47.5183 11.4759ZM46.7029 8.96157C46.7029 8.33757 46.9834 7.93119 47.5183 7.93119C48.0505 7.93119 48.3337 8.33495 48.3337 8.96157V9.5777C48.3337 10.2043 48.0505 10.6081 47.5183 10.6081C46.9834 10.6081 46.7029 10.2043 46.7029 9.5777V8.96157ZM32.7809 14.9105V14.8424C32.7809 13.4947 31.7584 13.0831 30.5864 13.0831C30.0306 13.0831 29.4905 13.1224 29.092 13.1827C28.9399 13.2063 28.8481 13.2588 28.8481 13.4108V18.6545C28.8481 18.7384 28.9163 18.8066 29.0002 18.8066H29.7632C29.8471 18.8066 29.9074 18.7384 29.9074 18.6545V16.6645C30.083 16.6724 30.3872 16.696 30.5864 16.696C31.7584 16.6934 32.7809 16.2582 32.7809 14.9105ZM31.7295 14.9105C31.7295 15.5214 31.4097 15.8255 30.5864 15.8255C30.458 15.8255 30.0306 15.8098 29.9074 15.802V13.9876C30.0463 13.9719 30.4239 13.9562 30.5864 13.9562C31.3468 13.9562 31.7295 14.2 31.7295 14.8397V14.9105ZM33.6802 18.804H34.3881C34.472 18.804 34.5323 18.7279 34.5323 18.644V13.1565C34.5323 13.0726 34.472 13.0045 34.3881 13.0045H33.6802C33.5963 13.0045 33.5281 13.0726 33.5281 13.1565V18.644C33.5255 18.7279 33.5963 18.804 33.6802 18.804ZM37.7414 18.5287V18.6519C37.7414 18.7358 37.8096 18.804 37.8935 18.804H38.5411C38.625 18.804 38.6932 18.7358 38.6932 18.6519V15.9094C38.6932 14.9341 38.098 14.4543 37.0152 14.4543C36.4882 14.4543 36.0477 14.5146 35.7436 14.5776C35.644 14.6012 35.5994 14.6536 35.5994 14.7375V15.2251C35.5994 15.33 35.6597 15.3536 35.7357 15.3536H35.775C36.0267 15.3222 36.5301 15.2933 37.0178 15.2933C37.4661 15.2933 37.689 15.4165 37.689 15.9121V16.245H37.2092C35.8825 16.245 35.3503 16.696 35.3503 17.5638V17.5953C35.3503 18.623 36.0372 18.8669 36.6691 18.8669C37.0309 18.8643 37.3901 18.7437 37.7414 18.5287ZM36.3623 17.5927V17.5612C36.3623 17.1338 36.5144 16.9136 37.2092 16.9136H37.689V17.8522C37.4688 17.9728 37.1856 18.0646 36.9103 18.0646C36.5301 18.0646 36.3623 17.965 36.3623 17.5927ZM40.0198 17.653C40.0198 18.6729 40.3711 18.8643 41.2311 18.8643C41.3989 18.8643 41.5641 18.8407 41.7502 18.8118C41.8498 18.7961 41.8944 18.7515 41.8944 18.6729V18.1931C41.8944 18.117 41.8341 18.0777 41.7345 18.0777H41.3307C41.0554 18.0777 41.0318 18.0305 41.0318 17.653V15.2592H41.4985C41.5824 15.2592 41.6506 15.1911 41.6506 15.1072V14.6588C41.6506 14.5749 41.5824 14.5068 41.4985 14.5068H41.0318V13.7228C41.0318 13.6468 40.9794 13.6075 40.9112 13.6075H40.8798L40.1719 13.7307C40.088 13.7464 40.0198 13.7989 40.0198 13.8828V14.5068H39.304C39.2201 14.5068 39.152 14.5749 39.152 14.6588V15.0023C39.152 15.0862 39.2201 15.1412 39.304 15.1544L40.0198 15.2592V17.653ZM44.553 18.0803H44.1492C43.8739 18.0803 43.8503 18.0331 43.8503 17.6556V15.2619H44.5372C44.6211 15.2619 44.6893 15.1937 44.6893 15.1098V14.6615C44.6893 14.5776 44.6211 14.5094 44.5372 14.5094H43.8503V13.7255C43.8503 13.6494 43.7979 13.6101 43.7271 13.6101H43.6982L42.9903 13.7333C42.9064 13.7491 42.8383 13.8015 42.8383 13.8854V14.5094H42.3427C42.2589 14.5094 42.1907 14.5776 42.1907 14.6615V15.0049C42.1907 15.0888 42.2589 15.1439 42.3427 15.157L42.8383 15.2619V17.6556C42.8383 18.6755 43.1896 18.8669 44.0496 18.8669C44.2174 18.8669 44.3852 18.8433 44.5687 18.8144C44.6683 18.7987 44.7155 18.7541 44.7155 18.6755V18.1957C44.7129 18.1197 44.6526 18.0803 44.553 18.0803ZM49.0573 18.644V16.1585C49.0573 15.1911 48.8371 14.4517 47.7385 14.4517C47.2351 14.4517 46.9441 14.5356 46.5036 14.8188V14.6588C46.5036 14.5749 46.4354 14.5068 46.3515 14.5068H45.6882C45.6043 14.5068 45.5362 14.5749 45.5362 14.6588V18.644C45.5362 18.7279 45.6043 18.804 45.6882 18.804H46.3883C46.4722 18.804 46.5403 18.7279 46.5403 18.644V15.5817C46.8602 15.4139 47.1433 15.3064 47.4003 15.3064C47.9876 15.3064 48.0479 15.4978 48.0479 16.1585V18.644C48.0479 18.7279 48.116 18.804 48.1999 18.804H48.9026C48.9865 18.804 49.0573 18.7279 49.0573 18.644ZM53.3545 17.0054C53.462 17.0054 53.5065 16.9372 53.5065 16.814V16.3892C53.5065 15.254 52.8668 14.4543 51.6922 14.4543C50.5255 14.4543 49.8622 15.2016 49.8622 16.3892V16.9529C49.8622 18.4526 50.945 18.8643 51.7053 18.8643C52.3923 18.8643 52.6885 18.8276 53.1841 18.7358C53.323 18.7122 53.344 18.6598 53.344 18.5392V18.0358C53.344 17.9597 53.2837 17.9204 53.205 17.9204H53.1814C52.8616 17.9519 52.3372 17.9964 51.7788 17.9964C51.0473 17.9964 50.8637 17.4694 50.8637 17.029V17.0054H53.3545ZM50.8768 16.2582C50.8768 15.6551 51.2203 15.3195 51.6922 15.3195C52.1642 15.3195 52.4919 15.663 52.4919 16.2582V16.2896H50.8768V16.2582ZM56.3722 14.4517C56.0655 14.4517 55.6565 14.5277 55.2815 14.8188V14.6588C55.2815 14.5749 55.2134 14.5068 55.1295 14.5068H54.4661C54.3822 14.5068 54.3141 14.5749 54.3141 14.6588V18.644C54.3141 18.7279 54.3822 18.804 54.4661 18.804H55.1688C55.2527 18.804 55.3209 18.7279 55.3209 18.644V15.5817C55.6407 15.4139 55.9606 15.3064 56.3722 15.3064C56.4561 15.3064 56.5243 15.2383 56.5243 15.1544V14.6038C56.5243 14.5225 56.4561 14.4517 56.3722 14.4517ZM29.771 20.5317H29.0107C28.9268 20.5317 28.856 20.592 28.856 20.6759V26.0402C28.856 26.1241 28.9242 26.1923 29.0107 26.1923H29.771C29.8549 26.1923 29.9257 26.1241 29.9257 26.0402V20.6759C29.9231 20.592 29.8549 20.5317 29.771 20.5317ZM33.4547 21.8427C32.9487 21.8427 32.6551 21.9266 32.2093 22.2097V22.0498C32.2093 21.9659 32.1412 21.8977 32.0547 21.8977H31.3861C31.3022 21.8977 31.2314 21.9659 31.2314 22.0498V26.035C31.2314 26.1189 31.2996 26.1949 31.3861 26.1949H32.094C32.1779 26.1949 32.2487 26.1189 32.2487 26.035V22.9727C32.5712 22.8049 32.8569 22.6974 33.1191 22.6974C33.7117 22.6974 33.7746 22.8888 33.7746 23.5495V26.035C33.7746 26.1189 33.8427 26.1949 33.9293 26.1949H34.6372C34.7211 26.1949 34.7919 26.1189 34.7919 26.035V23.5495C34.7866 22.582 34.5664 21.8427 33.4547 21.8427ZM38.1976 23.9061L37.1882 23.2978C36.9942 23.1824 36.8788 23.1064 36.8788 22.9858C36.8788 22.7498 37.0414 22.6633 37.4111 22.6633C37.8489 22.6633 38.4651 22.7236 38.68 22.7551H38.7115C38.7875 22.7551 38.8347 22.7026 38.8347 22.6109V22.1678C38.8347 22.076 38.7875 22.0157 38.6958 21.9921C38.3025 21.9082 37.9486 21.84 37.3272 21.84C36.3492 21.84 35.8642 22.2202 35.8642 22.9832C35.8642 23.4236 36.1342 23.8064 36.5118 24.0345L37.5658 24.6743C37.8122 24.8263 37.904 24.9155 37.904 25.0623C37.904 25.2694 37.8358 25.4293 37.3586 25.4293C37.1279 25.4293 36.4358 25.39 36.0661 25.3454H36.0346C35.9586 25.3454 35.9035 25.4058 35.9035 25.4661V25.9249C35.9035 26.0166 35.9586 26.0769 36.0503 26.0979C36.4829 26.2133 37.1279 26.25 37.4294 26.25C38.4388 26.25 38.937 25.723 38.937 25.0623C38.937 24.6769 38.8426 24.2967 38.1976 23.9061ZM42.1986 25.4687H41.7895C41.5143 25.4687 41.4907 25.4241 41.4907 25.0413V22.6476H42.1828C42.2667 22.6476 42.3375 22.5794 42.3375 22.4955V22.0472C42.3375 21.9633 42.2667 21.8951 42.1828 21.8951H41.4907V21.1112C41.4907 21.0351 41.4382 20.9958 41.3674 20.9958H41.336L40.6202 21.119C40.5363 21.1348 40.4655 21.1872 40.4655 21.2711V21.8951H39.7419C39.658 21.8951 39.5898 21.9633 39.5898 22.0472V22.3906C39.5898 22.4745 39.658 22.527 39.7419 22.5427L40.4655 22.6502V25.0439C40.4655 26.0665 40.8195 26.2552 41.6899 26.2552C41.8603 26.2552 42.0281 26.2316 42.2143 26.2028C42.3139 26.1871 42.3611 26.1425 42.3611 26.0638V25.584C42.3611 25.508 42.2982 25.4687 42.1986 25.4687ZM44.1702 21.8951H43.4623C43.3784 21.8951 43.3102 21.9633 43.3102 22.0472V26.0324C43.3102 26.1163 43.3784 26.1923 43.4623 26.1923H44.1702C44.2541 26.1923 44.3249 26.1163 44.3249 26.0324V22.0472C44.3249 21.9633 44.2541 21.8951 44.1702 21.8951ZM44.1912 20.3482H43.4439C43.36 20.3482 43.284 20.4164 43.284 20.5003V21.1715C43.284 21.2554 43.36 21.3236 43.4439 21.3236H44.1912C44.2751 21.3236 44.3458 21.2554 44.3458 21.1715V20.5003C44.3458 20.4164 44.2777 20.3482 44.1912 20.3482ZM47.8407 25.4687H47.4344C47.1565 25.4687 47.1355 25.4241 47.1355 25.0413V22.6476H47.8276C47.9115 22.6476 47.9823 22.5794 47.9823 22.4955V22.0472C47.9823 21.9633 47.9142 21.8951 47.8276 21.8951H47.1355V21.1112C47.1355 21.0351 47.0804 20.9958 47.0123 20.9958H46.9808L46.265 21.119C46.1785 21.1348 46.1103 21.1872 46.1103 21.2711V21.8951H45.3867C45.3028 21.8951 45.232 21.9633 45.232 22.0472V22.3906C45.232 22.4745 45.3002 22.527 45.3867 22.5427L46.1103 22.6502V25.0439C46.1103 26.0665 46.4643 26.2552 47.3347 26.2552C47.5052 26.2552 47.673 26.2316 47.8591 26.2028C47.9587 26.1871 48.0033 26.1425 48.0033 26.0638V25.584C48.0007 25.508 47.9404 25.4687 47.8407 25.4687ZM52.3267 21.8951H51.6188C51.5349 21.8951 51.4641 21.9711 51.4641 22.055V25.1042C51.2491 25.2196 50.8795 25.4084 50.5963 25.4084C50.3577 25.4084 50.2266 25.3612 50.1191 25.272C49.9723 25.1409 49.9408 24.9207 49.9408 24.5405V22.055C49.9408 21.9711 49.8727 21.8951 49.7888 21.8951H49.0809C48.997 21.8951 48.9262 21.9711 48.9262 22.055V24.5405C48.9262 25.1724 49.0284 25.6443 49.3116 25.9275C49.5345 26.1477 49.8753 26.2474 50.2581 26.2474C50.751 26.2474 51.0656 26.1241 51.4668 25.8672V26.0402C51.4668 26.1241 51.5349 26.1923 51.6214 26.1923H52.3293C52.4132 26.1923 52.4814 26.1241 52.4814 26.0402V22.055C52.4814 21.9711 52.4132 21.8951 52.3267 21.8951ZM55.9763 25.4687H55.5673C55.292 25.4687 55.2684 25.4241 55.2684 25.0413V22.6476H55.9606C56.0445 22.6476 56.1127 22.5794 56.1127 22.4955V22.0472C56.1127 21.9633 56.0445 21.8951 55.9606 21.8951H55.2684V21.1112C55.2684 21.0351 55.2134 20.9958 55.1452 20.9958H55.1137L54.398 21.119C54.3141 21.1348 54.2433 21.1872 54.2433 21.2711V21.8951H53.5197C53.4358 21.8951 53.365 21.9633 53.365 22.0472V22.3906C53.365 22.4745 53.4331 22.527 53.5197 22.5427L54.2433 22.6502V25.0439C54.2433 26.0665 54.5972 26.2552 55.4677 26.2552C55.6381 26.2552 55.8059 26.2316 55.9921 26.2028C56.0917 26.1871 56.1389 26.1425 56.1389 26.0638V25.584C56.1363 25.508 56.0759 25.4687 55.9763 25.4687Z" fill="#1D1D1D"/>
<path d="M22.9096 3.27197H0V26.1816H22.9096V3.27197Z" fill="#3E3E3E"/>
<path d="M26.1818 0H6.54419V19.6376H26.1818V0Z" fill="#ACACAC"/>
<path d="M22.9095 3.27197H6.54663V19.6349H22.9095V3.27197Z" fill="#6E6E6E"/>
<path d="M13.2009 5.81518H12.4458C12.3619 5.81518 12.2938 5.87549 12.2938 5.95939V8.0621H10.1308V5.95939C10.1308 5.87549 10.0626 5.81518 9.97869 5.81518H9.2236C9.1397 5.81518 9.07153 5.87549 9.07153 5.95939V11.3237C9.07153 11.4076 9.1397 11.4757 9.2236 11.4757H9.97869C10.0626 11.4757 10.1308 11.4076 10.1308 11.3237V8.99285H12.2938V11.3237C12.2938 11.4076 12.3619 11.4757 12.4458 11.4757H13.2009C13.2848 11.4757 13.353 11.4076 13.353 11.3237V5.95939C13.353 5.87549 13.2848 5.81518 13.2009 5.81518ZM16.2475 5.75488C15.6917 5.75488 15.1516 5.79158 14.7531 5.85451C14.601 5.8781 14.5118 5.93054 14.5118 6.08523V11.3263C14.5118 11.4102 14.58 11.4784 14.6639 11.4784H15.4242C15.5081 11.4784 15.5711 11.4102 15.5711 11.3263V9.33893C15.7441 9.34418 16.0509 9.36778 16.2501 9.36778C17.4247 9.36778 18.4446 8.93255 18.4446 7.58492V7.51676C18.442 6.16651 17.4221 5.75488 16.2475 5.75488ZM17.3906 7.58231C17.3906 8.19319 17.0708 8.49732 16.2475 8.49732C16.119 8.49732 15.6917 8.48159 15.5685 8.47373V6.65941C15.7048 6.64368 16.0876 6.62795 16.2475 6.62795C17.0078 6.62795 17.3906 6.87178 17.3906 7.51151V7.58231ZM20.2301 5.81518H19.475C19.3911 5.81518 19.3229 5.87549 19.3229 5.95939V11.3237C19.3229 11.4076 19.3911 11.4757 19.475 11.4757H20.2301C20.314 11.4757 20.3821 11.4076 20.3821 11.3237V5.95939C20.3821 5.87549 20.314 5.81518 20.2301 5.81518Z" fill="white"/>
<path d="M103.867 7.4228L105.499 9.83689L106.53 8.29105L104.87 5.90015L103.867 7.4228Z" fill="#777777"/>
<path d="M108.139 5.87199V5.86941L106.482 3.45532L106.479 3.46047L107.48 4.91357L108.139 5.87199Z" fill="#777777"/>
<path d="M102.258 9.8623L101.221 11.4339L102.83 13.8506L103.895 12.2506L102.258 9.8623Z" fill="#777777"/>
<path d="M99.6179 13.8689L91.7332 25.8311H94.8583L101.227 16.2598L100.901 15.7729L99.6179 13.8689Z" fill="#777777"/>
<path d="M109.224 7.45326L110.884 9.86735L110.887 9.86478L109.227 7.45068L109.224 7.45326Z" fill="#777777"/>
<path d="M102.381 17.9731L97.2651 25.8312H100.393L103.988 20.3615L102.381 17.9731Z" fill="#777777"/>
<path d="M107.641 9.88586L106.609 11.4755L108.244 13.8896H108.241L109.301 12.2742L109.134 12.0346L107.641 9.88586Z" fill="#777777"/>
<path d="M103.959 15.5463V15.5489V15.5463L104.683 16.6336L105.566 17.963L106.664 16.2909L105.027 13.9052L103.959 15.5463Z" fill="#777777"/>
<path d="M103.623 0.0183105C103.605 0.0234634 103.59 0.0311866 103.572 0.0363394C103.587 0.0311866 103.603 0.0234634 103.623 0.0183105Z" fill="#777777"/>
<path d="M101.157 3.42412L102.789 5.83305V5.83563L103.79 4.34905L102.127 1.95557L99.5718 5.78667L101.157 3.42412Z" fill="#777777"/>
<path d="M101.157 8.25994L100.223 6.89702L99.5175 5.86646L98.5168 7.36592L100.128 9.78774L101.157 8.25994Z" fill="#777777"/>
<path d="M104.47 0.536117L105.425 1.9248V1.92222L104.473 0.536117C104.365 0.378956 104.18 0.00280762 103.772 0.00280762C103.718 0.00280762 103.67 0.00795445 103.626 0.0208365C103.672 0.0105308 103.718 0.00537867 103.77 0.00537867C104.178 0.00280227 104.362 0.378956 104.47 0.536117Z" fill="#777777"/>
<path d="M96.8851 9.81104L86.1985 25.8311H89.3288L98.499 12.2071L97.6471 10.9395L96.8851 9.81104Z" fill="#777777"/>
<path d="M95.7409 8.11328L94.1065 5.68115L80.6667 25.8312H83.7945L95.7409 8.11328Z" fill="#777777"/>
<path d="M95.6028 3.7439C95.559 3.7542 95.5203 3.76966 95.4817 3.78769C95.5203 3.77223 95.559 3.75678 95.6028 3.7439Z" fill="#777777"/>
<path d="M95.751 3.72559C96.159 3.72559 96.3437 4.10432 96.4515 4.25632L97.311 5.5471L96.454 4.25375C96.3463 4.10175 96.1615 3.72559 95.751 3.72559C95.6997 3.72559 95.6509 3.73074 95.6047 3.74104C95.6509 3.73331 95.6971 3.72559 95.751 3.72559Z" fill="#777777"/>
<path d="M103.99 20.3615L107.672 25.8312H110.8L105.565 17.9629L104.596 19.4392L103.99 20.3615Z" fill="#4E4E4E"/>
<path d="M101.222 11.4344L100.129 9.78809V9.79066L98.4995 12.2073L99.6182 13.8691L100.362 12.7381L101.222 11.4344Z" fill="#4E4E4E"/>
<path d="M102.83 13.8506L101.227 16.2595L102.381 17.9728L103.959 15.5458L102.83 13.8506Z" fill="#4E4E4E"/>
<path d="M98.517 7.36567L97.3086 5.55188L97.3265 5.57765L97.3753 5.65236L97.3804 5.65751L97.3881 5.6704L95.7434 8.11283L96.8852 9.81067L97.2778 9.22068L98.517 7.36567Z" fill="#4E4E4E"/>
<path d="M95.0535 4.25894C95.0792 4.22544 95.11 4.17649 95.1433 4.12239C95.169 4.08374 95.1972 4.04509 95.228 4.00645C95.2331 3.99872 95.2382 3.99357 95.2434 3.98584C95.1587 4.0889 95.0971 4.1971 95.0535 4.25894L94.217 5.51365L95.0535 4.25894Z" fill="#4E4E4E"/>
<path d="M95.3899 3.84648C95.3925 3.84648 95.3925 3.84391 95.3899 3.84648C95.3358 3.88255 95.2868 3.9315 95.2456 3.98045C95.2482 3.97788 95.2559 3.97273 95.2585 3.97015C95.2997 3.92635 95.3409 3.88255 95.3899 3.84648Z" fill="#4E4E4E"/>
<path d="M95.4821 3.78735C95.4563 3.80024 95.4331 3.81828 95.4099 3.83373C95.4099 3.83373 95.4125 3.83373 95.4151 3.83116C95.4383 3.8157 95.4589 3.80024 95.4821 3.78735Z" fill="#4E4E4E"/>
<path d="M101.221 11.4342L102.83 13.8509L101.221 11.4342Z" fill="#4E4E4E"/>
<path d="M99.6182 13.8691L100.365 12.738L99.6182 13.8691L100.901 15.773L99.6182 13.8691Z" fill="#4E4E4E"/>
<path d="M103.959 15.5485V15.5459L102.379 17.9729L103.959 15.5485Z" fill="#4E4E4E"/>
<path d="M105.565 17.963L104.595 19.4418L105.565 17.963L104.68 16.6335L105.565 17.963Z" fill="#4E4E4E"/>
<path d="M100.128 9.78765L98.5168 7.36841L100.128 9.78765Z" fill="#4E4E4E"/>
<path d="M96.8853 9.81106L97.2804 9.22107L96.8853 9.81106L97.6473 10.9395L96.8853 9.81106Z" fill="#4E4E4E"/>
<path d="M96.4488 4.25913C96.341 4.10455 96.1563 3.72839 95.7483 3.72839C96.1588 3.72839 96.3436 4.10455 96.4488 4.25913Z" fill="#4E4E4E"/>
<path d="M95.1431 4.12266C95.1663 4.08659 95.1972 4.04536 95.2281 4.00671C95.1997 4.04536 95.1688 4.08659 95.1431 4.12266Z" fill="#4E4E4E"/>
<path d="M96.449 4.25879L97.3265 5.58048L97.3085 5.54957L96.449 4.25879Z" fill="#4E4E4E"/>
<path d="M95.6003 3.7439C95.5565 3.7542 95.5179 3.76966 95.4818 3.78769C95.456 3.798 95.4354 3.81603 95.4148 3.83149C95.4689 3.79542 95.5307 3.76451 95.6003 3.7439Z" fill="#4E4E4E"/>
<path d="M97.3805 5.65771L97.3882 5.6706L95.741 8.11045L97.3882 5.6706L97.3805 5.65771Z" fill="#4E4E4E"/>
<path d="M95.2607 3.97059C95.2994 3.9268 95.3406 3.88557 95.3921 3.84692C95.3406 3.88299 95.2968 3.92422 95.2607 3.97059Z" fill="#4E4E4E"/>
<path d="M103.41 0.121231C103.41 0.121231 103.413 0.121229 103.413 0.118652C103.356 0.159875 103.31 0.20625 103.266 0.255201C103.269 0.252625 103.274 0.250046 103.276 0.244894C103.318 0.201095 103.361 0.159877 103.41 0.121231Z" fill="#4E4E4E"/>
<path d="M107.641 9.88586L109.224 7.45373L108.139 5.87183L106.53 8.28849L107.641 9.88586Z" fill="#4E4E4E"/>
<path d="M104.87 5.90044L106.479 3.46058L105.424 1.92505L103.79 4.34944L104.87 5.90044Z" fill="#4E4E4E"/>
<path d="M103.57 0.0390625C103.518 0.0570973 103.469 0.0802821 103.428 0.108623C103.428 0.108623 103.431 0.108628 103.433 0.106051C103.477 0.077711 103.521 0.0545209 103.57 0.0390625Z" fill="#4E4E4E"/>
<path d="M109.304 12.2745L118.731 25.8341H121.858L110.884 9.86816L109.304 12.2745Z" fill="#4E4E4E"/>
<path d="M103.074 0.533352C103.1 0.497282 103.13 0.448326 103.166 0.391645C103.189 0.358152 103.218 0.319508 103.246 0.280862C103.251 0.273132 103.256 0.267983 103.261 0.260254C103.174 0.36331 103.115 0.471518 103.069 0.533352L102.125 1.95552L102.217 1.81382L103.074 0.533352Z" fill="#4E4E4E"/>
<path d="M107.48 4.91319L106.479 3.45752L107.48 4.91319Z" fill="#4E4E4E"/>
<path d="M107.641 9.88598L109.224 7.45386L107.641 9.88598Z" fill="#4E4E4E"/>
<path d="M110.884 9.86816L109.304 12.2745L109.137 12.0349L109.304 12.2745L110.884 9.86816Z" fill="#4E4E4E"/>
<path d="M103.279 0.245C103.318 0.201201 103.359 0.159984 103.41 0.121338C103.362 0.159984 103.318 0.201201 103.279 0.245Z" fill="#4E4E4E"/>
<path d="M103.621 0.0183105C103.603 0.0234634 103.588 0.0311866 103.57 0.0363394C103.521 0.0543742 103.474 0.0775643 103.433 0.103328C103.49 0.0698351 103.549 0.0363454 103.621 0.0183105Z" fill="#4E4E4E"/>
<path d="M103.166 0.393987C103.189 0.357917 103.218 0.321849 103.246 0.283203C103.218 0.319273 103.189 0.357917 103.166 0.393987Z" fill="#4E4E4E"/>
<path d="M108.139 5.872L107.48 4.91357L108.139 5.872Z" fill="#292929"/>
<path d="M104.87 5.90015L106.53 8.28847L104.87 5.90015Z" fill="#292929"/>
<path d="M106.53 8.28849L108.136 5.87183L106.53 8.28849Z" fill="#292929"/>
<path d="M106.479 3.46021L104.87 5.90006L106.479 3.46021Z" fill="#292929"/>
<path d="M106.53 8.28838L108.136 5.87172L107.479 4.9133L106.479 3.46021L104.87 5.90006L106.53 8.28838Z" fill="#292929"/>
<path d="M107.641 9.88586L109.134 12.0346L107.641 9.88586Z" fill="#292929"/>
<path d="M109.224 7.45386L110.884 9.86794L109.224 7.45386Z" fill="#292929"/>
<path d="M107.641 9.88598L109.134 12.0347L109.301 12.2743L110.884 9.86794L109.224 7.45386L107.641 9.88598Z" fill="#292929"/>
<path d="M99.5176 5.86663L99.5717 5.78418L99.5176 5.86663Z" fill="#4E4E4E"/>
<path d="M101.157 8.25984L102.255 9.86237L103.864 7.42251L102.789 5.83545L102.127 6.81964L101.157 8.25984Z" fill="#4E4E4E"/>
<path d="M113.201 25.8308H116.329L108.241 13.8892L106.663 16.2904L113.201 25.8308Z" fill="#4E4E4E"/>
<path d="M105.499 9.83936L103.895 12.2509L105.027 13.9049L105.419 13.302L106.607 11.4754L105.499 9.83936Z" fill="#4E4E4E"/>
<path d="M102.258 9.8623L103.895 12.2506L102.258 9.8623Z" fill="#4E4E4E"/>
<path d="M106.663 16.2907L105.026 13.905L105.419 13.3021L105.026 13.905L106.663 16.2907L108.241 13.8895L106.663 16.2907Z" fill="#4E4E4E"/>
<path d="M102.789 5.83545L102.127 6.81964L102.789 5.83545Z" fill="#4E4E4E"/>
<path d="M99.5176 5.86676L101.155 3.42175L99.5715 5.78431L99.5176 5.86676L100.223 6.89732L99.5176 5.86676Z" fill="#4E4E4E"/>
<path d="M103.413 0.11895C103.418 0.116374 103.423 0.111219 103.428 0.108643C103.426 0.111219 103.418 0.116374 103.413 0.11895Z" fill="#292929"/>
<path d="M103.264 0.260884C103.264 0.260884 103.267 0.258125 103.269 0.255371C103.267 0.258125 103.264 0.260884 103.264 0.260884Z" fill="#292929"/>
<path d="M103.79 4.34905L102.125 1.95557L103.79 4.34905Z" fill="#292929"/>
<path d="M103.77 0.00012207C103.716 0.00012207 103.67 0.00785065 103.626 0.0155799C103.623 0.0155799 103.623 0.0155799 103.621 0.0155799C103.667 0.00785065 103.716 0.00012207 103.77 0.00012207Z" fill="#292929"/>
<path d="M105.424 1.92188L104.47 0.533203L105.424 1.92188Z" fill="#292929"/>
<path d="M103.071 0.533415C103.1 0.499922 103.128 0.448392 103.167 0.394287C103.131 0.448392 103.1 0.499922 103.071 0.533415Z" fill="#292929"/>
<path d="M103.436 0.105957C103.436 0.105957 103.433 0.105952 103.431 0.108528C103.426 0.111104 103.421 0.116259 103.415 0.118836C103.415 0.118836 103.413 0.118838 103.413 0.121415C103.418 0.116262 103.428 0.11111 103.436 0.105957Z" fill="#292929"/>
<path d="M103.279 0.244751C103.277 0.247327 103.269 0.252482 103.269 0.255059C103.267 0.255059 103.267 0.25764 103.264 0.260217C103.256 0.267946 103.254 0.273098 103.249 0.283403C103.259 0.270521 103.269 0.257633 103.279 0.244751Z" fill="#292929"/>
<path d="M103.074 0.533203L102.219 1.81368L102.125 1.95537L103.074 0.533203Z" fill="#292929"/>
<path d="M103.79 4.34944L105.424 1.92505L103.79 4.34944Z" fill="#292929"/>
<path d="M104.47 0.536117C104.365 0.378956 104.177 0.00280762 103.772 0.00280762C103.718 0.00280762 103.669 0.00795445 103.623 0.0208365C103.551 0.0388713 103.492 0.0697872 103.436 0.108433C103.428 0.113586 103.418 0.118738 103.41 0.123891C103.361 0.159961 103.318 0.203762 103.282 0.247561C103.272 0.257867 103.259 0.273324 103.249 0.286206C103.218 0.322275 103.192 0.360927 103.169 0.396997C103.133 0.451101 103.102 0.502624 103.077 0.536117L102.13 1.9583L103.793 4.35177L105.427 1.92737L104.47 0.536117Z" fill="#292929"/>
<path d="M100.224 6.89746L101.158 8.26038L101.16 8.2578L100.224 6.89746Z" fill="#292929"/>
<path d="M102.789 5.83584L101.157 3.42175V3.42433L102.789 5.83584Z" fill="#292929"/>
<path d="M101.157 8.26003L102.127 6.81982L101.157 8.26003Z" fill="#292929"/>
<path d="M102.127 6.81965L102.789 5.83546L101.155 3.42395L99.5176 5.86638L100.223 6.89694L101.157 8.25986L102.127 6.81965Z" fill="#292929"/>
<path d="M103.865 7.42505L105.499 9.83914L103.865 7.42505Z" fill="#292929"/>
<path d="M103.895 12.2508L105.499 9.83925V9.83667L103.895 12.2508Z" fill="#292929"/>
<path d="M103.865 7.42297L102.258 9.86283L103.865 7.42555V7.42297Z" fill="#292929"/>
<path d="M103.865 7.42505L102.258 9.86232L103.895 12.2506L105.499 9.83656L103.865 7.42505Z" fill="#292929"/>
<path d="M108.242 13.8894L106.607 11.4753L108.242 13.8894Z" fill="#292929"/>
<path d="M106.607 11.4753L105.419 13.3046L106.607 11.4753Z" fill="#292929"/>
<path d="M105.419 13.302L105.026 13.9049L106.663 16.2906L108.241 13.8894L106.607 11.4753L105.419 13.302Z" fill="#292929"/>
<path d="M95.2456 3.98589C95.2456 3.98589 95.2456 3.98108 95.2504 3.98108C95.2456 3.98589 95.2456 3.98589 95.2456 3.98589Z" fill="#292929"/>
<path d="M95.3918 3.84416C95.397 3.84159 95.4022 3.83644 95.4073 3.83386C95.4047 3.83644 95.3996 3.84159 95.3918 3.84416Z" fill="#292929"/>
<path d="M94.1064 5.68089L94.2172 5.51343L94.1064 5.68089Z" fill="#292929"/>
<path d="M95.7436 8.11328L94.1066 5.68115H94.104L95.7436 8.11328Z" fill="#292929"/>
<path d="M95.7515 3.72559C95.7 3.72559 95.651 3.73074 95.6046 3.74104H95.6021C95.6458 3.73331 95.6948 3.72559 95.7515 3.72559Z" fill="#292929"/>
<path d="M95.2614 3.97034C95.2588 3.97291 95.2511 3.97806 95.2485 3.98064C95.2485 3.98064 95.2485 3.98322 95.2459 3.98322C95.2408 3.99095 95.2356 3.99868 95.2305 4.00383C95.2382 3.99353 95.2511 3.98064 95.2614 3.97034Z" fill="#292929"/>
<path d="M95.415 3.83093C95.415 3.83093 95.4125 3.83094 95.4099 3.83351C95.4047 3.83609 95.3996 3.84123 95.3944 3.84381L95.3918 3.84639C95.397 3.84124 95.4073 3.83609 95.415 3.83093Z" fill="#292929"/>
<path d="M94.1064 5.68134L95.0558 4.25659L94.2168 5.51388L94.1064 5.68134Z" fill="#292929"/>
<path d="M97.3754 5.65283L97.3264 5.58069L97.3805 5.65798L97.3754 5.65283Z" fill="#292929"/>
<path d="M95.0532 4.25911C95.079 4.22561 95.1099 4.17666 95.1434 4.12256C95.1099 4.17666 95.079 4.22304 95.0532 4.25911Z" fill="#292929"/>
<path d="M96.4493 4.25913C96.3441 4.10455 96.1593 3.72839 95.7514 3.72839C95.6975 3.72839 95.6487 3.73355 95.6026 3.74643C95.5333 3.76447 95.4717 3.79538 95.4178 3.83145C95.4101 3.8366 95.3999 3.84175 95.3947 3.84691C95.3434 3.88298 95.3024 3.92677 95.2639 3.968C95.2536 3.98088 95.2408 3.99119 95.2331 4.00407C95.1997 4.04272 95.1715 4.08393 95.1484 4.12C95.1125 4.17153 95.0817 4.22048 95.0586 4.25655L94.1118 5.6813L95.7488 8.11343L97.3935 5.67357L97.3858 5.6607L97.3319 5.58083L96.4493 4.25913Z" fill="#292929"/>
<path d="M97.6448 10.9397L98.4992 12.2073L97.6448 10.9397Z" fill="#292929"/>
<path d="M98.517 7.36572L97.2803 9.22074L98.517 7.36572Z" fill="#292929"/>
<path d="M100.129 9.78809L98.4995 12.2073L100.129 9.78809Z" fill="#292929"/>
<path d="M97.2804 9.22084L96.8853 9.81083L97.6447 10.9393L98.4991 12.2069L100.128 9.79023L98.5171 7.36841L97.2804 9.22084Z" fill="#292929"/>
<path d="M100.9 15.7729L101.226 16.2599L100.9 15.7729Z" fill="#292929"/>
<path d="M101.221 11.4342L100.362 12.7379L101.221 11.4342Z" fill="#292929"/>
<path d="M102.83 13.8506L101.227 16.2595L102.83 13.8506Z" fill="#292929"/>
<path d="M100.362 12.7379L99.6182 13.8689L100.901 15.7729L101.229 16.2598L102.831 13.8509L101.222 11.4342L100.362 12.7379Z" fill="#292929"/>
<path d="M102.381 17.9731L103.987 20.3615L102.381 17.9731Z" fill="#292929"/>
<path d="M103.959 15.5486L104.68 16.6333L103.959 15.5486Z" fill="#292929"/>
<path d="M103.99 20.3615L104.596 19.4392L103.99 20.3615Z" fill="#292929"/>
<path d="M103.99 20.3613L104.595 19.439L105.565 17.9627L104.68 16.6333L103.959 15.5486L102.381 17.973L103.99 20.3613Z" fill="#292929"/>
<path d="M107.533 1.50978H107.61C107.693 1.50978 107.759 1.5304 107.813 1.57162C107.867 1.61284 107.936 1.71332 108.016 1.87305L108.139 2.11008H108.501L108.329 1.81637C108.27 1.71332 108.234 1.65148 108.224 1.6386C108.18 1.58449 108.149 1.54585 108.126 1.52782C108.103 1.5072 108.067 1.48917 108.026 1.47113C108.149 1.4531 108.244 1.40672 108.313 1.33459C108.38 1.25987 108.414 1.1697 108.414 1.06407C108.414 0.986774 108.396 0.917212 108.36 0.855378C108.324 0.793544 108.28 0.747167 108.224 0.71625C108.167 0.685333 108.093 0.667296 107.998 0.65699C107.965 0.654414 107.808 0.654419 107.533 0.654419H107.241V2.11266H107.533V1.50978ZM107.533 0.881136H107.652C107.821 0.881136 107.926 0.888872 107.967 0.90433C108.008 0.917212 108.042 0.940395 108.065 0.971311C108.088 1.00223 108.101 1.0383 108.101 1.07952C108.101 1.12332 108.088 1.15939 108.065 1.19289C108.042 1.22638 108.008 1.24956 107.97 1.26245C107.929 1.27533 107.823 1.28305 107.652 1.28305H107.533V0.881136Z" fill="#1D1D1D"/>
<path d="M107.174 2.56364C107.39 2.68215 107.618 2.74399 107.854 2.74399C108.09 2.74399 108.319 2.68215 108.534 2.56364C108.75 2.44255 108.916 2.2725 109.04 2.05609C109.158 1.83967 109.219 1.61037 109.219 1.37334C109.219 1.13374 109.158 0.904438 109.034 0.682867C108.911 0.463873 108.742 0.29383 108.529 0.175316C108.313 0.0593774 108.088 0.00012207 107.854 0.00012207C107.621 0.00012207 107.395 0.0593774 107.179 0.175316C106.964 0.29383 106.794 0.461296 106.671 0.682867C106.548 0.901861 106.487 1.13374 106.487 1.37334C106.487 1.61037 106.548 1.83967 106.666 2.05609C106.792 2.2725 106.961 2.44255 107.174 2.56364ZM106.91 0.816837C107.01 0.639065 107.146 0.505096 107.318 0.409769C107.49 0.317019 107.669 0.270641 107.859 0.270641C108.047 0.270641 108.229 0.317019 108.401 0.409769C108.575 0.505096 108.711 0.639065 108.811 0.816837C108.909 0.994609 108.957 1.17754 108.957 1.37077C108.957 1.564 108.909 1.74692 108.811 1.91954C108.714 2.09473 108.578 2.23129 108.406 2.32661C108.231 2.42452 108.049 2.47347 107.857 2.47347C107.667 2.47347 107.485 2.42452 107.313 2.32661C107.138 2.22871 107.002 2.09216 106.907 1.91954C106.81 1.74692 106.761 1.56142 106.761 1.37077C106.761 1.18012 106.81 0.994609 106.91 0.816837Z" fill="#1D1D1D"/>
<path d="M127.459 14.9381V14.5156C126.667 14.5156 126.182 14.3791 126.182 13.0831V8.06688H126.207L128.673 14.9124H129.281L131.721 8.06688H131.747V14.4667L130.757 14.5156V14.9381C131.252 14.9381 132.132 14.8892 132.627 14.8892C133.122 14.8892 134.054 14.9381 134.549 14.9381V14.5156L133.546 14.4667V7.52069L134.549 7.46916V7.04663L131.588 7.09815L129.64 12.3875H129.628L127.706 7.09815L124.706 7.04663V7.46916L125.687 7.52069V13.0831C125.687 14.3791 125.178 14.5156 124.509 14.5156V14.9381C125.127 14.9381 125.489 14.8892 125.984 14.8892C126.482 14.8866 126.841 14.9381 127.459 14.9381Z" fill="#1D1D1D"/>
<path d="M137.776 15.0979C139.411 15.0979 140.801 14.1266 140.801 11.9985C140.801 9.88323 139.388 9.02271 137.776 9.02271C136.188 9.02271 134.764 10.0069 134.764 12.1221C134.766 14.2528 136.165 15.0979 137.776 15.0979ZM137.776 9.44781C138.656 9.44781 138.99 10.3702 138.99 12.0629C138.99 13.7684 138.656 14.6753 137.776 14.6753C136.919 14.6753 136.573 13.7659 136.573 12.0629C136.573 10.3702 136.919 9.44781 137.776 9.44781Z" fill="#1D1D1D"/>
<path d="M145.713 13.905H145.725L145.761 15.0129L148.14 14.8892V14.4667L147.296 14.4409V9.11292L144.83 9.23659V9.65911C145.376 9.65911 145.661 9.65911 145.661 10.3419V12.3952C145.661 13.6165 144.894 14.3379 144.286 14.3379C143.516 14.3379 143.491 13.7273 143.491 12.5344V9.11292L141.012 9.23659V9.65911C141.643 9.65911 141.856 9.65911 141.856 10.3419V12.9801C141.856 14.3997 142.341 15.0721 143.642 15.0721C144.622 15.0747 145.317 14.5775 145.713 13.905Z" fill="#1D1D1D"/>
<path d="M154.678 11.2154C154.678 9.64637 153.933 9.01257 152.894 9.01257C151.914 9.01257 151.245 9.50982 150.821 10.1926H150.811L150.785 9.11048L148.407 9.23415V9.65925C149.038 9.65925 149.248 9.65925 149.248 10.3188V14.4488L148.407 14.5132V14.9357C149.012 14.9357 149.348 14.8868 150.067 14.8868C150.785 14.8868 151.109 14.9357 151.701 14.9357V14.5132L150.883 14.4488V11.6895C150.883 10.4708 151.64 9.74943 152.248 9.74943C152.902 9.74943 153.053 10.2338 153.053 11.5787V14.4514L152.235 14.5158V14.9383C152.843 14.9383 153.151 14.8893 153.869 14.8893C154.59 14.8893 154.924 14.9383 155.532 14.9383V14.5158L154.678 14.4514V11.2154Z" fill="#1D1D1D"/>
<path d="M158.311 14.4769C157.803 14.4769 157.779 14.0543 157.803 13.2814V9.72084H159.191V9.23648H157.803V6.92029C157.803 6.92029 157.11 7.15732 156.178 7.15732V9.23905H155.25V9.72342H156.178V13.3072C156.178 14.2785 156.34 15.1107 157.864 15.1107C159.157 15.1107 159.422 13.9874 159.427 13.9693V13.9668L159.029 13.8173C159.029 13.8173 158.767 14.4769 158.311 14.4769Z" fill="#1D1D1D"/>
<path d="M126.495 19.4568C126.495 18.8101 127.003 18.3489 127.747 18.3489C129.073 18.3489 129.781 19.8664 129.879 20.4152H130.287C130.287 20.0184 130.264 19.6809 130.264 19.0961C130.264 18.6993 130.287 18.4005 130.287 17.9882H129.879C129.879 17.9882 129.817 18.2613 129.607 18.2613C129.409 18.2613 128.876 17.9238 127.847 17.9238C126.718 17.9238 125.194 18.5344 125.194 20.3894C125.194 23.5378 129.471 22.2573 129.471 24.5606C129.471 25.2073 129.063 25.7793 128.044 25.7793C126.423 25.7793 125.615 23.664 125.517 23.1024H125.071C125.071 23.6125 125.106 23.9732 125.106 24.5477C125.106 25.1455 125.071 25.5062 125.071 26.1039H125.479C125.479 26.1039 125.53 25.805 125.789 25.805C126.012 25.805 126.692 26.2533 128.008 26.2533C129.522 26.2533 130.898 25.5191 130.898 23.6898C130.895 20.3534 126.495 21.5746 126.495 19.4568Z" fill="#1D1D1D"/>
<path d="M133.836 20.1785L131.357 20.3021V20.7247C131.978 20.7247 132.201 20.7247 132.201 21.41V25.5168L131.357 25.5812V26.0037C131.965 26.0037 132.299 25.9522 133.017 25.9522C133.735 25.9522 134.084 26.0037 134.68 26.0037V25.5812L133.836 25.5168V20.1785Z" fill="#1D1D1D"/>
<path d="M132.024 18.1511C132.024 18.7617 132.509 19.0992 133.027 19.0992C133.535 19.0992 134.018 18.7617 134.018 18.1511C134.018 17.5405 133.535 17.2056 133.027 17.2056C132.507 17.203 132.024 17.5405 132.024 18.1511Z" fill="#1D1D1D"/>
<path d="M141.21 22.2836C141.21 20.7146 140.465 20.0808 139.424 20.0808C138.444 20.0808 137.774 20.5781 137.353 21.2608H137.34L137.317 20.1787L134.939 20.3024V20.7275C135.57 20.7275 135.78 20.7275 135.78 21.387V25.517L134.939 25.5814V26.004C135.544 26.004 135.88 25.955 136.599 25.955C137.317 25.955 137.641 26.004 138.236 26.004V25.5814L137.417 25.517V22.7551C137.417 21.5365 138.174 20.8151 138.782 20.8151C139.437 20.8151 139.588 21.2995 139.588 22.6443V25.517L138.769 25.5814V26.004C139.378 26.004 139.688 25.955 140.406 25.955C141.125 25.955 141.458 26.004 142.067 26.004V25.5814L141.212 25.517V22.2836H141.21Z" fill="#1D1D1D"/>
<path d="M147.783 25.481C147.509 25.481 147.385 25.2182 147.398 24.8343L147.46 22.482C147.483 21.3123 147.301 20.0808 145.13 20.0808C143.791 20.0808 142.664 20.5781 142.664 21.4618C142.664 21.959 143.013 22.2579 143.496 22.2579C144.004 22.2579 144.327 21.9487 144.327 21.5107C144.327 21.0882 144.055 20.9388 144.055 20.9388C144.117 20.8151 144.389 20.5033 145.009 20.5033C145.815 20.5033 145.902 21.1629 145.866 22.1574V22.768C144.181 22.7551 142.282 22.9045 142.282 24.5225C142.282 25.8288 143.311 26.2281 144.181 26.2281C145.084 26.2281 145.605 25.8288 145.877 25.3057H145.902C146.113 25.9267 146.621 26.1766 147.229 26.1766C148.504 26.1766 148.681 25.043 148.681 25.043L148.273 24.9425C148.265 24.9451 148.142 25.481 147.783 25.481ZM145.81 24.1489C145.784 25.0455 145.24 25.4706 144.758 25.4706C144.237 25.4706 143.952 25.0971 143.952 24.3602C143.952 23.577 144.299 23.1673 145.836 23.1931L145.81 24.1489Z" fill="#1D1D1D"/>
<path d="M151.355 18.1511C151.355 17.5405 150.87 17.2056 150.364 17.2056C149.843 17.2056 149.361 17.5405 149.361 18.1511C149.361 18.7617 149.846 19.0992 150.364 19.0992C150.87 19.0967 151.355 18.7617 151.355 18.1511Z" fill="#1D1D1D"/>
<path d="M151.168 20.1785L148.689 20.3021V20.7247C149.31 20.7247 149.533 20.7247 149.533 21.41V25.5168L148.689 25.5812V26.0037C149.297 26.0037 149.633 25.9522 150.349 25.9522C151.07 25.9522 151.416 26.0037 152.012 26.0037V25.5812L151.168 25.5168V20.1785Z" fill="#1D1D1D"/>
</g>
</svg>
