<svg width="1440" height="1863" viewBox="0 0 1440 1863" fill="none" xmlns="http://www.w3.org/2000/svg">
<path d="M245.312 -1849.52L1030.49 -1400.16L1815.67 -951.625V-380.461L-468.338 925.642L-2751.53 -380.461V-951.625L-1966.35 -1400.16L-1181.99 -1849.52L-468.338 -2257.73L245.312 -1849.52Z" stroke="#B1B8BB" stroke-width="2" stroke-linecap="round" stroke-linejoin="round" stroke-dasharray="0.1 8"/>
<path d="M1314.79 -1748.15L2099.97 -1298.79L2885.15 -850.258V-279.095L601.138 1027.01L-1682.05 -279.095V-850.258L-896.87 -1298.79L-112.512 -1748.15L601.138 -2156.36L1314.79 -1748.15Z" stroke="#B1B8BB" stroke-width="2" stroke-linecap="round" stroke-linejoin="round" stroke-dasharray="0.1 8"/>
<path d="M2072.19 -1807.52L2857.37 -1358.33L3642.55 -909.951V-338.992L1358.54 966.645L-924.647 -338.992V-909.951L-139.467 -1358.33L644.891 -1807.52L1358.54 -2215.59L2072.19 -1807.52Z" stroke="#B1B8BB" stroke-width="2" stroke-linecap="round" stroke-linejoin="round" stroke-dasharray="0.1 8"/>
<path d="M801.121 -647.925L1586.3 -198.566L2371.48 249.97V821.133L87.4707 2127.24L-2195.72 821.133V249.97L-1410.54 -198.566L-626.18 -647.925L87.4707 -1056.13L801.121 -647.925Z" stroke="#B1B8BB" stroke-width="2" stroke-linecap="round" stroke-linejoin="round" stroke-dasharray="0.1 8"/>
<path d="M2053.97 -842.686L2839.15 -393.327L3624.33 55.2089V626.372L1340.32 1932.48L-942.87 626.372V55.2089L-157.69 -393.327L626.668 -842.686L1340.32 -1250.9L2053.97 -842.686Z" stroke="#B1B8BB" stroke-width="2" stroke-linecap="round" stroke-linejoin="round" stroke-dasharray="0.1 8"/>
</svg>
