<svg width="48" height="48" viewBox="0 0 48 48" fill="none" xmlns="http://www.w3.org/2000/svg">
<path d="M14.238 12.144L8.62305 21.111" stroke="#0098DB" stroke-width="2" stroke-miterlimit="10" stroke-linecap="square"/>
<path d="M34.367 12.8211L21.27 6.65405" stroke="#FFB600" stroke-width="2" stroke-miterlimit="10" stroke-linecap="square"/>
<path d="M35.4998 23.1279L22.3818 35.7309" stroke="#FFB600" stroke-width="2" stroke-miterlimit="10" stroke-linecap="square"/>
<path d="M41.8992 20.4509L39.6602 35.7309" stroke="#EE1563" stroke-width="2" stroke-miterlimit="10" stroke-linecap="square"/>
<path d="M10.4048 23.6319L38.5958 17.3679" stroke="#0098DB" stroke-width="2" stroke-miterlimit="10"/>
<path d="M19.5 42.5C21.7091 42.5 23.5 40.7091 23.5 38.5C23.5 36.2909 21.7091 34.5 19.5 34.5C17.2909 34.5 15.5 36.2909 15.5 38.5C15.5 40.7091 17.2909 42.5 19.5 42.5Z" stroke="#FFB600" stroke-width="2" stroke-miterlimit="10"/>
<path d="M6.5 28.5C8.70914 28.5 10.5 26.7091 10.5 24.5C10.5 22.2909 8.70914 20.5 6.5 20.5C4.29086 20.5 2.5 22.2909 2.5 24.5C2.5 26.7091 4.29086 28.5 6.5 28.5Z" stroke="#0098DB" stroke-width="2" stroke-miterlimit="10"/>
<path d="M42.5 20.5C44.7091 20.5 46.5 18.7091 46.5 16.5C46.5 14.2909 44.7091 12.5 42.5 12.5C40.2909 12.5 38.5 14.2909 38.5 16.5C38.5 18.7091 40.2909 20.5 42.5 20.5Z" stroke="#EE1563" stroke-width="2" stroke-miterlimit="10"/>
<path d="M18.5 8.5C20.1569 8.5 21.5 7.15685 21.5 5.5C21.5 3.84315 20.1569 2.5 18.5 2.5C16.8431 2.5 15.5 3.84315 15.5 5.5C15.5 7.15685 16.8431 8.5 18.5 8.5Z" stroke="#FFB600" stroke-width="2" stroke-miterlimit="10"/>
<path d="M38.5 46.5C40.1569 46.5 41.5 45.1569 41.5 43.5C41.5 41.8431 40.1569 40.5 38.5 40.5C36.8431 40.5 35.5 41.8431 35.5 43.5C35.5 45.1569 36.8431 46.5 38.5 46.5Z" stroke="#0098DB" stroke-width="2" stroke-miterlimit="10"/>
</svg>
